<svg xmlns="http://www.w3.org/2000/svg" viewBox="0 0 1200 630" width="1200" height="630" role="img" aria-label="PRICING GUIDE"><defs><linearGradient id="g793b8b" x1="0" y1="0" x2="1" y2="0"><stop offset="0" stop-color="#4B5563"/><stop offset="1" stop-color="#151c26"/></linearGradient><filter id="blur"><feGaussianBlur stdDeviation="55"/></filter><radialGradient id="vig" cx="0.5" cy="0.4" r="0.75"><stop offset="0.6" stop-color="#000000" stop-opacity="0"/><stop offset="1" stop-color="#000000" stop-opacity="0.32"/></radialGradient></defs><rect width="1200" height="630" fill="url(#g793b8b)"/><polygon points="1122,537 50,439 1122,537" fill="#4B5563" opacity="0.3"/><polygon points="951,459 1122,537 708,35" fill="#4B5563" opacity="0.3"/><polygon points="60,522 88,197 945,34" fill="#2FA8C4" opacity="0.13"/><polygon points="708,35 273,602 273,602" fill="#4B5563" opacity="0.27"/><polygon points="60,522 251,591 50,439" fill="#2FA8C4" opacity="0.31"/><polygon points="60,522 107,52 1122,537" fill="#2FA8C4" opacity="0.14"/><polygon points="60,522 50,439 1122,537" fill="#2FA8C4" opacity="0.16"/><polygon points="484,60 935,462 1176,455" fill="#ffffff" opacity="0.26"/><polygon points="945,34 894,127 50,439" fill="#ffffff" opacity="0.22"/><polygon points="50,439 273,602 945,34" fill="#ffffff" opacity="0.17"/><polygon points="708,35 1176,455 484,60" fill="#4B5563" opacity="0.15"/><polygon points="894,127 107,52 484,60" fill="#2FA8C4" opacity="0.16"/><rect width="1200" height="630" fill="url(#vig)"/><text x="44" y="590" font-family="ui-monospace,Menlo,Consolas,monospace" font-size="24" letter-spacing="3" fill="#ffffff" fill-opacity="0.62">PRICING GUIDE</text></svg>