<svg xmlns="http://www.w3.org/2000/svg" viewBox="0 0 1200 630" width="1200" height="630" role="img" aria-label="SEO GUIDE"><defs><linearGradient id="gef590b" x1="0" y1="0" x2="1" y2="1"><stop offset="0" stop-color="#2FA8C4"/><stop offset="1" stop-color="#155869"/></linearGradient><filter id="blur"><feGaussianBlur stdDeviation="55"/></filter><radialGradient id="vig" cx="0.5" cy="0.4" r="0.75"><stop offset="0.6" stop-color="#000000" stop-opacity="0"/><stop offset="1" stop-color="#000000" stop-opacity="0.32"/></radialGradient></defs><rect width="1200" height="630" fill="url(#gef590b)"/><path d="M -50 489 Q 10 446 70 489 Q 130 532 190 489 Q 250 446 310 489 Q 370 532 430 489 Q 490 446 550 489 Q 610 532 670 489 Q 730 446 790 489 Q 850 532 910 489 Q 970 446 1030 489 Q 1090 532 1150 489 Q 1210 446 1270 489 L 1250 680 L -50 680 Z" fill="#2FA8C4" opacity="0.22"/><path d="M -50 475 Q 10 445 70 475 Q 130 505 190 475 Q 250 445 310 475 Q 370 505 430 475 Q 490 445 550 475 Q 610 505 670 475 Q 730 445 790 475 Q 850 505 910 475 Q 970 445 1030 475 Q 1090 505 1150 475 Q 1210 445 1270 475 L 1250 680 L -50 680 Z" fill="#2FA8C4" opacity="0.22"/><path d="M -50 258 Q 10 206 70 258 Q 130 310 190 258 Q 250 206 310 258 Q 370 310 430 258 Q 490 206 550 258 Q 610 310 670 258 Q 730 206 790 258 Q 850 310 910 258 Q 970 206 1030 258 Q 1090 310 1150 258 Q 1210 206 1270 258 L 1250 680 L -50 680 Z" fill="#2FA8C4" opacity="0.22"/><path d="M -50 479 Q 10 416 70 479 Q 130 542 190 479 Q 250 416 310 479 Q 370 542 430 479 Q 490 416 550 479 Q 610 542 670 479 Q 730 416 790 479 Q 850 542 910 479 Q 970 416 1030 479 Q 1090 542 1150 479 Q 1210 416 1270 479 L 1250 680 L -50 680 Z" fill="#ffffff" opacity="0.22"/><rect width="1200" height="630" fill="url(#vig)"/><text x="44" y="590" font-family="ui-monospace,Menlo,Consolas,monospace" font-size="24" letter-spacing="3" fill="#ffffff" fill-opacity="0.62">SEO GUIDE</text></svg>