<svg xmlns="http://www.w3.org/2000/svg" viewBox="0 0 1200 630" width="1200" height="630" role="img" aria-label="DENTAL WEBSITES · BIRMINGHAM"><defs><linearGradient id="gcf03b8" x1="1" y1="0" x2="0" y2="1"><stop offset="0" stop-color="#2FA8C4"/><stop offset="1" stop-color="#155869"/></linearGradient><filter id="blur"><feGaussianBlur stdDeviation="55"/></filter><radialGradient id="vig" cx="0.5" cy="0.4" r="0.75"><stop offset="0.6" stop-color="#000000" stop-opacity="0"/><stop offset="1" stop-color="#000000" stop-opacity="0.32"/></radialGradient></defs><rect width="1200" height="630" fill="url(#gcf03b8)"/><path d="M -50 448 Q 10 397 70 448 Q 130 499 190 448 Q 250 397 310 448 Q 370 499 430 448 Q 490 397 550 448 Q 610 499 670 448 Q 730 397 790 448 Q 850 499 910 448 Q 970 397 1030 448 Q 1090 499 1150 448 Q 1210 397 1270 448 L 1250 680 L -50 680 Z" fill="#1E7E96" opacity="0.22"/><path d="M -50 239 Q 10 206 70 239 Q 130 272 190 239 Q 250 206 310 239 Q 370 272 430 239 Q 490 206 550 239 Q 610 272 670 239 Q 730 206 790 239 Q 850 272 910 239 Q 970 206 1030 239 Q 1090 272 1150 239 Q 1210 206 1270 239 L 1250 680 L -50 680 Z" fill="#ffffff" opacity="0.22"/><path d="M -50 520 Q 10 490 70 520 Q 130 550 190 520 Q 250 490 310 520 Q 370 550 430 520 Q 490 490 550 520 Q 610 550 670 520 Q 730 490 790 520 Q 850 550 910 520 Q 970 490 1030 520 Q 1090 550 1150 520 Q 1210 490 1270 520 L 1250 680 L -50 680 Z" fill="#ffffff" opacity="0.22"/><path d="M -50 287 Q 10 228 70 287 Q 130 346 190 287 Q 250 228 310 287 Q 370 346 430 287 Q 490 228 550 287 Q 610 346 670 287 Q 730 228 790 287 Q 850 346 910 287 Q 970 228 1030 287 Q 1090 346 1150 287 Q 1210 228 1270 287 L 1250 680 L -50 680 Z" fill="#2FA8C4" opacity="0.22"/><path d="M -50 450 Q 10 405 70 450 Q 130 495 190 450 Q 250 405 310 450 Q 370 495 430 450 Q 490 405 550 450 Q 610 495 670 450 Q 730 405 790 450 Q 850 495 910 450 Q 970 405 1030 450 Q 1090 495 1150 450 Q 1210 405 1270 450 L 1250 680 L -50 680 Z" fill="#7A5AF0" opacity="0.22"/><path d="M -50 347 Q 10 317 70 347 Q 130 377 190 347 Q 250 317 310 347 Q 370 377 430 347 Q 490 317 550 347 Q 610 377 670 347 Q 730 317 790 347 Q 850 377 910 347 Q 970 317 1030 347 Q 1090 377 1150 347 Q 1210 317 1270 347 L 1250 680 L -50 680 Z" fill="#1E7E96" opacity="0.22"/><rect width="1200" height="630" fill="url(#vig)"/><text x="44" y="590" font-family="ui-monospace,Menlo,Consolas,monospace" font-size="24" letter-spacing="3" fill="#ffffff" fill-opacity="0.62">DENTAL WEBSITES · BIRMINGHAM</text></svg>