<svg xmlns="http://www.w3.org/2000/svg" viewBox="0 0 1200 630" width="1200" height="630" role="img" aria-label="DENTAL WEBSITES · MANCHESTER"><defs><linearGradient id="gdf9f02" x1="0.2" y1="0" x2="0.8" y2="1"><stop offset="0" stop-color="#2FA8C4"/><stop offset="1" stop-color="#155869"/></linearGradient><filter id="blur"><feGaussianBlur stdDeviation="55"/></filter><radialGradient id="vig" cx="0.5" cy="0.4" r="0.75"><stop offset="0.6" stop-color="#000000" stop-opacity="0"/><stop offset="1" stop-color="#000000" stop-opacity="0.32"/></radialGradient></defs><rect width="1200" height="630" fill="url(#gdf9f02)"/><polygon points="946,26 418,10 577,208" fill="#B7472A" opacity="0.14"/><polygon points="1081,335 577,208 610,586" fill="#1E7E96" opacity="0.15"/><polygon points="946,26 610,586 946,26" fill="#B7472A" opacity="0.11"/><polygon points="418,10 418,10 946,26" fill="#ffffff" opacity="0.22"/><polygon points="656,32 418,10 1081,335" fill="#B7472A" opacity="0.26"/><polygon points="1080,335 946,26 577,208" fill="#2FA8C4" opacity="0.27"/><polygon points="1081,335 656,32 1080,335" fill="#2FA8C4" opacity="0.13"/><polygon points="610,586 610,586 577,208" fill="#ffffff" opacity="0.15"/><polygon points="610,586 946,26 1080,335" fill="#2FA8C4" opacity="0.14"/><polygon points="610,586 946,26 946,26" fill="#1E7E96" opacity="0.28"/><polygon points="20,7 610,586 418,10" fill="#1E7E96" opacity="0.24"/><polygon points="610,586 783,8 946,26" fill="#B7472A" opacity="0.25"/><polygon points="783,8 476,125 20,7" fill="#ffffff" opacity="0.26"/><polygon points="572,47 610,586 476,125" fill="#ffffff" opacity="0.25"/><polygon points="1080,335 1080,335 476,125" fill="#B7472A" opacity="0.2"/><rect width="1200" height="630" fill="url(#vig)"/><text x="44" y="590" font-family="ui-monospace,Menlo,Consolas,monospace" font-size="24" letter-spacing="3" fill="#ffffff" fill-opacity="0.62">DENTAL WEBSITES · MANCHESTER</text></svg>