<svg xmlns="http://www.w3.org/2000/svg" viewBox="0 0 1200 630" width="1200" height="630" role="img" aria-label="DENTAL WEBSITES · READING"><defs><linearGradient id="g36d817" x1="0" y1="0" x2="0" y2="1"><stop offset="0" stop-color="#2FA8C4"/><stop offset="1" stop-color="#155869"/></linearGradient><filter id="blur"><feGaussianBlur stdDeviation="55"/></filter><radialGradient id="vig" cx="0.5" cy="0.4" r="0.75"><stop offset="0.6" stop-color="#000000" stop-opacity="0"/><stop offset="1" stop-color="#000000" stop-opacity="0.32"/></radialGradient></defs><rect width="1200" height="630" fill="url(#g36d817)"/><circle cx="30" cy="30" r="5.4" fill="#C64B3B" opacity="0.5"/><circle cx="85" cy="30" r="6.2" fill="#C64B3B" opacity="0.5"/><circle cx="140" cy="30" r="7.0" fill="#C64B3B" opacity="0.5"/><circle cx="195" cy="30" r="7.5" fill="#C64B3B" opacity="0.5"/><circle cx="250" cy="30" r="7.9" fill="#C64B3B" opacity="0.5"/><circle cx="305" cy="30" r="8.0" fill="#C64B3B" opacity="0.5"/><circle cx="360" cy="30" r="7.9" fill="#C64B3B" opacity="0.5"/><circle cx="415" cy="30" r="7.5" fill="#C64B3B" opacity="0.5"/><circle cx="470" cy="30" r="7.0" fill="#C64B3B" opacity="0.5"/><circle cx="525" cy="30" r="6.3" fill="#C64B3B" opacity="0.5"/><circle cx="580" cy="30" r="5.4" fill="#C64B3B" opacity="0.5"/><circle cx="635" cy="30" r="4.4" fill="#C64B3B" opacity="0.5"/><circle cx="690" cy="30" r="3.4" fill="#C64B3B" opacity="0.5"/><circle cx="745" cy="30" r="4.1" fill="#C64B3B" opacity="0.5"/><circle cx="800" cy="30" r="5.1" fill="#C64B3B" opacity="0.5"/><circle cx="855" cy="30" r="6.0" fill="#C64B3B" opacity="0.5"/><circle cx="910" cy="30" r="6.8" fill="#C64B3B" opacity="0.5"/><circle cx="965" cy="30" r="7.4" fill="#C64B3B" opacity="0.5"/><circle cx="1020" cy="30" r="7.8" fill="#C64B3B" opacity="0.5"/><circle cx="1075" cy="30" r="8.0" fill="#C64B3B" opacity="0.5"/><circle cx="1130" cy="30" r="7.9" fill="#C64B3B" opacity="0.5"/><circle cx="1185" cy="30" r="7.7" fill="#C64B3B" opacity="0.5"/><circle cx="30" cy="85" r="6.2" fill="#C64B3B" opacity="0.5"/><circle cx="85" cy="85" r="7.0" fill="#C64B3B" opacity="0.5"/><circle cx="140" cy="85" r="7.5" fill="#C64B3B" opacity="0.5"/><circle cx="195" cy="85" r="7.9" fill="#C64B3B" opacity="0.5"/><circle cx="250" cy="85" r="8.0" fill="#C64B3B" opacity="0.5"/><circle cx="305" cy="85" r="7.9" fill="#C64B3B" opacity="0.5"/><circle cx="360" cy="85" r="7.5" fill="#C64B3B" opacity="0.5"/><circle cx="415" cy="85" r="7.0" fill="#C64B3B" opacity="0.5"/><circle cx="470" cy="85" r="6.3" fill="#C64B3B" opacity="0.5"/><circle cx="525" cy="85" r="5.4" fill="#C64B3B" opacity="0.5"/><circle cx="580" cy="85" r="4.4" fill="#C64B3B" opacity="0.5"/><circle cx="635" cy="85" r="3.4" fill="#C64B3B" opacity="0.5"/><circle cx="690" cy="85" r="4.1" fill="#C64B3B" opacity="0.5"/><circle cx="745" cy="85" r="5.1" fill="#C64B3B" opacity="0.5"/><circle cx="800" cy="85" r="6.0" fill="#C64B3B" opacity="0.5"/><circle cx="855" cy="85" r="6.8" fill="#C64B3B" opacity="0.5"/><circle cx="910" cy="85" r="7.4" fill="#C64B3B" opacity="0.5"/><circle cx="965" cy="85" r="7.8" fill="#C64B3B" opacity="0.5"/><circle cx="1020" cy="85" r="8.0" fill="#C64B3B" opacity="0.5"/><circle cx="1075" cy="85" r="7.9" fill="#C64B3B" opacity="0.5"/><circle cx="1130" cy="85" r="7.7" fill="#C64B3B" opacity="0.5"/><circle cx="1185" cy="85" r="7.2" fill="#C64B3B" opacity="0.5"/><circle cx="30" cy="140" r="7.0" fill="#C64B3B" opacity="0.5"/><circle cx="85" cy="140" r="7.5" fill="#C64B3B" opacity="0.5"/><circle cx="140" cy="140" r="7.9" fill="#C64B3B" opacity="0.5"/><circle cx="195" cy="140" r="8.0" fill="#C64B3B" opacity="0.5"/><circle cx="250" cy="140" r="7.9" fill="#C64B3B" opacity="0.5"/><circle cx="305" cy="140" r="7.5" fill="#C64B3B" opacity="0.5"/><circle cx="360" cy="140" r="7.0" fill="#C64B3B" opacity="0.5"/><circle cx="415" cy="140" r="6.3" fill="#C64B3B" opacity="0.5"/><circle cx="470" cy="140" r="5.4" fill="#C64B3B" opacity="0.5"/><circle cx="525" cy="140" r="4.4" fill="#C64B3B" opacity="0.5"/><circle cx="580" cy="140" r="3.4" fill="#C64B3B" opacity="0.5"/><circle cx="635" cy="140" r="4.1" fill="#C64B3B" opacity="0.5"/><circle cx="690" cy="140" r="5.1" fill="#C64B3B" opacity="0.5"/><circle cx="745" cy="140" r="6.0" fill="#C64B3B" opacity="0.5"/><circle cx="800" cy="140" r="6.8" fill="#C64B3B" opacity="0.5"/><circle cx="855" cy="140" r="7.4" fill="#C64B3B" opacity="0.5"/><circle cx="910" cy="140" r="7.8" fill="#C64B3B" opacity="0.5"/><circle cx="965" cy="140" r="8.0" fill="#C64B3B" opacity="0.5"/><circle cx="1020" cy="140" r="7.9" fill="#C64B3B" opacity="0.5"/><circle cx="1075" cy="140" r="7.7" fill="#C64B3B" opacity="0.5"/><circle cx="1130" cy="140" r="7.2" fill="#C64B3B" opacity="0.5"/><circle cx="1185" cy="140" r="6.5" fill="#C64B3B" opacity="0.5"/><circle cx="30" cy="195" r="7.5" fill="#C64B3B" opacity="0.5"/><circle cx="85" cy="195" r="7.9" fill="#C64B3B" opacity="0.5"/><circle cx="140" cy="195" r="8.0" fill="#C64B3B" opacity="0.5"/><circle cx="195" cy="195" r="7.9" fill="#C64B3B" opacity="0.5"/><circle cx="250" cy="195" r="7.5" fill="#C64B3B" opacity="0.5"/><circle cx="305" cy="195" r="7.0" fill="#C64B3B" opacity="0.5"/><circle cx="360" cy="195" r="6.3" fill="#C64B3B" opacity="0.5"/><circle cx="415" cy="195" r="5.4" fill="#C64B3B" opacity="0.5"/><circle cx="470" cy="195" r="4.4" fill="#C64B3B" opacity="0.5"/><circle cx="525" cy="195" r="3.4" fill="#C64B3B" opacity="0.5"/><circle cx="580" cy="195" r="4.1" fill="#C64B3B" opacity="0.5"/><circle cx="635" cy="195" r="5.1" fill="#C64B3B" opacity="0.5"/><circle cx="690" cy="195" r="6.0" fill="#C64B3B" opacity="0.5"/><circle cx="745" cy="195" r="6.8" fill="#C64B3B" opacity="0.5"/><circle cx="800" cy="195" r="7.4" fill="#C64B3B" opacity="0.5"/><circle cx="855" cy="195" r="7.8" fill="#C64B3B" opacity="0.5"/><circle cx="910" cy="195" r="8.0" fill="#C64B3B" opacity="0.5"/><circle cx="965" cy="195" r="7.9" fill="#C64B3B" opacity="0.5"/><circle cx="1020" cy="195" r="7.7" fill="#C64B3B" opacity="0.5"/><circle cx="1075" cy="195" r="7.2" fill="#C64B3B" opacity="0.5"/><circle cx="1130" cy="195" r="6.5" fill="#C64B3B" opacity="0.5"/><circle cx="1185" cy="195" r="5.6" fill="#C64B3B" opacity="0.5"/><circle cx="30" cy="250" r="7.9" fill="#C64B3B" opacity="0.5"/><circle cx="85" cy="250" r="8.0" fill="#C64B3B" opacity="0.5"/><circle cx="140" cy="250" r="7.9" fill="#C64B3B" opacity="0.5"/><circle cx="195" cy="250" r="7.5" fill="#C64B3B" opacity="0.5"/><circle cx="250" cy="250" r="7.0" fill="#C64B3B" opacity="0.5"/><circle cx="305" cy="250" r="6.3" fill="#C64B3B" opacity="0.5"/><circle cx="360" cy="250" r="5.4" fill="#C64B3B" opacity="0.5"/><circle cx="415" cy="250" r="4.4" fill="#C64B3B" opacity="0.5"/><circle cx="470" cy="250" r="3.4" fill="#C64B3B" opacity="0.5"/><circle cx="525" cy="250" r="4.1" fill="#C64B3B" opacity="0.5"/><circle cx="580" cy="250" r="5.1" fill="#C64B3B" opacity="0.5"/><circle cx="635" cy="250" r="6.0" fill="#C64B3B" opacity="0.5"/><circle cx="690" cy="250" r="6.8" fill="#C64B3B" opacity="0.5"/><circle cx="745" cy="250" r="7.4" fill="#C64B3B" opacity="0.5"/><circle cx="800" cy="250" r="7.8" fill="#C64B3B" opacity="0.5"/><circle cx="855" cy="250" r="8.0" fill="#C64B3B" opacity="0.5"/><circle cx="910" cy="250" r="7.9" fill="#C64B3B" opacity="0.5"/><circle cx="965" cy="250" r="7.7" fill="#C64B3B" opacity="0.5"/><circle cx="1020" cy="250" r="7.2" fill="#C64B3B" opacity="0.5"/><circle cx="1075" cy="250" r="6.5" fill="#C64B3B" opacity="0.5"/><circle cx="1130" cy="250" r="5.6" fill="#C64B3B" opacity="0.5"/><circle cx="1185" cy="250" r="4.7" fill="#C64B3B" opacity="0.5"/><circle cx="30" cy="305" r="8.0" fill="#C64B3B" opacity="0.5"/><circle cx="85" cy="305" r="7.9" fill="#C64B3B" opacity="0.5"/><circle cx="140" cy="305" r="7.5" fill="#C64B3B" opacity="0.5"/><circle cx="195" cy="305" r="7.0" fill="#C64B3B" opacity="0.5"/><circle cx="250" cy="305" r="6.3" fill="#C64B3B" opacity="0.5"/><circle cx="305" cy="305" r="5.4" fill="#C64B3B" opacity="0.5"/><circle cx="360" cy="305" r="4.4" fill="#C64B3B" opacity="0.5"/><circle cx="415" cy="305" r="3.4" fill="#C64B3B" opacity="0.5"/><circle cx="470" cy="305" r="4.1" fill="#C64B3B" opacity="0.5"/><circle cx="525" cy="305" r="5.1" fill="#C64B3B" opacity="0.5"/><circle cx="580" cy="305" r="6.0" fill="#C64B3B" opacity="0.5"/><circle cx="635" cy="305" r="6.8" fill="#C64B3B" opacity="0.5"/><circle cx="690" cy="305" r="7.4" fill="#C64B3B" opacity="0.5"/><circle cx="745" cy="305" r="7.8" fill="#C64B3B" opacity="0.5"/><circle cx="800" cy="305" r="8.0" fill="#C64B3B" opacity="0.5"/><circle cx="855" cy="305" r="7.9" fill="#C64B3B" opacity="0.5"/><circle cx="910" cy="305" r="7.7" fill="#C64B3B" opacity="0.5"/><circle cx="965" cy="305" r="7.2" fill="#C64B3B" opacity="0.5"/><circle cx="1020" cy="305" r="6.5" fill="#C64B3B" opacity="0.5"/><circle cx="1075" cy="305" r="5.6" fill="#C64B3B" opacity="0.5"/><circle cx="1130" cy="305" r="4.7" fill="#C64B3B" opacity="0.5"/><circle cx="1185" cy="305" r="3.7" fill="#C64B3B" opacity="0.5"/><circle cx="30" cy="360" r="7.9" fill="#C64B3B" opacity="0.5"/><circle cx="85" cy="360" r="7.5" fill="#C64B3B" opacity="0.5"/><circle cx="140" cy="360" r="7.0" fill="#C64B3B" opacity="0.5"/><circle cx="195" cy="360" r="6.3" fill="#C64B3B" opacity="0.5"/><circle cx="250" cy="360" r="5.4" fill="#C64B3B" opacity="0.5"/><circle cx="305" cy="360" r="4.4" fill="#C64B3B" opacity="0.5"/><circle cx="360" cy="360" r="3.4" fill="#C64B3B" opacity="0.5"/><circle cx="415" cy="360" r="4.1" fill="#C64B3B" opacity="0.5"/><circle cx="470" cy="360" r="5.1" fill="#C64B3B" opacity="0.5"/><circle cx="525" cy="360" r="6.0" fill="#C64B3B" opacity="0.5"/><circle cx="580" cy="360" r="6.8" fill="#C64B3B" opacity="0.5"/><circle cx="635" cy="360" r="7.4" fill="#C64B3B" opacity="0.5"/><circle cx="690" cy="360" r="7.8" fill="#C64B3B" opacity="0.5"/><circle cx="745" cy="360" r="8.0" fill="#C64B3B" opacity="0.5"/><circle cx="800" cy="360" r="7.9" fill="#C64B3B" opacity="0.5"/><circle cx="855" cy="360" r="7.7" fill="#C64B3B" opacity="0.5"/><circle cx="910" cy="360" r="7.2" fill="#C64B3B" opacity="0.5"/><circle cx="965" cy="360" r="6.5" fill="#C64B3B" opacity="0.5"/><circle cx="1020" cy="360" r="5.6" fill="#C64B3B" opacity="0.5"/><circle cx="1075" cy="360" r="4.7" fill="#C64B3B" opacity="0.5"/><circle cx="1130" cy="360" r="3.7" fill="#C64B3B" opacity="0.5"/><circle cx="1185" cy="360" r="3.8" fill="#C64B3B" opacity="0.5"/><circle cx="30" cy="415" r="7.5" fill="#C64B3B" opacity="0.5"/><circle cx="85" cy="415" r="7.0" fill="#C64B3B" opacity="0.5"/><circle cx="140" cy="415" r="6.3" fill="#C64B3B" opacity="0.5"/><circle cx="195" cy="415" r="5.4" fill="#C64B3B" opacity="0.5"/><circle cx="250" cy="415" r="4.4" fill="#C64B3B" opacity="0.5"/><circle cx="305" cy="415" r="3.4" fill="#C64B3B" opacity="0.5"/><circle cx="360" cy="415" r="4.1" fill="#C64B3B" opacity="0.5"/><circle cx="415" cy="415" r="5.1" fill="#C64B3B" opacity="0.5"/><circle cx="470" cy="415" r="6.0" fill="#C64B3B" opacity="0.5"/><circle cx="525" cy="415" r="6.8" fill="#C64B3B" opacity="0.5"/><circle cx="580" cy="415" r="7.4" fill="#C64B3B" opacity="0.5"/><circle cx="635" cy="415" r="7.8" fill="#C64B3B" opacity="0.5"/><circle cx="690" cy="415" r="8.0" fill="#C64B3B" opacity="0.5"/><circle cx="745" cy="415" r="7.9" fill="#C64B3B" opacity="0.5"/><circle cx="800" cy="415" r="7.7" fill="#C64B3B" opacity="0.5"/><circle cx="855" cy="415" r="7.2" fill="#C64B3B" opacity="0.5"/><circle cx="910" cy="415" r="6.5" fill="#C64B3B" opacity="0.5"/><circle cx="965" cy="415" r="5.6" fill="#C64B3B" opacity="0.5"/><circle cx="1020" cy="415" r="4.7" fill="#C64B3B" opacity="0.5"/><circle cx="1075" cy="415" r="3.7" fill="#C64B3B" opacity="0.5"/><circle cx="1130" cy="415" r="3.8" fill="#C64B3B" opacity="0.5"/><circle cx="1185" cy="415" r="4.8" fill="#C64B3B" opacity="0.5"/><circle cx="30" cy="470" r="7.0" fill="#C64B3B" opacity="0.5"/><circle cx="85" cy="470" r="6.3" fill="#C64B3B" opacity="0.5"/><circle cx="140" cy="470" r="5.4" fill="#C64B3B" opacity="0.5"/><circle cx="195" cy="470" r="4.4" fill="#C64B3B" opacity="0.5"/><circle cx="250" cy="470" r="3.4" fill="#C64B3B" opacity="0.5"/><circle cx="305" cy="470" r="4.1" fill="#C64B3B" opacity="0.5"/><circle cx="360" cy="470" r="5.1" fill="#C64B3B" opacity="0.5"/><circle cx="415" cy="470" r="6.0" fill="#C64B3B" opacity="0.5"/><circle cx="470" cy="470" r="6.8" fill="#C64B3B" opacity="0.5"/><circle cx="525" cy="470" r="7.4" fill="#C64B3B" opacity="0.5"/><circle cx="580" cy="470" r="7.8" fill="#C64B3B" opacity="0.5"/><circle cx="635" cy="470" r="8.0" fill="#C64B3B" opacity="0.5"/><circle cx="690" cy="470" r="7.9" fill="#C64B3B" opacity="0.5"/><circle cx="745" cy="470" r="7.7" fill="#C64B3B" opacity="0.5"/><circle cx="800" cy="470" r="7.2" fill="#C64B3B" opacity="0.5"/><circle cx="855" cy="470" r="6.5" fill="#C64B3B" opacity="0.5"/><circle cx="910" cy="470" r="5.6" fill="#C64B3B" opacity="0.5"/><circle cx="965" cy="470" r="4.7" fill="#C64B3B" opacity="0.5"/><circle cx="1020" cy="470" r="3.7" fill="#C64B3B" opacity="0.5"/><circle cx="1075" cy="470" r="3.8" fill="#C64B3B" opacity="0.5"/><circle cx="1130" cy="470" r="4.8" fill="#C64B3B" opacity="0.5"/><circle cx="1185" cy="470" r="5.8" fill="#C64B3B" opacity="0.5"/><circle cx="30" cy="525" r="6.3" fill="#C64B3B" opacity="0.5"/><circle cx="85" cy="525" r="5.4" fill="#C64B3B" opacity="0.5"/><circle cx="140" cy="525" r="4.4" fill="#C64B3B" opacity="0.5"/><circle cx="195" cy="525" r="3.4" fill="#C64B3B" opacity="0.5"/><circle cx="250" cy="525" r="4.1" fill="#C64B3B" opacity="0.5"/><circle cx="305" cy="525" r="5.1" fill="#C64B3B" opacity="0.5"/><circle cx="360" cy="525" r="6.0" fill="#C64B3B" opacity="0.5"/><circle cx="415" cy="525" r="6.8" fill="#C64B3B" opacity="0.5"/><circle cx="470" cy="525" r="7.4" fill="#C64B3B" opacity="0.5"/><circle cx="525" cy="525" r="7.8" fill="#C64B3B" opacity="0.5"/><circle cx="580" cy="525" r="8.0" fill="#C64B3B" opacity="0.5"/><circle cx="635" cy="525" r="7.9" fill="#C64B3B" opacity="0.5"/><circle cx="690" cy="525" r="7.7" fill="#C64B3B" opacity="0.5"/><circle cx="745" cy="525" r="7.2" fill="#C64B3B" opacity="0.5"/><circle cx="800" cy="525" r="6.5" fill="#C64B3B" opacity="0.5"/><circle cx="855" cy="525" r="5.6" fill="#C64B3B" opacity="0.5"/><circle cx="910" cy="525" r="4.7" fill="#C64B3B" opacity="0.5"/><circle cx="965" cy="525" r="3.7" fill="#C64B3B" opacity="0.5"/><circle cx="1020" cy="525" r="3.8" fill="#C64B3B" opacity="0.5"/><circle cx="1075" cy="525" r="4.8" fill="#C64B3B" opacity="0.5"/><circle cx="1130" cy="525" r="5.8" fill="#C64B3B" opacity="0.5"/><circle cx="1185" cy="525" r="6.6" fill="#C64B3B" opacity="0.5"/><circle cx="30" cy="580" r="5.4" fill="#C64B3B" opacity="0.5"/><circle cx="85" cy="580" r="4.4" fill="#C64B3B" opacity="0.5"/><circle cx="140" cy="580" r="3.4" fill="#C64B3B" opacity="0.5"/><circle cx="195" cy="580" r="4.1" fill="#C64B3B" opacity="0.5"/><circle cx="250" cy="580" r="5.1" fill="#C64B3B" opacity="0.5"/><circle cx="305" cy="580" r="6.0" fill="#C64B3B" opacity="0.5"/><circle cx="360" cy="580" r="6.8" fill="#C64B3B" opacity="0.5"/><circle cx="415" cy="580" r="7.4" fill="#C64B3B" opacity="0.5"/><circle cx="470" cy="580" r="7.8" fill="#C64B3B" opacity="0.5"/><circle cx="525" cy="580" r="8.0" fill="#C64B3B" opacity="0.5"/><circle cx="580" cy="580" r="7.9" fill="#C64B3B" opacity="0.5"/><circle cx="635" cy="580" r="7.7" fill="#C64B3B" opacity="0.5"/><circle cx="690" cy="580" r="7.2" fill="#C64B3B" opacity="0.5"/><circle cx="745" cy="580" r="6.5" fill="#C64B3B" opacity="0.5"/><circle cx="800" cy="580" r="5.6" fill="#C64B3B" opacity="0.5"/><circle cx="855" cy="580" r="4.7" fill="#C64B3B" opacity="0.5"/><circle cx="910" cy="580" r="3.7" fill="#C64B3B" opacity="0.5"/><circle cx="965" cy="580" r="3.8" fill="#C64B3B" opacity="0.5"/><circle cx="1020" cy="580" r="4.8" fill="#C64B3B" opacity="0.5"/><circle cx="1075" cy="580" r="5.8" fill="#C64B3B" opacity="0.5"/><circle cx="1130" cy="580" r="6.6" fill="#C64B3B" opacity="0.5"/><circle cx="1185" cy="580" r="7.3" fill="#C64B3B" opacity="0.5"/><rect width="1200" height="630" fill="url(#vig)"/><text x="44" y="590" font-family="ui-monospace,Menlo,Consolas,monospace" font-size="24" letter-spacing="3" fill="#ffffff" fill-opacity="0.62">DENTAL WEBSITES · READING</text></svg>