<svg xmlns="http://www.w3.org/2000/svg" viewBox="0 0 1200 630" width="1200" height="630" role="img" aria-label="DENTAL WEBSITES · ISLINGTON"><defs><linearGradient id="g4f2715" x1="0.2" y1="0" x2="0.8" y2="1"><stop offset="0" stop-color="#2FA8C4"/><stop offset="1" stop-color="#155869"/></linearGradient><filter id="blur"><feGaussianBlur stdDeviation="55"/></filter><radialGradient id="vig" cx="0.5" cy="0.4" r="0.75"><stop offset="0.6" stop-color="#000000" stop-opacity="0"/><stop offset="1" stop-color="#000000" stop-opacity="0.32"/></radialGradient></defs><rect width="1200" height="630" fill="url(#g4f2715)"/><rect x="-300" y="-200" width="124" height="1030" fill="#1E7E96" opacity="0.31" transform="rotate(-20 600 315)"/><rect x="-97" y="-200" width="129" height="1030" fill="#ffffff" opacity="0.24" transform="rotate(-20 600 315)"/><rect x="83" y="-200" width="94" height="1030" fill="#2FA8C4" opacity="0.3" transform="rotate(-20 600 315)"/><rect x="249" y="-200" width="100" height="1030" fill="#E5892B" opacity="0.34" transform="rotate(-20 600 315)"/><rect x="395" y="-200" width="77" height="1030" fill="#ffffff" opacity="0.23" transform="rotate(-20 600 315)"/><rect x="518" y="-200" width="129" height="1030" fill="#E5892B" opacity="0.25" transform="rotate(-20 600 315)"/><rect x="687" y="-200" width="112" height="1030" fill="#1E7E96" opacity="0.18" transform="rotate(-20 600 315)"/><rect x="865" y="-200" width="65" height="1030" fill="#2FA8C4" opacity="0.2" transform="rotate(-20 600 315)"/><rect x="986" y="-200" width="120" height="1030" fill="#E5892B" opacity="0.19" transform="rotate(-20 600 315)"/><rect x="1186" y="-200" width="57" height="1030" fill="#E5892B" opacity="0.36" transform="rotate(-20 600 315)"/><rect x="1288" y="-200" width="108" height="1030" fill="#ffffff" opacity="0.36" transform="rotate(-20 600 315)"/><rect x="1436" y="-200" width="106" height="1030" fill="#ffffff" opacity="0.3" transform="rotate(-20 600 315)"/><rect width="1200" height="630" fill="url(#vig)"/><text x="44" y="590" font-family="ui-monospace,Menlo,Consolas,monospace" font-size="24" letter-spacing="3" fill="#ffffff" fill-opacity="0.62">DENTAL WEBSITES · ISLINGTON</text></svg>