<svg xmlns="http://www.w3.org/2000/svg" viewBox="0 0 1200 630" width="1200" height="630" role="img" aria-label="DENTAL WEBSITES · CAMDEN"><defs><linearGradient id="g64e140" x1="1" y1="0" x2="0" y2="1"><stop offset="0" stop-color="#2FA8C4"/><stop offset="1" stop-color="#155869"/></linearGradient><filter id="blur"><feGaussianBlur stdDeviation="55"/></filter><radialGradient id="vig" cx="0.5" cy="0.4" r="0.75"><stop offset="0.6" stop-color="#000000" stop-opacity="0"/><stop offset="1" stop-color="#000000" stop-opacity="0.32"/></radialGradient></defs><rect width="1200" height="630" fill="url(#g64e140)"/><circle cx="30" cy="30" r="5.1" fill="#2FA8C4" opacity="0.5"/><circle cx="87" cy="30" r="6.0" fill="#2FA8C4" opacity="0.5"/><circle cx="144" cy="30" r="6.8" fill="#2FA8C4" opacity="0.5"/><circle cx="201" cy="30" r="7.4" fill="#2FA8C4" opacity="0.5"/><circle cx="258" cy="30" r="7.8" fill="#2FA8C4" opacity="0.5"/><circle cx="315" cy="30" r="8.0" fill="#2FA8C4" opacity="0.5"/><circle cx="372" cy="30" r="7.9" fill="#2FA8C4" opacity="0.5"/><circle cx="429" cy="30" r="7.6" fill="#2FA8C4" opacity="0.5"/><circle cx="486" cy="30" r="7.0" fill="#2FA8C4" opacity="0.5"/><circle cx="543" cy="30" r="6.2" fill="#2FA8C4" opacity="0.5"/><circle cx="600" cy="30" r="5.3" fill="#2FA8C4" opacity="0.5"/><circle cx="657" cy="30" r="4.3" fill="#2FA8C4" opacity="0.5"/><circle cx="714" cy="30" r="3.2" fill="#2FA8C4" opacity="0.5"/><circle cx="771" cy="30" r="4.3" fill="#2FA8C4" opacity="0.5"/><circle cx="828" cy="30" r="5.3" fill="#2FA8C4" opacity="0.5"/><circle cx="885" cy="30" r="6.2" fill="#2FA8C4" opacity="0.5"/><circle cx="942" cy="30" r="7.0" fill="#2FA8C4" opacity="0.5"/><circle cx="999" cy="30" r="7.6" fill="#2FA8C4" opacity="0.5"/><circle cx="1056" cy="30" r="7.9" fill="#2FA8C4" opacity="0.5"/><circle cx="1113" cy="30" r="8.0" fill="#2FA8C4" opacity="0.5"/><circle cx="1170" cy="30" r="7.9" fill="#2FA8C4" opacity="0.5"/><circle cx="30" cy="87" r="6.0" fill="#2FA8C4" opacity="0.5"/><circle cx="87" cy="87" r="6.8" fill="#2FA8C4" opacity="0.5"/><circle cx="144" cy="87" r="7.4" fill="#2FA8C4" opacity="0.5"/><circle cx="201" cy="87" r="7.8" fill="#2FA8C4" opacity="0.5"/><circle cx="258" cy="87" r="8.0" fill="#2FA8C4" opacity="0.5"/><circle cx="315" cy="87" r="7.9" fill="#2FA8C4" opacity="0.5"/><circle cx="372" cy="87" r="7.6" fill="#2FA8C4" opacity="0.5"/><circle cx="429" cy="87" r="7.0" fill="#2FA8C4" opacity="0.5"/><circle cx="486" cy="87" r="6.2" fill="#2FA8C4" opacity="0.5"/><circle cx="543" cy="87" r="5.3" fill="#2FA8C4" opacity="0.5"/><circle cx="600" cy="87" r="4.3" fill="#2FA8C4" opacity="0.5"/><circle cx="657" cy="87" r="3.2" fill="#2FA8C4" opacity="0.5"/><circle cx="714" cy="87" r="4.3" fill="#2FA8C4" opacity="0.5"/><circle cx="771" cy="87" r="5.3" fill="#2FA8C4" opacity="0.5"/><circle cx="828" cy="87" r="6.2" fill="#2FA8C4" opacity="0.5"/><circle cx="885" cy="87" r="7.0" fill="#2FA8C4" opacity="0.5"/><circle cx="942" cy="87" r="7.6" fill="#2FA8C4" opacity="0.5"/><circle cx="999" cy="87" r="7.9" fill="#2FA8C4" opacity="0.5"/><circle cx="1056" cy="87" r="8.0" fill="#2FA8C4" opacity="0.5"/><circle cx="1113" cy="87" r="7.9" fill="#2FA8C4" opacity="0.5"/><circle cx="1170" cy="87" r="7.5" fill="#2FA8C4" opacity="0.5"/><circle cx="30" cy="144" r="6.8" fill="#2FA8C4" opacity="0.5"/><circle cx="87" cy="144" r="7.4" fill="#2FA8C4" opacity="0.5"/><circle cx="144" cy="144" r="7.8" fill="#2FA8C4" opacity="0.5"/><circle cx="201" cy="144" r="8.0" fill="#2FA8C4" opacity="0.5"/><circle cx="258" cy="144" r="7.9" fill="#2FA8C4" opacity="0.5"/><circle cx="315" cy="144" r="7.6" fill="#2FA8C4" opacity="0.5"/><circle cx="372" cy="144" r="7.0" fill="#2FA8C4" opacity="0.5"/><circle cx="429" cy="144" r="6.2" fill="#2FA8C4" opacity="0.5"/><circle cx="486" cy="144" r="5.3" fill="#2FA8C4" opacity="0.5"/><circle cx="543" cy="144" r="4.3" fill="#2FA8C4" opacity="0.5"/><circle cx="600" cy="144" r="3.2" fill="#2FA8C4" opacity="0.5"/><circle cx="657" cy="144" r="4.3" fill="#2FA8C4" opacity="0.5"/><circle cx="714" cy="144" r="5.3" fill="#2FA8C4" opacity="0.5"/><circle cx="771" cy="144" r="6.2" fill="#2FA8C4" opacity="0.5"/><circle cx="828" cy="144" r="7.0" fill="#2FA8C4" opacity="0.5"/><circle cx="885" cy="144" r="7.6" fill="#2FA8C4" opacity="0.5"/><circle cx="942" cy="144" r="7.9" fill="#2FA8C4" opacity="0.5"/><circle cx="999" cy="144" r="8.0" fill="#2FA8C4" opacity="0.5"/><circle cx="1056" cy="144" r="7.9" fill="#2FA8C4" opacity="0.5"/><circle cx="1113" cy="144" r="7.5" fill="#2FA8C4" opacity="0.5"/><circle cx="1170" cy="144" r="6.9" fill="#2FA8C4" opacity="0.5"/><circle cx="30" cy="201" r="7.4" fill="#2FA8C4" opacity="0.5"/><circle cx="87" cy="201" r="7.8" fill="#2FA8C4" opacity="0.5"/><circle cx="144" cy="201" r="8.0" fill="#2FA8C4" opacity="0.5"/><circle cx="201" cy="201" r="7.9" fill="#2FA8C4" opacity="0.5"/><circle cx="258" cy="201" r="7.6" fill="#2FA8C4" opacity="0.5"/><circle cx="315" cy="201" r="7.0" fill="#2FA8C4" opacity="0.5"/><circle cx="372" cy="201" r="6.2" fill="#2FA8C4" opacity="0.5"/><circle cx="429" cy="201" r="5.3" fill="#2FA8C4" opacity="0.5"/><circle cx="486" cy="201" r="4.3" fill="#2FA8C4" opacity="0.5"/><circle cx="543" cy="201" r="3.2" fill="#2FA8C4" opacity="0.5"/><circle cx="600" cy="201" r="4.3" fill="#2FA8C4" opacity="0.5"/><circle cx="657" cy="201" r="5.3" fill="#2FA8C4" opacity="0.5"/><circle cx="714" cy="201" r="6.2" fill="#2FA8C4" opacity="0.5"/><circle cx="771" cy="201" r="7.0" fill="#2FA8C4" opacity="0.5"/><circle cx="828" cy="201" r="7.6" fill="#2FA8C4" opacity="0.5"/><circle cx="885" cy="201" r="7.9" fill="#2FA8C4" opacity="0.5"/><circle cx="942" cy="201" r="8.0" fill="#2FA8C4" opacity="0.5"/><circle cx="999" cy="201" r="7.9" fill="#2FA8C4" opacity="0.5"/><circle cx="1056" cy="201" r="7.5" fill="#2FA8C4" opacity="0.5"/><circle cx="1113" cy="201" r="6.9" fill="#2FA8C4" opacity="0.5"/><circle cx="1170" cy="201" r="6.1" fill="#2FA8C4" opacity="0.5"/><circle cx="30" cy="258" r="7.8" fill="#2FA8C4" opacity="0.5"/><circle cx="87" cy="258" r="8.0" fill="#2FA8C4" opacity="0.5"/><circle cx="144" cy="258" r="7.9" fill="#2FA8C4" opacity="0.5"/><circle cx="201" cy="258" r="7.6" fill="#2FA8C4" opacity="0.5"/><circle cx="258" cy="258" r="7.0" fill="#2FA8C4" opacity="0.5"/><circle cx="315" cy="258" r="6.2" fill="#2FA8C4" opacity="0.5"/><circle cx="372" cy="258" r="5.3" fill="#2FA8C4" opacity="0.5"/><circle cx="429" cy="258" r="4.3" fill="#2FA8C4" opacity="0.5"/><circle cx="486" cy="258" r="3.2" fill="#2FA8C4" opacity="0.5"/><circle cx="543" cy="258" r="4.3" fill="#2FA8C4" opacity="0.5"/><circle cx="600" cy="258" r="5.3" fill="#2FA8C4" opacity="0.5"/><circle cx="657" cy="258" r="6.2" fill="#2FA8C4" opacity="0.5"/><circle cx="714" cy="258" r="7.0" fill="#2FA8C4" opacity="0.5"/><circle cx="771" cy="258" r="7.6" fill="#2FA8C4" opacity="0.5"/><circle cx="828" cy="258" r="7.9" fill="#2FA8C4" opacity="0.5"/><circle cx="885" cy="258" r="8.0" fill="#2FA8C4" opacity="0.5"/><circle cx="942" cy="258" r="7.9" fill="#2FA8C4" opacity="0.5"/><circle cx="999" cy="258" r="7.5" fill="#2FA8C4" opacity="0.5"/><circle cx="1056" cy="258" r="6.9" fill="#2FA8C4" opacity="0.5"/><circle cx="1113" cy="258" r="6.1" fill="#2FA8C4" opacity="0.5"/><circle cx="1170" cy="258" r="5.1" fill="#2FA8C4" opacity="0.5"/><circle cx="30" cy="315" r="8.0" fill="#2FA8C4" opacity="0.5"/><circle cx="87" cy="315" r="7.9" fill="#2FA8C4" opacity="0.5"/><circle cx="144" cy="315" r="7.6" fill="#2FA8C4" opacity="0.5"/><circle cx="201" cy="315" r="7.0" fill="#2FA8C4" opacity="0.5"/><circle cx="258" cy="315" r="6.2" fill="#2FA8C4" opacity="0.5"/><circle cx="315" cy="315" r="5.3" fill="#2FA8C4" opacity="0.5"/><circle cx="372" cy="315" r="4.3" fill="#2FA8C4" opacity="0.5"/><circle cx="429" cy="315" r="3.2" fill="#2FA8C4" opacity="0.5"/><circle cx="486" cy="315" r="4.3" fill="#2FA8C4" opacity="0.5"/><circle cx="543" cy="315" r="5.3" fill="#2FA8C4" opacity="0.5"/><circle cx="600" cy="315" r="6.2" fill="#2FA8C4" opacity="0.5"/><circle cx="657" cy="315" r="7.0" fill="#2FA8C4" opacity="0.5"/><circle cx="714" cy="315" r="7.6" fill="#2FA8C4" opacity="0.5"/><circle cx="771" cy="315" r="7.9" fill="#2FA8C4" opacity="0.5"/><circle cx="828" cy="315" r="8.0" fill="#2FA8C4" opacity="0.5"/><circle cx="885" cy="315" r="7.9" fill="#2FA8C4" opacity="0.5"/><circle cx="942" cy="315" r="7.5" fill="#2FA8C4" opacity="0.5"/><circle cx="999" cy="315" r="6.9" fill="#2FA8C4" opacity="0.5"/><circle cx="1056" cy="315" r="6.1" fill="#2FA8C4" opacity="0.5"/><circle cx="1113" cy="315" r="5.1" fill="#2FA8C4" opacity="0.5"/><circle cx="1170" cy="315" r="4.1" fill="#2FA8C4" opacity="0.5"/><circle cx="30" cy="372" r="7.9" fill="#2FA8C4" opacity="0.5"/><circle cx="87" cy="372" r="7.6" fill="#2FA8C4" opacity="0.5"/><circle cx="144" cy="372" r="7.0" fill="#2FA8C4" opacity="0.5"/><circle cx="201" cy="372" r="6.2" fill="#2FA8C4" opacity="0.5"/><circle cx="258" cy="372" r="5.3" fill="#2FA8C4" opacity="0.5"/><circle cx="315" cy="372" r="4.3" fill="#2FA8C4" opacity="0.5"/><circle cx="372" cy="372" r="3.2" fill="#2FA8C4" opacity="0.5"/><circle cx="429" cy="372" r="4.3" fill="#2FA8C4" opacity="0.5"/><circle cx="486" cy="372" r="5.3" fill="#2FA8C4" opacity="0.5"/><circle cx="543" cy="372" r="6.2" fill="#2FA8C4" opacity="0.5"/><circle cx="600" cy="372" r="7.0" fill="#2FA8C4" opacity="0.5"/><circle cx="657" cy="372" r="7.6" fill="#2FA8C4" opacity="0.5"/><circle cx="714" cy="372" r="7.9" fill="#2FA8C4" opacity="0.5"/><circle cx="771" cy="372" r="8.0" fill="#2FA8C4" opacity="0.5"/><circle cx="828" cy="372" r="7.9" fill="#2FA8C4" opacity="0.5"/><circle cx="885" cy="372" r="7.5" fill="#2FA8C4" opacity="0.5"/><circle cx="942" cy="372" r="6.9" fill="#2FA8C4" opacity="0.5"/><circle cx="999" cy="372" r="6.1" fill="#2FA8C4" opacity="0.5"/><circle cx="1056" cy="372" r="5.1" fill="#2FA8C4" opacity="0.5"/><circle cx="1113" cy="372" r="4.1" fill="#2FA8C4" opacity="0.5"/><circle cx="1170" cy="372" r="3.4" fill="#2FA8C4" opacity="0.5"/><circle cx="30" cy="429" r="7.6" fill="#2FA8C4" opacity="0.5"/><circle cx="87" cy="429" r="7.0" fill="#2FA8C4" opacity="0.5"/><circle cx="144" cy="429" r="6.2" fill="#2FA8C4" opacity="0.5"/><circle cx="201" cy="429" r="5.3" fill="#2FA8C4" opacity="0.5"/><circle cx="258" cy="429" r="4.3" fill="#2FA8C4" opacity="0.5"/><circle cx="315" cy="429" r="3.2" fill="#2FA8C4" opacity="0.5"/><circle cx="372" cy="429" r="4.3" fill="#2FA8C4" opacity="0.5"/><circle cx="429" cy="429" r="5.3" fill="#2FA8C4" opacity="0.5"/><circle cx="486" cy="429" r="6.2" fill="#2FA8C4" opacity="0.5"/><circle cx="543" cy="429" r="7.0" fill="#2FA8C4" opacity="0.5"/><circle cx="600" cy="429" r="7.6" fill="#2FA8C4" opacity="0.5"/><circle cx="657" cy="429" r="7.9" fill="#2FA8C4" opacity="0.5"/><circle cx="714" cy="429" r="8.0" fill="#2FA8C4" opacity="0.5"/><circle cx="771" cy="429" r="7.9" fill="#2FA8C4" opacity="0.5"/><circle cx="828" cy="429" r="7.5" fill="#2FA8C4" opacity="0.5"/><circle cx="885" cy="429" r="6.9" fill="#2FA8C4" opacity="0.5"/><circle cx="942" cy="429" r="6.1" fill="#2FA8C4" opacity="0.5"/><circle cx="999" cy="429" r="5.1" fill="#2FA8C4" opacity="0.5"/><circle cx="1056" cy="429" r="4.1" fill="#2FA8C4" opacity="0.5"/><circle cx="1113" cy="429" r="3.4" fill="#2FA8C4" opacity="0.5"/><circle cx="1170" cy="429" r="4.5" fill="#2FA8C4" opacity="0.5"/><circle cx="30" cy="486" r="7.0" fill="#2FA8C4" opacity="0.5"/><circle cx="87" cy="486" r="6.2" fill="#2FA8C4" opacity="0.5"/><circle cx="144" cy="486" r="5.3" fill="#2FA8C4" opacity="0.5"/><circle cx="201" cy="486" r="4.3" fill="#2FA8C4" opacity="0.5"/><circle cx="258" cy="486" r="3.2" fill="#2FA8C4" opacity="0.5"/><circle cx="315" cy="486" r="4.3" fill="#2FA8C4" opacity="0.5"/><circle cx="372" cy="486" r="5.3" fill="#2FA8C4" opacity="0.5"/><circle cx="429" cy="486" r="6.2" fill="#2FA8C4" opacity="0.5"/><circle cx="486" cy="486" r="7.0" fill="#2FA8C4" opacity="0.5"/><circle cx="543" cy="486" r="7.6" fill="#2FA8C4" opacity="0.5"/><circle cx="600" cy="486" r="7.9" fill="#2FA8C4" opacity="0.5"/><circle cx="657" cy="486" r="8.0" fill="#2FA8C4" opacity="0.5"/><circle cx="714" cy="486" r="7.9" fill="#2FA8C4" opacity="0.5"/><circle cx="771" cy="486" r="7.5" fill="#2FA8C4" opacity="0.5"/><circle cx="828" cy="486" r="6.9" fill="#2FA8C4" opacity="0.5"/><circle cx="885" cy="486" r="6.1" fill="#2FA8C4" opacity="0.5"/><circle cx="942" cy="486" r="5.1" fill="#2FA8C4" opacity="0.5"/><circle cx="999" cy="486" r="4.1" fill="#2FA8C4" opacity="0.5"/><circle cx="1056" cy="486" r="3.4" fill="#2FA8C4" opacity="0.5"/><circle cx="1113" cy="486" r="4.5" fill="#2FA8C4" opacity="0.5"/><circle cx="1170" cy="486" r="5.5" fill="#2FA8C4" opacity="0.5"/><circle cx="30" cy="543" r="6.2" fill="#2FA8C4" opacity="0.5"/><circle cx="87" cy="543" r="5.3" fill="#2FA8C4" opacity="0.5"/><circle cx="144" cy="543" r="4.3" fill="#2FA8C4" opacity="0.5"/><circle cx="201" cy="543" r="3.2" fill="#2FA8C4" opacity="0.5"/><circle cx="258" cy="543" r="4.3" fill="#2FA8C4" opacity="0.5"/><circle cx="315" cy="543" r="5.3" fill="#2FA8C4" opacity="0.5"/><circle cx="372" cy="543" r="6.2" fill="#2FA8C4" opacity="0.5"/><circle cx="429" cy="543" r="7.0" fill="#2FA8C4" opacity="0.5"/><circle cx="486" cy="543" r="7.6" fill="#2FA8C4" opacity="0.5"/><circle cx="543" cy="543" r="7.9" fill="#2FA8C4" opacity="0.5"/><circle cx="600" cy="543" r="8.0" fill="#2FA8C4" opacity="0.5"/><circle cx="657" cy="543" r="7.9" fill="#2FA8C4" opacity="0.5"/><circle cx="714" cy="543" r="7.5" fill="#2FA8C4" opacity="0.5"/><circle cx="771" cy="543" r="6.9" fill="#2FA8C4" opacity="0.5"/><circle cx="828" cy="543" r="6.1" fill="#2FA8C4" opacity="0.5"/><circle cx="885" cy="543" r="5.1" fill="#2FA8C4" opacity="0.5"/><circle cx="942" cy="543" r="4.1" fill="#2FA8C4" opacity="0.5"/><circle cx="999" cy="543" r="3.4" fill="#2FA8C4" opacity="0.5"/><circle cx="1056" cy="543" r="4.5" fill="#2FA8C4" opacity="0.5"/><circle cx="1113" cy="543" r="5.5" fill="#2FA8C4" opacity="0.5"/><circle cx="1170" cy="543" r="6.4" fill="#2FA8C4" opacity="0.5"/><circle cx="30" cy="600" r="5.3" fill="#2FA8C4" opacity="0.5"/><circle cx="87" cy="600" r="4.3" fill="#2FA8C4" opacity="0.5"/><circle cx="144" cy="600" r="3.2" fill="#2FA8C4" opacity="0.5"/><circle cx="201" cy="600" r="4.3" fill="#2FA8C4" opacity="0.5"/><circle cx="258" cy="600" r="5.3" fill="#2FA8C4" opacity="0.5"/><circle cx="315" cy="600" r="6.2" fill="#2FA8C4" opacity="0.5"/><circle cx="372" cy="600" r="7.0" fill="#2FA8C4" opacity="0.5"/><circle cx="429" cy="600" r="7.6" fill="#2FA8C4" opacity="0.5"/><circle cx="486" cy="600" r="7.9" fill="#2FA8C4" opacity="0.5"/><circle cx="543" cy="600" r="8.0" fill="#2FA8C4" opacity="0.5"/><circle cx="600" cy="600" r="7.9" fill="#2FA8C4" opacity="0.5"/><circle cx="657" cy="600" r="7.5" fill="#2FA8C4" opacity="0.5"/><circle cx="714" cy="600" r="6.9" fill="#2FA8C4" opacity="0.5"/><circle cx="771" cy="600" r="6.1" fill="#2FA8C4" opacity="0.5"/><circle cx="828" cy="600" r="5.1" fill="#2FA8C4" opacity="0.5"/><circle cx="885" cy="600" r="4.1" fill="#2FA8C4" opacity="0.5"/><circle cx="942" cy="600" r="3.4" fill="#2FA8C4" opacity="0.5"/><circle cx="999" cy="600" r="4.5" fill="#2FA8C4" opacity="0.5"/><circle cx="1056" cy="600" r="5.5" fill="#2FA8C4" opacity="0.5"/><circle cx="1113" cy="600" r="6.4" fill="#2FA8C4" opacity="0.5"/><circle cx="1170" cy="600" r="7.1" fill="#2FA8C4" opacity="0.5"/><rect width="1200" height="630" fill="url(#vig)"/><text x="44" y="590" font-family="ui-monospace,Menlo,Consolas,monospace" font-size="24" letter-spacing="3" fill="#ffffff" fill-opacity="0.62">DENTAL WEBSITES · CAMDEN</text></svg>