<svg xmlns="http://www.w3.org/2000/svg" viewBox="0 0 1200 630" width="1200" height="630" role="img" aria-label="DENTAL WEBSITES · WIMBLEDON"><defs><linearGradient id="gba7f17" x1="0" y1="0" x2="1" y2="1"><stop offset="0" stop-color="#2FA8C4"/><stop offset="1" stop-color="#155869"/></linearGradient><filter id="blur"><feGaussianBlur stdDeviation="55"/></filter><radialGradient id="vig" cx="0.5" cy="0.4" r="0.75"><stop offset="0.6" stop-color="#000000" stop-opacity="0"/><stop offset="1" stop-color="#000000" stop-opacity="0.32"/></radialGradient></defs><rect width="1200" height="630" fill="url(#gba7f17)"/><rect x="-300" y="-200" width="59" height="1030" fill="#2FA8C4" opacity="0.19" transform="rotate(30 600 315)"/><rect x="-192" y="-200" width="72" height="1030" fill="#2FA8C4" opacity="0.27" transform="rotate(30 600 315)"/><rect x="-31" y="-200" width="122" height="1030" fill="#2FA8C4" opacity="0.36" transform="rotate(30 600 315)"/><rect x="159" y="-200" width="128" height="1030" fill="#1E7E96" opacity="0.28" transform="rotate(30 600 315)"/><rect x="367" y="-200" width="88" height="1030" fill="#7A5AF0" opacity="0.25" transform="rotate(30 600 315)"/><rect x="524" y="-200" width="95" height="1030" fill="#1E7E96" opacity="0.13" transform="rotate(30 600 315)"/><rect x="678" y="-200" width="72" height="1030" fill="#ffffff" opacity="0.31" transform="rotate(30 600 315)"/><rect x="806" y="-200" width="113" height="1030" fill="#7A5AF0" opacity="0.31" transform="rotate(30 600 315)"/><rect x="972" y="-200" width="130" height="1030" fill="#1E7E96" opacity="0.14" transform="rotate(30 600 315)"/><rect x="1155" y="-200" width="104" height="1030" fill="#1E7E96" opacity="0.13" transform="rotate(30 600 315)"/><rect x="1314" y="-200" width="122" height="1030" fill="#7A5AF0" opacity="0.13" transform="rotate(30 600 315)"/><rect x="1472" y="-200" width="118" height="1030" fill="#1E7E96" opacity="0.23" transform="rotate(30 600 315)"/><rect width="1200" height="630" fill="url(#vig)"/><text x="44" y="590" font-family="ui-monospace,Menlo,Consolas,monospace" font-size="24" letter-spacing="3" fill="#ffffff" fill-opacity="0.62">DENTAL WEBSITES · WIMBLEDON</text></svg>