<svg xmlns="http://www.w3.org/2000/svg" viewBox="0 0 1200 630" width="1200" height="630" role="img" aria-label="DENTAL WEBSITES · SHOREDITCH"><defs><linearGradient id="g0f40c9" x1="0" y1="0" x2="1" y2="1"><stop offset="0" stop-color="#2FA8C4"/><stop offset="1" stop-color="#155869"/></linearGradient><filter id="blur"><feGaussianBlur stdDeviation="55"/></filter><radialGradient id="vig" cx="0.5" cy="0.4" r="0.75"><stop offset="0.6" stop-color="#000000" stop-opacity="0"/><stop offset="1" stop-color="#000000" stop-opacity="0.32"/></radialGradient></defs><rect width="1200" height="630" fill="url(#g0f40c9)"/><path d="M -50 411 Q 10 371 70 411 Q 130 451 190 411 Q 250 371 310 411 Q 370 451 430 411 Q 490 371 550 411 Q 610 451 670 411 Q 730 371 790 411 Q 850 451 910 411 Q 970 371 1030 411 Q 1090 451 1150 411 Q 1210 371 1270 411 L 1250 680 L -50 680 Z" fill="#ffffff" opacity="0.22"/><path d="M -50 239 Q 10 194 70 239 Q 130 284 190 239 Q 250 194 310 239 Q 370 284 430 239 Q 490 194 550 239 Q 610 284 670 239 Q 730 194 790 239 Q 850 284 910 239 Q 970 194 1030 239 Q 1090 284 1150 239 Q 1210 194 1270 239 L 1250 680 L -50 680 Z" fill="#2FA8C4" opacity="0.22"/><path d="M -50 474 Q 10 408 70 474 Q 130 540 190 474 Q 250 408 310 474 Q 370 540 430 474 Q 490 408 550 474 Q 610 540 670 474 Q 730 408 790 474 Q 850 540 910 474 Q 970 408 1030 474 Q 1090 540 1150 474 Q 1210 408 1270 474 L 1250 680 L -50 680 Z" fill="#1E7E96" opacity="0.22"/><path d="M -50 148 Q 10 79 70 148 Q 130 217 190 148 Q 250 79 310 148 Q 370 217 430 148 Q 490 79 550 148 Q 610 217 670 148 Q 730 79 790 148 Q 850 217 910 148 Q 970 79 1030 148 Q 1090 217 1150 148 Q 1210 79 1270 148 L 1250 680 L -50 680 Z" fill="#2FA8C4" opacity="0.22"/><path d="M -50 328 Q 10 268 70 328 Q 130 388 190 328 Q 250 268 310 328 Q 370 388 430 328 Q 490 268 550 328 Q 610 388 670 328 Q 730 268 790 328 Q 850 388 910 328 Q 970 268 1030 328 Q 1090 388 1150 328 Q 1210 268 1270 328 L 1250 680 L -50 680 Z" fill="#1E7E96" opacity="0.22"/><rect width="1200" height="630" fill="url(#vig)"/><text x="44" y="590" font-family="ui-monospace,Menlo,Consolas,monospace" font-size="24" letter-spacing="3" fill="#ffffff" fill-opacity="0.62">DENTAL WEBSITES · SHOREDITCH</text></svg>