<svg xmlns="http://www.w3.org/2000/svg" viewBox="0 0 1200 630" width="1200" height="630" role="img" aria-label="DENTAL WEBSITES · LEEDS"><defs><linearGradient id="g904594" x1="0" y1="0" x2="1" y2="1"><stop offset="0" stop-color="#2FA8C4"/><stop offset="1" stop-color="#155869"/></linearGradient><filter id="blur"><feGaussianBlur stdDeviation="55"/></filter><radialGradient id="vig" cx="0.5" cy="0.4" r="0.75"><stop offset="0.6" stop-color="#000000" stop-opacity="0"/><stop offset="1" stop-color="#000000" stop-opacity="0.32"/></radialGradient></defs><rect width="1200" height="630" fill="url(#g904594)"/><path d="M -50 291 Q 10 230 70 291 Q 130 352 190 291 Q 250 230 310 291 Q 370 352 430 291 Q 490 230 550 291 Q 610 352 670 291 Q 730 230 790 291 Q 850 352 910 291 Q 970 230 1030 291 Q 1090 352 1150 291 Q 1210 230 1270 291 L 1250 680 L -50 680 Z" fill="#2FA8C4" opacity="0.22"/><path d="M -50 301 Q 10 246 70 301 Q 130 356 190 301 Q 250 246 310 301 Q 370 356 430 301 Q 490 246 550 301 Q 610 356 670 301 Q 730 246 790 301 Q 850 356 910 301 Q 970 246 1030 301 Q 1090 356 1150 301 Q 1210 246 1270 301 L 1250 680 L -50 680 Z" fill="#2FA8C4" opacity="0.22"/><path d="M -50 538 Q 10 471 70 538 Q 130 605 190 538 Q 250 471 310 538 Q 370 605 430 538 Q 490 471 550 538 Q 610 605 670 538 Q 730 471 790 538 Q 850 605 910 538 Q 970 471 1030 538 Q 1090 605 1150 538 Q 1210 471 1270 538 L 1250 680 L -50 680 Z" fill="#ffffff" opacity="0.22"/><path d="M -50 179 Q 10 147 70 179 Q 130 211 190 179 Q 250 147 310 179 Q 370 211 430 179 Q 490 147 550 179 Q 610 211 670 179 Q 730 147 790 179 Q 850 211 910 179 Q 970 147 1030 179 Q 1090 211 1150 179 Q 1210 147 1270 179 L 1250 680 L -50 680 Z" fill="#1E7E96" opacity="0.22"/><path d="M -50 332 Q 10 254 70 332 Q 130 410 190 332 Q 250 254 310 332 Q 370 410 430 332 Q 490 254 550 332 Q 610 410 670 332 Q 730 254 790 332 Q 850 410 910 332 Q 970 254 1030 332 Q 1090 410 1150 332 Q 1210 254 1270 332 L 1250 680 L -50 680 Z" fill="#2FA8C4" opacity="0.22"/><path d="M -50 368 Q 10 318 70 368 Q 130 418 190 368 Q 250 318 310 368 Q 370 418 430 368 Q 490 318 550 368 Q 610 418 670 368 Q 730 318 790 368 Q 850 418 910 368 Q 970 318 1030 368 Q 1090 418 1150 368 Q 1210 318 1270 368 L 1250 680 L -50 680 Z" fill="#2E7D5B" opacity="0.22"/><rect width="1200" height="630" fill="url(#vig)"/><text x="44" y="590" font-family="ui-monospace,Menlo,Consolas,monospace" font-size="24" letter-spacing="3" fill="#ffffff" fill-opacity="0.62">DENTAL WEBSITES · LEEDS</text></svg>