<svg xmlns="http://www.w3.org/2000/svg" viewBox="0 0 1200 630" width="1200" height="630" role="img" aria-label="DENTAL WEBSITES · WATFORD"><defs><linearGradient id="g07162c" x1="0" y1="0" x2="1" y2="1"><stop offset="0" stop-color="#2FA8C4"/><stop offset="1" stop-color="#155869"/></linearGradient><filter id="blur"><feGaussianBlur stdDeviation="55"/></filter><radialGradient id="vig" cx="0.5" cy="0.4" r="0.75"><stop offset="0.6" stop-color="#000000" stop-opacity="0"/><stop offset="1" stop-color="#000000" stop-opacity="0.32"/></radialGradient></defs><rect width="1200" height="630" fill="url(#g07162c)"/><rect x="-300" y="-200" width="120" height="1030" fill="#2FA8C4" opacity="0.29" transform="rotate(30 600 315)"/><rect x="-113" y="-200" width="67" height="1030" fill="#ffffff" opacity="0.15" transform="rotate(30 600 315)"/><rect x="-3" y="-200" width="116" height="1030" fill="#ffffff" opacity="0.26" transform="rotate(30 600 315)"/><rect x="143" y="-200" width="70" height="1030" fill="#C64B3B" opacity="0.15" transform="rotate(30 600 315)"/><rect x="292" y="-200" width="63" height="1030" fill="#ffffff" opacity="0.23" transform="rotate(30 600 315)"/><rect x="436" y="-200" width="61" height="1030" fill="#C64B3B" opacity="0.24" transform="rotate(30 600 315)"/><rect x="538" y="-200" width="83" height="1030" fill="#2FA8C4" opacity="0.21" transform="rotate(30 600 315)"/><rect x="677" y="-200" width="73" height="1030" fill="#ffffff" opacity="0.18" transform="rotate(30 600 315)"/><rect x="808" y="-200" width="86" height="1030" fill="#C64B3B" opacity="0.31" transform="rotate(30 600 315)"/><rect x="941" y="-200" width="117" height="1030" fill="#2FA8C4" opacity="0.17" transform="rotate(30 600 315)"/><rect x="1126" y="-200" width="83" height="1030" fill="#ffffff" opacity="0.2" transform="rotate(30 600 315)"/><rect x="1248" y="-200" width="86" height="1030" fill="#ffffff" opacity="0.25" transform="rotate(30 600 315)"/><rect x="1380" y="-200" width="93" height="1030" fill="#2FA8C4" opacity="0.13" transform="rotate(30 600 315)"/><rect width="1200" height="630" fill="url(#vig)"/><text x="44" y="590" font-family="ui-monospace,Menlo,Consolas,monospace" font-size="24" letter-spacing="3" fill="#ffffff" fill-opacity="0.62">DENTAL WEBSITES · WATFORD</text></svg>