<svg xmlns="http://www.w3.org/2000/svg" viewBox="0 0 1200 630" width="1200" height="630" role="img" aria-label="COMPARISON"><defs><linearGradient id="g53bc95" x1="1" y1="0" x2="0" y2="1"><stop offset="0" stop-color="#7A5AF0"/><stop offset="1" stop-color="#33237b"/></linearGradient><filter id="blur"><feGaussianBlur stdDeviation="55"/></filter><radialGradient id="vig" cx="0.5" cy="0.4" r="0.75"><stop offset="0.6" stop-color="#000000" stop-opacity="0"/><stop offset="1" stop-color="#000000" stop-opacity="0.32"/></radialGradient></defs><rect width="1200" height="630" fill="url(#g53bc95)"/><rect x="-300" y="-200" width="97" height="1030" fill="#B7472A" opacity="0.27" transform="rotate(30 600 315)"/><rect x="-161" y="-200" width="130" height="1030" fill="#4A32B0" opacity="0.24" transform="rotate(30 600 315)"/><rect x="45" y="-200" width="85" height="1030" fill="#4A32B0" opacity="0.35" transform="rotate(30 600 315)"/><rect x="202" y="-200" width="92" height="1030" fill="#4A32B0" opacity="0.23" transform="rotate(30 600 315)"/><rect x="376" y="-200" width="54" height="1030" fill="#B7472A" opacity="0.36" transform="rotate(30 600 315)"/><rect x="465" y="-200" width="61" height="1030" fill="#ffffff" opacity="0.17" transform="rotate(30 600 315)"/><rect x="599" y="-200" width="60" height="1030" fill="#4A32B0" opacity="0.35" transform="rotate(30 600 315)"/><rect x="743" y="-200" width="115" height="1030" fill="#B7472A" opacity="0.2" transform="rotate(30 600 315)"/><rect x="894" y="-200" width="79" height="1030" fill="#ffffff" opacity="0.17" transform="rotate(30 600 315)"/><rect x="1009" y="-200" width="98" height="1030" fill="#4A32B0" opacity="0.36" transform="rotate(30 600 315)"/><rect x="1179" y="-200" width="116" height="1030" fill="#4A32B0" opacity="0.36" transform="rotate(30 600 315)"/><rect x="1367" y="-200" width="128" height="1030" fill="#B7472A" opacity="0.33" transform="rotate(30 600 315)"/><rect width="1200" height="630" fill="url(#vig)"/><text x="44" y="590" font-family="ui-monospace,Menlo,Consolas,monospace" font-size="24" letter-spacing="3" fill="#ffffff" fill-opacity="0.62">COMPARISON</text></svg>