<svg xmlns="http://www.w3.org/2000/svg" viewBox="0 0 1200 630" width="1200" height="630" role="img" aria-label="HOW-TO GUIDE"><defs><linearGradient id="g618d1c" x1="1" y1="0" x2="0" y2="1"><stop offset="0" stop-color="#B7472A"/><stop offset="1" stop-color="#642516"/></linearGradient><filter id="blur"><feGaussianBlur stdDeviation="55"/></filter><radialGradient id="vig" cx="0.5" cy="0.4" r="0.75"><stop offset="0.6" stop-color="#000000" stop-opacity="0"/><stop offset="1" stop-color="#000000" stop-opacity="0.32"/></radialGradient></defs><rect width="1200" height="630" fill="url(#g618d1c)"/><rect x="-300" y="-200" width="83" height="1030" fill="#B7472A" opacity="0.28" transform="rotate(30 600 315)"/><rect x="-170" y="-200" width="119" height="1030" fill="#8f3520" opacity="0.36" transform="rotate(30 600 315)"/><rect x="33" y="-200" width="69" height="1030" fill="#ffffff" opacity="0.31" transform="rotate(30 600 315)"/><rect x="172" y="-200" width="96" height="1030" fill="#8f3520" opacity="0.25" transform="rotate(30 600 315)"/><rect x="348" y="-200" width="90" height="1030" fill="#8f3520" opacity="0.3" transform="rotate(30 600 315)"/><rect x="504" y="-200" width="105" height="1030" fill="#B7472A" opacity="0.22" transform="rotate(30 600 315)"/><rect x="668" y="-200" width="114" height="1030" fill="#B7472A" opacity="0.36" transform="rotate(30 600 315)"/><rect x="869" y="-200" width="111" height="1030" fill="#B7472A" opacity="0.25" transform="rotate(30 600 315)"/><rect x="1031" y="-200" width="95" height="1030" fill="#8f3520" opacity="0.17" transform="rotate(30 600 315)"/><rect x="1156" y="-200" width="66" height="1030" fill="#ffffff" opacity="0.18" transform="rotate(30 600 315)"/><rect x="1262" y="-200" width="69" height="1030" fill="#B7472A" opacity="0.31" transform="rotate(30 600 315)"/><rect x="1408" y="-200" width="77" height="1030" fill="#8f3520" opacity="0.16" transform="rotate(30 600 315)"/><rect width="1200" height="630" fill="url(#vig)"/><text x="44" y="590" font-family="ui-monospace,Menlo,Consolas,monospace" font-size="24" letter-spacing="3" fill="#ffffff" fill-opacity="0.62">HOW-TO GUIDE</text></svg>