<svg xmlns="http://www.w3.org/2000/svg" viewBox="0 0 1200 630" width="1200" height="630" role="img" aria-label="COMPARISON"><defs><linearGradient id="gde8095" x1="0" y1="0" x2="1" y2="1"><stop offset="0" stop-color="#4B5563"/><stop offset="1" stop-color="#151c26"/></linearGradient><filter id="blur"><feGaussianBlur stdDeviation="55"/></filter><radialGradient id="vig" cx="0.5" cy="0.4" r="0.75"><stop offset="0.6" stop-color="#000000" stop-opacity="0"/><stop offset="1" stop-color="#000000" stop-opacity="0.32"/></radialGradient></defs><rect width="1200" height="630" fill="url(#gde8095)"/><path d="M -50 145 Q 10 65 70 145 Q 130 225 190 145 Q 250 65 310 145 Q 370 225 430 145 Q 490 65 550 145 Q 610 225 670 145 Q 730 65 790 145 Q 850 225 910 145 Q 970 65 1030 145 Q 1090 225 1150 145 Q 1210 65 1270 145 L 1250 680 L -50 680 Z" fill="#1f2937" opacity="0.22"/><path d="M -50 363 Q 10 316 70 363 Q 130 410 190 363 Q 250 316 310 363 Q 370 410 430 363 Q 490 316 550 363 Q 610 410 670 363 Q 730 316 790 363 Q 850 410 910 363 Q 970 316 1030 363 Q 1090 410 1150 363 Q 1210 316 1270 363 L 1250 680 L -50 680 Z" fill="#B7472A" opacity="0.22"/><path d="M -50 450 Q 10 405 70 450 Q 130 495 190 450 Q 250 405 310 450 Q 370 495 430 450 Q 490 405 550 450 Q 610 495 670 450 Q 730 405 790 450 Q 850 495 910 450 Q 970 405 1030 450 Q 1090 495 1150 450 Q 1210 405 1270 450 L 1250 680 L -50 680 Z" fill="#4B5563" opacity="0.22"/><path d="M -50 237 Q 10 192 70 237 Q 130 282 190 237 Q 250 192 310 237 Q 370 282 430 237 Q 490 192 550 237 Q 610 282 670 237 Q 730 192 790 237 Q 850 282 910 237 Q 970 192 1030 237 Q 1090 282 1150 237 Q 1210 192 1270 237 L 1250 680 L -50 680 Z" fill="#ffffff" opacity="0.22"/><path d="M -50 187 Q 10 155 70 187 Q 130 219 190 187 Q 250 155 310 187 Q 370 219 430 187 Q 490 155 550 187 Q 610 219 670 187 Q 730 155 790 187 Q 850 219 910 187 Q 970 155 1030 187 Q 1090 219 1150 187 Q 1210 155 1270 187 L 1250 680 L -50 680 Z" fill="#B7472A" opacity="0.22"/><rect width="1200" height="630" fill="url(#vig)"/><text x="44" y="590" font-family="ui-monospace,Menlo,Consolas,monospace" font-size="24" letter-spacing="3" fill="#ffffff" fill-opacity="0.62">COMPARISON</text></svg>