<svg xmlns="http://www.w3.org/2000/svg" viewBox="0 0 1200 630" width="1200" height="630" role="img" aria-label="2026 TRENDS"><defs><linearGradient id="g6ac808" x1="1" y1="0" x2="0" y2="1"><stop offset="0" stop-color="#3A5BD9"/><stop offset="1" stop-color="#1a2c6e"/></linearGradient><filter id="blur"><feGaussianBlur stdDeviation="55"/></filter><radialGradient id="vig" cx="0.5" cy="0.4" r="0.75"><stop offset="0.6" stop-color="#000000" stop-opacity="0"/><stop offset="1" stop-color="#000000" stop-opacity="0.32"/></radialGradient></defs><rect width="1200" height="630" fill="url(#g6ac808)"/><rect x="-300" y="-200" width="86" height="1030" fill="#3A5BD9" opacity="0.19" transform="rotate(30 600 315)"/><rect x="-144" y="-200" width="85" height="1030" fill="#2FA8C4" opacity="0.31" transform="rotate(30 600 315)"/><rect x="15" y="-200" width="51" height="1030" fill="#2FA8C4" opacity="0.2" transform="rotate(30 600 315)"/><rect x="142" y="-200" width="121" height="1030" fill="#2FA8C4" opacity="0.36" transform="rotate(30 600 315)"/><rect x="353" y="-200" width="69" height="1030" fill="#2FA8C4" opacity="0.25" transform="rotate(30 600 315)"/><rect x="497" y="-200" width="96" height="1030" fill="#3A5BD9" opacity="0.32" transform="rotate(30 600 315)"/><rect x="627" y="-200" width="101" height="1030" fill="#ffffff" opacity="0.34" transform="rotate(30 600 315)"/><rect x="771" y="-200" width="84" height="1030" fill="#2FA8C4" opacity="0.13" transform="rotate(30 600 315)"/><rect x="931" y="-200" width="85" height="1030" fill="#26409e" opacity="0.17" transform="rotate(30 600 315)"/><rect x="1067" y="-200" width="109" height="1030" fill="#ffffff" opacity="0.27" transform="rotate(30 600 315)"/><rect x="1250" y="-200" width="68" height="1030" fill="#2FA8C4" opacity="0.25" transform="rotate(30 600 315)"/><rect x="1350" y="-200" width="110" height="1030" fill="#3A5BD9" opacity="0.24" transform="rotate(30 600 315)"/><rect width="1200" height="630" fill="url(#vig)"/><text x="44" y="590" font-family="ui-monospace,Menlo,Consolas,monospace" font-size="24" letter-spacing="3" fill="#ffffff" fill-opacity="0.62">2026 TRENDS</text></svg>