<svg xmlns="http://www.w3.org/2000/svg" viewBox="0 0 1200 630" width="1200" height="630" role="img" aria-label="SEO GUIDE"><defs><linearGradient id="g06bcca" x1="0" y1="0" x2="0" y2="1"><stop offset="0" stop-color="#2E7D5B"/><stop offset="1" stop-color="#133b2c"/></linearGradient><filter id="blur"><feGaussianBlur stdDeviation="55"/></filter><radialGradient id="vig" cx="0.5" cy="0.4" r="0.75"><stop offset="0.6" stop-color="#000000" stop-opacity="0"/><stop offset="1" stop-color="#000000" stop-opacity="0.32"/></radialGradient></defs><rect width="1200" height="630" fill="url(#g06bcca)"/><polygon points="315,218 315,218 454,73" fill="#2E7D5B" opacity="0.13"/><polygon points="999,515 249,149 454,84" fill="#ffffff" opacity="0.3"/><polygon points="999,515 315,218 230,350" fill="#2E7D5B" opacity="0.26"/><polygon points="670,270 393,353 230,350" fill="#2E7D5B" opacity="0.3"/><polygon points="1117,171 315,218 670,270" fill="#1c5540" opacity="0.29"/><polygon points="1117,171 454,84 999,515" fill="#1c5540" opacity="0.17"/><polygon points="315,218 454,84 999,515" fill="#C64B3B" opacity="0.3"/><polygon points="249,149 393,353 315,218" fill="#ffffff" opacity="0.21"/><polygon points="999,515 393,353 999,515" fill="#2E7D5B" opacity="0.16"/><polygon points="393,353 999,515 670,270" fill="#1c5540" opacity="0.15"/><polygon points="468,598 454,73 889,412" fill="#ffffff" opacity="0.16"/><polygon points="230,350 468,598 670,270" fill="#2E7D5B" opacity="0.14"/><polygon points="249,149 249,149 1117,171" fill="#2E7D5B" opacity="0.16"/><polygon points="1173,484 999,515 468,598" fill="#ffffff" opacity="0.15"/><polygon points="999,515 1173,484 393,353" fill="#2E7D5B" opacity="0.17"/><rect width="1200" height="630" fill="url(#vig)"/><text x="44" y="590" font-family="ui-monospace,Menlo,Consolas,monospace" font-size="24" letter-spacing="3" fill="#ffffff" fill-opacity="0.62">SEO GUIDE</text></svg>