<svg xmlns="http://www.w3.org/2000/svg" viewBox="0 0 1200 630" width="1200" height="630" role="img" aria-label="PRICING GUIDE"><defs><linearGradient id="g7f29fd" x1="0.2" y1="0" x2="0.8" y2="1"><stop offset="0" stop-color="#7A5AF0"/><stop offset="1" stop-color="#33237b"/></linearGradient><filter id="blur"><feGaussianBlur stdDeviation="55"/></filter><radialGradient id="vig" cx="0.5" cy="0.4" r="0.75"><stop offset="0.6" stop-color="#000000" stop-opacity="0"/><stop offset="1" stop-color="#000000" stop-opacity="0.32"/></radialGradient></defs><rect width="1200" height="630" fill="url(#g7f29fd)"/><circle cx="30" cy="30" r="8.5" fill="#7A5AF0" opacity="0.5"/><circle cx="89" cy="30" r="8.9" fill="#7A5AF0" opacity="0.5"/><circle cx="148" cy="30" r="9.0" fill="#7A5AF0" opacity="0.5"/><circle cx="207" cy="30" r="8.8" fill="#7A5AF0" opacity="0.5"/><circle cx="266" cy="30" r="8.3" fill="#7A5AF0" opacity="0.5"/><circle cx="325" cy="30" r="7.6" fill="#7A5AF0" opacity="0.5"/><circle cx="384" cy="30" r="6.6" fill="#7A5AF0" opacity="0.5"/><circle cx="443" cy="30" r="5.5" fill="#7A5AF0" opacity="0.5"/><circle cx="502" cy="30" r="4.2" fill="#7A5AF0" opacity="0.5"/><circle cx="561" cy="30" r="4.2" fill="#7A5AF0" opacity="0.5"/><circle cx="620" cy="30" r="5.5" fill="#7A5AF0" opacity="0.5"/><circle cx="679" cy="30" r="6.6" fill="#7A5AF0" opacity="0.5"/><circle cx="738" cy="30" r="7.6" fill="#7A5AF0" opacity="0.5"/><circle cx="797" cy="30" r="8.3" fill="#7A5AF0" opacity="0.5"/><circle cx="856" cy="30" r="8.8" fill="#7A5AF0" opacity="0.5"/><circle cx="915" cy="30" r="9.0" fill="#7A5AF0" opacity="0.5"/><circle cx="974" cy="30" r="8.9" fill="#7A5AF0" opacity="0.5"/><circle cx="1033" cy="30" r="8.5" fill="#7A5AF0" opacity="0.5"/><circle cx="1092" cy="30" r="7.8" fill="#7A5AF0" opacity="0.5"/><circle cx="1151" cy="30" r="6.9" fill="#7A5AF0" opacity="0.5"/><circle cx="30" cy="89" r="8.9" fill="#7A5AF0" opacity="0.5"/><circle cx="89" cy="89" r="9.0" fill="#7A5AF0" opacity="0.5"/><circle cx="148" cy="89" r="8.8" fill="#7A5AF0" opacity="0.5"/><circle cx="207" cy="89" r="8.3" fill="#7A5AF0" opacity="0.5"/><circle cx="266" cy="89" r="7.6" fill="#7A5AF0" opacity="0.5"/><circle cx="325" cy="89" r="6.6" fill="#7A5AF0" opacity="0.5"/><circle cx="384" cy="89" r="5.5" fill="#7A5AF0" opacity="0.5"/><circle cx="443" cy="89" r="4.2" fill="#7A5AF0" opacity="0.5"/><circle cx="502" cy="89" r="4.2" fill="#7A5AF0" opacity="0.5"/><circle cx="561" cy="89" r="5.5" fill="#7A5AF0" opacity="0.5"/><circle cx="620" cy="89" r="6.6" fill="#7A5AF0" opacity="0.5"/><circle cx="679" cy="89" r="7.6" fill="#7A5AF0" opacity="0.5"/><circle cx="738" cy="89" r="8.3" fill="#7A5AF0" opacity="0.5"/><circle cx="797" cy="89" r="8.8" fill="#7A5AF0" opacity="0.5"/><circle cx="856" cy="89" r="9.0" fill="#7A5AF0" opacity="0.5"/><circle cx="915" cy="89" r="8.9" fill="#7A5AF0" opacity="0.5"/><circle cx="974" cy="89" r="8.5" fill="#7A5AF0" opacity="0.5"/><circle cx="1033" cy="89" r="7.8" fill="#7A5AF0" opacity="0.5"/><circle cx="1092" cy="89" r="6.9" fill="#7A5AF0" opacity="0.5"/><circle cx="1151" cy="89" r="5.8" fill="#7A5AF0" opacity="0.5"/><circle cx="30" cy="148" r="9.0" fill="#7A5AF0" opacity="0.5"/><circle cx="89" cy="148" r="8.8" fill="#7A5AF0" opacity="0.5"/><circle cx="148" cy="148" r="8.3" fill="#7A5AF0" opacity="0.5"/><circle cx="207" cy="148" r="7.6" fill="#7A5AF0" opacity="0.5"/><circle cx="266" cy="148" r="6.6" fill="#7A5AF0" opacity="0.5"/><circle cx="325" cy="148" r="5.5" fill="#7A5AF0" opacity="0.5"/><circle cx="384" cy="148" r="4.2" fill="#7A5AF0" opacity="0.5"/><circle cx="443" cy="148" r="4.2" fill="#7A5AF0" opacity="0.5"/><circle cx="502" cy="148" r="5.5" fill="#7A5AF0" opacity="0.5"/><circle cx="561" cy="148" r="6.6" fill="#7A5AF0" opacity="0.5"/><circle cx="620" cy="148" r="7.6" fill="#7A5AF0" opacity="0.5"/><circle cx="679" cy="148" r="8.3" fill="#7A5AF0" opacity="0.5"/><circle cx="738" cy="148" r="8.8" fill="#7A5AF0" opacity="0.5"/><circle cx="797" cy="148" r="9.0" fill="#7A5AF0" opacity="0.5"/><circle cx="856" cy="148" r="8.9" fill="#7A5AF0" opacity="0.5"/><circle cx="915" cy="148" r="8.5" fill="#7A5AF0" opacity="0.5"/><circle cx="974" cy="148" r="7.8" fill="#7A5AF0" opacity="0.5"/><circle cx="1033" cy="148" r="6.9" fill="#7A5AF0" opacity="0.5"/><circle cx="1092" cy="148" r="5.8" fill="#7A5AF0" opacity="0.5"/><circle cx="1151" cy="148" r="4.6" fill="#7A5AF0" opacity="0.5"/><circle cx="30" cy="207" r="8.8" fill="#7A5AF0" opacity="0.5"/><circle cx="89" cy="207" r="8.3" fill="#7A5AF0" opacity="0.5"/><circle cx="148" cy="207" r="7.6" fill="#7A5AF0" opacity="0.5"/><circle cx="207" cy="207" r="6.6" fill="#7A5AF0" opacity="0.5"/><circle cx="266" cy="207" r="5.5" fill="#7A5AF0" opacity="0.5"/><circle cx="325" cy="207" r="4.2" fill="#7A5AF0" opacity="0.5"/><circle cx="384" cy="207" r="4.2" fill="#7A5AF0" opacity="0.5"/><circle cx="443" cy="207" r="5.5" fill="#7A5AF0" opacity="0.5"/><circle cx="502" cy="207" r="6.6" fill="#7A5AF0" opacity="0.5"/><circle cx="561" cy="207" r="7.6" fill="#7A5AF0" opacity="0.5"/><circle cx="620" cy="207" r="8.3" fill="#7A5AF0" opacity="0.5"/><circle cx="679" cy="207" r="8.8" fill="#7A5AF0" opacity="0.5"/><circle cx="738" cy="207" r="9.0" fill="#7A5AF0" opacity="0.5"/><circle cx="797" cy="207" r="8.9" fill="#7A5AF0" opacity="0.5"/><circle cx="856" cy="207" r="8.5" fill="#7A5AF0" opacity="0.5"/><circle cx="915" cy="207" r="7.8" fill="#7A5AF0" opacity="0.5"/><circle cx="974" cy="207" r="6.9" fill="#7A5AF0" opacity="0.5"/><circle cx="1033" cy="207" r="5.8" fill="#7A5AF0" opacity="0.5"/><circle cx="1092" cy="207" r="4.6" fill="#7A5AF0" opacity="0.5"/><circle cx="1151" cy="207" r="3.9" fill="#7A5AF0" opacity="0.5"/><circle cx="30" cy="266" r="8.3" fill="#7A5AF0" opacity="0.5"/><circle cx="89" cy="266" r="7.6" fill="#7A5AF0" opacity="0.5"/><circle cx="148" cy="266" r="6.6" fill="#7A5AF0" opacity="0.5"/><circle cx="207" cy="266" r="5.5" fill="#7A5AF0" opacity="0.5"/><circle cx="266" cy="266" r="4.2" fill="#7A5AF0" opacity="0.5"/><circle cx="325" cy="266" r="4.2" fill="#7A5AF0" opacity="0.5"/><circle cx="384" cy="266" r="5.5" fill="#7A5AF0" opacity="0.5"/><circle cx="443" cy="266" r="6.6" fill="#7A5AF0" opacity="0.5"/><circle cx="502" cy="266" r="7.6" fill="#7A5AF0" opacity="0.5"/><circle cx="561" cy="266" r="8.3" fill="#7A5AF0" opacity="0.5"/><circle cx="620" cy="266" r="8.8" fill="#7A5AF0" opacity="0.5"/><circle cx="679" cy="266" r="9.0" fill="#7A5AF0" opacity="0.5"/><circle cx="738" cy="266" r="8.9" fill="#7A5AF0" opacity="0.5"/><circle cx="797" cy="266" r="8.5" fill="#7A5AF0" opacity="0.5"/><circle cx="856" cy="266" r="7.8" fill="#7A5AF0" opacity="0.5"/><circle cx="915" cy="266" r="6.9" fill="#7A5AF0" opacity="0.5"/><circle cx="974" cy="266" r="5.8" fill="#7A5AF0" opacity="0.5"/><circle cx="1033" cy="266" r="4.6" fill="#7A5AF0" opacity="0.5"/><circle cx="1092" cy="266" r="3.9" fill="#7A5AF0" opacity="0.5"/><circle cx="1151" cy="266" r="5.1" fill="#7A5AF0" opacity="0.5"/><circle cx="30" cy="325" r="7.6" fill="#7A5AF0" opacity="0.5"/><circle cx="89" cy="325" r="6.6" fill="#7A5AF0" opacity="0.5"/><circle cx="148" cy="325" r="5.5" fill="#7A5AF0" opacity="0.5"/><circle cx="207" cy="325" r="4.2" fill="#7A5AF0" opacity="0.5"/><circle cx="266" cy="325" r="4.2" fill="#7A5AF0" opacity="0.5"/><circle cx="325" cy="325" r="5.5" fill="#7A5AF0" opacity="0.5"/><circle cx="384" cy="325" r="6.6" fill="#7A5AF0" opacity="0.5"/><circle cx="443" cy="325" r="7.6" fill="#7A5AF0" opacity="0.5"/><circle cx="502" cy="325" r="8.3" fill="#7A5AF0" opacity="0.5"/><circle cx="561" cy="325" r="8.8" fill="#7A5AF0" opacity="0.5"/><circle cx="620" cy="325" r="9.0" fill="#7A5AF0" opacity="0.5"/><circle cx="679" cy="325" r="8.9" fill="#7A5AF0" opacity="0.5"/><circle cx="738" cy="325" r="8.5" fill="#7A5AF0" opacity="0.5"/><circle cx="797" cy="325" r="7.8" fill="#7A5AF0" opacity="0.5"/><circle cx="856" cy="325" r="6.9" fill="#7A5AF0" opacity="0.5"/><circle cx="915" cy="325" r="5.8" fill="#7A5AF0" opacity="0.5"/><circle cx="974" cy="325" r="4.6" fill="#7A5AF0" opacity="0.5"/><circle cx="1033" cy="325" r="3.9" fill="#7A5AF0" opacity="0.5"/><circle cx="1092" cy="325" r="5.1" fill="#7A5AF0" opacity="0.5"/><circle cx="1151" cy="325" r="6.3" fill="#7A5AF0" opacity="0.5"/><circle cx="30" cy="384" r="6.6" fill="#7A5AF0" opacity="0.5"/><circle cx="89" cy="384" r="5.5" fill="#7A5AF0" opacity="0.5"/><circle cx="148" cy="384" r="4.2" fill="#7A5AF0" opacity="0.5"/><circle cx="207" cy="384" r="4.2" fill="#7A5AF0" opacity="0.5"/><circle cx="266" cy="384" r="5.5" fill="#7A5AF0" opacity="0.5"/><circle cx="325" cy="384" r="6.6" fill="#7A5AF0" opacity="0.5"/><circle cx="384" cy="384" r="7.6" fill="#7A5AF0" opacity="0.5"/><circle cx="443" cy="384" r="8.3" fill="#7A5AF0" opacity="0.5"/><circle cx="502" cy="384" r="8.8" fill="#7A5AF0" opacity="0.5"/><circle cx="561" cy="384" r="9.0" fill="#7A5AF0" opacity="0.5"/><circle cx="620" cy="384" r="8.9" fill="#7A5AF0" opacity="0.5"/><circle cx="679" cy="384" r="8.5" fill="#7A5AF0" opacity="0.5"/><circle cx="738" cy="384" r="7.8" fill="#7A5AF0" opacity="0.5"/><circle cx="797" cy="384" r="6.9" fill="#7A5AF0" opacity="0.5"/><circle cx="856" cy="384" r="5.8" fill="#7A5AF0" opacity="0.5"/><circle cx="915" cy="384" r="4.6" fill="#7A5AF0" opacity="0.5"/><circle cx="974" cy="384" r="3.9" fill="#7A5AF0" opacity="0.5"/><circle cx="1033" cy="384" r="5.1" fill="#7A5AF0" opacity="0.5"/><circle cx="1092" cy="384" r="6.3" fill="#7A5AF0" opacity="0.5"/><circle cx="1151" cy="384" r="7.3" fill="#7A5AF0" opacity="0.5"/><circle cx="30" cy="443" r="5.5" fill="#7A5AF0" opacity="0.5"/><circle cx="89" cy="443" r="4.2" fill="#7A5AF0" opacity="0.5"/><circle cx="148" cy="443" r="4.2" fill="#7A5AF0" opacity="0.5"/><circle cx="207" cy="443" r="5.5" fill="#7A5AF0" opacity="0.5"/><circle cx="266" cy="443" r="6.6" fill="#7A5AF0" opacity="0.5"/><circle cx="325" cy="443" r="7.6" fill="#7A5AF0" opacity="0.5"/><circle cx="384" cy="443" r="8.3" fill="#7A5AF0" opacity="0.5"/><circle cx="443" cy="443" r="8.8" fill="#7A5AF0" opacity="0.5"/><circle cx="502" cy="443" r="9.0" fill="#7A5AF0" opacity="0.5"/><circle cx="561" cy="443" r="8.9" fill="#7A5AF0" opacity="0.5"/><circle cx="620" cy="443" r="8.5" fill="#7A5AF0" opacity="0.5"/><circle cx="679" cy="443" r="7.8" fill="#7A5AF0" opacity="0.5"/><circle cx="738" cy="443" r="6.9" fill="#7A5AF0" opacity="0.5"/><circle cx="797" cy="443" r="5.8" fill="#7A5AF0" opacity="0.5"/><circle cx="856" cy="443" r="4.6" fill="#7A5AF0" opacity="0.5"/><circle cx="915" cy="443" r="3.9" fill="#7A5AF0" opacity="0.5"/><circle cx="974" cy="443" r="5.1" fill="#7A5AF0" opacity="0.5"/><circle cx="1033" cy="443" r="6.3" fill="#7A5AF0" opacity="0.5"/><circle cx="1092" cy="443" r="7.3" fill="#7A5AF0" opacity="0.5"/><circle cx="1151" cy="443" r="8.1" fill="#7A5AF0" opacity="0.5"/><circle cx="30" cy="502" r="4.2" fill="#7A5AF0" opacity="0.5"/><circle cx="89" cy="502" r="4.2" fill="#7A5AF0" opacity="0.5"/><circle cx="148" cy="502" r="5.5" fill="#7A5AF0" opacity="0.5"/><circle cx="207" cy="502" r="6.6" fill="#7A5AF0" opacity="0.5"/><circle cx="266" cy="502" r="7.6" fill="#7A5AF0" opacity="0.5"/><circle cx="325" cy="502" r="8.3" fill="#7A5AF0" opacity="0.5"/><circle cx="384" cy="502" r="8.8" fill="#7A5AF0" opacity="0.5"/><circle cx="443" cy="502" r="9.0" fill="#7A5AF0" opacity="0.5"/><circle cx="502" cy="502" r="8.9" fill="#7A5AF0" opacity="0.5"/><circle cx="561" cy="502" r="8.5" fill="#7A5AF0" opacity="0.5"/><circle cx="620" cy="502" r="7.8" fill="#7A5AF0" opacity="0.5"/><circle cx="679" cy="502" r="6.9" fill="#7A5AF0" opacity="0.5"/><circle cx="738" cy="502" r="5.8" fill="#7A5AF0" opacity="0.5"/><circle cx="797" cy="502" r="4.6" fill="#7A5AF0" opacity="0.5"/><circle cx="856" cy="502" r="3.9" fill="#7A5AF0" opacity="0.5"/><circle cx="915" cy="502" r="5.1" fill="#7A5AF0" opacity="0.5"/><circle cx="974" cy="502" r="6.3" fill="#7A5AF0" opacity="0.5"/><circle cx="1033" cy="502" r="7.3" fill="#7A5AF0" opacity="0.5"/><circle cx="1092" cy="502" r="8.1" fill="#7A5AF0" opacity="0.5"/><circle cx="1151" cy="502" r="8.7" fill="#7A5AF0" opacity="0.5"/><circle cx="30" cy="561" r="4.2" fill="#7A5AF0" opacity="0.5"/><circle cx="89" cy="561" r="5.5" fill="#7A5AF0" opacity="0.5"/><circle cx="148" cy="561" r="6.6" fill="#7A5AF0" opacity="0.5"/><circle cx="207" cy="561" r="7.6" fill="#7A5AF0" opacity="0.5"/><circle cx="266" cy="561" r="8.3" fill="#7A5AF0" opacity="0.5"/><circle cx="325" cy="561" r="8.8" fill="#7A5AF0" opacity="0.5"/><circle cx="384" cy="561" r="9.0" fill="#7A5AF0" opacity="0.5"/><circle cx="443" cy="561" r="8.9" fill="#7A5AF0" opacity="0.5"/><circle cx="502" cy="561" r="8.5" fill="#7A5AF0" opacity="0.5"/><circle cx="561" cy="561" r="7.8" fill="#7A5AF0" opacity="0.5"/><circle cx="620" cy="561" r="6.9" fill="#7A5AF0" opacity="0.5"/><circle cx="679" cy="561" r="5.8" fill="#7A5AF0" opacity="0.5"/><circle cx="738" cy="561" r="4.6" fill="#7A5AF0" opacity="0.5"/><circle cx="797" cy="561" r="3.9" fill="#7A5AF0" opacity="0.5"/><circle cx="856" cy="561" r="5.1" fill="#7A5AF0" opacity="0.5"/><circle cx="915" cy="561" r="6.3" fill="#7A5AF0" opacity="0.5"/><circle cx="974" cy="561" r="7.3" fill="#7A5AF0" opacity="0.5"/><circle cx="1033" cy="561" r="8.1" fill="#7A5AF0" opacity="0.5"/><circle cx="1092" cy="561" r="8.7" fill="#7A5AF0" opacity="0.5"/><circle cx="1151" cy="561" r="9.0" fill="#7A5AF0" opacity="0.5"/><circle cx="30" cy="620" r="5.5" fill="#7A5AF0" opacity="0.5"/><circle cx="89" cy="620" r="6.6" fill="#7A5AF0" opacity="0.5"/><circle cx="148" cy="620" r="7.6" fill="#7A5AF0" opacity="0.5"/><circle cx="207" cy="620" r="8.3" fill="#7A5AF0" opacity="0.5"/><circle cx="266" cy="620" r="8.8" fill="#7A5AF0" opacity="0.5"/><circle cx="325" cy="620" r="9.0" fill="#7A5AF0" opacity="0.5"/><circle cx="384" cy="620" r="8.9" fill="#7A5AF0" opacity="0.5"/><circle cx="443" cy="620" r="8.5" fill="#7A5AF0" opacity="0.5"/><circle cx="502" cy="620" r="7.8" fill="#7A5AF0" opacity="0.5"/><circle cx="561" cy="620" r="6.9" fill="#7A5AF0" opacity="0.5"/><circle cx="620" cy="620" r="5.8" fill="#7A5AF0" opacity="0.5"/><circle cx="679" cy="620" r="4.6" fill="#7A5AF0" opacity="0.5"/><circle cx="738" cy="620" r="3.9" fill="#7A5AF0" opacity="0.5"/><circle cx="797" cy="620" r="5.1" fill="#7A5AF0" opacity="0.5"/><circle cx="856" cy="620" r="6.3" fill="#7A5AF0" opacity="0.5"/><circle cx="915" cy="620" r="7.3" fill="#7A5AF0" opacity="0.5"/><circle cx="974" cy="620" r="8.1" fill="#7A5AF0" opacity="0.5"/><circle cx="1033" cy="620" r="8.7" fill="#7A5AF0" opacity="0.5"/><circle cx="1092" cy="620" r="9.0" fill="#7A5AF0" opacity="0.5"/><circle cx="1151" cy="620" r="9.0" fill="#7A5AF0" opacity="0.5"/><rect width="1200" height="630" fill="url(#vig)"/><text x="44" y="590" font-family="ui-monospace,Menlo,Consolas,monospace" font-size="24" letter-spacing="3" fill="#ffffff" fill-opacity="0.62">PRICING GUIDE</text></svg>