<svg xmlns="http://www.w3.org/2000/svg" viewBox="0 0 1200 630" width="1200" height="630" role="img" aria-label="INDUSTRY GUIDE"><defs><linearGradient id="g5fe792" x1="0" y1="0" x2="1" y2="1"><stop offset="0" stop-color="#2FA8C4"/><stop offset="1" stop-color="#155869"/></linearGradient><filter id="blur"><feGaussianBlur stdDeviation="55"/></filter><radialGradient id="vig" cx="0.5" cy="0.4" r="0.75"><stop offset="0.6" stop-color="#000000" stop-opacity="0"/><stop offset="1" stop-color="#000000" stop-opacity="0.32"/></radialGradient></defs><rect width="1200" height="630" fill="url(#g5fe792)"/><polygon points="131,428 690,5 131,428" fill="#1E7E96" opacity="0.3"/><polygon points="690,5 322,406 1023,361" fill="#1E7E96" opacity="0.25"/><polygon points="632,267 994,185 690,5" fill="#2FA8C4" opacity="0.29"/><polygon points="1023,361 647,102 690,5" fill="#3A5BD9" opacity="0.13"/><polygon points="632,267 1023,361 994,185" fill="#ffffff" opacity="0.17"/><polygon points="1149,282 994,185 297,491" fill="#1E7E96" opacity="0.22"/><polygon points="994,185 1194,137 1194,137" fill="#1E7E96" opacity="0.14"/><polygon points="690,5 1194,137 632,267" fill="#3A5BD9" opacity="0.29"/><polygon points="1194,137 1149,282 1023,361" fill="#2FA8C4" opacity="0.27"/><polygon points="994,185 1149,282 1149,282" fill="#3A5BD9" opacity="0.31"/><polygon points="322,406 634,404 690,5" fill="#1E7E96" opacity="0.27"/><polygon points="690,5 322,406 690,5" fill="#1E7E96" opacity="0.17"/><rect width="1200" height="630" fill="url(#vig)"/><text x="44" y="590" font-family="ui-monospace,Menlo,Consolas,monospace" font-size="24" letter-spacing="3" fill="#ffffff" fill-opacity="0.62">INDUSTRY GUIDE</text></svg>