<svg xmlns="http://www.w3.org/2000/svg" viewBox="0 0 1200 630" width="1200" height="630" role="img" aria-label="HOW-TO GUIDE"><defs><linearGradient id="g08e435" x1="1" y1="0" x2="0" y2="1"><stop offset="0" stop-color="#3A5BD9"/><stop offset="1" stop-color="#1a2c6e"/></linearGradient><filter id="blur"><feGaussianBlur stdDeviation="55"/></filter><radialGradient id="vig" cx="0.5" cy="0.4" r="0.75"><stop offset="0.6" stop-color="#000000" stop-opacity="0"/><stop offset="1" stop-color="#000000" stop-opacity="0.32"/></radialGradient></defs><rect width="1200" height="630" fill="url(#g08e435)"/><rect x="-300" y="-200" width="66" height="1030" fill="#ffffff" opacity="0.24" transform="rotate(20 600 315)"/><rect x="-172" y="-200" width="51" height="1030" fill="#26409e" opacity="0.12" transform="rotate(20 600 315)"/><rect x="-45" y="-200" width="59" height="1030" fill="#26409e" opacity="0.36" transform="rotate(20 600 315)"/><rect x="90" y="-200" width="121" height="1030" fill="#ffffff" opacity="0.19" transform="rotate(20 600 315)"/><rect x="242" y="-200" width="59" height="1030" fill="#26409e" opacity="0.23" transform="rotate(20 600 315)"/><rect x="341" y="-200" width="66" height="1030" fill="#26409e" opacity="0.15" transform="rotate(20 600 315)"/><rect x="475" y="-200" width="51" height="1030" fill="#ffffff" opacity="0.16" transform="rotate(20 600 315)"/><rect x="610" y="-200" width="57" height="1030" fill="#3A5BD9" opacity="0.17" transform="rotate(20 600 315)"/><rect x="756" y="-200" width="101" height="1030" fill="#26409e" opacity="0.29" transform="rotate(20 600 315)"/><rect x="918" y="-200" width="108" height="1030" fill="#ffffff" opacity="0.34" transform="rotate(20 600 315)"/><rect x="1078" y="-200" width="63" height="1030" fill="#ffffff" opacity="0.19" transform="rotate(20 600 315)"/><rect x="1212" y="-200" width="105" height="1030" fill="#26409e" opacity="0.35" transform="rotate(20 600 315)"/><rect x="1360" y="-200" width="91" height="1030" fill="#3A5BD9" opacity="0.26" transform="rotate(20 600 315)"/><rect width="1200" height="630" fill="url(#vig)"/><text x="44" y="590" font-family="ui-monospace,Menlo,Consolas,monospace" font-size="24" letter-spacing="3" fill="#ffffff" fill-opacity="0.62">HOW-TO GUIDE</text></svg>