<svg xmlns="http://www.w3.org/2000/svg" viewBox="0 0 1200 630" width="1200" height="630" role="img" aria-label="PRICING GUIDE"><defs><linearGradient id="gd100e6" x1="0" y1="0" x2="0" y2="1"><stop offset="0" stop-color="#7A5AF0"/><stop offset="1" stop-color="#33237b"/></linearGradient><filter id="blur"><feGaussianBlur stdDeviation="55"/></filter><radialGradient id="vig" cx="0.5" cy="0.4" r="0.75"><stop offset="0.6" stop-color="#000000" stop-opacity="0"/><stop offset="1" stop-color="#000000" stop-opacity="0.32"/></radialGradient></defs><rect width="1200" height="630" fill="url(#gd100e6)"/><rect x="-300" y="-200" width="50" height="1030" fill="#ffffff" opacity="0.36" transform="rotate(20 600 315)"/><rect x="-201" y="-200" width="68" height="1030" fill="#ffffff" opacity="0.22" transform="rotate(20 600 315)"/><rect x="-103" y="-200" width="119" height="1030" fill="#ffffff" opacity="0.27" transform="rotate(20 600 315)"/><rect x="56" y="-200" width="62" height="1030" fill="#7A5AF0" opacity="0.16" transform="rotate(20 600 315)"/><rect x="161" y="-200" width="78" height="1030" fill="#4A32B0" opacity="0.35" transform="rotate(20 600 315)"/><rect x="310" y="-200" width="115" height="1030" fill="#2FA8C4" opacity="0.19" transform="rotate(20 600 315)"/><rect x="456" y="-200" width="59" height="1030" fill="#7A5AF0" opacity="0.13" transform="rotate(20 600 315)"/><rect x="578" y="-200" width="67" height="1030" fill="#4A32B0" opacity="0.19" transform="rotate(20 600 315)"/><rect x="711" y="-200" width="87" height="1030" fill="#4A32B0" opacity="0.21" transform="rotate(20 600 315)"/><rect x="849" y="-200" width="98" height="1030" fill="#2FA8C4" opacity="0.16" transform="rotate(20 600 315)"/><rect x="1018" y="-200" width="104" height="1030" fill="#ffffff" opacity="0.13" transform="rotate(20 600 315)"/><rect x="1177" y="-200" width="105" height="1030" fill="#2FA8C4" opacity="0.21" transform="rotate(20 600 315)"/><rect x="1317" y="-200" width="66" height="1030" fill="#2FA8C4" opacity="0.17" transform="rotate(20 600 315)"/><rect x="1415" y="-200" width="108" height="1030" fill="#2FA8C4" opacity="0.2" transform="rotate(20 600 315)"/><rect width="1200" height="630" fill="url(#vig)"/><text x="44" y="590" font-family="ui-monospace,Menlo,Consolas,monospace" font-size="24" letter-spacing="3" fill="#ffffff" fill-opacity="0.62">PRICING GUIDE</text></svg>