<svg xmlns="http://www.w3.org/2000/svg" viewBox="0 0 1200 630" width="1200" height="630" role="img" aria-label="HOW-TO GUIDE"><defs><linearGradient id="gc8c5ba" x1="0.2" y1="0" x2="0.8" y2="1"><stop offset="0" stop-color="#B7472A"/><stop offset="1" stop-color="#642516"/></linearGradient><filter id="blur"><feGaussianBlur stdDeviation="55"/></filter><radialGradient id="vig" cx="0.5" cy="0.4" r="0.75"><stop offset="0.6" stop-color="#000000" stop-opacity="0"/><stop offset="1" stop-color="#000000" stop-opacity="0.32"/></radialGradient></defs><rect width="1200" height="630" fill="url(#gc8c5ba)"/><path d="M -50 440 Q 10 383 70 440 Q 130 497 190 440 Q 250 383 310 440 Q 370 497 430 440 Q 490 383 550 440 Q 610 497 670 440 Q 730 383 790 440 Q 850 497 910 440 Q 970 383 1030 440 Q 1090 497 1150 440 Q 1210 383 1270 440 L 1250 680 L -50 680 Z" fill="#3A5BD9" opacity="0.22"/><path d="M -50 426 Q 10 379 70 426 Q 130 473 190 426 Q 250 379 310 426 Q 370 473 430 426 Q 490 379 550 426 Q 610 473 670 426 Q 730 379 790 426 Q 850 473 910 426 Q 970 379 1030 426 Q 1090 473 1150 426 Q 1210 379 1270 426 L 1250 680 L -50 680 Z" fill="#ffffff" opacity="0.22"/><path d="M -50 525 Q 10 474 70 525 Q 130 576 190 525 Q 250 474 310 525 Q 370 576 430 525 Q 490 474 550 525 Q 610 576 670 525 Q 730 474 790 525 Q 850 576 910 525 Q 970 474 1030 525 Q 1090 576 1150 525 Q 1210 474 1270 525 L 1250 680 L -50 680 Z" fill="#3A5BD9" opacity="0.22"/><path d="M -50 125 Q 10 66 70 125 Q 130 184 190 125 Q 250 66 310 125 Q 370 184 430 125 Q 490 66 550 125 Q 610 184 670 125 Q 730 66 790 125 Q 850 184 910 125 Q 970 66 1030 125 Q 1090 184 1150 125 Q 1210 66 1270 125 L 1250 680 L -50 680 Z" fill="#B7472A" opacity="0.22"/><rect width="1200" height="630" fill="url(#vig)"/><text x="44" y="590" font-family="ui-monospace,Menlo,Consolas,monospace" font-size="24" letter-spacing="3" fill="#ffffff" fill-opacity="0.62">HOW-TO GUIDE</text></svg>