<svg xmlns="http://www.w3.org/2000/svg" viewBox="0 0 1200 630" width="1200" height="630" role="img" aria-label="HOW-TO GUIDE"><defs><linearGradient id="g020d2f" x1="0" y1="0" x2="0" y2="1"><stop offset="0" stop-color="#3A5BD9"/><stop offset="1" stop-color="#1a2c6e"/></linearGradient><filter id="blur"><feGaussianBlur stdDeviation="55"/></filter><radialGradient id="vig" cx="0.5" cy="0.4" r="0.75"><stop offset="0.6" stop-color="#000000" stop-opacity="0"/><stop offset="1" stop-color="#000000" stop-opacity="0.32"/></radialGradient></defs><rect width="1200" height="630" fill="url(#g020d2f)"/><path d="M -50 463 Q 10 426 70 463 Q 130 500 190 463 Q 250 426 310 463 Q 370 500 430 463 Q 490 426 550 463 Q 610 500 670 463 Q 730 426 790 463 Q 850 500 910 463 Q 970 426 1030 463 Q 1090 500 1150 463 Q 1210 426 1270 463 L 1250 680 L -50 680 Z" fill="#C64B3B" opacity="0.22"/><path d="M -50 375 Q 10 302 70 375 Q 130 448 190 375 Q 250 302 310 375 Q 370 448 430 375 Q 490 302 550 375 Q 610 448 670 375 Q 730 302 790 375 Q 850 448 910 375 Q 970 302 1030 375 Q 1090 448 1150 375 Q 1210 302 1270 375 L 1250 680 L -50 680 Z" fill="#C64B3B" opacity="0.22"/><path d="M -50 402 Q 10 369 70 402 Q 130 435 190 402 Q 250 369 310 402 Q 370 435 430 402 Q 490 369 550 402 Q 610 435 670 402 Q 730 369 790 402 Q 850 435 910 402 Q 970 369 1030 402 Q 1090 435 1150 402 Q 1210 369 1270 402 L 1250 680 L -50 680 Z" fill="#C64B3B" opacity="0.22"/><path d="M -50 460 Q 10 395 70 460 Q 130 525 190 460 Q 250 395 310 460 Q 370 525 430 460 Q 490 395 550 460 Q 610 525 670 460 Q 730 395 790 460 Q 850 525 910 460 Q 970 395 1030 460 Q 1090 525 1150 460 Q 1210 395 1270 460 L 1250 680 L -50 680 Z" fill="#26409e" opacity="0.22"/><path d="M -50 420 Q 10 342 70 420 Q 130 498 190 420 Q 250 342 310 420 Q 370 498 430 420 Q 490 342 550 420 Q 610 498 670 420 Q 730 342 790 420 Q 850 498 910 420 Q 970 342 1030 420 Q 1090 498 1150 420 Q 1210 342 1270 420 L 1250 680 L -50 680 Z" fill="#C64B3B" opacity="0.22"/><rect width="1200" height="630" fill="url(#vig)"/><text x="44" y="590" font-family="ui-monospace,Menlo,Consolas,monospace" font-size="24" letter-spacing="3" fill="#ffffff" fill-opacity="0.62">HOW-TO GUIDE</text></svg>