<svg xmlns="http://www.w3.org/2000/svg" viewBox="0 0 1200 630" width="1200" height="630" role="img" aria-label="SEO GUIDE"><defs><linearGradient id="gfd654b" x1="0" y1="0" x2="1" y2="0"><stop offset="0" stop-color="#2FA8C4"/><stop offset="1" stop-color="#155869"/></linearGradient><filter id="blur"><feGaussianBlur stdDeviation="55"/></filter><radialGradient id="vig" cx="0.5" cy="0.4" r="0.75"><stop offset="0.6" stop-color="#000000" stop-opacity="0"/><stop offset="1" stop-color="#000000" stop-opacity="0.32"/></radialGradient></defs><rect width="1200" height="630" fill="url(#gfd654b)"/><path d="M -50 265 Q 10 195 70 265 Q 130 335 190 265 Q 250 195 310 265 Q 370 335 430 265 Q 490 195 550 265 Q 610 335 670 265 Q 730 195 790 265 Q 850 335 910 265 Q 970 195 1030 265 Q 1090 335 1150 265 Q 1210 195 1270 265 L 1250 680 L -50 680 Z" fill="#2FA8C4" opacity="0.22"/><path d="M -50 311 Q 10 240 70 311 Q 130 382 190 311 Q 250 240 310 311 Q 370 382 430 311 Q 490 240 550 311 Q 610 382 670 311 Q 730 240 790 311 Q 850 382 910 311 Q 970 240 1030 311 Q 1090 382 1150 311 Q 1210 240 1270 311 L 1250 680 L -50 680 Z" fill="#1E7E96" opacity="0.22"/><path d="M -50 196 Q 10 154 70 196 Q 130 238 190 196 Q 250 154 310 196 Q 370 238 430 196 Q 490 154 550 196 Q 610 238 670 196 Q 730 154 790 196 Q 850 238 910 196 Q 970 154 1030 196 Q 1090 238 1150 196 Q 1210 154 1270 196 L 1250 680 L -50 680 Z" fill="#B7472A" opacity="0.22"/><path d="M -50 273 Q 10 235 70 273 Q 130 311 190 273 Q 250 235 310 273 Q 370 311 430 273 Q 490 235 550 273 Q 610 311 670 273 Q 730 235 790 273 Q 850 311 910 273 Q 970 235 1030 273 Q 1090 311 1150 273 Q 1210 235 1270 273 L 1250 680 L -50 680 Z" fill="#1E7E96" opacity="0.22"/><rect width="1200" height="630" fill="url(#vig)"/><text x="44" y="590" font-family="ui-monospace,Menlo,Consolas,monospace" font-size="24" letter-spacing="3" fill="#ffffff" fill-opacity="0.62">SEO GUIDE</text></svg>