<svg xmlns="http://www.w3.org/2000/svg" viewBox="0 0 1200 630" width="1200" height="630" role="img" aria-label="SEO GUIDE"><defs><linearGradient id="g02dd27" x1="1" y1="0" x2="0" y2="1"><stop offset="0" stop-color="#2E7D5B"/><stop offset="1" stop-color="#133b2c"/></linearGradient><filter id="blur"><feGaussianBlur stdDeviation="55"/></filter><radialGradient id="vig" cx="0.5" cy="0.4" r="0.75"><stop offset="0.6" stop-color="#000000" stop-opacity="0"/><stop offset="1" stop-color="#000000" stop-opacity="0.32"/></radialGradient></defs><rect width="1200" height="630" fill="url(#g02dd27)"/><path d="M -50 479 Q 10 437 70 479 Q 130 521 190 479 Q 250 437 310 479 Q 370 521 430 479 Q 490 437 550 479 Q 610 521 670 479 Q 730 437 790 479 Q 850 521 910 479 Q 970 437 1030 479 Q 1090 521 1150 479 Q 1210 437 1270 479 L 1250 680 L -50 680 Z" fill="#2E7D5B" opacity="0.22"/><path d="M -50 425 Q 10 394 70 425 Q 130 456 190 425 Q 250 394 310 425 Q 370 456 430 425 Q 490 394 550 425 Q 610 456 670 425 Q 730 394 790 425 Q 850 456 910 425 Q 970 394 1030 425 Q 1090 456 1150 425 Q 1210 394 1270 425 L 1250 680 L -50 680 Z" fill="#ffffff" opacity="0.22"/><path d="M -50 323 Q 10 270 70 323 Q 130 376 190 323 Q 250 270 310 323 Q 370 376 430 323 Q 490 270 550 323 Q 610 376 670 323 Q 730 270 790 323 Q 850 376 910 323 Q 970 270 1030 323 Q 1090 376 1150 323 Q 1210 270 1270 323 L 1250 680 L -50 680 Z" fill="#2E7D5B" opacity="0.22"/><path d="M -50 121 Q 10 91 70 121 Q 130 151 190 121 Q 250 91 310 121 Q 370 151 430 121 Q 490 91 550 121 Q 610 151 670 121 Q 730 91 790 121 Q 850 151 910 121 Q 970 91 1030 121 Q 1090 151 1150 121 Q 1210 91 1270 121 L 1250 680 L -50 680 Z" fill="#E5892B" opacity="0.22"/><path d="M -50 171 Q 10 139 70 171 Q 130 203 190 171 Q 250 139 310 171 Q 370 203 430 171 Q 490 139 550 171 Q 610 203 670 171 Q 730 139 790 171 Q 850 203 910 171 Q 970 139 1030 171 Q 1090 203 1150 171 Q 1210 139 1270 171 L 1250 680 L -50 680 Z" fill="#1c5540" opacity="0.22"/><rect width="1200" height="630" fill="url(#vig)"/><text x="44" y="590" font-family="ui-monospace,Menlo,Consolas,monospace" font-size="24" letter-spacing="3" fill="#ffffff" fill-opacity="0.62">SEO GUIDE</text></svg>