<svg xmlns="http://www.w3.org/2000/svg" viewBox="0 0 1200 630" width="1200" height="630" role="img" aria-label="HOW-TO GUIDE"><defs><linearGradient id="g82c588" x1="0" y1="0" x2="0" y2="1"><stop offset="0" stop-color="#B7472A"/><stop offset="1" stop-color="#642516"/></linearGradient><filter id="blur"><feGaussianBlur stdDeviation="55"/></filter><radialGradient id="vig" cx="0.5" cy="0.4" r="0.75"><stop offset="0.6" stop-color="#000000" stop-opacity="0"/><stop offset="1" stop-color="#000000" stop-opacity="0.32"/></radialGradient></defs><rect width="1200" height="630" fill="url(#g82c588)"/><polygon points="765,589 10,158 10,158" fill="#8f3520" opacity="0.21"/><polygon points="574,512 77,527 650,268" fill="#B7472A" opacity="0.23"/><polygon points="179,338 61,543 608,234" fill="#2FA8C4" opacity="0.14"/><polygon points="73,615 10,158 574,512" fill="#8f3520" opacity="0.3"/><polygon points="765,589 179,338 963,448" fill="#2FA8C4" opacity="0.15"/><polygon points="73,615 1011,193 650,268" fill="#2FA8C4" opacity="0.28"/><polygon points="73,615 1076,284 61,543" fill="#8f3520" opacity="0.2"/><polygon points="963,448 765,589 320,560" fill="#ffffff" opacity="0.12"/><polygon points="650,268 73,615 77,527" fill="#8f3520" opacity="0.13"/><polygon points="10,158 1036,446 61,543" fill="#ffffff" opacity="0.21"/><polygon points="320,560 1036,446 61,543" fill="#2FA8C4" opacity="0.23"/><rect width="1200" height="630" fill="url(#vig)"/><text x="44" y="590" font-family="ui-monospace,Menlo,Consolas,monospace" font-size="24" letter-spacing="3" fill="#ffffff" fill-opacity="0.62">HOW-TO GUIDE</text></svg>