<svg xmlns="http://www.w3.org/2000/svg" viewBox="0 0 1200 630" width="1200" height="630" role="img" aria-label="SEO GUIDE"><defs><linearGradient id="gbb7a4f" x1="1" y1="0" x2="0" y2="1"><stop offset="0" stop-color="#2FA8C4"/><stop offset="1" stop-color="#155869"/></linearGradient><filter id="blur"><feGaussianBlur stdDeviation="55"/></filter><radialGradient id="vig" cx="0.5" cy="0.4" r="0.75"><stop offset="0.6" stop-color="#000000" stop-opacity="0"/><stop offset="1" stop-color="#000000" stop-opacity="0.32"/></radialGradient></defs><rect width="1200" height="630" fill="url(#gbb7a4f)"/><polygon points="736,616 205,71 471,573" fill="#ffffff" opacity="0.22"/><polygon points="1102,250 205,71 526,544" fill="#1E7E96" opacity="0.28"/><polygon points="205,71 327,461 205,71" fill="#1E7E96" opacity="0.3"/><polygon points="471,573 668,166 1102,250" fill="#2FA8C4" opacity="0.16"/><polygon points="276,605 308,330 26,491" fill="#ffffff" opacity="0.16"/><polygon points="308,330 205,71 471,573" fill="#1E7E96" opacity="0.24"/><polygon points="29,626 471,573 1096,24" fill="#2FA8C4" opacity="0.18"/><polygon points="668,166 327,461 26,491" fill="#ffffff" opacity="0.26"/><polygon points="308,330 1102,250 471,573" fill="#ffffff" opacity="0.17"/><polygon points="526,544 1096,24 308,330" fill="#1E7E96" opacity="0.26"/><polygon points="205,71 26,491 205,71" fill="#B7472A" opacity="0.27"/><polygon points="736,616 668,166 26,491" fill="#ffffff" opacity="0.2"/><polygon points="29,626 736,616 327,461" fill="#ffffff" opacity="0.19"/><polygon points="471,573 276,605 276,605" fill="#ffffff" opacity="0.3"/><rect width="1200" height="630" fill="url(#vig)"/><text x="44" y="590" font-family="ui-monospace,Menlo,Consolas,monospace" font-size="24" letter-spacing="3" fill="#ffffff" fill-opacity="0.62">SEO GUIDE</text></svg>