<svg xmlns="http://www.w3.org/2000/svg" viewBox="0 0 1200 630" width="1200" height="630" role="img" aria-label="COMPARISON"><defs><linearGradient id="g45d220" x1="0" y1="0" x2="1" y2="1"><stop offset="0" stop-color="#7A5AF0"/><stop offset="1" stop-color="#33237b"/></linearGradient><filter id="blur"><feGaussianBlur stdDeviation="55"/></filter><radialGradient id="vig" cx="0.5" cy="0.4" r="0.75"><stop offset="0.6" stop-color="#000000" stop-opacity="0"/><stop offset="1" stop-color="#000000" stop-opacity="0.32"/></radialGradient></defs><rect width="1200" height="630" fill="url(#g45d220)"/><path d="M -50 169 Q 10 122 70 169 Q 130 216 190 169 Q 250 122 310 169 Q 370 216 430 169 Q 490 122 550 169 Q 610 216 670 169 Q 730 122 790 169 Q 850 216 910 169 Q 970 122 1030 169 Q 1090 216 1150 169 Q 1210 122 1270 169 L 1250 680 L -50 680 Z" fill="#7A5AF0" opacity="0.22"/><path d="M -50 351 Q 10 311 70 351 Q 130 391 190 351 Q 250 311 310 351 Q 370 391 430 351 Q 490 311 550 351 Q 610 391 670 351 Q 730 311 790 351 Q 850 391 910 351 Q 970 311 1030 351 Q 1090 391 1150 351 Q 1210 311 1270 351 L 1250 680 L -50 680 Z" fill="#ffffff" opacity="0.22"/><path d="M -50 260 Q 10 222 70 260 Q 130 298 190 260 Q 250 222 310 260 Q 370 298 430 260 Q 490 222 550 260 Q 610 298 670 260 Q 730 222 790 260 Q 850 298 910 260 Q 970 222 1030 260 Q 1090 298 1150 260 Q 1210 222 1270 260 L 1250 680 L -50 680 Z" fill="#D6478E" opacity="0.22"/><path d="M -50 361 Q 10 306 70 361 Q 130 416 190 361 Q 250 306 310 361 Q 370 416 430 361 Q 490 306 550 361 Q 610 416 670 361 Q 730 306 790 361 Q 850 416 910 361 Q 970 306 1030 361 Q 1090 416 1150 361 Q 1210 306 1270 361 L 1250 680 L -50 680 Z" fill="#7A5AF0" opacity="0.22"/><path d="M -50 328 Q 10 251 70 328 Q 130 405 190 328 Q 250 251 310 328 Q 370 405 430 328 Q 490 251 550 328 Q 610 405 670 328 Q 730 251 790 328 Q 850 405 910 328 Q 970 251 1030 328 Q 1090 405 1150 328 Q 1210 251 1270 328 L 1250 680 L -50 680 Z" fill="#ffffff" opacity="0.22"/><rect width="1200" height="630" fill="url(#vig)"/><text x="44" y="590" font-family="ui-monospace,Menlo,Consolas,monospace" font-size="24" letter-spacing="3" fill="#ffffff" fill-opacity="0.62">COMPARISON</text></svg>