<svg xmlns="http://www.w3.org/2000/svg" viewBox="0 0 1200 630" width="1200" height="630" role="img" aria-label="SEO GUIDE"><defs><linearGradient id="g2a2be2" x1="0.2" y1="0" x2="0.8" y2="1"><stop offset="0" stop-color="#2FA8C4"/><stop offset="1" stop-color="#155869"/></linearGradient><filter id="blur"><feGaussianBlur stdDeviation="55"/></filter><radialGradient id="vig" cx="0.5" cy="0.4" r="0.75"><stop offset="0.6" stop-color="#000000" stop-opacity="0"/><stop offset="1" stop-color="#000000" stop-opacity="0.32"/></radialGradient></defs><rect width="1200" height="630" fill="url(#g2a2be2)"/><path d="M -50 183 Q 10 131 70 183 Q 130 235 190 183 Q 250 131 310 183 Q 370 235 430 183 Q 490 131 550 183 Q 610 235 670 183 Q 730 131 790 183 Q 850 235 910 183 Q 970 131 1030 183 Q 1090 235 1150 183 Q 1210 131 1270 183 L 1250 680 L -50 680 Z" fill="#2E7D5B" opacity="0.22"/><path d="M -50 546 Q 10 509 70 546 Q 130 583 190 546 Q 250 509 310 546 Q 370 583 430 546 Q 490 509 550 546 Q 610 583 670 546 Q 730 509 790 546 Q 850 583 910 546 Q 970 509 1030 546 Q 1090 583 1150 546 Q 1210 509 1270 546 L 1250 680 L -50 680 Z" fill="#2E7D5B" opacity="0.22"/><path d="M -50 529 Q 10 489 70 529 Q 130 569 190 529 Q 250 489 310 529 Q 370 569 430 529 Q 490 489 550 529 Q 610 569 670 529 Q 730 489 790 529 Q 850 569 910 529 Q 970 489 1030 529 Q 1090 569 1150 529 Q 1210 489 1270 529 L 1250 680 L -50 680 Z" fill="#2FA8C4" opacity="0.22"/><path d="M -50 279 Q 10 248 70 279 Q 130 310 190 279 Q 250 248 310 279 Q 370 310 430 279 Q 490 248 550 279 Q 610 310 670 279 Q 730 248 790 279 Q 850 310 910 279 Q 970 248 1030 279 Q 1090 310 1150 279 Q 1210 248 1270 279 L 1250 680 L -50 680 Z" fill="#2FA8C4" opacity="0.22"/><path d="M -50 160 Q 10 129 70 160 Q 130 191 190 160 Q 250 129 310 160 Q 370 191 430 160 Q 490 129 550 160 Q 610 191 670 160 Q 730 129 790 160 Q 850 191 910 160 Q 970 129 1030 160 Q 1090 191 1150 160 Q 1210 129 1270 160 L 1250 680 L -50 680 Z" fill="#2E7D5B" opacity="0.22"/><rect width="1200" height="630" fill="url(#vig)"/><text x="44" y="590" font-family="ui-monospace,Menlo,Consolas,monospace" font-size="24" letter-spacing="3" fill="#ffffff" fill-opacity="0.62">SEO GUIDE</text></svg>