<svg xmlns="http://www.w3.org/2000/svg" viewBox="0 0 1200 630" width="1200" height="630" role="img" aria-label="COMPARISON"><defs><linearGradient id="gdfe1f1" x1="0" y1="0" x2="1" y2="1"><stop offset="0" stop-color="#7A5AF0"/><stop offset="1" stop-color="#33237b"/></linearGradient><filter id="blur"><feGaussianBlur stdDeviation="55"/></filter><radialGradient id="vig" cx="0.5" cy="0.4" r="0.75"><stop offset="0.6" stop-color="#000000" stop-opacity="0"/><stop offset="1" stop-color="#000000" stop-opacity="0.32"/></radialGradient></defs><rect width="1200" height="630" fill="url(#gdfe1f1)"/><path d="M -50 301 Q 10 230 70 301 Q 130 372 190 301 Q 250 230 310 301 Q 370 372 430 301 Q 490 230 550 301 Q 610 372 670 301 Q 730 230 790 301 Q 850 372 910 301 Q 970 230 1030 301 Q 1090 372 1150 301 Q 1210 230 1270 301 L 1250 680 L -50 680 Z" fill="#4A32B0" opacity="0.22"/><path d="M -50 193 Q 10 122 70 193 Q 130 264 190 193 Q 250 122 310 193 Q 370 264 430 193 Q 490 122 550 193 Q 610 264 670 193 Q 730 122 790 193 Q 850 264 910 193 Q 970 122 1030 193 Q 1090 264 1150 193 Q 1210 122 1270 193 L 1250 680 L -50 680 Z" fill="#ffffff" opacity="0.22"/><path d="M -50 129 Q 10 90 70 129 Q 130 168 190 129 Q 250 90 310 129 Q 370 168 430 129 Q 490 90 550 129 Q 610 168 670 129 Q 730 90 790 129 Q 850 168 910 129 Q 970 90 1030 129 Q 1090 168 1150 129 Q 1210 90 1270 129 L 1250 680 L -50 680 Z" fill="#7A5AF0" opacity="0.22"/><path d="M -50 461 Q 10 396 70 461 Q 130 526 190 461 Q 250 396 310 461 Q 370 526 430 461 Q 490 396 550 461 Q 610 526 670 461 Q 730 396 790 461 Q 850 526 910 461 Q 970 396 1030 461 Q 1090 526 1150 461 Q 1210 396 1270 461 L 1250 680 L -50 680 Z" fill="#ffffff" opacity="0.22"/><path d="M -50 530 Q 10 475 70 530 Q 130 585 190 530 Q 250 475 310 530 Q 370 585 430 530 Q 490 475 550 530 Q 610 585 670 530 Q 730 475 790 530 Q 850 585 910 530 Q 970 475 1030 530 Q 1090 585 1150 530 Q 1210 475 1270 530 L 1250 680 L -50 680 Z" fill="#7A5AF0" opacity="0.22"/><path d="M -50 323 Q 10 267 70 323 Q 130 379 190 323 Q 250 267 310 323 Q 370 379 430 323 Q 490 267 550 323 Q 610 379 670 323 Q 730 267 790 323 Q 850 379 910 323 Q 970 267 1030 323 Q 1090 379 1150 323 Q 1210 267 1270 323 L 1250 680 L -50 680 Z" fill="#7A5AF0" opacity="0.22"/><rect width="1200" height="630" fill="url(#vig)"/><text x="44" y="590" font-family="ui-monospace,Menlo,Consolas,monospace" font-size="24" letter-spacing="3" fill="#ffffff" fill-opacity="0.62">COMPARISON</text></svg>