<svg xmlns="http://www.w3.org/2000/svg" viewBox="0 0 1200 630" width="1200" height="630" role="img" aria-label="HOSPITALITY WEBSITES · CHELMSFORD"><defs><linearGradient id="g4ffa4b" x1="0" y1="0" x2="1" y2="0"><stop offset="0" stop-color="#C64B3B"/><stop offset="1" stop-color="#642017"/></linearGradient><filter id="blur"><feGaussianBlur stdDeviation="55"/></filter><radialGradient id="vig" cx="0.5" cy="0.4" r="0.75"><stop offset="0.6" stop-color="#000000" stop-opacity="0"/><stop offset="1" stop-color="#000000" stop-opacity="0.32"/></radialGradient></defs><rect width="1200" height="630" fill="url(#g4ffa4b)"/><circle cx="30" cy="30" r="4.4" fill="#C64B3B" opacity="0.5"/><circle cx="86" cy="30" r="4.0" fill="#C64B3B" opacity="0.5"/><circle cx="142" cy="30" r="5.2" fill="#C64B3B" opacity="0.5"/><circle cx="198" cy="30" r="6.3" fill="#C64B3B" opacity="0.5"/><circle cx="254" cy="30" r="7.3" fill="#C64B3B" opacity="0.5"/><circle cx="310" cy="30" r="8.1" fill="#C64B3B" opacity="0.5"/><circle cx="366" cy="30" r="8.6" fill="#C64B3B" opacity="0.5"/><circle cx="422" cy="30" r="8.9" fill="#C64B3B" opacity="0.5"/><circle cx="478" cy="30" r="9.0" fill="#C64B3B" opacity="0.5"/><circle cx="534" cy="30" r="8.8" fill="#C64B3B" opacity="0.5"/><circle cx="590" cy="30" r="8.3" fill="#C64B3B" opacity="0.5"/><circle cx="646" cy="30" r="7.6" fill="#C64B3B" opacity="0.5"/><circle cx="702" cy="30" r="6.7" fill="#C64B3B" opacity="0.5"/><circle cx="758" cy="30" r="5.6" fill="#C64B3B" opacity="0.5"/><circle cx="814" cy="30" r="4.4" fill="#C64B3B" opacity="0.5"/><circle cx="870" cy="30" r="4.0" fill="#C64B3B" opacity="0.5"/><circle cx="926" cy="30" r="5.2" fill="#C64B3B" opacity="0.5"/><circle cx="982" cy="30" r="6.3" fill="#C64B3B" opacity="0.5"/><circle cx="1038" cy="30" r="7.2" fill="#C64B3B" opacity="0.5"/><circle cx="1094" cy="30" r="8.0" fill="#C64B3B" opacity="0.5"/><circle cx="1150" cy="30" r="8.6" fill="#C64B3B" opacity="0.5"/><circle cx="30" cy="86" r="4.0" fill="#C64B3B" opacity="0.5"/><circle cx="86" cy="86" r="5.2" fill="#C64B3B" opacity="0.5"/><circle cx="142" cy="86" r="6.3" fill="#C64B3B" opacity="0.5"/><circle cx="198" cy="86" r="7.3" fill="#C64B3B" opacity="0.5"/><circle cx="254" cy="86" r="8.1" fill="#C64B3B" opacity="0.5"/><circle cx="310" cy="86" r="8.6" fill="#C64B3B" opacity="0.5"/><circle cx="366" cy="86" r="8.9" fill="#C64B3B" opacity="0.5"/><circle cx="422" cy="86" r="9.0" fill="#C64B3B" opacity="0.5"/><circle cx="478" cy="86" r="8.8" fill="#C64B3B" opacity="0.5"/><circle cx="534" cy="86" r="8.3" fill="#C64B3B" opacity="0.5"/><circle cx="590" cy="86" r="7.6" fill="#C64B3B" opacity="0.5"/><circle cx="646" cy="86" r="6.7" fill="#C64B3B" opacity="0.5"/><circle cx="702" cy="86" r="5.6" fill="#C64B3B" opacity="0.5"/><circle cx="758" cy="86" r="4.4" fill="#C64B3B" opacity="0.5"/><circle cx="814" cy="86" r="4.0" fill="#C64B3B" opacity="0.5"/><circle cx="870" cy="86" r="5.2" fill="#C64B3B" opacity="0.5"/><circle cx="926" cy="86" r="6.3" fill="#C64B3B" opacity="0.5"/><circle cx="982" cy="86" r="7.2" fill="#C64B3B" opacity="0.5"/><circle cx="1038" cy="86" r="8.0" fill="#C64B3B" opacity="0.5"/><circle cx="1094" cy="86" r="8.6" fill="#C64B3B" opacity="0.5"/><circle cx="1150" cy="86" r="8.9" fill="#C64B3B" opacity="0.5"/><circle cx="30" cy="142" r="5.2" fill="#C64B3B" opacity="0.5"/><circle cx="86" cy="142" r="6.3" fill="#C64B3B" opacity="0.5"/><circle cx="142" cy="142" r="7.3" fill="#C64B3B" opacity="0.5"/><circle cx="198" cy="142" r="8.1" fill="#C64B3B" opacity="0.5"/><circle cx="254" cy="142" r="8.6" fill="#C64B3B" opacity="0.5"/><circle cx="310" cy="142" r="8.9" fill="#C64B3B" opacity="0.5"/><circle cx="366" cy="142" r="9.0" fill="#C64B3B" opacity="0.5"/><circle cx="422" cy="142" r="8.8" fill="#C64B3B" opacity="0.5"/><circle cx="478" cy="142" r="8.3" fill="#C64B3B" opacity="0.5"/><circle cx="534" cy="142" r="7.6" fill="#C64B3B" opacity="0.5"/><circle cx="590" cy="142" r="6.7" fill="#C64B3B" opacity="0.5"/><circle cx="646" cy="142" r="5.6" fill="#C64B3B" opacity="0.5"/><circle cx="702" cy="142" r="4.4" fill="#C64B3B" opacity="0.5"/><circle cx="758" cy="142" r="4.0" fill="#C64B3B" opacity="0.5"/><circle cx="814" cy="142" r="5.2" fill="#C64B3B" opacity="0.5"/><circle cx="870" cy="142" r="6.3" fill="#C64B3B" opacity="0.5"/><circle cx="926" cy="142" r="7.2" fill="#C64B3B" opacity="0.5"/><circle cx="982" cy="142" r="8.0" fill="#C64B3B" opacity="0.5"/><circle cx="1038" cy="142" r="8.6" fill="#C64B3B" opacity="0.5"/><circle cx="1094" cy="142" r="8.9" fill="#C64B3B" opacity="0.5"/><circle cx="1150" cy="142" r="9.0" fill="#C64B3B" opacity="0.5"/><circle cx="30" cy="198" r="6.3" fill="#C64B3B" opacity="0.5"/><circle cx="86" cy="198" r="7.3" fill="#C64B3B" opacity="0.5"/><circle cx="142" cy="198" r="8.1" fill="#C64B3B" opacity="0.5"/><circle cx="198" cy="198" r="8.6" fill="#C64B3B" opacity="0.5"/><circle cx="254" cy="198" r="8.9" fill="#C64B3B" opacity="0.5"/><circle cx="310" cy="198" r="9.0" fill="#C64B3B" opacity="0.5"/><circle cx="366" cy="198" r="8.8" fill="#C64B3B" opacity="0.5"/><circle cx="422" cy="198" r="8.3" fill="#C64B3B" opacity="0.5"/><circle cx="478" cy="198" r="7.6" fill="#C64B3B" opacity="0.5"/><circle cx="534" cy="198" r="6.7" fill="#C64B3B" opacity="0.5"/><circle cx="590" cy="198" r="5.6" fill="#C64B3B" opacity="0.5"/><circle cx="646" cy="198" r="4.4" fill="#C64B3B" opacity="0.5"/><circle cx="702" cy="198" r="4.0" fill="#C64B3B" opacity="0.5"/><circle cx="758" cy="198" r="5.2" fill="#C64B3B" opacity="0.5"/><circle cx="814" cy="198" r="6.3" fill="#C64B3B" opacity="0.5"/><circle cx="870" cy="198" r="7.2" fill="#C64B3B" opacity="0.5"/><circle cx="926" cy="198" r="8.0" fill="#C64B3B" opacity="0.5"/><circle cx="982" cy="198" r="8.6" fill="#C64B3B" opacity="0.5"/><circle cx="1038" cy="198" r="8.9" fill="#C64B3B" opacity="0.5"/><circle cx="1094" cy="198" r="9.0" fill="#C64B3B" opacity="0.5"/><circle cx="1150" cy="198" r="8.8" fill="#C64B3B" opacity="0.5"/><circle cx="30" cy="254" r="7.3" fill="#C64B3B" opacity="0.5"/><circle cx="86" cy="254" r="8.1" fill="#C64B3B" opacity="0.5"/><circle cx="142" cy="254" r="8.6" fill="#C64B3B" opacity="0.5"/><circle cx="198" cy="254" r="8.9" fill="#C64B3B" opacity="0.5"/><circle cx="254" cy="254" r="9.0" fill="#C64B3B" opacity="0.5"/><circle cx="310" cy="254" r="8.8" fill="#C64B3B" opacity="0.5"/><circle cx="366" cy="254" r="8.3" fill="#C64B3B" opacity="0.5"/><circle cx="422" cy="254" r="7.6" fill="#C64B3B" opacity="0.5"/><circle cx="478" cy="254" r="6.7" fill="#C64B3B" opacity="0.5"/><circle cx="534" cy="254" r="5.6" fill="#C64B3B" opacity="0.5"/><circle cx="590" cy="254" r="4.4" fill="#C64B3B" opacity="0.5"/><circle cx="646" cy="254" r="4.0" fill="#C64B3B" opacity="0.5"/><circle cx="702" cy="254" r="5.2" fill="#C64B3B" opacity="0.5"/><circle cx="758" cy="254" r="6.3" fill="#C64B3B" opacity="0.5"/><circle cx="814" cy="254" r="7.2" fill="#C64B3B" opacity="0.5"/><circle cx="870" cy="254" r="8.0" fill="#C64B3B" opacity="0.5"/><circle cx="926" cy="254" r="8.6" fill="#C64B3B" opacity="0.5"/><circle cx="982" cy="254" r="8.9" fill="#C64B3B" opacity="0.5"/><circle cx="1038" cy="254" r="9.0" fill="#C64B3B" opacity="0.5"/><circle cx="1094" cy="254" r="8.8" fill="#C64B3B" opacity="0.5"/><circle cx="1150" cy="254" r="8.3" fill="#C64B3B" opacity="0.5"/><circle cx="30" cy="310" r="8.1" fill="#C64B3B" opacity="0.5"/><circle cx="86" cy="310" r="8.6" fill="#C64B3B" opacity="0.5"/><circle cx="142" cy="310" r="8.9" fill="#C64B3B" opacity="0.5"/><circle cx="198" cy="310" r="9.0" fill="#C64B3B" opacity="0.5"/><circle cx="254" cy="310" r="8.8" fill="#C64B3B" opacity="0.5"/><circle cx="310" cy="310" r="8.3" fill="#C64B3B" opacity="0.5"/><circle cx="366" cy="310" r="7.6" fill="#C64B3B" opacity="0.5"/><circle cx="422" cy="310" r="6.7" fill="#C64B3B" opacity="0.5"/><circle cx="478" cy="310" r="5.6" fill="#C64B3B" opacity="0.5"/><circle cx="534" cy="310" r="4.4" fill="#C64B3B" opacity="0.5"/><circle cx="590" cy="310" r="4.0" fill="#C64B3B" opacity="0.5"/><circle cx="646" cy="310" r="5.2" fill="#C64B3B" opacity="0.5"/><circle cx="702" cy="310" r="6.3" fill="#C64B3B" opacity="0.5"/><circle cx="758" cy="310" r="7.2" fill="#C64B3B" opacity="0.5"/><circle cx="814" cy="310" r="8.0" fill="#C64B3B" opacity="0.5"/><circle cx="870" cy="310" r="8.6" fill="#C64B3B" opacity="0.5"/><circle cx="926" cy="310" r="8.9" fill="#C64B3B" opacity="0.5"/><circle cx="982" cy="310" r="9.0" fill="#C64B3B" opacity="0.5"/><circle cx="1038" cy="310" r="8.8" fill="#C64B3B" opacity="0.5"/><circle cx="1094" cy="310" r="8.3" fill="#C64B3B" opacity="0.5"/><circle cx="1150" cy="310" r="7.6" fill="#C64B3B" opacity="0.5"/><circle cx="30" cy="366" r="8.6" fill="#C64B3B" opacity="0.5"/><circle cx="86" cy="366" r="8.9" fill="#C64B3B" opacity="0.5"/><circle cx="142" cy="366" r="9.0" fill="#C64B3B" opacity="0.5"/><circle cx="198" cy="366" r="8.8" fill="#C64B3B" opacity="0.5"/><circle cx="254" cy="366" r="8.3" fill="#C64B3B" opacity="0.5"/><circle cx="310" cy="366" r="7.6" fill="#C64B3B" opacity="0.5"/><circle cx="366" cy="366" r="6.7" fill="#C64B3B" opacity="0.5"/><circle cx="422" cy="366" r="5.6" fill="#C64B3B" opacity="0.5"/><circle cx="478" cy="366" r="4.4" fill="#C64B3B" opacity="0.5"/><circle cx="534" cy="366" r="4.0" fill="#C64B3B" opacity="0.5"/><circle cx="590" cy="366" r="5.2" fill="#C64B3B" opacity="0.5"/><circle cx="646" cy="366" r="6.3" fill="#C64B3B" opacity="0.5"/><circle cx="702" cy="366" r="7.2" fill="#C64B3B" opacity="0.5"/><circle cx="758" cy="366" r="8.0" fill="#C64B3B" opacity="0.5"/><circle cx="814" cy="366" r="8.6" fill="#C64B3B" opacity="0.5"/><circle cx="870" cy="366" r="8.9" fill="#C64B3B" opacity="0.5"/><circle cx="926" cy="366" r="9.0" fill="#C64B3B" opacity="0.5"/><circle cx="982" cy="366" r="8.8" fill="#C64B3B" opacity="0.5"/><circle cx="1038" cy="366" r="8.3" fill="#C64B3B" opacity="0.5"/><circle cx="1094" cy="366" r="7.6" fill="#C64B3B" opacity="0.5"/><circle cx="1150" cy="366" r="6.7" fill="#C64B3B" opacity="0.5"/><circle cx="30" cy="422" r="8.9" fill="#C64B3B" opacity="0.5"/><circle cx="86" cy="422" r="9.0" fill="#C64B3B" opacity="0.5"/><circle cx="142" cy="422" r="8.8" fill="#C64B3B" opacity="0.5"/><circle cx="198" cy="422" r="8.3" fill="#C64B3B" opacity="0.5"/><circle cx="254" cy="422" r="7.6" fill="#C64B3B" opacity="0.5"/><circle cx="310" cy="422" r="6.7" fill="#C64B3B" opacity="0.5"/><circle cx="366" cy="422" r="5.6" fill="#C64B3B" opacity="0.5"/><circle cx="422" cy="422" r="4.4" fill="#C64B3B" opacity="0.5"/><circle cx="478" cy="422" r="4.0" fill="#C64B3B" opacity="0.5"/><circle cx="534" cy="422" r="5.2" fill="#C64B3B" opacity="0.5"/><circle cx="590" cy="422" r="6.3" fill="#C64B3B" opacity="0.5"/><circle cx="646" cy="422" r="7.2" fill="#C64B3B" opacity="0.5"/><circle cx="702" cy="422" r="8.0" fill="#C64B3B" opacity="0.5"/><circle cx="758" cy="422" r="8.6" fill="#C64B3B" opacity="0.5"/><circle cx="814" cy="422" r="8.9" fill="#C64B3B" opacity="0.5"/><circle cx="870" cy="422" r="9.0" fill="#C64B3B" opacity="0.5"/><circle cx="926" cy="422" r="8.8" fill="#C64B3B" opacity="0.5"/><circle cx="982" cy="422" r="8.3" fill="#C64B3B" opacity="0.5"/><circle cx="1038" cy="422" r="7.6" fill="#C64B3B" opacity="0.5"/><circle cx="1094" cy="422" r="6.7" fill="#C64B3B" opacity="0.5"/><circle cx="1150" cy="422" r="5.6" fill="#C64B3B" opacity="0.5"/><circle cx="30" cy="478" r="9.0" fill="#C64B3B" opacity="0.5"/><circle cx="86" cy="478" r="8.8" fill="#C64B3B" opacity="0.5"/><circle cx="142" cy="478" r="8.3" fill="#C64B3B" opacity="0.5"/><circle cx="198" cy="478" r="7.6" fill="#C64B3B" opacity="0.5"/><circle cx="254" cy="478" r="6.7" fill="#C64B3B" opacity="0.5"/><circle cx="310" cy="478" r="5.6" fill="#C64B3B" opacity="0.5"/><circle cx="366" cy="478" r="4.4" fill="#C64B3B" opacity="0.5"/><circle cx="422" cy="478" r="4.0" fill="#C64B3B" opacity="0.5"/><circle cx="478" cy="478" r="5.2" fill="#C64B3B" opacity="0.5"/><circle cx="534" cy="478" r="6.3" fill="#C64B3B" opacity="0.5"/><circle cx="590" cy="478" r="7.2" fill="#C64B3B" opacity="0.5"/><circle cx="646" cy="478" r="8.0" fill="#C64B3B" opacity="0.5"/><circle cx="702" cy="478" r="8.6" fill="#C64B3B" opacity="0.5"/><circle cx="758" cy="478" r="8.9" fill="#C64B3B" opacity="0.5"/><circle cx="814" cy="478" r="9.0" fill="#C64B3B" opacity="0.5"/><circle cx="870" cy="478" r="8.8" fill="#C64B3B" opacity="0.5"/><circle cx="926" cy="478" r="8.3" fill="#C64B3B" opacity="0.5"/><circle cx="982" cy="478" r="7.6" fill="#C64B3B" opacity="0.5"/><circle cx="1038" cy="478" r="6.7" fill="#C64B3B" opacity="0.5"/><circle cx="1094" cy="478" r="5.6" fill="#C64B3B" opacity="0.5"/><circle cx="1150" cy="478" r="4.5" fill="#C64B3B" opacity="0.5"/><circle cx="30" cy="534" r="8.8" fill="#C64B3B" opacity="0.5"/><circle cx="86" cy="534" r="8.3" fill="#C64B3B" opacity="0.5"/><circle cx="142" cy="534" r="7.6" fill="#C64B3B" opacity="0.5"/><circle cx="198" cy="534" r="6.7" fill="#C64B3B" opacity="0.5"/><circle cx="254" cy="534" r="5.6" fill="#C64B3B" opacity="0.5"/><circle cx="310" cy="534" r="4.4" fill="#C64B3B" opacity="0.5"/><circle cx="366" cy="534" r="4.0" fill="#C64B3B" opacity="0.5"/><circle cx="422" cy="534" r="5.2" fill="#C64B3B" opacity="0.5"/><circle cx="478" cy="534" r="6.3" fill="#C64B3B" opacity="0.5"/><circle cx="534" cy="534" r="7.2" fill="#C64B3B" opacity="0.5"/><circle cx="590" cy="534" r="8.0" fill="#C64B3B" opacity="0.5"/><circle cx="646" cy="534" r="8.6" fill="#C64B3B" opacity="0.5"/><circle cx="702" cy="534" r="8.9" fill="#C64B3B" opacity="0.5"/><circle cx="758" cy="534" r="9.0" fill="#C64B3B" opacity="0.5"/><circle cx="814" cy="534" r="8.8" fill="#C64B3B" opacity="0.5"/><circle cx="870" cy="534" r="8.3" fill="#C64B3B" opacity="0.5"/><circle cx="926" cy="534" r="7.6" fill="#C64B3B" opacity="0.5"/><circle cx="982" cy="534" r="6.7" fill="#C64B3B" opacity="0.5"/><circle cx="1038" cy="534" r="5.6" fill="#C64B3B" opacity="0.5"/><circle cx="1094" cy="534" r="4.5" fill="#C64B3B" opacity="0.5"/><circle cx="1150" cy="534" r="3.9" fill="#C64B3B" opacity="0.5"/><circle cx="30" cy="590" r="8.3" fill="#C64B3B" opacity="0.5"/><circle cx="86" cy="590" r="7.6" fill="#C64B3B" opacity="0.5"/><circle cx="142" cy="590" r="6.7" fill="#C64B3B" opacity="0.5"/><circle cx="198" cy="590" r="5.6" fill="#C64B3B" opacity="0.5"/><circle cx="254" cy="590" r="4.4" fill="#C64B3B" opacity="0.5"/><circle cx="310" cy="590" r="4.0" fill="#C64B3B" opacity="0.5"/><circle cx="366" cy="590" r="5.2" fill="#C64B3B" opacity="0.5"/><circle cx="422" cy="590" r="6.3" fill="#C64B3B" opacity="0.5"/><circle cx="478" cy="590" r="7.2" fill="#C64B3B" opacity="0.5"/><circle cx="534" cy="590" r="8.0" fill="#C64B3B" opacity="0.5"/><circle cx="590" cy="590" r="8.6" fill="#C64B3B" opacity="0.5"/><circle cx="646" cy="590" r="8.9" fill="#C64B3B" opacity="0.5"/><circle cx="702" cy="590" r="9.0" fill="#C64B3B" opacity="0.5"/><circle cx="758" cy="590" r="8.8" fill="#C64B3B" opacity="0.5"/><circle cx="814" cy="590" r="8.3" fill="#C64B3B" opacity="0.5"/><circle cx="870" cy="590" r="7.6" fill="#C64B3B" opacity="0.5"/><circle cx="926" cy="590" r="6.7" fill="#C64B3B" opacity="0.5"/><circle cx="982" cy="590" r="5.6" fill="#C64B3B" opacity="0.5"/><circle cx="1038" cy="590" r="4.5" fill="#C64B3B" opacity="0.5"/><circle cx="1094" cy="590" r="3.9" fill="#C64B3B" opacity="0.5"/><circle cx="1150" cy="590" r="5.1" fill="#C64B3B" opacity="0.5"/><rect width="1200" height="630" fill="url(#vig)"/><text x="44" y="590" font-family="ui-monospace,Menlo,Consolas,monospace" font-size="24" letter-spacing="3" fill="#ffffff" fill-opacity="0.62">HOSPITALITY WEBSITES · CHELMSFORD</text></svg>