<svg xmlns="http://www.w3.org/2000/svg" viewBox="0 0 1200 630" width="1200" height="630" role="img" aria-label="HOSPITALITY WEBSITES · NEWCASTLE"><defs><linearGradient id="gd712d3" x1="0" y1="0" x2="1" y2="1"><stop offset="0" stop-color="#C64B3B"/><stop offset="1" stop-color="#642017"/></linearGradient><filter id="blur"><feGaussianBlur stdDeviation="55"/></filter><radialGradient id="vig" cx="0.5" cy="0.4" r="0.75"><stop offset="0.6" stop-color="#000000" stop-opacity="0"/><stop offset="1" stop-color="#000000" stop-opacity="0.32"/></radialGradient></defs><rect width="1200" height="630" fill="url(#gd712d3)"/><rect x="-300" y="-200" width="116" height="1030" fill="#ffffff" opacity="0.36" transform="rotate(-20 600 315)"/><rect x="-137" y="-200" width="108" height="1030" fill="#8F2E22" opacity="0.37" transform="rotate(-20 600 315)"/><rect x="42" y="-200" width="107" height="1030" fill="#E5892B" opacity="0.2" transform="rotate(-20 600 315)"/><rect x="226" y="-200" width="84" height="1030" fill="#ffffff" opacity="0.26" transform="rotate(-20 600 315)"/><rect x="347" y="-200" width="112" height="1030" fill="#E5892B" opacity="0.25" transform="rotate(-20 600 315)"/><rect x="532" y="-200" width="72" height="1030" fill="#8F2E22" opacity="0.19" transform="rotate(-20 600 315)"/><rect x="679" y="-200" width="71" height="1030" fill="#C64B3B" opacity="0.14" transform="rotate(-20 600 315)"/><rect x="784" y="-200" width="96" height="1030" fill="#C64B3B" opacity="0.21" transform="rotate(-20 600 315)"/><rect x="923" y="-200" width="51" height="1030" fill="#8F2E22" opacity="0.33" transform="rotate(-20 600 315)"/><rect x="1039" y="-200" width="79" height="1030" fill="#8F2E22" opacity="0.27" transform="rotate(-20 600 315)"/><rect x="1150" y="-200" width="50" height="1030" fill="#C64B3B" opacity="0.24" transform="rotate(-20 600 315)"/><rect x="1255" y="-200" width="55" height="1030" fill="#8F2E22" opacity="0.28" transform="rotate(-20 600 315)"/><rect x="1396" y="-200" width="53" height="1030" fill="#E5892B" opacity="0.2" transform="rotate(-20 600 315)"/><rect x="1496" y="-200" width="130" height="1030" fill="#C64B3B" opacity="0.35" transform="rotate(-20 600 315)"/><rect width="1200" height="630" fill="url(#vig)"/><text x="44" y="590" font-family="ui-monospace,Menlo,Consolas,monospace" font-size="24" letter-spacing="3" fill="#ffffff" fill-opacity="0.62">HOSPITALITY WEBSITES · NEWCASTLE</text></svg>