<svg xmlns="http://www.w3.org/2000/svg" viewBox="0 0 1200 630" width="1200" height="630" role="img" aria-label="HOSPITALITY WEBSITES · CARDIFF"><defs><linearGradient id="g5e71de" x1="0.2" y1="0" x2="0.8" y2="1"><stop offset="0" stop-color="#C64B3B"/><stop offset="1" stop-color="#642017"/></linearGradient><filter id="blur"><feGaussianBlur stdDeviation="55"/></filter><radialGradient id="vig" cx="0.5" cy="0.4" r="0.75"><stop offset="0.6" stop-color="#000000" stop-opacity="0"/><stop offset="1" stop-color="#000000" stop-opacity="0.32"/></radialGradient></defs><rect width="1200" height="630" fill="url(#g5e71de)"/><path d="M -50 243 Q 10 199 70 243 Q 130 287 190 243 Q 250 199 310 243 Q 370 287 430 243 Q 490 199 550 243 Q 610 287 670 243 Q 730 199 790 243 Q 850 287 910 243 Q 970 199 1030 243 Q 1090 287 1150 243 Q 1210 199 1270 243 L 1250 680 L -50 680 Z" fill="#C64B3B" opacity="0.22"/><path d="M -50 130 Q 10 69 70 130 Q 130 191 190 130 Q 250 69 310 130 Q 370 191 430 130 Q 490 69 550 130 Q 610 191 670 130 Q 730 69 790 130 Q 850 191 910 130 Q 970 69 1030 130 Q 1090 191 1150 130 Q 1210 69 1270 130 L 1250 680 L -50 680 Z" fill="#8F2E22" opacity="0.22"/><path d="M -50 391 Q 10 358 70 391 Q 130 424 190 391 Q 250 358 310 391 Q 370 424 430 391 Q 490 358 550 391 Q 610 424 670 391 Q 730 358 790 391 Q 850 424 910 391 Q 970 358 1030 391 Q 1090 424 1150 391 Q 1210 358 1270 391 L 1250 680 L -50 680 Z" fill="#8F2E22" opacity="0.22"/><path d="M -50 407 Q 10 336 70 407 Q 130 478 190 407 Q 250 336 310 407 Q 370 478 430 407 Q 490 336 550 407 Q 610 478 670 407 Q 730 336 790 407 Q 850 478 910 407 Q 970 336 1030 407 Q 1090 478 1150 407 Q 1210 336 1270 407 L 1250 680 L -50 680 Z" fill="#ffffff" opacity="0.22"/><rect width="1200" height="630" fill="url(#vig)"/><text x="44" y="590" font-family="ui-monospace,Menlo,Consolas,monospace" font-size="24" letter-spacing="3" fill="#ffffff" fill-opacity="0.62">HOSPITALITY WEBSITES · CARDIFF</text></svg>