<svg xmlns="http://www.w3.org/2000/svg" viewBox="0 0 1200 630" width="1200" height="630" role="img" aria-label="HOSPITALITY WEBSITES · EDINBURGH"><defs><linearGradient id="ge397d3" x1="0" y1="0" x2="0" y2="1"><stop offset="0" stop-color="#C64B3B"/><stop offset="1" stop-color="#642017"/></linearGradient><filter id="blur"><feGaussianBlur stdDeviation="55"/></filter><radialGradient id="vig" cx="0.5" cy="0.4" r="0.75"><stop offset="0.6" stop-color="#000000" stop-opacity="0"/><stop offset="1" stop-color="#000000" stop-opacity="0.32"/></radialGradient></defs><rect width="1200" height="630" fill="url(#ge397d3)"/><circle cx="30" cy="30" r="8.8" fill="#C64B3B" opacity="0.5"/><circle cx="82" cy="30" r="9.0" fill="#C64B3B" opacity="0.5"/><circle cx="134" cy="30" r="9.0" fill="#C64B3B" opacity="0.5"/><circle cx="186" cy="30" r="8.7" fill="#C64B3B" opacity="0.5"/><circle cx="238" cy="30" r="8.2" fill="#C64B3B" opacity="0.5"/><circle cx="290" cy="30" r="7.5" fill="#C64B3B" opacity="0.5"/><circle cx="342" cy="30" r="6.7" fill="#C64B3B" opacity="0.5"/><circle cx="394" cy="30" r="5.7" fill="#C64B3B" opacity="0.5"/><circle cx="446" cy="30" r="4.6" fill="#C64B3B" opacity="0.5"/><circle cx="498" cy="30" r="3.7" fill="#C64B3B" opacity="0.5"/><circle cx="550" cy="30" r="4.8" fill="#C64B3B" opacity="0.5"/><circle cx="602" cy="30" r="5.9" fill="#C64B3B" opacity="0.5"/><circle cx="654" cy="30" r="6.8" fill="#C64B3B" opacity="0.5"/><circle cx="706" cy="30" r="7.7" fill="#C64B3B" opacity="0.5"/><circle cx="758" cy="30" r="8.3" fill="#C64B3B" opacity="0.5"/><circle cx="810" cy="30" r="8.7" fill="#C64B3B" opacity="0.5"/><circle cx="862" cy="30" r="9.0" fill="#C64B3B" opacity="0.5"/><circle cx="914" cy="30" r="9.0" fill="#C64B3B" opacity="0.5"/><circle cx="966" cy="30" r="8.7" fill="#C64B3B" opacity="0.5"/><circle cx="1018" cy="30" r="8.3" fill="#C64B3B" opacity="0.5"/><circle cx="1070" cy="30" r="7.6" fill="#C64B3B" opacity="0.5"/><circle cx="1122" cy="30" r="6.8" fill="#C64B3B" opacity="0.5"/><circle cx="1174" cy="30" r="5.8" fill="#C64B3B" opacity="0.5"/><circle cx="30" cy="82" r="9.0" fill="#C64B3B" opacity="0.5"/><circle cx="82" cy="82" r="9.0" fill="#C64B3B" opacity="0.5"/><circle cx="134" cy="82" r="8.7" fill="#C64B3B" opacity="0.5"/><circle cx="186" cy="82" r="8.2" fill="#C64B3B" opacity="0.5"/><circle cx="238" cy="82" r="7.5" fill="#C64B3B" opacity="0.5"/><circle cx="290" cy="82" r="6.7" fill="#C64B3B" opacity="0.5"/><circle cx="342" cy="82" r="5.7" fill="#C64B3B" opacity="0.5"/><circle cx="394" cy="82" r="4.6" fill="#C64B3B" opacity="0.5"/><circle cx="446" cy="82" r="3.7" fill="#C64B3B" opacity="0.5"/><circle cx="498" cy="82" r="4.8" fill="#C64B3B" opacity="0.5"/><circle cx="550" cy="82" r="5.9" fill="#C64B3B" opacity="0.5"/><circle cx="602" cy="82" r="6.8" fill="#C64B3B" opacity="0.5"/><circle cx="654" cy="82" r="7.7" fill="#C64B3B" opacity="0.5"/><circle cx="706" cy="82" r="8.3" fill="#C64B3B" opacity="0.5"/><circle cx="758" cy="82" r="8.7" fill="#C64B3B" opacity="0.5"/><circle cx="810" cy="82" r="9.0" fill="#C64B3B" opacity="0.5"/><circle cx="862" cy="82" r="9.0" fill="#C64B3B" opacity="0.5"/><circle cx="914" cy="82" r="8.7" fill="#C64B3B" opacity="0.5"/><circle cx="966" cy="82" r="8.3" fill="#C64B3B" opacity="0.5"/><circle cx="1018" cy="82" r="7.6" fill="#C64B3B" opacity="0.5"/><circle cx="1070" cy="82" r="6.8" fill="#C64B3B" opacity="0.5"/><circle cx="1122" cy="82" r="5.8" fill="#C64B3B" opacity="0.5"/><circle cx="1174" cy="82" r="4.7" fill="#C64B3B" opacity="0.5"/><circle cx="30" cy="134" r="9.0" fill="#C64B3B" opacity="0.5"/><circle cx="82" cy="134" r="8.7" fill="#C64B3B" opacity="0.5"/><circle cx="134" cy="134" r="8.2" fill="#C64B3B" opacity="0.5"/><circle cx="186" cy="134" r="7.5" fill="#C64B3B" opacity="0.5"/><circle cx="238" cy="134" r="6.7" fill="#C64B3B" opacity="0.5"/><circle cx="290" cy="134" r="5.7" fill="#C64B3B" opacity="0.5"/><circle cx="342" cy="134" r="4.6" fill="#C64B3B" opacity="0.5"/><circle cx="394" cy="134" r="3.7" fill="#C64B3B" opacity="0.5"/><circle cx="446" cy="134" r="4.8" fill="#C64B3B" opacity="0.5"/><circle cx="498" cy="134" r="5.9" fill="#C64B3B" opacity="0.5"/><circle cx="550" cy="134" r="6.8" fill="#C64B3B" opacity="0.5"/><circle cx="602" cy="134" r="7.7" fill="#C64B3B" opacity="0.5"/><circle cx="654" cy="134" r="8.3" fill="#C64B3B" opacity="0.5"/><circle cx="706" cy="134" r="8.7" fill="#C64B3B" opacity="0.5"/><circle cx="758" cy="134" r="9.0" fill="#C64B3B" opacity="0.5"/><circle cx="810" cy="134" r="9.0" fill="#C64B3B" opacity="0.5"/><circle cx="862" cy="134" r="8.7" fill="#C64B3B" opacity="0.5"/><circle cx="914" cy="134" r="8.3" fill="#C64B3B" opacity="0.5"/><circle cx="966" cy="134" r="7.6" fill="#C64B3B" opacity="0.5"/><circle cx="1018" cy="134" r="6.8" fill="#C64B3B" opacity="0.5"/><circle cx="1070" cy="134" r="5.8" fill="#C64B3B" opacity="0.5"/><circle cx="1122" cy="134" r="4.7" fill="#C64B3B" opacity="0.5"/><circle cx="1174" cy="134" r="3.6" fill="#C64B3B" opacity="0.5"/><circle cx="30" cy="186" r="8.7" fill="#C64B3B" opacity="0.5"/><circle cx="82" cy="186" r="8.2" fill="#C64B3B" opacity="0.5"/><circle cx="134" cy="186" r="7.5" fill="#C64B3B" opacity="0.5"/><circle cx="186" cy="186" r="6.7" fill="#C64B3B" opacity="0.5"/><circle cx="238" cy="186" r="5.7" fill="#C64B3B" opacity="0.5"/><circle cx="290" cy="186" r="4.6" fill="#C64B3B" opacity="0.5"/><circle cx="342" cy="186" r="3.7" fill="#C64B3B" opacity="0.5"/><circle cx="394" cy="186" r="4.8" fill="#C64B3B" opacity="0.5"/><circle cx="446" cy="186" r="5.9" fill="#C64B3B" opacity="0.5"/><circle cx="498" cy="186" r="6.8" fill="#C64B3B" opacity="0.5"/><circle cx="550" cy="186" r="7.7" fill="#C64B3B" opacity="0.5"/><circle cx="602" cy="186" r="8.3" fill="#C64B3B" opacity="0.5"/><circle cx="654" cy="186" r="8.7" fill="#C64B3B" opacity="0.5"/><circle cx="706" cy="186" r="9.0" fill="#C64B3B" opacity="0.5"/><circle cx="758" cy="186" r="9.0" fill="#C64B3B" opacity="0.5"/><circle cx="810" cy="186" r="8.7" fill="#C64B3B" opacity="0.5"/><circle cx="862" cy="186" r="8.3" fill="#C64B3B" opacity="0.5"/><circle cx="914" cy="186" r="7.6" fill="#C64B3B" opacity="0.5"/><circle cx="966" cy="186" r="6.8" fill="#C64B3B" opacity="0.5"/><circle cx="1018" cy="186" r="5.8" fill="#C64B3B" opacity="0.5"/><circle cx="1070" cy="186" r="4.7" fill="#C64B3B" opacity="0.5"/><circle cx="1122" cy="186" r="3.6" fill="#C64B3B" opacity="0.5"/><circle cx="1174" cy="186" r="4.7" fill="#C64B3B" opacity="0.5"/><circle cx="30" cy="238" r="8.2" fill="#C64B3B" opacity="0.5"/><circle cx="82" cy="238" r="7.5" fill="#C64B3B" opacity="0.5"/><circle cx="134" cy="238" r="6.7" fill="#C64B3B" opacity="0.5"/><circle cx="186" cy="238" r="5.7" fill="#C64B3B" opacity="0.5"/><circle cx="238" cy="238" r="4.6" fill="#C64B3B" opacity="0.5"/><circle cx="290" cy="238" r="3.7" fill="#C64B3B" opacity="0.5"/><circle cx="342" cy="238" r="4.8" fill="#C64B3B" opacity="0.5"/><circle cx="394" cy="238" r="5.9" fill="#C64B3B" opacity="0.5"/><circle cx="446" cy="238" r="6.8" fill="#C64B3B" opacity="0.5"/><circle cx="498" cy="238" r="7.7" fill="#C64B3B" opacity="0.5"/><circle cx="550" cy="238" r="8.3" fill="#C64B3B" opacity="0.5"/><circle cx="602" cy="238" r="8.7" fill="#C64B3B" opacity="0.5"/><circle cx="654" cy="238" r="9.0" fill="#C64B3B" opacity="0.5"/><circle cx="706" cy="238" r="9.0" fill="#C64B3B" opacity="0.5"/><circle cx="758" cy="238" r="8.7" fill="#C64B3B" opacity="0.5"/><circle cx="810" cy="238" r="8.3" fill="#C64B3B" opacity="0.5"/><circle cx="862" cy="238" r="7.6" fill="#C64B3B" opacity="0.5"/><circle cx="914" cy="238" r="6.8" fill="#C64B3B" opacity="0.5"/><circle cx="966" cy="238" r="5.8" fill="#C64B3B" opacity="0.5"/><circle cx="1018" cy="238" r="4.7" fill="#C64B3B" opacity="0.5"/><circle cx="1070" cy="238" r="3.6" fill="#C64B3B" opacity="0.5"/><circle cx="1122" cy="238" r="4.7" fill="#C64B3B" opacity="0.5"/><circle cx="1174" cy="238" r="5.8" fill="#C64B3B" opacity="0.5"/><circle cx="30" cy="290" r="7.5" fill="#C64B3B" opacity="0.5"/><circle cx="82" cy="290" r="6.7" fill="#C64B3B" opacity="0.5"/><circle cx="134" cy="290" r="5.7" fill="#C64B3B" opacity="0.5"/><circle cx="186" cy="290" r="4.6" fill="#C64B3B" opacity="0.5"/><circle cx="238" cy="290" r="3.7" fill="#C64B3B" opacity="0.5"/><circle cx="290" cy="290" r="4.8" fill="#C64B3B" opacity="0.5"/><circle cx="342" cy="290" r="5.9" fill="#C64B3B" opacity="0.5"/><circle cx="394" cy="290" r="6.8" fill="#C64B3B" opacity="0.5"/><circle cx="446" cy="290" r="7.7" fill="#C64B3B" opacity="0.5"/><circle cx="498" cy="290" r="8.3" fill="#C64B3B" opacity="0.5"/><circle cx="550" cy="290" r="8.7" fill="#C64B3B" opacity="0.5"/><circle cx="602" cy="290" r="9.0" fill="#C64B3B" opacity="0.5"/><circle cx="654" cy="290" r="9.0" fill="#C64B3B" opacity="0.5"/><circle cx="706" cy="290" r="8.7" fill="#C64B3B" opacity="0.5"/><circle cx="758" cy="290" r="8.3" fill="#C64B3B" opacity="0.5"/><circle cx="810" cy="290" r="7.6" fill="#C64B3B" opacity="0.5"/><circle cx="862" cy="290" r="6.8" fill="#C64B3B" opacity="0.5"/><circle cx="914" cy="290" r="5.8" fill="#C64B3B" opacity="0.5"/><circle cx="966" cy="290" r="4.7" fill="#C64B3B" opacity="0.5"/><circle cx="1018" cy="290" r="3.6" fill="#C64B3B" opacity="0.5"/><circle cx="1070" cy="290" r="4.7" fill="#C64B3B" opacity="0.5"/><circle cx="1122" cy="290" r="5.8" fill="#C64B3B" opacity="0.5"/><circle cx="1174" cy="290" r="6.7" fill="#C64B3B" opacity="0.5"/><circle cx="30" cy="342" r="6.7" fill="#C64B3B" opacity="0.5"/><circle cx="82" cy="342" r="5.7" fill="#C64B3B" opacity="0.5"/><circle cx="134" cy="342" r="4.6" fill="#C64B3B" opacity="0.5"/><circle cx="186" cy="342" r="3.7" fill="#C64B3B" opacity="0.5"/><circle cx="238" cy="342" r="4.8" fill="#C64B3B" opacity="0.5"/><circle cx="290" cy="342" r="5.9" fill="#C64B3B" opacity="0.5"/><circle cx="342" cy="342" r="6.8" fill="#C64B3B" opacity="0.5"/><circle cx="394" cy="342" r="7.7" fill="#C64B3B" opacity="0.5"/><circle cx="446" cy="342" r="8.3" fill="#C64B3B" opacity="0.5"/><circle cx="498" cy="342" r="8.7" fill="#C64B3B" opacity="0.5"/><circle cx="550" cy="342" r="9.0" fill="#C64B3B" opacity="0.5"/><circle cx="602" cy="342" r="9.0" fill="#C64B3B" opacity="0.5"/><circle cx="654" cy="342" r="8.7" fill="#C64B3B" opacity="0.5"/><circle cx="706" cy="342" r="8.3" fill="#C64B3B" opacity="0.5"/><circle cx="758" cy="342" r="7.6" fill="#C64B3B" opacity="0.5"/><circle cx="810" cy="342" r="6.8" fill="#C64B3B" opacity="0.5"/><circle cx="862" cy="342" r="5.8" fill="#C64B3B" opacity="0.5"/><circle cx="914" cy="342" r="4.7" fill="#C64B3B" opacity="0.5"/><circle cx="966" cy="342" r="3.6" fill="#C64B3B" opacity="0.5"/><circle cx="1018" cy="342" r="4.7" fill="#C64B3B" opacity="0.5"/><circle cx="1070" cy="342" r="5.8" fill="#C64B3B" opacity="0.5"/><circle cx="1122" cy="342" r="6.7" fill="#C64B3B" opacity="0.5"/><circle cx="1174" cy="342" r="7.6" fill="#C64B3B" opacity="0.5"/><circle cx="30" cy="394" r="5.7" fill="#C64B3B" opacity="0.5"/><circle cx="82" cy="394" r="4.6" fill="#C64B3B" opacity="0.5"/><circle cx="134" cy="394" r="3.7" fill="#C64B3B" opacity="0.5"/><circle cx="186" cy="394" r="4.8" fill="#C64B3B" opacity="0.5"/><circle cx="238" cy="394" r="5.9" fill="#C64B3B" opacity="0.5"/><circle cx="290" cy="394" r="6.8" fill="#C64B3B" opacity="0.5"/><circle cx="342" cy="394" r="7.7" fill="#C64B3B" opacity="0.5"/><circle cx="394" cy="394" r="8.3" fill="#C64B3B" opacity="0.5"/><circle cx="446" cy="394" r="8.7" fill="#C64B3B" opacity="0.5"/><circle cx="498" cy="394" r="9.0" fill="#C64B3B" opacity="0.5"/><circle cx="550" cy="394" r="9.0" fill="#C64B3B" opacity="0.5"/><circle cx="602" cy="394" r="8.7" fill="#C64B3B" opacity="0.5"/><circle cx="654" cy="394" r="8.3" fill="#C64B3B" opacity="0.5"/><circle cx="706" cy="394" r="7.6" fill="#C64B3B" opacity="0.5"/><circle cx="758" cy="394" r="6.8" fill="#C64B3B" opacity="0.5"/><circle cx="810" cy="394" r="5.8" fill="#C64B3B" opacity="0.5"/><circle cx="862" cy="394" r="4.7" fill="#C64B3B" opacity="0.5"/><circle cx="914" cy="394" r="3.6" fill="#C64B3B" opacity="0.5"/><circle cx="966" cy="394" r="4.7" fill="#C64B3B" opacity="0.5"/><circle cx="1018" cy="394" r="5.8" fill="#C64B3B" opacity="0.5"/><circle cx="1070" cy="394" r="6.7" fill="#C64B3B" opacity="0.5"/><circle cx="1122" cy="394" r="7.6" fill="#C64B3B" opacity="0.5"/><circle cx="1174" cy="394" r="8.2" fill="#C64B3B" opacity="0.5"/><circle cx="30" cy="446" r="4.6" fill="#C64B3B" opacity="0.5"/><circle cx="82" cy="446" r="3.7" fill="#C64B3B" opacity="0.5"/><circle cx="134" cy="446" r="4.8" fill="#C64B3B" opacity="0.5"/><circle cx="186" cy="446" r="5.9" fill="#C64B3B" opacity="0.5"/><circle cx="238" cy="446" r="6.8" fill="#C64B3B" opacity="0.5"/><circle cx="290" cy="446" r="7.7" fill="#C64B3B" opacity="0.5"/><circle cx="342" cy="446" r="8.3" fill="#C64B3B" opacity="0.5"/><circle cx="394" cy="446" r="8.7" fill="#C64B3B" opacity="0.5"/><circle cx="446" cy="446" r="9.0" fill="#C64B3B" opacity="0.5"/><circle cx="498" cy="446" r="9.0" fill="#C64B3B" opacity="0.5"/><circle cx="550" cy="446" r="8.7" fill="#C64B3B" opacity="0.5"/><circle cx="602" cy="446" r="8.3" fill="#C64B3B" opacity="0.5"/><circle cx="654" cy="446" r="7.6" fill="#C64B3B" opacity="0.5"/><circle cx="706" cy="446" r="6.8" fill="#C64B3B" opacity="0.5"/><circle cx="758" cy="446" r="5.8" fill="#C64B3B" opacity="0.5"/><circle cx="810" cy="446" r="4.7" fill="#C64B3B" opacity="0.5"/><circle cx="862" cy="446" r="3.6" fill="#C64B3B" opacity="0.5"/><circle cx="914" cy="446" r="4.7" fill="#C64B3B" opacity="0.5"/><circle cx="966" cy="446" r="5.8" fill="#C64B3B" opacity="0.5"/><circle cx="1018" cy="446" r="6.7" fill="#C64B3B" opacity="0.5"/><circle cx="1070" cy="446" r="7.6" fill="#C64B3B" opacity="0.5"/><circle cx="1122" cy="446" r="8.2" fill="#C64B3B" opacity="0.5"/><circle cx="1174" cy="446" r="8.7" fill="#C64B3B" opacity="0.5"/><circle cx="30" cy="498" r="3.7" fill="#C64B3B" opacity="0.5"/><circle cx="82" cy="498" r="4.8" fill="#C64B3B" opacity="0.5"/><circle cx="134" cy="498" r="5.9" fill="#C64B3B" opacity="0.5"/><circle cx="186" cy="498" r="6.8" fill="#C64B3B" opacity="0.5"/><circle cx="238" cy="498" r="7.7" fill="#C64B3B" opacity="0.5"/><circle cx="290" cy="498" r="8.3" fill="#C64B3B" opacity="0.5"/><circle cx="342" cy="498" r="8.7" fill="#C64B3B" opacity="0.5"/><circle cx="394" cy="498" r="9.0" fill="#C64B3B" opacity="0.5"/><circle cx="446" cy="498" r="9.0" fill="#C64B3B" opacity="0.5"/><circle cx="498" cy="498" r="8.7" fill="#C64B3B" opacity="0.5"/><circle cx="550" cy="498" r="8.3" fill="#C64B3B" opacity="0.5"/><circle cx="602" cy="498" r="7.6" fill="#C64B3B" opacity="0.5"/><circle cx="654" cy="498" r="6.8" fill="#C64B3B" opacity="0.5"/><circle cx="706" cy="498" r="5.8" fill="#C64B3B" opacity="0.5"/><circle cx="758" cy="498" r="4.7" fill="#C64B3B" opacity="0.5"/><circle cx="810" cy="498" r="3.6" fill="#C64B3B" opacity="0.5"/><circle cx="862" cy="498" r="4.7" fill="#C64B3B" opacity="0.5"/><circle cx="914" cy="498" r="5.8" fill="#C64B3B" opacity="0.5"/><circle cx="966" cy="498" r="6.7" fill="#C64B3B" opacity="0.5"/><circle cx="1018" cy="498" r="7.6" fill="#C64B3B" opacity="0.5"/><circle cx="1070" cy="498" r="8.2" fill="#C64B3B" opacity="0.5"/><circle cx="1122" cy="498" r="8.7" fill="#C64B3B" opacity="0.5"/><circle cx="1174" cy="498" r="9.0" fill="#C64B3B" opacity="0.5"/><circle cx="30" cy="550" r="4.8" fill="#C64B3B" opacity="0.5"/><circle cx="82" cy="550" r="5.9" fill="#C64B3B" opacity="0.5"/><circle cx="134" cy="550" r="6.8" fill="#C64B3B" opacity="0.5"/><circle cx="186" cy="550" r="7.7" fill="#C64B3B" opacity="0.5"/><circle cx="238" cy="550" r="8.3" fill="#C64B3B" opacity="0.5"/><circle cx="290" cy="550" r="8.7" fill="#C64B3B" opacity="0.5"/><circle cx="342" cy="550" r="9.0" fill="#C64B3B" opacity="0.5"/><circle cx="394" cy="550" r="9.0" fill="#C64B3B" opacity="0.5"/><circle cx="446" cy="550" r="8.7" fill="#C64B3B" opacity="0.5"/><circle cx="498" cy="550" r="8.3" fill="#C64B3B" opacity="0.5"/><circle cx="550" cy="550" r="7.6" fill="#C64B3B" opacity="0.5"/><circle cx="602" cy="550" r="6.8" fill="#C64B3B" opacity="0.5"/><circle cx="654" cy="550" r="5.8" fill="#C64B3B" opacity="0.5"/><circle cx="706" cy="550" r="4.7" fill="#C64B3B" opacity="0.5"/><circle cx="758" cy="550" r="3.6" fill="#C64B3B" opacity="0.5"/><circle cx="810" cy="550" r="4.7" fill="#C64B3B" opacity="0.5"/><circle cx="862" cy="550" r="5.8" fill="#C64B3B" opacity="0.5"/><circle cx="914" cy="550" r="6.7" fill="#C64B3B" opacity="0.5"/><circle cx="966" cy="550" r="7.6" fill="#C64B3B" opacity="0.5"/><circle cx="1018" cy="550" r="8.2" fill="#C64B3B" opacity="0.5"/><circle cx="1070" cy="550" r="8.7" fill="#C64B3B" opacity="0.5"/><circle cx="1122" cy="550" r="9.0" fill="#C64B3B" opacity="0.5"/><circle cx="1174" cy="550" r="9.0" fill="#C64B3B" opacity="0.5"/><circle cx="30" cy="602" r="5.9" fill="#C64B3B" opacity="0.5"/><circle cx="82" cy="602" r="6.8" fill="#C64B3B" opacity="0.5"/><circle cx="134" cy="602" r="7.7" fill="#C64B3B" opacity="0.5"/><circle cx="186" cy="602" r="8.3" fill="#C64B3B" opacity="0.5"/><circle cx="238" cy="602" r="8.7" fill="#C64B3B" opacity="0.5"/><circle cx="290" cy="602" r="9.0" fill="#C64B3B" opacity="0.5"/><circle cx="342" cy="602" r="9.0" fill="#C64B3B" opacity="0.5"/><circle cx="394" cy="602" r="8.7" fill="#C64B3B" opacity="0.5"/><circle cx="446" cy="602" r="8.3" fill="#C64B3B" opacity="0.5"/><circle cx="498" cy="602" r="7.6" fill="#C64B3B" opacity="0.5"/><circle cx="550" cy="602" r="6.8" fill="#C64B3B" opacity="0.5"/><circle cx="602" cy="602" r="5.8" fill="#C64B3B" opacity="0.5"/><circle cx="654" cy="602" r="4.7" fill="#C64B3B" opacity="0.5"/><circle cx="706" cy="602" r="3.6" fill="#C64B3B" opacity="0.5"/><circle cx="758" cy="602" r="4.7" fill="#C64B3B" opacity="0.5"/><circle cx="810" cy="602" r="5.8" fill="#C64B3B" opacity="0.5"/><circle cx="862" cy="602" r="6.7" fill="#C64B3B" opacity="0.5"/><circle cx="914" cy="602" r="7.6" fill="#C64B3B" opacity="0.5"/><circle cx="966" cy="602" r="8.2" fill="#C64B3B" opacity="0.5"/><circle cx="1018" cy="602" r="8.7" fill="#C64B3B" opacity="0.5"/><circle cx="1070" cy="602" r="9.0" fill="#C64B3B" opacity="0.5"/><circle cx="1122" cy="602" r="9.0" fill="#C64B3B" opacity="0.5"/><circle cx="1174" cy="602" r="8.8" fill="#C64B3B" opacity="0.5"/><rect width="1200" height="630" fill="url(#vig)"/><text x="44" y="590" font-family="ui-monospace,Menlo,Consolas,monospace" font-size="24" letter-spacing="3" fill="#ffffff" fill-opacity="0.62">HOSPITALITY WEBSITES · EDINBURGH</text></svg>