<svg xmlns="http://www.w3.org/2000/svg" viewBox="0 0 1200 630" width="1200" height="630" role="img" aria-label="HOSPITALITY WEBSITES · WOKING"><defs><linearGradient id="g4333bf" x1="1" y1="0" x2="0" y2="1"><stop offset="0" stop-color="#C64B3B"/><stop offset="1" stop-color="#642017"/></linearGradient><filter id="blur"><feGaussianBlur stdDeviation="55"/></filter><radialGradient id="vig" cx="0.5" cy="0.4" r="0.75"><stop offset="0.6" stop-color="#000000" stop-opacity="0"/><stop offset="1" stop-color="#000000" stop-opacity="0.32"/></radialGradient></defs><rect width="1200" height="630" fill="url(#g4333bf)"/><polygon points="382,70 50,165 184,26" fill="#ffffff" opacity="0.19"/><polygon points="525,435 873,558 542,396" fill="#8F2E22" opacity="0.31"/><polygon points="717,201 717,201 806,145" fill="#C64B3B" opacity="0.22"/><polygon points="594,394 594,394 184,26" fill="#D6478E" opacity="0.14"/><polygon points="806,145 321,209 717,201" fill="#C64B3B" opacity="0.17"/><polygon points="50,165 184,26 717,201" fill="#D6478E" opacity="0.17"/><polygon points="382,70 525,435 542,396" fill="#8F2E22" opacity="0.13"/><polygon points="873,558 806,145 806,145" fill="#ffffff" opacity="0.31"/><polygon points="382,70 717,201 542,396" fill="#8F2E22" opacity="0.21"/><polygon points="873,558 50,165 289,108" fill="#D6478E" opacity="0.3"/><polygon points="289,108 184,26 50,165" fill="#D6478E" opacity="0.28"/><rect width="1200" height="630" fill="url(#vig)"/><text x="44" y="590" font-family="ui-monospace,Menlo,Consolas,monospace" font-size="24" letter-spacing="3" fill="#ffffff" fill-opacity="0.62">HOSPITALITY WEBSITES · WOKING</text></svg>