<svg xmlns="http://www.w3.org/2000/svg" viewBox="0 0 1200 630" width="1200" height="630" role="img" aria-label="HOSPITALITY WEBSITES · CLAPHAM"><defs><linearGradient id="g867d7a" x1="1" y1="0" x2="0" y2="1"><stop offset="0" stop-color="#C64B3B"/><stop offset="1" stop-color="#642017"/></linearGradient><filter id="blur"><feGaussianBlur stdDeviation="55"/></filter><radialGradient id="vig" cx="0.5" cy="0.4" r="0.75"><stop offset="0.6" stop-color="#000000" stop-opacity="0"/><stop offset="1" stop-color="#000000" stop-opacity="0.32"/></radialGradient></defs><rect width="1200" height="630" fill="url(#g867d7a)"/><polygon points="510,612 518,53 237,567" fill="#ffffff" opacity="0.26"/><polygon points="376,528 1056,492 402,63" fill="#3A5BD9" opacity="0.14"/><polygon points="816,359 454,190 376,528" fill="#ffffff" opacity="0.22"/><polygon points="518,53 320,558 376,528" fill="#C64B3B" opacity="0.18"/><polygon points="292,221 237,567 320,558" fill="#C64B3B" opacity="0.23"/><polygon points="577,93 939,363 727,129" fill="#3A5BD9" opacity="0.32"/><polygon points="1135,290 510,612 237,567" fill="#8F2E22" opacity="0.28"/><polygon points="1135,290 376,528 727,129" fill="#8F2E22" opacity="0.26"/><polygon points="518,53 577,93 402,63" fill="#C64B3B" opacity="0.17"/><polygon points="510,612 454,190 402,63" fill="#C64B3B" opacity="0.22"/><polygon points="760,628 454,190 292,221" fill="#ffffff" opacity="0.21"/><polygon points="1135,290 760,628 760,628" fill="#3A5BD9" opacity="0.11"/><polygon points="1056,492 727,129 1056,492" fill="#8F2E22" opacity="0.12"/><rect width="1200" height="630" fill="url(#vig)"/><text x="44" y="590" font-family="ui-monospace,Menlo,Consolas,monospace" font-size="24" letter-spacing="3" fill="#ffffff" fill-opacity="0.62">HOSPITALITY WEBSITES · CLAPHAM</text></svg>