<svg xmlns="http://www.w3.org/2000/svg" viewBox="0 0 1200 630" width="1200" height="630" role="img" aria-label="INDUSTRY GUIDE"><defs><linearGradient id="g6ec2ef" x1="0" y1="0" x2="1" y2="0"><stop offset="0" stop-color="#2E7D5B"/><stop offset="1" stop-color="#133b2c"/></linearGradient><filter id="blur"><feGaussianBlur stdDeviation="55"/></filter><radialGradient id="vig" cx="0.5" cy="0.4" r="0.75"><stop offset="0.6" stop-color="#000000" stop-opacity="0"/><stop offset="1" stop-color="#000000" stop-opacity="0.32"/></radialGradient></defs><rect width="1200" height="630" fill="url(#g6ec2ef)"/><circle cx="30" cy="30" r="6.6" fill="#1c5540" opacity="0.5"/><circle cx="79" cy="30" r="7.2" fill="#1c5540" opacity="0.5"/><circle cx="128" cy="30" r="7.6" fill="#1c5540" opacity="0.5"/><circle cx="177" cy="30" r="7.9" fill="#1c5540" opacity="0.5"/><circle cx="226" cy="30" r="8.0" fill="#1c5540" opacity="0.5"/><circle cx="275" cy="30" r="7.9" fill="#1c5540" opacity="0.5"/><circle cx="324" cy="30" r="7.7" fill="#1c5540" opacity="0.5"/><circle cx="373" cy="30" r="7.2" fill="#1c5540" opacity="0.5"/><circle cx="422" cy="30" r="6.6" fill="#1c5540" opacity="0.5"/><circle cx="471" cy="30" r="5.9" fill="#1c5540" opacity="0.5"/><circle cx="520" cy="30" r="5.1" fill="#1c5540" opacity="0.5"/><circle cx="569" cy="30" r="4.2" fill="#1c5540" opacity="0.5"/><circle cx="618" cy="30" r="3.3" fill="#1c5540" opacity="0.5"/><circle cx="667" cy="30" r="4.1" fill="#1c5540" opacity="0.5"/><circle cx="716" cy="30" r="5.0" fill="#1c5540" opacity="0.5"/><circle cx="765" cy="30" r="5.8" fill="#1c5540" opacity="0.5"/><circle cx="814" cy="30" r="6.5" fill="#1c5540" opacity="0.5"/><circle cx="863" cy="30" r="7.2" fill="#1c5540" opacity="0.5"/><circle cx="912" cy="30" r="7.6" fill="#1c5540" opacity="0.5"/><circle cx="961" cy="30" r="7.9" fill="#1c5540" opacity="0.5"/><circle cx="1010" cy="30" r="8.0" fill="#1c5540" opacity="0.5"/><circle cx="1059" cy="30" r="7.9" fill="#1c5540" opacity="0.5"/><circle cx="1108" cy="30" r="7.7" fill="#1c5540" opacity="0.5"/><circle cx="1157" cy="30" r="7.2" fill="#1c5540" opacity="0.5"/><circle cx="30" cy="79" r="7.2" fill="#1c5540" opacity="0.5"/><circle cx="79" cy="79" r="7.6" fill="#1c5540" opacity="0.5"/><circle cx="128" cy="79" r="7.9" fill="#1c5540" opacity="0.5"/><circle cx="177" cy="79" r="8.0" fill="#1c5540" opacity="0.5"/><circle cx="226" cy="79" r="7.9" fill="#1c5540" opacity="0.5"/><circle cx="275" cy="79" r="7.7" fill="#1c5540" opacity="0.5"/><circle cx="324" cy="79" r="7.2" fill="#1c5540" opacity="0.5"/><circle cx="373" cy="79" r="6.6" fill="#1c5540" opacity="0.5"/><circle cx="422" cy="79" r="5.9" fill="#1c5540" opacity="0.5"/><circle cx="471" cy="79" r="5.1" fill="#1c5540" opacity="0.5"/><circle cx="520" cy="79" r="4.2" fill="#1c5540" opacity="0.5"/><circle cx="569" cy="79" r="3.3" fill="#1c5540" opacity="0.5"/><circle cx="618" cy="79" r="4.1" fill="#1c5540" opacity="0.5"/><circle cx="667" cy="79" r="5.0" fill="#1c5540" opacity="0.5"/><circle cx="716" cy="79" r="5.8" fill="#1c5540" opacity="0.5"/><circle cx="765" cy="79" r="6.5" fill="#1c5540" opacity="0.5"/><circle cx="814" cy="79" r="7.2" fill="#1c5540" opacity="0.5"/><circle cx="863" cy="79" r="7.6" fill="#1c5540" opacity="0.5"/><circle cx="912" cy="79" r="7.9" fill="#1c5540" opacity="0.5"/><circle cx="961" cy="79" r="8.0" fill="#1c5540" opacity="0.5"/><circle cx="1010" cy="79" r="7.9" fill="#1c5540" opacity="0.5"/><circle cx="1059" cy="79" r="7.7" fill="#1c5540" opacity="0.5"/><circle cx="1108" cy="79" r="7.2" fill="#1c5540" opacity="0.5"/><circle cx="1157" cy="79" r="6.6" fill="#1c5540" opacity="0.5"/><circle cx="30" cy="128" r="7.6" fill="#1c5540" opacity="0.5"/><circle cx="79" cy="128" r="7.9" fill="#1c5540" opacity="0.5"/><circle cx="128" cy="128" r="8.0" fill="#1c5540" opacity="0.5"/><circle cx="177" cy="128" r="7.9" fill="#1c5540" opacity="0.5"/><circle cx="226" cy="128" r="7.7" fill="#1c5540" opacity="0.5"/><circle cx="275" cy="128" r="7.2" fill="#1c5540" opacity="0.5"/><circle cx="324" cy="128" r="6.6" fill="#1c5540" opacity="0.5"/><circle cx="373" cy="128" r="5.9" fill="#1c5540" opacity="0.5"/><circle cx="422" cy="128" r="5.1" fill="#1c5540" opacity="0.5"/><circle cx="471" cy="128" r="4.2" fill="#1c5540" opacity="0.5"/><circle cx="520" cy="128" r="3.3" fill="#1c5540" opacity="0.5"/><circle cx="569" cy="128" r="4.1" fill="#1c5540" opacity="0.5"/><circle cx="618" cy="128" r="5.0" fill="#1c5540" opacity="0.5"/><circle cx="667" cy="128" r="5.8" fill="#1c5540" opacity="0.5"/><circle cx="716" cy="128" r="6.5" fill="#1c5540" opacity="0.5"/><circle cx="765" cy="128" r="7.2" fill="#1c5540" opacity="0.5"/><circle cx="814" cy="128" r="7.6" fill="#1c5540" opacity="0.5"/><circle cx="863" cy="128" r="7.9" fill="#1c5540" opacity="0.5"/><circle cx="912" cy="128" r="8.0" fill="#1c5540" opacity="0.5"/><circle cx="961" cy="128" r="7.9" fill="#1c5540" opacity="0.5"/><circle cx="1010" cy="128" r="7.7" fill="#1c5540" opacity="0.5"/><circle cx="1059" cy="128" r="7.2" fill="#1c5540" opacity="0.5"/><circle cx="1108" cy="128" r="6.6" fill="#1c5540" opacity="0.5"/><circle cx="1157" cy="128" r="5.9" fill="#1c5540" opacity="0.5"/><circle cx="30" cy="177" r="7.9" fill="#1c5540" opacity="0.5"/><circle cx="79" cy="177" r="8.0" fill="#1c5540" opacity="0.5"/><circle cx="128" cy="177" r="7.9" fill="#1c5540" opacity="0.5"/><circle cx="177" cy="177" r="7.7" fill="#1c5540" opacity="0.5"/><circle cx="226" cy="177" r="7.2" fill="#1c5540" opacity="0.5"/><circle cx="275" cy="177" r="6.6" fill="#1c5540" opacity="0.5"/><circle cx="324" cy="177" r="5.9" fill="#1c5540" opacity="0.5"/><circle cx="373" cy="177" r="5.1" fill="#1c5540" opacity="0.5"/><circle cx="422" cy="177" r="4.2" fill="#1c5540" opacity="0.5"/><circle cx="471" cy="177" r="3.3" fill="#1c5540" opacity="0.5"/><circle cx="520" cy="177" r="4.1" fill="#1c5540" opacity="0.5"/><circle cx="569" cy="177" r="5.0" fill="#1c5540" opacity="0.5"/><circle cx="618" cy="177" r="5.8" fill="#1c5540" opacity="0.5"/><circle cx="667" cy="177" r="6.5" fill="#1c5540" opacity="0.5"/><circle cx="716" cy="177" r="7.2" fill="#1c5540" opacity="0.5"/><circle cx="765" cy="177" r="7.6" fill="#1c5540" opacity="0.5"/><circle cx="814" cy="177" r="7.9" fill="#1c5540" opacity="0.5"/><circle cx="863" cy="177" r="8.0" fill="#1c5540" opacity="0.5"/><circle cx="912" cy="177" r="7.9" fill="#1c5540" opacity="0.5"/><circle cx="961" cy="177" r="7.7" fill="#1c5540" opacity="0.5"/><circle cx="1010" cy="177" r="7.2" fill="#1c5540" opacity="0.5"/><circle cx="1059" cy="177" r="6.6" fill="#1c5540" opacity="0.5"/><circle cx="1108" cy="177" r="5.9" fill="#1c5540" opacity="0.5"/><circle cx="1157" cy="177" r="5.1" fill="#1c5540" opacity="0.5"/><circle cx="30" cy="226" r="8.0" fill="#1c5540" opacity="0.5"/><circle cx="79" cy="226" r="7.9" fill="#1c5540" opacity="0.5"/><circle cx="128" cy="226" r="7.7" fill="#1c5540" opacity="0.5"/><circle cx="177" cy="226" r="7.2" fill="#1c5540" opacity="0.5"/><circle cx="226" cy="226" r="6.6" fill="#1c5540" opacity="0.5"/><circle cx="275" cy="226" r="5.9" fill="#1c5540" opacity="0.5"/><circle cx="324" cy="226" r="5.1" fill="#1c5540" opacity="0.5"/><circle cx="373" cy="226" r="4.2" fill="#1c5540" opacity="0.5"/><circle cx="422" cy="226" r="3.3" fill="#1c5540" opacity="0.5"/><circle cx="471" cy="226" r="4.1" fill="#1c5540" opacity="0.5"/><circle cx="520" cy="226" r="5.0" fill="#1c5540" opacity="0.5"/><circle cx="569" cy="226" r="5.8" fill="#1c5540" opacity="0.5"/><circle cx="618" cy="226" r="6.5" fill="#1c5540" opacity="0.5"/><circle cx="667" cy="226" r="7.2" fill="#1c5540" opacity="0.5"/><circle cx="716" cy="226" r="7.6" fill="#1c5540" opacity="0.5"/><circle cx="765" cy="226" r="7.9" fill="#1c5540" opacity="0.5"/><circle cx="814" cy="226" r="8.0" fill="#1c5540" opacity="0.5"/><circle cx="863" cy="226" r="7.9" fill="#1c5540" opacity="0.5"/><circle cx="912" cy="226" r="7.7" fill="#1c5540" opacity="0.5"/><circle cx="961" cy="226" r="7.2" fill="#1c5540" opacity="0.5"/><circle cx="1010" cy="226" r="6.6" fill="#1c5540" opacity="0.5"/><circle cx="1059" cy="226" r="5.9" fill="#1c5540" opacity="0.5"/><circle cx="1108" cy="226" r="5.1" fill="#1c5540" opacity="0.5"/><circle cx="1157" cy="226" r="4.2" fill="#1c5540" opacity="0.5"/><circle cx="30" cy="275" r="7.9" fill="#1c5540" opacity="0.5"/><circle cx="79" cy="275" r="7.7" fill="#1c5540" opacity="0.5"/><circle cx="128" cy="275" r="7.2" fill="#1c5540" opacity="0.5"/><circle cx="177" cy="275" r="6.6" fill="#1c5540" opacity="0.5"/><circle cx="226" cy="275" r="5.9" fill="#1c5540" opacity="0.5"/><circle cx="275" cy="275" r="5.1" fill="#1c5540" opacity="0.5"/><circle cx="324" cy="275" r="4.2" fill="#1c5540" opacity="0.5"/><circle cx="373" cy="275" r="3.3" fill="#1c5540" opacity="0.5"/><circle cx="422" cy="275" r="4.1" fill="#1c5540" opacity="0.5"/><circle cx="471" cy="275" r="5.0" fill="#1c5540" opacity="0.5"/><circle cx="520" cy="275" r="5.8" fill="#1c5540" opacity="0.5"/><circle cx="569" cy="275" r="6.5" fill="#1c5540" opacity="0.5"/><circle cx="618" cy="275" r="7.2" fill="#1c5540" opacity="0.5"/><circle cx="667" cy="275" r="7.6" fill="#1c5540" opacity="0.5"/><circle cx="716" cy="275" r="7.9" fill="#1c5540" opacity="0.5"/><circle cx="765" cy="275" r="8.0" fill="#1c5540" opacity="0.5"/><circle cx="814" cy="275" r="7.9" fill="#1c5540" opacity="0.5"/><circle cx="863" cy="275" r="7.7" fill="#1c5540" opacity="0.5"/><circle cx="912" cy="275" r="7.2" fill="#1c5540" opacity="0.5"/><circle cx="961" cy="275" r="6.6" fill="#1c5540" opacity="0.5"/><circle cx="1010" cy="275" r="5.9" fill="#1c5540" opacity="0.5"/><circle cx="1059" cy="275" r="5.1" fill="#1c5540" opacity="0.5"/><circle cx="1108" cy="275" r="4.2" fill="#1c5540" opacity="0.5"/><circle cx="1157" cy="275" r="3.3" fill="#1c5540" opacity="0.5"/><circle cx="30" cy="324" r="7.7" fill="#1c5540" opacity="0.5"/><circle cx="79" cy="324" r="7.2" fill="#1c5540" opacity="0.5"/><circle cx="128" cy="324" r="6.6" fill="#1c5540" opacity="0.5"/><circle cx="177" cy="324" r="5.9" fill="#1c5540" opacity="0.5"/><circle cx="226" cy="324" r="5.1" fill="#1c5540" opacity="0.5"/><circle cx="275" cy="324" r="4.2" fill="#1c5540" opacity="0.5"/><circle cx="324" cy="324" r="3.3" fill="#1c5540" opacity="0.5"/><circle cx="373" cy="324" r="4.1" fill="#1c5540" opacity="0.5"/><circle cx="422" cy="324" r="5.0" fill="#1c5540" opacity="0.5"/><circle cx="471" cy="324" r="5.8" fill="#1c5540" opacity="0.5"/><circle cx="520" cy="324" r="6.5" fill="#1c5540" opacity="0.5"/><circle cx="569" cy="324" r="7.2" fill="#1c5540" opacity="0.5"/><circle cx="618" cy="324" r="7.6" fill="#1c5540" opacity="0.5"/><circle cx="667" cy="324" r="7.9" fill="#1c5540" opacity="0.5"/><circle cx="716" cy="324" r="8.0" fill="#1c5540" opacity="0.5"/><circle cx="765" cy="324" r="7.9" fill="#1c5540" opacity="0.5"/><circle cx="814" cy="324" r="7.7" fill="#1c5540" opacity="0.5"/><circle cx="863" cy="324" r="7.2" fill="#1c5540" opacity="0.5"/><circle cx="912" cy="324" r="6.6" fill="#1c5540" opacity="0.5"/><circle cx="961" cy="324" r="5.9" fill="#1c5540" opacity="0.5"/><circle cx="1010" cy="324" r="5.1" fill="#1c5540" opacity="0.5"/><circle cx="1059" cy="324" r="4.2" fill="#1c5540" opacity="0.5"/><circle cx="1108" cy="324" r="3.3" fill="#1c5540" opacity="0.5"/><circle cx="1157" cy="324" r="4.1" fill="#1c5540" opacity="0.5"/><circle cx="30" cy="373" r="7.2" fill="#1c5540" opacity="0.5"/><circle cx="79" cy="373" r="6.6" fill="#1c5540" opacity="0.5"/><circle cx="128" cy="373" r="5.9" fill="#1c5540" opacity="0.5"/><circle cx="177" cy="373" r="5.1" fill="#1c5540" opacity="0.5"/><circle cx="226" cy="373" r="4.2" fill="#1c5540" opacity="0.5"/><circle cx="275" cy="373" r="3.3" fill="#1c5540" opacity="0.5"/><circle cx="324" cy="373" r="4.1" fill="#1c5540" opacity="0.5"/><circle cx="373" cy="373" r="5.0" fill="#1c5540" opacity="0.5"/><circle cx="422" cy="373" r="5.8" fill="#1c5540" opacity="0.5"/><circle cx="471" cy="373" r="6.5" fill="#1c5540" opacity="0.5"/><circle cx="520" cy="373" r="7.2" fill="#1c5540" opacity="0.5"/><circle cx="569" cy="373" r="7.6" fill="#1c5540" opacity="0.5"/><circle cx="618" cy="373" r="7.9" fill="#1c5540" opacity="0.5"/><circle cx="667" cy="373" r="8.0" fill="#1c5540" opacity="0.5"/><circle cx="716" cy="373" r="7.9" fill="#1c5540" opacity="0.5"/><circle cx="765" cy="373" r="7.7" fill="#1c5540" opacity="0.5"/><circle cx="814" cy="373" r="7.2" fill="#1c5540" opacity="0.5"/><circle cx="863" cy="373" r="6.6" fill="#1c5540" opacity="0.5"/><circle cx="912" cy="373" r="5.9" fill="#1c5540" opacity="0.5"/><circle cx="961" cy="373" r="5.1" fill="#1c5540" opacity="0.5"/><circle cx="1010" cy="373" r="4.2" fill="#1c5540" opacity="0.5"/><circle cx="1059" cy="373" r="3.3" fill="#1c5540" opacity="0.5"/><circle cx="1108" cy="373" r="4.1" fill="#1c5540" opacity="0.5"/><circle cx="1157" cy="373" r="5.0" fill="#1c5540" opacity="0.5"/><circle cx="30" cy="422" r="6.6" fill="#1c5540" opacity="0.5"/><circle cx="79" cy="422" r="5.9" fill="#1c5540" opacity="0.5"/><circle cx="128" cy="422" r="5.1" fill="#1c5540" opacity="0.5"/><circle cx="177" cy="422" r="4.2" fill="#1c5540" opacity="0.5"/><circle cx="226" cy="422" r="3.3" fill="#1c5540" opacity="0.5"/><circle cx="275" cy="422" r="4.1" fill="#1c5540" opacity="0.5"/><circle cx="324" cy="422" r="5.0" fill="#1c5540" opacity="0.5"/><circle cx="373" cy="422" r="5.8" fill="#1c5540" opacity="0.5"/><circle cx="422" cy="422" r="6.5" fill="#1c5540" opacity="0.5"/><circle cx="471" cy="422" r="7.2" fill="#1c5540" opacity="0.5"/><circle cx="520" cy="422" r="7.6" fill="#1c5540" opacity="0.5"/><circle cx="569" cy="422" r="7.9" fill="#1c5540" opacity="0.5"/><circle cx="618" cy="422" r="8.0" fill="#1c5540" opacity="0.5"/><circle cx="667" cy="422" r="7.9" fill="#1c5540" opacity="0.5"/><circle cx="716" cy="422" r="7.7" fill="#1c5540" opacity="0.5"/><circle cx="765" cy="422" r="7.2" fill="#1c5540" opacity="0.5"/><circle cx="814" cy="422" r="6.6" fill="#1c5540" opacity="0.5"/><circle cx="863" cy="422" r="5.9" fill="#1c5540" opacity="0.5"/><circle cx="912" cy="422" r="5.1" fill="#1c5540" opacity="0.5"/><circle cx="961" cy="422" r="4.2" fill="#1c5540" opacity="0.5"/><circle cx="1010" cy="422" r="3.3" fill="#1c5540" opacity="0.5"/><circle cx="1059" cy="422" r="4.1" fill="#1c5540" opacity="0.5"/><circle cx="1108" cy="422" r="5.0" fill="#1c5540" opacity="0.5"/><circle cx="1157" cy="422" r="5.8" fill="#1c5540" opacity="0.5"/><circle cx="30" cy="471" r="5.9" fill="#1c5540" opacity="0.5"/><circle cx="79" cy="471" r="5.1" fill="#1c5540" opacity="0.5"/><circle cx="128" cy="471" r="4.2" fill="#1c5540" opacity="0.5"/><circle cx="177" cy="471" r="3.3" fill="#1c5540" opacity="0.5"/><circle cx="226" cy="471" r="4.1" fill="#1c5540" opacity="0.5"/><circle cx="275" cy="471" r="5.0" fill="#1c5540" opacity="0.5"/><circle cx="324" cy="471" r="5.8" fill="#1c5540" opacity="0.5"/><circle cx="373" cy="471" r="6.5" fill="#1c5540" opacity="0.5"/><circle cx="422" cy="471" r="7.2" fill="#1c5540" opacity="0.5"/><circle cx="471" cy="471" r="7.6" fill="#1c5540" opacity="0.5"/><circle cx="520" cy="471" r="7.9" fill="#1c5540" opacity="0.5"/><circle cx="569" cy="471" r="8.0" fill="#1c5540" opacity="0.5"/><circle cx="618" cy="471" r="7.9" fill="#1c5540" opacity="0.5"/><circle cx="667" cy="471" r="7.7" fill="#1c5540" opacity="0.5"/><circle cx="716" cy="471" r="7.2" fill="#1c5540" opacity="0.5"/><circle cx="765" cy="471" r="6.6" fill="#1c5540" opacity="0.5"/><circle cx="814" cy="471" r="5.9" fill="#1c5540" opacity="0.5"/><circle cx="863" cy="471" r="5.1" fill="#1c5540" opacity="0.5"/><circle cx="912" cy="471" r="4.2" fill="#1c5540" opacity="0.5"/><circle cx="961" cy="471" r="3.3" fill="#1c5540" opacity="0.5"/><circle cx="1010" cy="471" r="4.1" fill="#1c5540" opacity="0.5"/><circle cx="1059" cy="471" r="5.0" fill="#1c5540" opacity="0.5"/><circle cx="1108" cy="471" r="5.8" fill="#1c5540" opacity="0.5"/><circle cx="1157" cy="471" r="6.5" fill="#1c5540" opacity="0.5"/><circle cx="30" cy="520" r="5.1" fill="#1c5540" opacity="0.5"/><circle cx="79" cy="520" r="4.2" fill="#1c5540" opacity="0.5"/><circle cx="128" cy="520" r="3.3" fill="#1c5540" opacity="0.5"/><circle cx="177" cy="520" r="4.1" fill="#1c5540" opacity="0.5"/><circle cx="226" cy="520" r="5.0" fill="#1c5540" opacity="0.5"/><circle cx="275" cy="520" r="5.8" fill="#1c5540" opacity="0.5"/><circle cx="324" cy="520" r="6.5" fill="#1c5540" opacity="0.5"/><circle cx="373" cy="520" r="7.2" fill="#1c5540" opacity="0.5"/><circle cx="422" cy="520" r="7.6" fill="#1c5540" opacity="0.5"/><circle cx="471" cy="520" r="7.9" fill="#1c5540" opacity="0.5"/><circle cx="520" cy="520" r="8.0" fill="#1c5540" opacity="0.5"/><circle cx="569" cy="520" r="7.9" fill="#1c5540" opacity="0.5"/><circle cx="618" cy="520" r="7.7" fill="#1c5540" opacity="0.5"/><circle cx="667" cy="520" r="7.2" fill="#1c5540" opacity="0.5"/><circle cx="716" cy="520" r="6.6" fill="#1c5540" opacity="0.5"/><circle cx="765" cy="520" r="5.9" fill="#1c5540" opacity="0.5"/><circle cx="814" cy="520" r="5.1" fill="#1c5540" opacity="0.5"/><circle cx="863" cy="520" r="4.2" fill="#1c5540" opacity="0.5"/><circle cx="912" cy="520" r="3.3" fill="#1c5540" opacity="0.5"/><circle cx="961" cy="520" r="4.1" fill="#1c5540" opacity="0.5"/><circle cx="1010" cy="520" r="5.0" fill="#1c5540" opacity="0.5"/><circle cx="1059" cy="520" r="5.8" fill="#1c5540" opacity="0.5"/><circle cx="1108" cy="520" r="6.5" fill="#1c5540" opacity="0.5"/><circle cx="1157" cy="520" r="7.1" fill="#1c5540" opacity="0.5"/><circle cx="30" cy="569" r="4.2" fill="#1c5540" opacity="0.5"/><circle cx="79" cy="569" r="3.3" fill="#1c5540" opacity="0.5"/><circle cx="128" cy="569" r="4.1" fill="#1c5540" opacity="0.5"/><circle cx="177" cy="569" r="5.0" fill="#1c5540" opacity="0.5"/><circle cx="226" cy="569" r="5.8" fill="#1c5540" opacity="0.5"/><circle cx="275" cy="569" r="6.5" fill="#1c5540" opacity="0.5"/><circle cx="324" cy="569" r="7.2" fill="#1c5540" opacity="0.5"/><circle cx="373" cy="569" r="7.6" fill="#1c5540" opacity="0.5"/><circle cx="422" cy="569" r="7.9" fill="#1c5540" opacity="0.5"/><circle cx="471" cy="569" r="8.0" fill="#1c5540" opacity="0.5"/><circle cx="520" cy="569" r="7.9" fill="#1c5540" opacity="0.5"/><circle cx="569" cy="569" r="7.7" fill="#1c5540" opacity="0.5"/><circle cx="618" cy="569" r="7.2" fill="#1c5540" opacity="0.5"/><circle cx="667" cy="569" r="6.6" fill="#1c5540" opacity="0.5"/><circle cx="716" cy="569" r="5.9" fill="#1c5540" opacity="0.5"/><circle cx="765" cy="569" r="5.1" fill="#1c5540" opacity="0.5"/><circle cx="814" cy="569" r="4.2" fill="#1c5540" opacity="0.5"/><circle cx="863" cy="569" r="3.3" fill="#1c5540" opacity="0.5"/><circle cx="912" cy="569" r="4.1" fill="#1c5540" opacity="0.5"/><circle cx="961" cy="569" r="5.0" fill="#1c5540" opacity="0.5"/><circle cx="1010" cy="569" r="5.8" fill="#1c5540" opacity="0.5"/><circle cx="1059" cy="569" r="6.5" fill="#1c5540" opacity="0.5"/><circle cx="1108" cy="569" r="7.1" fill="#1c5540" opacity="0.5"/><circle cx="1157" cy="569" r="7.6" fill="#1c5540" opacity="0.5"/><circle cx="30" cy="618" r="3.3" fill="#1c5540" opacity="0.5"/><circle cx="79" cy="618" r="4.1" fill="#1c5540" opacity="0.5"/><circle cx="128" cy="618" r="5.0" fill="#1c5540" opacity="0.5"/><circle cx="177" cy="618" r="5.8" fill="#1c5540" opacity="0.5"/><circle cx="226" cy="618" r="6.5" fill="#1c5540" opacity="0.5"/><circle cx="275" cy="618" r="7.2" fill="#1c5540" opacity="0.5"/><circle cx="324" cy="618" r="7.6" fill="#1c5540" opacity="0.5"/><circle cx="373" cy="618" r="7.9" fill="#1c5540" opacity="0.5"/><circle cx="422" cy="618" r="8.0" fill="#1c5540" opacity="0.5"/><circle cx="471" cy="618" r="7.9" fill="#1c5540" opacity="0.5"/><circle cx="520" cy="618" r="7.7" fill="#1c5540" opacity="0.5"/><circle cx="569" cy="618" r="7.2" fill="#1c5540" opacity="0.5"/><circle cx="618" cy="618" r="6.6" fill="#1c5540" opacity="0.5"/><circle cx="667" cy="618" r="5.9" fill="#1c5540" opacity="0.5"/><circle cx="716" cy="618" r="5.1" fill="#1c5540" opacity="0.5"/><circle cx="765" cy="618" r="4.2" fill="#1c5540" opacity="0.5"/><circle cx="814" cy="618" r="3.3" fill="#1c5540" opacity="0.5"/><circle cx="863" cy="618" r="4.1" fill="#1c5540" opacity="0.5"/><circle cx="912" cy="618" r="5.0" fill="#1c5540" opacity="0.5"/><circle cx="961" cy="618" r="5.8" fill="#1c5540" opacity="0.5"/><circle cx="1010" cy="618" r="6.5" fill="#1c5540" opacity="0.5"/><circle cx="1059" cy="618" r="7.1" fill="#1c5540" opacity="0.5"/><circle cx="1108" cy="618" r="7.6" fill="#1c5540" opacity="0.5"/><circle cx="1157" cy="618" r="7.9" fill="#1c5540" opacity="0.5"/><rect width="1200" height="630" fill="url(#vig)"/><text x="44" y="590" font-family="ui-monospace,Menlo,Consolas,monospace" font-size="24" letter-spacing="3" fill="#ffffff" fill-opacity="0.62">INDUSTRY GUIDE</text></svg>