<svg xmlns="http://www.w3.org/2000/svg" viewBox="0 0 1200 630" width="1200" height="630" role="img" aria-label="HOSPITALITY WEBSITES · BRIXTON"><defs><linearGradient id="ge14b57" x1="0" y1="0" x2="0" y2="1"><stop offset="0" stop-color="#C64B3B"/><stop offset="1" stop-color="#642017"/></linearGradient><filter id="blur"><feGaussianBlur stdDeviation="55"/></filter><radialGradient id="vig" cx="0.5" cy="0.4" r="0.75"><stop offset="0.6" stop-color="#000000" stop-opacity="0"/><stop offset="1" stop-color="#000000" stop-opacity="0.32"/></radialGradient></defs><rect width="1200" height="630" fill="url(#ge14b57)"/><rect x="-300" y="-200" width="119" height="1030" fill="#ffffff" opacity="0.28" transform="rotate(-30 600 315)"/><rect x="-103" y="-200" width="108" height="1030" fill="#ffffff" opacity="0.24" transform="rotate(-30 600 315)"/><rect x="72" y="-200" width="123" height="1030" fill="#E5892B" opacity="0.15" transform="rotate(-30 600 315)"/><rect x="279" y="-200" width="125" height="1030" fill="#C64B3B" opacity="0.13" transform="rotate(-30 600 315)"/><rect x="466" y="-200" width="128" height="1030" fill="#8F2E22" opacity="0.13" transform="rotate(-30 600 315)"/><rect x="670" y="-200" width="61" height="1030" fill="#ffffff" opacity="0.36" transform="rotate(-30 600 315)"/><rect x="808" y="-200" width="61" height="1030" fill="#E5892B" opacity="0.35" transform="rotate(-30 600 315)"/><rect x="940" y="-200" width="50" height="1030" fill="#E5892B" opacity="0.19" transform="rotate(-30 600 315)"/><rect x="1072" y="-200" width="64" height="1030" fill="#E5892B" opacity="0.26" transform="rotate(-30 600 315)"/><rect x="1189" y="-200" width="100" height="1030" fill="#E5892B" opacity="0.12" transform="rotate(-30 600 315)"/><rect x="1355" y="-200" width="70" height="1030" fill="#E5892B" opacity="0.16" transform="rotate(-30 600 315)"/><rect x="1476" y="-200" width="70" height="1030" fill="#C64B3B" opacity="0.18" transform="rotate(-30 600 315)"/><rect width="1200" height="630" fill="url(#vig)"/><text x="44" y="590" font-family="ui-monospace,Menlo,Consolas,monospace" font-size="24" letter-spacing="3" fill="#ffffff" fill-opacity="0.62">HOSPITALITY WEBSITES · BRIXTON</text></svg>