<svg xmlns="http://www.w3.org/2000/svg" viewBox="0 0 1200 630" width="1200" height="630" role="img" aria-label="LOCAL SEO · CLAPHAM"><defs><linearGradient id="g0ac267" x1="0" y1="0" x2="0" y2="1"><stop offset="0" stop-color="#3A5BD9"/><stop offset="1" stop-color="#1a2c6e"/></linearGradient><filter id="blur"><feGaussianBlur stdDeviation="55"/></filter><radialGradient id="vig" cx="0.5" cy="0.4" r="0.75"><stop offset="0.6" stop-color="#000000" stop-opacity="0"/><stop offset="1" stop-color="#000000" stop-opacity="0.32"/></radialGradient></defs><rect width="1200" height="630" fill="url(#g0ac267)"/><polygon points="297,336 1100,438 751,32" fill="#26409e" opacity="0.23"/><polygon points="819,423 809,58 297,336" fill="#26409e" opacity="0.23"/><polygon points="297,336 297,336 126,122" fill="#26409e" opacity="0.27"/><polygon points="297,336 503,14 139,470" fill="#D6478E" opacity="0.26"/><polygon points="139,470 809,58 748,170" fill="#D6478E" opacity="0.21"/><polygon points="809,58 809,58 819,423" fill="#D6478E" opacity="0.26"/><polygon points="503,14 751,32 503,14" fill="#ffffff" opacity="0.29"/><polygon points="751,32 1100,438 809,58" fill="#3A5BD9" opacity="0.1"/><polygon points="809,58 503,14 1054,12" fill="#26409e" opacity="0.16"/><polygon points="748,170 809,58 819,423" fill="#D6478E" opacity="0.27"/><rect width="1200" height="630" fill="url(#vig)"/><text x="44" y="590" font-family="ui-monospace,Menlo,Consolas,monospace" font-size="24" letter-spacing="3" fill="#ffffff" fill-opacity="0.62">LOCAL SEO · CLAPHAM</text></svg>