<svg xmlns="http://www.w3.org/2000/svg" viewBox="0 0 1200 630" width="1200" height="630" role="img" aria-label="LOCAL SEO · HAMMERSMITH"><defs><linearGradient id="g3d0db7" x1="0" y1="0" x2="1" y2="0"><stop offset="0" stop-color="#3A5BD9"/><stop offset="1" stop-color="#1a2c6e"/></linearGradient><filter id="blur"><feGaussianBlur stdDeviation="55"/></filter><radialGradient id="vig" cx="0.5" cy="0.4" r="0.75"><stop offset="0.6" stop-color="#000000" stop-opacity="0"/><stop offset="1" stop-color="#000000" stop-opacity="0.32"/></radialGradient></defs><rect width="1200" height="630" fill="url(#g3d0db7)"/><rect x="-300" y="-200" width="64" height="1030" fill="#ffffff" opacity="0.23" transform="rotate(20 600 315)"/><rect x="-202" y="-200" width="115" height="1030" fill="#ffffff" opacity="0.14" transform="rotate(20 600 315)"/><rect x="1" y="-200" width="71" height="1030" fill="#3A5BD9" opacity="0.34" transform="rotate(20 600 315)"/><rect x="141" y="-200" width="121" height="1030" fill="#3A5BD9" opacity="0.12" transform="rotate(20 600 315)"/><rect x="298" y="-200" width="104" height="1030" fill="#26409e" opacity="0.26" transform="rotate(20 600 315)"/><rect x="444" y="-200" width="60" height="1030" fill="#26409e" opacity="0.37" transform="rotate(20 600 315)"/><rect x="539" y="-200" width="50" height="1030" fill="#26409e" opacity="0.27" transform="rotate(20 600 315)"/><rect x="624" y="-200" width="82" height="1030" fill="#3A5BD9" opacity="0.36" transform="rotate(20 600 315)"/><rect x="749" y="-200" width="121" height="1030" fill="#3A5BD9" opacity="0.3" transform="rotate(20 600 315)"/><rect x="955" y="-200" width="117" height="1030" fill="#26409e" opacity="0.36" transform="rotate(20 600 315)"/><rect x="1109" y="-200" width="103" height="1030" fill="#3A5BD9" opacity="0.15" transform="rotate(20 600 315)"/><rect x="1256" y="-200" width="83" height="1030" fill="#26409e" opacity="0.19" transform="rotate(20 600 315)"/><rect x="1377" y="-200" width="126" height="1030" fill="#3A5BD9" opacity="0.13" transform="rotate(20 600 315)"/><rect width="1200" height="630" fill="url(#vig)"/><text x="44" y="590" font-family="ui-monospace,Menlo,Consolas,monospace" font-size="24" letter-spacing="3" fill="#ffffff" fill-opacity="0.62">LOCAL SEO · HAMMERSMITH</text></svg>