<svg xmlns="http://www.w3.org/2000/svg" viewBox="0 0 1200 630" width="1200" height="630" role="img" aria-label="LOCAL SEO · BRIXTON"><defs><linearGradient id="g6d8d30" x1="0" y1="0" x2="1" y2="1"><stop offset="0" stop-color="#2FA8C4"/><stop offset="1" stop-color="#155869"/></linearGradient><filter id="blur"><feGaussianBlur stdDeviation="55"/></filter><radialGradient id="vig" cx="0.5" cy="0.4" r="0.75"><stop offset="0.6" stop-color="#000000" stop-opacity="0"/><stop offset="1" stop-color="#000000" stop-opacity="0.32"/></radialGradient></defs><rect width="1200" height="630" fill="url(#g6d8d30)"/><path d="M -50 368 Q 10 321 70 368 Q 130 415 190 368 Q 250 321 310 368 Q 370 415 430 368 Q 490 321 550 368 Q 610 415 670 368 Q 730 321 790 368 Q 850 415 910 368 Q 970 321 1030 368 Q 1090 415 1150 368 Q 1210 321 1270 368 L 1250 680 L -50 680 Z" fill="#1E7E96" opacity="0.22"/><path d="M -50 441 Q 10 382 70 441 Q 130 500 190 441 Q 250 382 310 441 Q 370 500 430 441 Q 490 382 550 441 Q 610 500 670 441 Q 730 382 790 441 Q 850 500 910 441 Q 970 382 1030 441 Q 1090 500 1150 441 Q 1210 382 1270 441 L 1250 680 L -50 680 Z" fill="#1E7E96" opacity="0.22"/><path d="M -50 351 Q 10 284 70 351 Q 130 418 190 351 Q 250 284 310 351 Q 370 418 430 351 Q 490 284 550 351 Q 610 418 670 351 Q 730 284 790 351 Q 850 418 910 351 Q 970 284 1030 351 Q 1090 418 1150 351 Q 1210 284 1270 351 L 1250 680 L -50 680 Z" fill="#2FA8C4" opacity="0.22"/><path d="M -50 445 Q 10 405 70 445 Q 130 485 190 445 Q 250 405 310 445 Q 370 485 430 445 Q 490 405 550 445 Q 610 485 670 445 Q 730 405 790 445 Q 850 485 910 445 Q 970 405 1030 445 Q 1090 485 1150 445 Q 1210 405 1270 445 L 1250 680 L -50 680 Z" fill="#1E7E96" opacity="0.22"/><path d="M -50 228 Q 10 163 70 228 Q 130 293 190 228 Q 250 163 310 228 Q 370 293 430 228 Q 490 163 550 228 Q 610 293 670 228 Q 730 163 790 228 Q 850 293 910 228 Q 970 163 1030 228 Q 1090 293 1150 228 Q 1210 163 1270 228 L 1250 680 L -50 680 Z" fill="#ffffff" opacity="0.22"/><path d="M -50 497 Q 10 443 70 497 Q 130 551 190 497 Q 250 443 310 497 Q 370 551 430 497 Q 490 443 550 497 Q 610 551 670 497 Q 730 443 790 497 Q 850 551 910 497 Q 970 443 1030 497 Q 1090 551 1150 497 Q 1210 443 1270 497 L 1250 680 L -50 680 Z" fill="#ffffff" opacity="0.22"/><rect width="1200" height="630" fill="url(#vig)"/><text x="44" y="590" font-family="ui-monospace,Menlo,Consolas,monospace" font-size="24" letter-spacing="3" fill="#ffffff" fill-opacity="0.62">LOCAL SEO · BRIXTON</text></svg>