<svg xmlns="http://www.w3.org/2000/svg" viewBox="0 0 1200 630" width="1200" height="630" role="img" aria-label="SEO GUIDE"><defs><linearGradient id="g2e0393" x1="0" y1="0" x2="0" y2="1"><stop offset="0" stop-color="#2E7D5B"/><stop offset="1" stop-color="#133b2c"/></linearGradient><filter id="blur"><feGaussianBlur stdDeviation="55"/></filter><radialGradient id="vig" cx="0.5" cy="0.4" r="0.75"><stop offset="0.6" stop-color="#000000" stop-opacity="0"/><stop offset="1" stop-color="#000000" stop-opacity="0.32"/></radialGradient></defs><rect width="1200" height="630" fill="url(#g2e0393)"/><polygon points="303,407 1043,456 1003,504" fill="#1c5540" opacity="0.28"/><polygon points="505,264 870,89 540,141" fill="#1c5540" opacity="0.1"/><polygon points="1196,483 540,141 267,411" fill="#2FA8C4" opacity="0.26"/><polygon points="505,264 267,411 303,407" fill="#2FA8C4" opacity="0.17"/><polygon points="870,89 505,264 870,89" fill="#2FA8C4" opacity="0.17"/><polygon points="1043,456 1043,456 870,89" fill="#2FA8C4" opacity="0.24"/><polygon points="505,264 970,410 224,505" fill="#ffffff" opacity="0.26"/><polygon points="303,407 505,264 1003,504" fill="#1c5540" opacity="0.31"/><polygon points="1043,456 1043,456 1043,456" fill="#2FA8C4" opacity="0.17"/><polygon points="505,264 540,141 267,411" fill="#2E7D5B" opacity="0.17"/><rect width="1200" height="630" fill="url(#vig)"/><text x="44" y="590" font-family="ui-monospace,Menlo,Consolas,monospace" font-size="24" letter-spacing="3" fill="#ffffff" fill-opacity="0.62">SEO GUIDE</text></svg>