<svg xmlns="http://www.w3.org/2000/svg" viewBox="0 0 1200 630" width="1200" height="630" role="img" aria-label="LOCAL SEO · BRISTOL"><defs><linearGradient id="g9f0aef" x1="0.2" y1="0" x2="0.8" y2="1"><stop offset="0" stop-color="#3A5BD9"/><stop offset="1" stop-color="#1a2c6e"/></linearGradient><filter id="blur"><feGaussianBlur stdDeviation="55"/></filter><radialGradient id="vig" cx="0.5" cy="0.4" r="0.75"><stop offset="0.6" stop-color="#000000" stop-opacity="0"/><stop offset="1" stop-color="#000000" stop-opacity="0.32"/></radialGradient></defs><rect width="1200" height="630" fill="url(#g9f0aef)"/><circle cx="30" cy="30" r="2.9" fill="#26409e" opacity="0.5"/><circle cx="90" cy="30" r="2.3" fill="#26409e" opacity="0.5"/><circle cx="150" cy="30" r="1.8" fill="#26409e" opacity="0.5"/><circle cx="210" cy="30" r="2.0" fill="#26409e" opacity="0.5"/><circle cx="270" cy="30" r="2.6" fill="#26409e" opacity="0.5"/><circle cx="330" cy="30" r="3.1" fill="#26409e" opacity="0.5"/><circle cx="390" cy="30" r="3.5" fill="#26409e" opacity="0.5"/><circle cx="450" cy="30" r="3.8" fill="#26409e" opacity="0.5"/><circle cx="510" cy="30" r="4.0" fill="#26409e" opacity="0.5"/><circle cx="570" cy="30" r="4.0" fill="#26409e" opacity="0.5"/><circle cx="630" cy="30" r="3.9" fill="#26409e" opacity="0.5"/><circle cx="690" cy="30" r="3.7" fill="#26409e" opacity="0.5"/><circle cx="750" cy="30" r="3.3" fill="#26409e" opacity="0.5"/><circle cx="810" cy="30" r="2.9" fill="#26409e" opacity="0.5"/><circle cx="870" cy="30" r="2.4" fill="#26409e" opacity="0.5"/><circle cx="930" cy="30" r="1.8" fill="#26409e" opacity="0.5"/><circle cx="990" cy="30" r="2.0" fill="#26409e" opacity="0.5"/><circle cx="1050" cy="30" r="2.5" fill="#26409e" opacity="0.5"/><circle cx="1110" cy="30" r="3.0" fill="#26409e" opacity="0.5"/><circle cx="1170" cy="30" r="3.4" fill="#26409e" opacity="0.5"/><circle cx="30" cy="90" r="2.3" fill="#26409e" opacity="0.5"/><circle cx="90" cy="90" r="1.8" fill="#26409e" opacity="0.5"/><circle cx="150" cy="90" r="2.0" fill="#26409e" opacity="0.5"/><circle cx="210" cy="90" r="2.6" fill="#26409e" opacity="0.5"/><circle cx="270" cy="90" r="3.1" fill="#26409e" opacity="0.5"/><circle cx="330" cy="90" r="3.5" fill="#26409e" opacity="0.5"/><circle cx="390" cy="90" r="3.8" fill="#26409e" opacity="0.5"/><circle cx="450" cy="90" r="4.0" fill="#26409e" opacity="0.5"/><circle cx="510" cy="90" r="4.0" fill="#26409e" opacity="0.5"/><circle cx="570" cy="90" r="3.9" fill="#26409e" opacity="0.5"/><circle cx="630" cy="90" r="3.7" fill="#26409e" opacity="0.5"/><circle cx="690" cy="90" r="3.3" fill="#26409e" opacity="0.5"/><circle cx="750" cy="90" r="2.9" fill="#26409e" opacity="0.5"/><circle cx="810" cy="90" r="2.4" fill="#26409e" opacity="0.5"/><circle cx="870" cy="90" r="1.8" fill="#26409e" opacity="0.5"/><circle cx="930" cy="90" r="2.0" fill="#26409e" opacity="0.5"/><circle cx="990" cy="90" r="2.5" fill="#26409e" opacity="0.5"/><circle cx="1050" cy="90" r="3.0" fill="#26409e" opacity="0.5"/><circle cx="1110" cy="90" r="3.4" fill="#26409e" opacity="0.5"/><circle cx="1170" cy="90" r="3.7" fill="#26409e" opacity="0.5"/><circle cx="30" cy="150" r="1.8" fill="#26409e" opacity="0.5"/><circle cx="90" cy="150" r="2.0" fill="#26409e" opacity="0.5"/><circle cx="150" cy="150" r="2.6" fill="#26409e" opacity="0.5"/><circle cx="210" cy="150" r="3.1" fill="#26409e" opacity="0.5"/><circle cx="270" cy="150" r="3.5" fill="#26409e" opacity="0.5"/><circle cx="330" cy="150" r="3.8" fill="#26409e" opacity="0.5"/><circle cx="390" cy="150" r="4.0" fill="#26409e" opacity="0.5"/><circle cx="450" cy="150" r="4.0" fill="#26409e" opacity="0.5"/><circle cx="510" cy="150" r="3.9" fill="#26409e" opacity="0.5"/><circle cx="570" cy="150" r="3.7" fill="#26409e" opacity="0.5"/><circle cx="630" cy="150" r="3.3" fill="#26409e" opacity="0.5"/><circle cx="690" cy="150" r="2.9" fill="#26409e" opacity="0.5"/><circle cx="750" cy="150" r="2.4" fill="#26409e" opacity="0.5"/><circle cx="810" cy="150" r="1.8" fill="#26409e" opacity="0.5"/><circle cx="870" cy="150" r="2.0" fill="#26409e" opacity="0.5"/><circle cx="930" cy="150" r="2.5" fill="#26409e" opacity="0.5"/><circle cx="990" cy="150" r="3.0" fill="#26409e" opacity="0.5"/><circle cx="1050" cy="150" r="3.4" fill="#26409e" opacity="0.5"/><circle cx="1110" cy="150" r="3.7" fill="#26409e" opacity="0.5"/><circle cx="1170" cy="150" r="3.9" fill="#26409e" opacity="0.5"/><circle cx="30" cy="210" r="2.0" fill="#26409e" opacity="0.5"/><circle cx="90" cy="210" r="2.6" fill="#26409e" opacity="0.5"/><circle cx="150" cy="210" r="3.1" fill="#26409e" opacity="0.5"/><circle cx="210" cy="210" r="3.5" fill="#26409e" opacity="0.5"/><circle cx="270" cy="210" r="3.8" fill="#26409e" opacity="0.5"/><circle cx="330" cy="210" r="4.0" fill="#26409e" opacity="0.5"/><circle cx="390" cy="210" r="4.0" fill="#26409e" opacity="0.5"/><circle cx="450" cy="210" r="3.9" fill="#26409e" opacity="0.5"/><circle cx="510" cy="210" r="3.7" fill="#26409e" opacity="0.5"/><circle cx="570" cy="210" r="3.3" fill="#26409e" opacity="0.5"/><circle cx="630" cy="210" r="2.9" fill="#26409e" opacity="0.5"/><circle cx="690" cy="210" r="2.4" fill="#26409e" opacity="0.5"/><circle cx="750" cy="210" r="1.8" fill="#26409e" opacity="0.5"/><circle cx="810" cy="210" r="2.0" fill="#26409e" opacity="0.5"/><circle cx="870" cy="210" r="2.5" fill="#26409e" opacity="0.5"/><circle cx="930" cy="210" r="3.0" fill="#26409e" opacity="0.5"/><circle cx="990" cy="210" r="3.4" fill="#26409e" opacity="0.5"/><circle cx="1050" cy="210" r="3.7" fill="#26409e" opacity="0.5"/><circle cx="1110" cy="210" r="3.9" fill="#26409e" opacity="0.5"/><circle cx="1170" cy="210" r="4.0" fill="#26409e" opacity="0.5"/><circle cx="30" cy="270" r="2.6" fill="#26409e" opacity="0.5"/><circle cx="90" cy="270" r="3.1" fill="#26409e" opacity="0.5"/><circle cx="150" cy="270" r="3.5" fill="#26409e" opacity="0.5"/><circle cx="210" cy="270" r="3.8" fill="#26409e" opacity="0.5"/><circle cx="270" cy="270" r="4.0" fill="#26409e" opacity="0.5"/><circle cx="330" cy="270" r="4.0" fill="#26409e" opacity="0.5"/><circle cx="390" cy="270" r="3.9" fill="#26409e" opacity="0.5"/><circle cx="450" cy="270" r="3.7" fill="#26409e" opacity="0.5"/><circle cx="510" cy="270" r="3.3" fill="#26409e" opacity="0.5"/><circle cx="570" cy="270" r="2.9" fill="#26409e" opacity="0.5"/><circle cx="630" cy="270" r="2.4" fill="#26409e" opacity="0.5"/><circle cx="690" cy="270" r="1.8" fill="#26409e" opacity="0.5"/><circle cx="750" cy="270" r="2.0" fill="#26409e" opacity="0.5"/><circle cx="810" cy="270" r="2.5" fill="#26409e" opacity="0.5"/><circle cx="870" cy="270" r="3.0" fill="#26409e" opacity="0.5"/><circle cx="930" cy="270" r="3.4" fill="#26409e" opacity="0.5"/><circle cx="990" cy="270" r="3.7" fill="#26409e" opacity="0.5"/><circle cx="1050" cy="270" r="3.9" fill="#26409e" opacity="0.5"/><circle cx="1110" cy="270" r="4.0" fill="#26409e" opacity="0.5"/><circle cx="1170" cy="270" r="3.9" fill="#26409e" opacity="0.5"/><circle cx="30" cy="330" r="3.1" fill="#26409e" opacity="0.5"/><circle cx="90" cy="330" r="3.5" fill="#26409e" opacity="0.5"/><circle cx="150" cy="330" r="3.8" fill="#26409e" opacity="0.5"/><circle cx="210" cy="330" r="4.0" fill="#26409e" opacity="0.5"/><circle cx="270" cy="330" r="4.0" fill="#26409e" opacity="0.5"/><circle cx="330" cy="330" r="3.9" fill="#26409e" opacity="0.5"/><circle cx="390" cy="330" r="3.7" fill="#26409e" opacity="0.5"/><circle cx="450" cy="330" r="3.3" fill="#26409e" opacity="0.5"/><circle cx="510" cy="330" r="2.9" fill="#26409e" opacity="0.5"/><circle cx="570" cy="330" r="2.4" fill="#26409e" opacity="0.5"/><circle cx="630" cy="330" r="1.8" fill="#26409e" opacity="0.5"/><circle cx="690" cy="330" r="2.0" fill="#26409e" opacity="0.5"/><circle cx="750" cy="330" r="2.5" fill="#26409e" opacity="0.5"/><circle cx="810" cy="330" r="3.0" fill="#26409e" opacity="0.5"/><circle cx="870" cy="330" r="3.4" fill="#26409e" opacity="0.5"/><circle cx="930" cy="330" r="3.7" fill="#26409e" opacity="0.5"/><circle cx="990" cy="330" r="3.9" fill="#26409e" opacity="0.5"/><circle cx="1050" cy="330" r="4.0" fill="#26409e" opacity="0.5"/><circle cx="1110" cy="330" r="3.9" fill="#26409e" opacity="0.5"/><circle cx="1170" cy="330" r="3.7" fill="#26409e" opacity="0.5"/><circle cx="30" cy="390" r="3.5" fill="#26409e" opacity="0.5"/><circle cx="90" cy="390" r="3.8" fill="#26409e" opacity="0.5"/><circle cx="150" cy="390" r="4.0" fill="#26409e" opacity="0.5"/><circle cx="210" cy="390" r="4.0" fill="#26409e" opacity="0.5"/><circle cx="270" cy="390" r="3.9" fill="#26409e" opacity="0.5"/><circle cx="330" cy="390" r="3.7" fill="#26409e" opacity="0.5"/><circle cx="390" cy="390" r="3.3" fill="#26409e" opacity="0.5"/><circle cx="450" cy="390" r="2.9" fill="#26409e" opacity="0.5"/><circle cx="510" cy="390" r="2.4" fill="#26409e" opacity="0.5"/><circle cx="570" cy="390" r="1.8" fill="#26409e" opacity="0.5"/><circle cx="630" cy="390" r="2.0" fill="#26409e" opacity="0.5"/><circle cx="690" cy="390" r="2.5" fill="#26409e" opacity="0.5"/><circle cx="750" cy="390" r="3.0" fill="#26409e" opacity="0.5"/><circle cx="810" cy="390" r="3.4" fill="#26409e" opacity="0.5"/><circle cx="870" cy="390" r="3.7" fill="#26409e" opacity="0.5"/><circle cx="930" cy="390" r="3.9" fill="#26409e" opacity="0.5"/><circle cx="990" cy="390" r="4.0" fill="#26409e" opacity="0.5"/><circle cx="1050" cy="390" r="3.9" fill="#26409e" opacity="0.5"/><circle cx="1110" cy="390" r="3.7" fill="#26409e" opacity="0.5"/><circle cx="1170" cy="390" r="3.4" fill="#26409e" opacity="0.5"/><circle cx="30" cy="450" r="3.8" fill="#26409e" opacity="0.5"/><circle cx="90" cy="450" r="4.0" fill="#26409e" opacity="0.5"/><circle cx="150" cy="450" r="4.0" fill="#26409e" opacity="0.5"/><circle cx="210" cy="450" r="3.9" fill="#26409e" opacity="0.5"/><circle cx="270" cy="450" r="3.7" fill="#26409e" opacity="0.5"/><circle cx="330" cy="450" r="3.3" fill="#26409e" opacity="0.5"/><circle cx="390" cy="450" r="2.9" fill="#26409e" opacity="0.5"/><circle cx="450" cy="450" r="2.4" fill="#26409e" opacity="0.5"/><circle cx="510" cy="450" r="1.8" fill="#26409e" opacity="0.5"/><circle cx="570" cy="450" r="2.0" fill="#26409e" opacity="0.5"/><circle cx="630" cy="450" r="2.5" fill="#26409e" opacity="0.5"/><circle cx="690" cy="450" r="3.0" fill="#26409e" opacity="0.5"/><circle cx="750" cy="450" r="3.4" fill="#26409e" opacity="0.5"/><circle cx="810" cy="450" r="3.7" fill="#26409e" opacity="0.5"/><circle cx="870" cy="450" r="3.9" fill="#26409e" opacity="0.5"/><circle cx="930" cy="450" r="4.0" fill="#26409e" opacity="0.5"/><circle cx="990" cy="450" r="3.9" fill="#26409e" opacity="0.5"/><circle cx="1050" cy="450" r="3.7" fill="#26409e" opacity="0.5"/><circle cx="1110" cy="450" r="3.4" fill="#26409e" opacity="0.5"/><circle cx="1170" cy="450" r="2.9" fill="#26409e" opacity="0.5"/><circle cx="30" cy="510" r="4.0" fill="#26409e" opacity="0.5"/><circle cx="90" cy="510" r="4.0" fill="#26409e" opacity="0.5"/><circle cx="150" cy="510" r="3.9" fill="#26409e" opacity="0.5"/><circle cx="210" cy="510" r="3.7" fill="#26409e" opacity="0.5"/><circle cx="270" cy="510" r="3.3" fill="#26409e" opacity="0.5"/><circle cx="330" cy="510" r="2.9" fill="#26409e" opacity="0.5"/><circle cx="390" cy="510" r="2.4" fill="#26409e" opacity="0.5"/><circle cx="450" cy="510" r="1.8" fill="#26409e" opacity="0.5"/><circle cx="510" cy="510" r="2.0" fill="#26409e" opacity="0.5"/><circle cx="570" cy="510" r="2.5" fill="#26409e" opacity="0.5"/><circle cx="630" cy="510" r="3.0" fill="#26409e" opacity="0.5"/><circle cx="690" cy="510" r="3.4" fill="#26409e" opacity="0.5"/><circle cx="750" cy="510" r="3.7" fill="#26409e" opacity="0.5"/><circle cx="810" cy="510" r="3.9" fill="#26409e" opacity="0.5"/><circle cx="870" cy="510" r="4.0" fill="#26409e" opacity="0.5"/><circle cx="930" cy="510" r="3.9" fill="#26409e" opacity="0.5"/><circle cx="990" cy="510" r="3.7" fill="#26409e" opacity="0.5"/><circle cx="1050" cy="510" r="3.4" fill="#26409e" opacity="0.5"/><circle cx="1110" cy="510" r="2.9" fill="#26409e" opacity="0.5"/><circle cx="1170" cy="510" r="2.4" fill="#26409e" opacity="0.5"/><circle cx="30" cy="570" r="4.0" fill="#26409e" opacity="0.5"/><circle cx="90" cy="570" r="3.9" fill="#26409e" opacity="0.5"/><circle cx="150" cy="570" r="3.7" fill="#26409e" opacity="0.5"/><circle cx="210" cy="570" r="3.3" fill="#26409e" opacity="0.5"/><circle cx="270" cy="570" r="2.9" fill="#26409e" opacity="0.5"/><circle cx="330" cy="570" r="2.4" fill="#26409e" opacity="0.5"/><circle cx="390" cy="570" r="1.8" fill="#26409e" opacity="0.5"/><circle cx="450" cy="570" r="2.0" fill="#26409e" opacity="0.5"/><circle cx="510" cy="570" r="2.5" fill="#26409e" opacity="0.5"/><circle cx="570" cy="570" r="3.0" fill="#26409e" opacity="0.5"/><circle cx="630" cy="570" r="3.4" fill="#26409e" opacity="0.5"/><circle cx="690" cy="570" r="3.7" fill="#26409e" opacity="0.5"/><circle cx="750" cy="570" r="3.9" fill="#26409e" opacity="0.5"/><circle cx="810" cy="570" r="4.0" fill="#26409e" opacity="0.5"/><circle cx="870" cy="570" r="3.9" fill="#26409e" opacity="0.5"/><circle cx="930" cy="570" r="3.7" fill="#26409e" opacity="0.5"/><circle cx="990" cy="570" r="3.4" fill="#26409e" opacity="0.5"/><circle cx="1050" cy="570" r="2.9" fill="#26409e" opacity="0.5"/><circle cx="1110" cy="570" r="2.4" fill="#26409e" opacity="0.5"/><circle cx="1170" cy="570" r="1.9" fill="#26409e" opacity="0.5"/><rect width="1200" height="630" fill="url(#vig)"/><text x="44" y="590" font-family="ui-monospace,Menlo,Consolas,monospace" font-size="24" letter-spacing="3" fill="#ffffff" fill-opacity="0.62">LOCAL SEO · BRISTOL</text></svg>