<svg xmlns="http://www.w3.org/2000/svg" viewBox="0 0 1200 630" width="1200" height="630" role="img" aria-label="LOCAL SEO · LEEDS"><defs><linearGradient id="gb9630e" x1="0" y1="0" x2="0" y2="1"><stop offset="0" stop-color="#2FA8C4"/><stop offset="1" stop-color="#155869"/></linearGradient><filter id="blur"><feGaussianBlur stdDeviation="55"/></filter><radialGradient id="vig" cx="0.5" cy="0.4" r="0.75"><stop offset="0.6" stop-color="#000000" stop-opacity="0"/><stop offset="1" stop-color="#000000" stop-opacity="0.32"/></radialGradient></defs><rect width="1200" height="630" fill="url(#gb9630e)"/><path d="M -50 134 Q 10 64 70 134 Q 130 204 190 134 Q 250 64 310 134 Q 370 204 430 134 Q 490 64 550 134 Q 610 204 670 134 Q 730 64 790 134 Q 850 204 910 134 Q 970 64 1030 134 Q 1090 204 1150 134 Q 1210 64 1270 134 L 1250 680 L -50 680 Z" fill="#1E7E96" opacity="0.22"/><path d="M -50 382 Q 10 345 70 382 Q 130 419 190 382 Q 250 345 310 382 Q 370 419 430 382 Q 490 345 550 382 Q 610 419 670 382 Q 730 345 790 382 Q 850 419 910 382 Q 970 345 1030 382 Q 1090 419 1150 382 Q 1210 345 1270 382 L 1250 680 L -50 680 Z" fill="#2E7D5B" opacity="0.22"/><path d="M -50 499 Q 10 420 70 499 Q 130 578 190 499 Q 250 420 310 499 Q 370 578 430 499 Q 490 420 550 499 Q 610 578 670 499 Q 730 420 790 499 Q 850 578 910 499 Q 970 420 1030 499 Q 1090 578 1150 499 Q 1210 420 1270 499 L 1250 680 L -50 680 Z" fill="#ffffff" opacity="0.22"/><path d="M -50 363 Q 10 309 70 363 Q 130 417 190 363 Q 250 309 310 363 Q 370 417 430 363 Q 490 309 550 363 Q 610 417 670 363 Q 730 309 790 363 Q 850 417 910 363 Q 970 309 1030 363 Q 1090 417 1150 363 Q 1210 309 1270 363 L 1250 680 L -50 680 Z" fill="#2E7D5B" opacity="0.22"/><path d="M -50 146 Q 10 104 70 146 Q 130 188 190 146 Q 250 104 310 146 Q 370 188 430 146 Q 490 104 550 146 Q 610 188 670 146 Q 730 104 790 146 Q 850 188 910 146 Q 970 104 1030 146 Q 1090 188 1150 146 Q 1210 104 1270 146 L 1250 680 L -50 680 Z" fill="#2E7D5B" opacity="0.22"/><path d="M -50 539 Q 10 492 70 539 Q 130 586 190 539 Q 250 492 310 539 Q 370 586 430 539 Q 490 492 550 539 Q 610 586 670 539 Q 730 492 790 539 Q 850 586 910 539 Q 970 492 1030 539 Q 1090 586 1150 539 Q 1210 492 1270 539 L 1250 680 L -50 680 Z" fill="#2FA8C4" opacity="0.22"/><rect width="1200" height="630" fill="url(#vig)"/><text x="44" y="590" font-family="ui-monospace,Menlo,Consolas,monospace" font-size="24" letter-spacing="3" fill="#ffffff" fill-opacity="0.62">LOCAL SEO · LEEDS</text></svg>