<svg xmlns="http://www.w3.org/2000/svg" viewBox="0 0 1200 630" width="1200" height="630" role="img" aria-label="LOCAL SEO · ISLINGTON"><defs><linearGradient id="gfc6b1d" x1="1" y1="0" x2="0" y2="1"><stop offset="0" stop-color="#2FA8C4"/><stop offset="1" stop-color="#155869"/></linearGradient><filter id="blur"><feGaussianBlur stdDeviation="55"/></filter><radialGradient id="vig" cx="0.5" cy="0.4" r="0.75"><stop offset="0.6" stop-color="#000000" stop-opacity="0"/><stop offset="1" stop-color="#000000" stop-opacity="0.32"/></radialGradient></defs><rect width="1200" height="630" fill="url(#gfc6b1d)"/><polygon points="1165,208 52,248 52,248" fill="#3A5BD9" opacity="0.27"/><polygon points="939,236 757,150 629,242" fill="#3A5BD9" opacity="0.1"/><polygon points="1152,364 629,242 199,594" fill="#3A5BD9" opacity="0.19"/><polygon points="707,480 1152,364 895,297" fill="#2FA8C4" opacity="0.24"/><polygon points="662,384 629,242 757,150" fill="#2FA8C4" opacity="0.21"/><polygon points="662,384 374,354 707,480" fill="#2FA8C4" opacity="0.22"/><polygon points="939,236 1165,208 199,594" fill="#2FA8C4" opacity="0.2"/><polygon points="757,150 707,480 629,242" fill="#3A5BD9" opacity="0.12"/><polygon points="629,242 939,236 662,384" fill="#ffffff" opacity="0.23"/><polygon points="199,594 629,242 939,236" fill="#3A5BD9" opacity="0.25"/><polygon points="939,236 199,594 662,384" fill="#1E7E96" opacity="0.23"/><polygon points="629,242 629,242 1152,364" fill="#1E7E96" opacity="0.26"/><polygon points="1165,208 757,150 629,242" fill="#2FA8C4" opacity="0.18"/><polygon points="707,480 707,480 707,480" fill="#1E7E96" opacity="0.22"/><polygon points="939,236 757,150 662,384" fill="#2FA8C4" opacity="0.25"/><polygon points="895,297 662,384 895,297" fill="#1E7E96" opacity="0.21"/><rect width="1200" height="630" fill="url(#vig)"/><text x="44" y="590" font-family="ui-monospace,Menlo,Consolas,monospace" font-size="24" letter-spacing="3" fill="#ffffff" fill-opacity="0.62">LOCAL SEO · ISLINGTON</text></svg>