<svg xmlns="http://www.w3.org/2000/svg" viewBox="0 0 1200 630" width="1200" height="630" role="img" aria-label="LOCAL SEO · CROYDON"><defs><linearGradient id="gb1200a" x1="0.2" y1="0" x2="0.8" y2="1"><stop offset="0" stop-color="#2FA8C4"/><stop offset="1" stop-color="#155869"/></linearGradient><filter id="blur"><feGaussianBlur stdDeviation="55"/></filter><radialGradient id="vig" cx="0.5" cy="0.4" r="0.75"><stop offset="0.6" stop-color="#000000" stop-opacity="0"/><stop offset="1" stop-color="#000000" stop-opacity="0.32"/></radialGradient></defs><rect width="1200" height="630" fill="url(#gb1200a)"/><path d="M -50 438 Q 10 402 70 438 Q 130 474 190 438 Q 250 402 310 438 Q 370 474 430 438 Q 490 402 550 438 Q 610 474 670 438 Q 730 402 790 438 Q 850 474 910 438 Q 970 402 1030 438 Q 1090 474 1150 438 Q 1210 402 1270 438 L 1250 680 L -50 680 Z" fill="#2FA8C4" opacity="0.22"/><path d="M -50 525 Q 10 475 70 525 Q 130 575 190 525 Q 250 475 310 525 Q 370 575 430 525 Q 490 475 550 525 Q 610 575 670 525 Q 730 475 790 525 Q 850 575 910 525 Q 970 475 1030 525 Q 1090 575 1150 525 Q 1210 475 1270 525 L 1250 680 L -50 680 Z" fill="#2FA8C4" opacity="0.22"/><path d="M -50 287 Q 10 230 70 287 Q 130 344 190 287 Q 250 230 310 287 Q 370 344 430 287 Q 490 230 550 287 Q 610 344 670 287 Q 730 230 790 287 Q 850 344 910 287 Q 970 230 1030 287 Q 1090 344 1150 287 Q 1210 230 1270 287 L 1250 680 L -50 680 Z" fill="#1E7E96" opacity="0.22"/><path d="M -50 147 Q 10 67 70 147 Q 130 227 190 147 Q 250 67 310 147 Q 370 227 430 147 Q 490 67 550 147 Q 610 227 670 147 Q 730 67 790 147 Q 850 227 910 147 Q 970 67 1030 147 Q 1090 227 1150 147 Q 1210 67 1270 147 L 1250 680 L -50 680 Z" fill="#7A5AF0" opacity="0.22"/><path d="M -50 355 Q 10 291 70 355 Q 130 419 190 355 Q 250 291 310 355 Q 370 419 430 355 Q 490 291 550 355 Q 610 419 670 355 Q 730 291 790 355 Q 850 419 910 355 Q 970 291 1030 355 Q 1090 419 1150 355 Q 1210 291 1270 355 L 1250 680 L -50 680 Z" fill="#2FA8C4" opacity="0.22"/><path d="M -50 471 Q 10 435 70 471 Q 130 507 190 471 Q 250 435 310 471 Q 370 507 430 471 Q 490 435 550 471 Q 610 507 670 471 Q 730 435 790 471 Q 850 507 910 471 Q 970 435 1030 471 Q 1090 507 1150 471 Q 1210 435 1270 471 L 1250 680 L -50 680 Z" fill="#ffffff" opacity="0.22"/><rect width="1200" height="630" fill="url(#vig)"/><text x="44" y="590" font-family="ui-monospace,Menlo,Consolas,monospace" font-size="24" letter-spacing="3" fill="#ffffff" fill-opacity="0.62">LOCAL SEO · CROYDON</text></svg>