<svg xmlns="http://www.w3.org/2000/svg" viewBox="0 0 1200 630" width="1200" height="630" role="img" aria-label="LOCAL SEO · KENSINGTON"><defs><linearGradient id="g4635ac" x1="0" y1="0" x2="0" y2="1"><stop offset="0" stop-color="#2FA8C4"/><stop offset="1" stop-color="#155869"/></linearGradient><filter id="blur"><feGaussianBlur stdDeviation="55"/></filter><radialGradient id="vig" cx="0.5" cy="0.4" r="0.75"><stop offset="0.6" stop-color="#000000" stop-opacity="0"/><stop offset="1" stop-color="#000000" stop-opacity="0.32"/></radialGradient></defs><rect width="1200" height="630" fill="url(#g4635ac)"/><polygon points="40,258 698,467 195,104" fill="#C64B3B" opacity="0.26"/><polygon points="1010,381 891,440 40,258" fill="#1E7E96" opacity="0.2"/><polygon points="659,271 40,258 857,565" fill="#ffffff" opacity="0.18"/><polygon points="338,559 1010,381 1010,381" fill="#ffffff" opacity="0.14"/><polygon points="338,559 338,559 698,467" fill="#ffffff" opacity="0.11"/><polygon points="698,467 758,429 1039,305" fill="#2FA8C4" opacity="0.14"/><polygon points="891,440 1039,305 1144,525" fill="#1E7E96" opacity="0.21"/><polygon points="891,440 758,429 1010,381" fill="#C64B3B" opacity="0.19"/><polygon points="462,259 659,271 857,565" fill="#1E7E96" opacity="0.25"/><polygon points="338,559 698,467 698,467" fill="#C64B3B" opacity="0.14"/><polygon points="338,559 857,565 1144,525" fill="#ffffff" opacity="0.18"/><polygon points="186,360 758,429 40,258" fill="#1E7E96" opacity="0.26"/><polygon points="1039,305 891,440 1144,525" fill="#2FA8C4" opacity="0.22"/><polygon points="195,104 338,559 758,429" fill="#2FA8C4" opacity="0.16"/><polygon points="195,104 1010,381 659,271" fill="#C64B3B" opacity="0.23"/><polygon points="40,258 1039,305 462,259" fill="#1E7E96" opacity="0.21"/><rect width="1200" height="630" fill="url(#vig)"/><text x="44" y="590" font-family="ui-monospace,Menlo,Consolas,monospace" font-size="24" letter-spacing="3" fill="#ffffff" fill-opacity="0.62">LOCAL SEO · KENSINGTON</text></svg>