<svg xmlns="http://www.w3.org/2000/svg" viewBox="0 0 1200 630" width="1200" height="630" role="img" aria-label="LOCAL SEO · CAMDEN"><defs><linearGradient id="g312d59" x1="0" y1="0" x2="0" y2="1"><stop offset="0" stop-color="#2FA8C4"/><stop offset="1" stop-color="#155869"/></linearGradient><filter id="blur"><feGaussianBlur stdDeviation="55"/></filter><radialGradient id="vig" cx="0.5" cy="0.4" r="0.75"><stop offset="0.6" stop-color="#000000" stop-opacity="0"/><stop offset="1" stop-color="#000000" stop-opacity="0.32"/></radialGradient></defs><rect width="1200" height="630" fill="url(#g312d59)"/><polygon points="969,132 127,52 127,52" fill="#ffffff" opacity="0.13"/><polygon points="1162,73 127,52 151,269" fill="#2E7D5B" opacity="0.13"/><polygon points="969,132 759,600 415,255" fill="#2E7D5B" opacity="0.28"/><polygon points="892,230 392,220 759,600" fill="#2FA8C4" opacity="0.2"/><polygon points="151,269 992,127 992,127" fill="#1E7E96" opacity="0.27"/><polygon points="375,477 892,230 892,230" fill="#1E7E96" opacity="0.22"/><polygon points="415,255 151,269 392,220" fill="#1E7E96" opacity="0.25"/><polygon points="127,52 127,52 969,132" fill="#2E7D5B" opacity="0.28"/><polygon points="415,255 992,127 17,289" fill="#2E7D5B" opacity="0.12"/><polygon points="200,496 992,127 992,127" fill="#1E7E96" opacity="0.16"/><polygon points="695,501 695,501 415,255" fill="#ffffff" opacity="0.17"/><rect width="1200" height="630" fill="url(#vig)"/><text x="44" y="590" font-family="ui-monospace,Menlo,Consolas,monospace" font-size="24" letter-spacing="3" fill="#ffffff" fill-opacity="0.62">LOCAL SEO · CAMDEN</text></svg>