<svg xmlns="http://www.w3.org/2000/svg" viewBox="0 0 1200 630" width="1200" height="630" role="img" aria-label="LOCAL SEO · FULHAM"><defs><linearGradient id="g678494" x1="1" y1="0" x2="0" y2="1"><stop offset="0" stop-color="#3A5BD9"/><stop offset="1" stop-color="#1a2c6e"/></linearGradient><filter id="blur"><feGaussianBlur stdDeviation="55"/></filter><radialGradient id="vig" cx="0.5" cy="0.4" r="0.75"><stop offset="0.6" stop-color="#000000" stop-opacity="0"/><stop offset="1" stop-color="#000000" stop-opacity="0.32"/></radialGradient></defs><rect width="1200" height="630" fill="url(#g678494)"/><path d="M -50 548 Q 10 471 70 548 Q 130 625 190 548 Q 250 471 310 548 Q 370 625 430 548 Q 490 471 550 548 Q 610 625 670 548 Q 730 471 790 548 Q 850 625 910 548 Q 970 471 1030 548 Q 1090 625 1150 548 Q 1210 471 1270 548 L 1250 680 L -50 680 Z" fill="#B7472A" opacity="0.22"/><path d="M -50 357 Q 10 289 70 357 Q 130 425 190 357 Q 250 289 310 357 Q 370 425 430 357 Q 490 289 550 357 Q 610 425 670 357 Q 730 289 790 357 Q 850 425 910 357 Q 970 289 1030 357 Q 1090 425 1150 357 Q 1210 289 1270 357 L 1250 680 L -50 680 Z" fill="#ffffff" opacity="0.22"/><path d="M -50 219 Q 10 141 70 219 Q 130 297 190 219 Q 250 141 310 219 Q 370 297 430 219 Q 490 141 550 219 Q 610 297 670 219 Q 730 141 790 219 Q 850 297 910 219 Q 970 141 1030 219 Q 1090 297 1150 219 Q 1210 141 1270 219 L 1250 680 L -50 680 Z" fill="#ffffff" opacity="0.22"/><path d="M -50 135 Q 10 83 70 135 Q 130 187 190 135 Q 250 83 310 135 Q 370 187 430 135 Q 490 83 550 135 Q 610 187 670 135 Q 730 83 790 135 Q 850 187 910 135 Q 970 83 1030 135 Q 1090 187 1150 135 Q 1210 83 1270 135 L 1250 680 L -50 680 Z" fill="#26409e" opacity="0.22"/><path d="M -50 402 Q 10 343 70 402 Q 130 461 190 402 Q 250 343 310 402 Q 370 461 430 402 Q 490 343 550 402 Q 610 461 670 402 Q 730 343 790 402 Q 850 461 910 402 Q 970 343 1030 402 Q 1090 461 1150 402 Q 1210 343 1270 402 L 1250 680 L -50 680 Z" fill="#B7472A" opacity="0.22"/><path d="M -50 141 Q 10 111 70 141 Q 130 171 190 141 Q 250 111 310 141 Q 370 171 430 141 Q 490 111 550 141 Q 610 171 670 141 Q 730 111 790 141 Q 850 171 910 141 Q 970 111 1030 141 Q 1090 171 1150 141 Q 1210 111 1270 141 L 1250 680 L -50 680 Z" fill="#ffffff" opacity="0.22"/><rect width="1200" height="630" fill="url(#vig)"/><text x="44" y="590" font-family="ui-monospace,Menlo,Consolas,monospace" font-size="24" letter-spacing="3" fill="#ffffff" fill-opacity="0.62">LOCAL SEO · FULHAM</text></svg>