<svg xmlns="http://www.w3.org/2000/svg" viewBox="0 0 1200 630" width="1200" height="630" role="img" aria-label="WEB DESIGN · HAMMERSMITH"><defs><linearGradient id="g987514" x1="0" y1="0" x2="1" y2="0"><stop offset="0" stop-color="#2E7D5B"/><stop offset="1" stop-color="#133b2c"/></linearGradient><filter id="blur"><feGaussianBlur stdDeviation="55"/></filter><radialGradient id="vig" cx="0.5" cy="0.4" r="0.75"><stop offset="0.6" stop-color="#000000" stop-opacity="0"/><stop offset="1" stop-color="#000000" stop-opacity="0.32"/></radialGradient></defs><rect width="1200" height="630" fill="url(#g987514)"/><polygon points="762,465 980,176 701,488" fill="#ffffff" opacity="0.1"/><polygon points="671,267 604,370 701,488" fill="#7A5AF0" opacity="0.13"/><polygon points="604,370 160,513 762,465" fill="#2E7D5B" opacity="0.3"/><polygon points="190,104 317,184 671,267" fill="#7A5AF0" opacity="0.14"/><polygon points="354,528 1072,361 671,267" fill="#ffffff" opacity="0.21"/><polygon points="1072,361 190,104 651,222" fill="#2E7D5B" opacity="0.24"/><polygon points="980,176 980,176 818,206" fill="#ffffff" opacity="0.25"/><polygon points="160,513 980,176 160,513" fill="#ffffff" opacity="0.24"/><polygon points="701,488 762,465 762,465" fill="#7A5AF0" opacity="0.2"/><polygon points="671,267 980,176 1072,361" fill="#1c5540" opacity="0.17"/><polygon points="354,528 701,488 1072,361" fill="#ffffff" opacity="0.14"/><polygon points="354,528 980,176 701,488" fill="#1c5540" opacity="0.19"/><polygon points="671,267 651,222 762,465" fill="#ffffff" opacity="0.32"/><polygon points="1072,361 190,104 1072,361" fill="#ffffff" opacity="0.3"/><rect width="1200" height="630" fill="url(#vig)"/><text x="44" y="590" font-family="ui-monospace,Menlo,Consolas,monospace" font-size="24" letter-spacing="3" fill="#ffffff" fill-opacity="0.62">WEB DESIGN · HAMMERSMITH</text></svg>