<svg xmlns="http://www.w3.org/2000/svg" viewBox="0 0 1200 630" width="1200" height="630" role="img" aria-label="WEB DESIGN · LIVERPOOL"><defs><linearGradient id="g96a136" x1="0" y1="0" x2="1" y2="0"><stop offset="0" stop-color="#3A5BD9"/><stop offset="1" stop-color="#1a2c6e"/></linearGradient><filter id="blur"><feGaussianBlur stdDeviation="55"/></filter><radialGradient id="vig" cx="0.5" cy="0.4" r="0.75"><stop offset="0.6" stop-color="#000000" stop-opacity="0"/><stop offset="1" stop-color="#000000" stop-opacity="0.32"/></radialGradient></defs><rect width="1200" height="630" fill="url(#g96a136)"/><rect x="-300" y="-200" width="122" height="1030" fill="#26409e" opacity="0.2" transform="rotate(30 600 315)"/><rect x="-147" y="-200" width="92" height="1030" fill="#3A5BD9" opacity="0.25" transform="rotate(30 600 315)"/><rect x="-23" y="-200" width="66" height="1030" fill="#ffffff" opacity="0.22" transform="rotate(30 600 315)"/><rect x="95" y="-200" width="57" height="1030" fill="#7A5AF0" opacity="0.29" transform="rotate(30 600 315)"/><rect x="236" y="-200" width="71" height="1030" fill="#ffffff" opacity="0.18" transform="rotate(30 600 315)"/><rect x="358" y="-200" width="58" height="1030" fill="#3A5BD9" opacity="0.24" transform="rotate(30 600 315)"/><rect x="464" y="-200" width="62" height="1030" fill="#7A5AF0" opacity="0.25" transform="rotate(30 600 315)"/><rect x="586" y="-200" width="77" height="1030" fill="#7A5AF0" opacity="0.3" transform="rotate(30 600 315)"/><rect x="723" y="-200" width="104" height="1030" fill="#ffffff" opacity="0.32" transform="rotate(30 600 315)"/><rect x="884" y="-200" width="71" height="1030" fill="#3A5BD9" opacity="0.12" transform="rotate(30 600 315)"/><rect x="1027" y="-200" width="98" height="1030" fill="#26409e" opacity="0.29" transform="rotate(30 600 315)"/><rect x="1171" y="-200" width="69" height="1030" fill="#ffffff" opacity="0.3" transform="rotate(30 600 315)"/><rect x="1330" y="-200" width="106" height="1030" fill="#7A5AF0" opacity="0.34" transform="rotate(30 600 315)"/><rect width="1200" height="630" fill="url(#vig)"/><text x="44" y="590" font-family="ui-monospace,Menlo,Consolas,monospace" font-size="24" letter-spacing="3" fill="#ffffff" fill-opacity="0.62">WEB DESIGN · LIVERPOOL</text></svg>