<svg xmlns="http://www.w3.org/2000/svg" viewBox="0 0 1200 630" width="1200" height="630" role="img" aria-label="WEB DESIGN · HACKNEY"><defs><linearGradient id="g22dbd4" x1="0.2" y1="0" x2="0.8" y2="1"><stop offset="0" stop-color="#7A5AF0"/><stop offset="1" stop-color="#33237b"/></linearGradient><filter id="blur"><feGaussianBlur stdDeviation="55"/></filter><radialGradient id="vig" cx="0.5" cy="0.4" r="0.75"><stop offset="0.6" stop-color="#000000" stop-opacity="0"/><stop offset="1" stop-color="#000000" stop-opacity="0.32"/></radialGradient></defs><rect width="1200" height="630" fill="url(#g22dbd4)"/><polygon points="700,321 700,321 661,594" fill="#B7472A" opacity="0.14"/><polygon points="392,463 595,240 326,508" fill="#7A5AF0" opacity="0.2"/><polygon points="326,508 650,328 1142,28" fill="#7A5AF0" opacity="0.3"/><polygon points="83,493 1083,521 392,463" fill="#B7472A" opacity="0.1"/><polygon points="104,201 1083,521 689,522" fill="#B7472A" opacity="0.17"/><polygon points="83,493 1083,521 392,463" fill="#B7472A" opacity="0.2"/><polygon points="650,328 700,321 595,240" fill="#7A5AF0" opacity="0.24"/><polygon points="1083,521 104,201 392,463" fill="#B7472A" opacity="0.14"/><polygon points="1142,28 672,542 104,201" fill="#7A5AF0" opacity="0.23"/><polygon points="700,321 326,508 326,508" fill="#B7472A" opacity="0.23"/><rect width="1200" height="630" fill="url(#vig)"/><text x="44" y="590" font-family="ui-monospace,Menlo,Consolas,monospace" font-size="24" letter-spacing="3" fill="#ffffff" fill-opacity="0.62">WEB DESIGN · HACKNEY</text></svg>