<svg xmlns="http://www.w3.org/2000/svg" viewBox="0 0 1200 630" width="1200" height="630" role="img" aria-label="WEB DESIGN · EDINBURGH"><defs><linearGradient id="g35132f" x1="0" y1="0" x2="1" y2="1"><stop offset="0" stop-color="#2E7D5B"/><stop offset="1" stop-color="#133b2c"/></linearGradient><filter id="blur"><feGaussianBlur stdDeviation="55"/></filter><radialGradient id="vig" cx="0.5" cy="0.4" r="0.75"><stop offset="0.6" stop-color="#000000" stop-opacity="0"/><stop offset="1" stop-color="#000000" stop-opacity="0.32"/></radialGradient></defs><rect width="1200" height="630" fill="url(#g35132f)"/><polygon points="521,488 324,49 521,488" fill="#C64B3B" opacity="0.32"/><polygon points="777,180 427,291 86,531" fill="#2E7D5B" opacity="0.27"/><polygon points="222,302 115,182 86,531" fill="#1c5540" opacity="0.21"/><polygon points="521,488 777,180 324,49" fill="#2E7D5B" opacity="0.2"/><polygon points="521,488 86,531 86,531" fill="#ffffff" opacity="0.19"/><polygon points="427,291 324,49 521,488" fill="#C64B3B" opacity="0.23"/><polygon points="427,291 521,488 222,302" fill="#1c5540" opacity="0.23"/><polygon points="159,165 427,291 435,25" fill="#C64B3B" opacity="0.3"/><polygon points="159,165 521,488 159,165" fill="#1c5540" opacity="0.12"/><polygon points="222,302 324,49 777,180" fill="#C64B3B" opacity="0.22"/><polygon points="159,165 324,49 777,180" fill="#ffffff" opacity="0.18"/><polygon points="324,49 777,180 115,182" fill="#2E7D5B" opacity="0.18"/><polygon points="612,181 86,531 521,488" fill="#C64B3B" opacity="0.27"/><polygon points="324,49 86,531 222,302" fill="#1c5540" opacity="0.16"/><polygon points="435,25 324,49 427,291" fill="#ffffff" opacity="0.15"/><polygon points="427,291 777,180 427,291" fill="#C64B3B" opacity="0.15"/><rect width="1200" height="630" fill="url(#vig)"/><text x="44" y="590" font-family="ui-monospace,Menlo,Consolas,monospace" font-size="24" letter-spacing="3" fill="#ffffff" fill-opacity="0.62">WEB DESIGN · EDINBURGH</text></svg>