<svg xmlns="http://www.w3.org/2000/svg" viewBox="0 0 1200 630" width="1200" height="630" role="img" aria-label="WEB DESIGN · ISLINGTON"><defs><linearGradient id="gee588c" x1="1" y1="0" x2="0" y2="1"><stop offset="0" stop-color="#2E7D5B"/><stop offset="1" stop-color="#133b2c"/></linearGradient><filter id="blur"><feGaussianBlur stdDeviation="55"/></filter><radialGradient id="vig" cx="0.5" cy="0.4" r="0.75"><stop offset="0.6" stop-color="#000000" stop-opacity="0"/><stop offset="1" stop-color="#000000" stop-opacity="0.32"/></radialGradient></defs><rect width="1200" height="630" fill="url(#gee588c)"/><polygon points="235,32 488,468 315,171" fill="#ffffff" opacity="0.18"/><polygon points="990,120 756,184 235,32" fill="#ffffff" opacity="0.26"/><polygon points="17,450 17,450 819,382" fill="#2E7D5B" opacity="0.21"/><polygon points="990,120 17,450 17,450" fill="#E5892B" opacity="0.12"/><polygon points="311,547 756,184 488,468" fill="#1c5540" opacity="0.3"/><polygon points="756,184 819,382 315,171" fill="#ffffff" opacity="0.2"/><polygon points="235,32 990,120 590,354" fill="#2E7D5B" opacity="0.18"/><polygon points="311,547 590,354 17,450" fill="#ffffff" opacity="0.26"/><polygon points="590,354 311,547 590,354" fill="#E5892B" opacity="0.29"/><polygon points="571,233 819,382 571,233" fill="#2E7D5B" opacity="0.13"/><polygon points="488,468 315,171 819,382" fill="#2E7D5B" opacity="0.2"/><polygon points="17,450 17,450 235,32" fill="#1c5540" opacity="0.29"/><polygon points="756,184 488,468 17,450" fill="#E5892B" opacity="0.24"/><polygon points="571,233 311,547 315,171" fill="#1c5540" opacity="0.3"/><polygon points="315,171 17,450 466,337" fill="#ffffff" opacity="0.25"/><polygon points="17,450 466,337 315,171" fill="#2E7D5B" opacity="0.25"/><rect width="1200" height="630" fill="url(#vig)"/><text x="44" y="590" font-family="ui-monospace,Menlo,Consolas,monospace" font-size="24" letter-spacing="3" fill="#ffffff" fill-opacity="0.62">WEB DESIGN · ISLINGTON</text></svg>