<svg xmlns="http://www.w3.org/2000/svg" viewBox="0 0 1200 630" width="1200" height="630" role="img" aria-label="WEB DESIGN · CLAPHAM"><defs><linearGradient id="ga71594" x1="1" y1="0" x2="0" y2="1"><stop offset="0" stop-color="#B7472A"/><stop offset="1" stop-color="#642516"/></linearGradient><filter id="blur"><feGaussianBlur stdDeviation="55"/></filter><radialGradient id="vig" cx="0.5" cy="0.4" r="0.75"><stop offset="0.6" stop-color="#000000" stop-opacity="0"/><stop offset="1" stop-color="#000000" stop-opacity="0.32"/></radialGradient></defs><rect width="1200" height="630" fill="url(#ga71594)"/><rect x="-300" y="-200" width="111" height="1030" fill="#D6478E" opacity="0.35" transform="rotate(-30 600 315)"/><rect x="-117" y="-200" width="119" height="1030" fill="#B7472A" opacity="0.22" transform="rotate(-30 600 315)"/><rect x="35" y="-200" width="97" height="1030" fill="#D6478E" opacity="0.17" transform="rotate(-30 600 315)"/><rect x="209" y="-200" width="78" height="1030" fill="#ffffff" opacity="0.32" transform="rotate(-30 600 315)"/><rect x="323" y="-200" width="114" height="1030" fill="#ffffff" opacity="0.16" transform="rotate(-30 600 315)"/><rect x="495" y="-200" width="56" height="1030" fill="#ffffff" opacity="0.17" transform="rotate(-30 600 315)"/><rect x="638" y="-200" width="118" height="1030" fill="#ffffff" opacity="0.17" transform="rotate(-30 600 315)"/><rect x="797" y="-200" width="80" height="1030" fill="#ffffff" opacity="0.21" transform="rotate(-30 600 315)"/><rect x="918" y="-200" width="96" height="1030" fill="#ffffff" opacity="0.26" transform="rotate(-30 600 315)"/><rect x="1062" y="-200" width="130" height="1030" fill="#8f3520" opacity="0.23" transform="rotate(-30 600 315)"/><rect x="1255" y="-200" width="94" height="1030" fill="#ffffff" opacity="0.3" transform="rotate(-30 600 315)"/><rect x="1382" y="-200" width="81" height="1030" fill="#ffffff" opacity="0.36" transform="rotate(-30 600 315)"/><rect width="1200" height="630" fill="url(#vig)"/><text x="44" y="590" font-family="ui-monospace,Menlo,Consolas,monospace" font-size="24" letter-spacing="3" fill="#ffffff" fill-opacity="0.62">WEB DESIGN · CLAPHAM</text></svg>