<svg xmlns="http://www.w3.org/2000/svg" viewBox="0 0 1200 630" width="1200" height="630" role="img" aria-label="WEB DESIGN · CAMDEN"><defs><linearGradient id="gadc3ea" x1="0" y1="0" x2="1" y2="0"><stop offset="0" stop-color="#B7472A"/><stop offset="1" stop-color="#642516"/></linearGradient><filter id="blur"><feGaussianBlur stdDeviation="55"/></filter><radialGradient id="vig" cx="0.5" cy="0.4" r="0.75"><stop offset="0.6" stop-color="#000000" stop-opacity="0"/><stop offset="1" stop-color="#000000" stop-opacity="0.32"/></radialGradient></defs><rect width="1200" height="630" fill="url(#gadc3ea)"/><polygon points="628,220 746,438 1018,390" fill="#7A5AF0" opacity="0.13"/><polygon points="369,516 66,235 628,220" fill="#B7472A" opacity="0.24"/><polygon points="413,305 815,404 815,404" fill="#8f3520" opacity="0.17"/><polygon points="708,264 413,305 120,2" fill="#ffffff" opacity="0.11"/><polygon points="628,220 413,305 369,516" fill="#8f3520" opacity="0.19"/><polygon points="746,438 1037,448 708,264" fill="#B7472A" opacity="0.13"/><polygon points="1037,448 413,305 1037,448" fill="#B7472A" opacity="0.27"/><polygon points="815,404 708,264 1037,448" fill="#7A5AF0" opacity="0.28"/><polygon points="722,32 708,264 369,516" fill="#8f3520" opacity="0.11"/><polygon points="369,516 628,220 1018,390" fill="#8f3520" opacity="0.18"/><polygon points="120,2 413,305 628,220" fill="#ffffff" opacity="0.13"/><polygon points="369,516 413,305 1128,449" fill="#8f3520" opacity="0.2"/><polygon points="66,235 746,438 816,91" fill="#8f3520" opacity="0.12"/><polygon points="816,91 1128,449 66,235" fill="#8f3520" opacity="0.19"/><polygon points="746,438 815,404 413,305" fill="#8f3520" opacity="0.28"/><polygon points="1037,448 66,235 708,264" fill="#8f3520" opacity="0.24"/><rect width="1200" height="630" fill="url(#vig)"/><text x="44" y="590" font-family="ui-monospace,Menlo,Consolas,monospace" font-size="24" letter-spacing="3" fill="#ffffff" fill-opacity="0.62">WEB DESIGN · CAMDEN</text></svg>