<svg xmlns="http://www.w3.org/2000/svg" viewBox="0 0 1200 630" width="1200" height="630" role="img" aria-label="WEB DESIGN · WANDSWORTH"><defs><linearGradient id="g5d7f1d" x1="0.2" y1="0" x2="0.8" y2="1"><stop offset="0" stop-color="#B7472A"/><stop offset="1" stop-color="#642516"/></linearGradient><filter id="blur"><feGaussianBlur stdDeviation="55"/></filter><radialGradient id="vig" cx="0.5" cy="0.4" r="0.75"><stop offset="0.6" stop-color="#000000" stop-opacity="0"/><stop offset="1" stop-color="#000000" stop-opacity="0.32"/></radialGradient></defs><rect width="1200" height="630" fill="url(#g5d7f1d)"/><polygon points="872,415 1188,543 320,281" fill="#B7472A" opacity="0.16"/><polygon points="320,281 1197,23 347,433" fill="#ffffff" opacity="0.21"/><polygon points="664,422 492,363 1044,607" fill="#B7472A" opacity="0.13"/><polygon points="1044,305 872,415 1188,543" fill="#ffffff" opacity="0.25"/><polygon points="320,281 320,281 1074,178" fill="#8f3520" opacity="0.13"/><polygon points="1074,178 1188,543 1188,543" fill="#B7472A" opacity="0.32"/><polygon points="496,308 307,200 492,363" fill="#B7472A" opacity="0.2"/><polygon points="1166,247 347,433 872,415" fill="#B7472A" opacity="0.17"/><polygon points="845,379 1188,543 492,363" fill="#B7472A" opacity="0.11"/><polygon points="496,308 564,155 1188,543" fill="#8f3520" opacity="0.2"/><polygon points="307,200 564,155 1044,607" fill="#B7472A" opacity="0.29"/><polygon points="1074,178 845,379 320,281" fill="#B7472A" opacity="0.29"/><polygon points="347,433 492,363 1044,305" fill="#B7472A" opacity="0.29"/><polygon points="320,281 1197,23 1166,247" fill="#B7472A" opacity="0.25"/><polygon points="664,422 564,155 370,529" fill="#ffffff" opacity="0.11"/><rect width="1200" height="630" fill="url(#vig)"/><text x="44" y="590" font-family="ui-monospace,Menlo,Consolas,monospace" font-size="24" letter-spacing="3" fill="#ffffff" fill-opacity="0.62">WEB DESIGN · WANDSWORTH</text></svg>