<svg xmlns="http://www.w3.org/2000/svg" viewBox="0 0 1200 630" width="1200" height="630" role="img" aria-label="WEB DESIGN · BRIXTON"><defs><linearGradient id="g41caea" x1="1" y1="0" x2="0" y2="1"><stop offset="0" stop-color="#2E7D5B"/><stop offset="1" stop-color="#133b2c"/></linearGradient><filter id="blur"><feGaussianBlur stdDeviation="55"/></filter><radialGradient id="vig" cx="0.5" cy="0.4" r="0.75"><stop offset="0.6" stop-color="#000000" stop-opacity="0"/><stop offset="1" stop-color="#000000" stop-opacity="0.32"/></radialGradient></defs><rect width="1200" height="630" fill="url(#g41caea)"/><circle cx="30" cy="30" r="3.8" fill="#C64B3B" opacity="0.5"/><circle cx="78" cy="30" r="3.5" fill="#C64B3B" opacity="0.5"/><circle cx="126" cy="30" r="3.2" fill="#C64B3B" opacity="0.5"/><circle cx="174" cy="30" r="2.8" fill="#C64B3B" opacity="0.5"/><circle cx="222" cy="30" r="2.4" fill="#C64B3B" opacity="0.5"/><circle cx="270" cy="30" r="2.0" fill="#C64B3B" opacity="0.5"/><circle cx="318" cy="30" r="1.7" fill="#C64B3B" opacity="0.5"/><circle cx="366" cy="30" r="2.1" fill="#C64B3B" opacity="0.5"/><circle cx="414" cy="30" r="2.6" fill="#C64B3B" opacity="0.5"/><circle cx="462" cy="30" r="3.0" fill="#C64B3B" opacity="0.5"/><circle cx="510" cy="30" r="3.3" fill="#C64B3B" opacity="0.5"/><circle cx="558" cy="30" r="3.6" fill="#C64B3B" opacity="0.5"/><circle cx="606" cy="30" r="3.8" fill="#C64B3B" opacity="0.5"/><circle cx="654" cy="30" r="4.0" fill="#C64B3B" opacity="0.5"/><circle cx="702" cy="30" r="4.0" fill="#C64B3B" opacity="0.5"/><circle cx="750" cy="30" r="4.0" fill="#C64B3B" opacity="0.5"/><circle cx="798" cy="30" r="3.8" fill="#C64B3B" opacity="0.5"/><circle cx="846" cy="30" r="3.6" fill="#C64B3B" opacity="0.5"/><circle cx="894" cy="30" r="3.3" fill="#C64B3B" opacity="0.5"/><circle cx="942" cy="30" r="3.0" fill="#C64B3B" opacity="0.5"/><circle cx="990" cy="30" r="2.6" fill="#C64B3B" opacity="0.5"/><circle cx="1038" cy="30" r="2.1" fill="#C64B3B" opacity="0.5"/><circle cx="1086" cy="30" r="1.7" fill="#C64B3B" opacity="0.5"/><circle cx="1134" cy="30" r="2.0" fill="#C64B3B" opacity="0.5"/><circle cx="1182" cy="30" r="2.4" fill="#C64B3B" opacity="0.5"/><circle cx="30" cy="78" r="3.5" fill="#C64B3B" opacity="0.5"/><circle cx="78" cy="78" r="3.2" fill="#C64B3B" opacity="0.5"/><circle cx="126" cy="78" r="2.8" fill="#C64B3B" opacity="0.5"/><circle cx="174" cy="78" r="2.4" fill="#C64B3B" opacity="0.5"/><circle cx="222" cy="78" r="2.0" fill="#C64B3B" opacity="0.5"/><circle cx="270" cy="78" r="1.7" fill="#C64B3B" opacity="0.5"/><circle cx="318" cy="78" r="2.1" fill="#C64B3B" opacity="0.5"/><circle cx="366" cy="78" r="2.6" fill="#C64B3B" opacity="0.5"/><circle cx="414" cy="78" r="3.0" fill="#C64B3B" opacity="0.5"/><circle cx="462" cy="78" r="3.3" fill="#C64B3B" opacity="0.5"/><circle cx="510" cy="78" r="3.6" fill="#C64B3B" opacity="0.5"/><circle cx="558" cy="78" r="3.8" fill="#C64B3B" opacity="0.5"/><circle cx="606" cy="78" r="4.0" fill="#C64B3B" opacity="0.5"/><circle cx="654" cy="78" r="4.0" fill="#C64B3B" opacity="0.5"/><circle cx="702" cy="78" r="4.0" fill="#C64B3B" opacity="0.5"/><circle cx="750" cy="78" r="3.8" fill="#C64B3B" opacity="0.5"/><circle cx="798" cy="78" r="3.6" fill="#C64B3B" opacity="0.5"/><circle cx="846" cy="78" r="3.3" fill="#C64B3B" opacity="0.5"/><circle cx="894" cy="78" r="3.0" fill="#C64B3B" opacity="0.5"/><circle cx="942" cy="78" r="2.6" fill="#C64B3B" opacity="0.5"/><circle cx="990" cy="78" r="2.1" fill="#C64B3B" opacity="0.5"/><circle cx="1038" cy="78" r="1.7" fill="#C64B3B" opacity="0.5"/><circle cx="1086" cy="78" r="2.0" fill="#C64B3B" opacity="0.5"/><circle cx="1134" cy="78" r="2.4" fill="#C64B3B" opacity="0.5"/><circle cx="1182" cy="78" r="2.8" fill="#C64B3B" opacity="0.5"/><circle cx="30" cy="126" r="3.2" fill="#C64B3B" opacity="0.5"/><circle cx="78" cy="126" r="2.8" fill="#C64B3B" opacity="0.5"/><circle cx="126" cy="126" r="2.4" fill="#C64B3B" opacity="0.5"/><circle cx="174" cy="126" r="2.0" fill="#C64B3B" opacity="0.5"/><circle cx="222" cy="126" r="1.7" fill="#C64B3B" opacity="0.5"/><circle cx="270" cy="126" r="2.1" fill="#C64B3B" opacity="0.5"/><circle cx="318" cy="126" r="2.6" fill="#C64B3B" opacity="0.5"/><circle cx="366" cy="126" r="3.0" fill="#C64B3B" opacity="0.5"/><circle cx="414" cy="126" r="3.3" fill="#C64B3B" opacity="0.5"/><circle cx="462" cy="126" r="3.6" fill="#C64B3B" opacity="0.5"/><circle cx="510" cy="126" r="3.8" fill="#C64B3B" opacity="0.5"/><circle cx="558" cy="126" r="4.0" fill="#C64B3B" opacity="0.5"/><circle cx="606" cy="126" r="4.0" fill="#C64B3B" opacity="0.5"/><circle cx="654" cy="126" r="4.0" fill="#C64B3B" opacity="0.5"/><circle cx="702" cy="126" r="3.8" fill="#C64B3B" opacity="0.5"/><circle cx="750" cy="126" r="3.6" fill="#C64B3B" opacity="0.5"/><circle cx="798" cy="126" r="3.3" fill="#C64B3B" opacity="0.5"/><circle cx="846" cy="126" r="3.0" fill="#C64B3B" opacity="0.5"/><circle cx="894" cy="126" r="2.6" fill="#C64B3B" opacity="0.5"/><circle cx="942" cy="126" r="2.1" fill="#C64B3B" opacity="0.5"/><circle cx="990" cy="126" r="1.7" fill="#C64B3B" opacity="0.5"/><circle cx="1038" cy="126" r="2.0" fill="#C64B3B" opacity="0.5"/><circle cx="1086" cy="126" r="2.4" fill="#C64B3B" opacity="0.5"/><circle cx="1134" cy="126" r="2.8" fill="#C64B3B" opacity="0.5"/><circle cx="1182" cy="126" r="3.2" fill="#C64B3B" opacity="0.5"/><circle cx="30" cy="174" r="2.8" fill="#C64B3B" opacity="0.5"/><circle cx="78" cy="174" r="2.4" fill="#C64B3B" opacity="0.5"/><circle cx="126" cy="174" r="2.0" fill="#C64B3B" opacity="0.5"/><circle cx="174" cy="174" r="1.7" fill="#C64B3B" opacity="0.5"/><circle cx="222" cy="174" r="2.1" fill="#C64B3B" opacity="0.5"/><circle cx="270" cy="174" r="2.6" fill="#C64B3B" opacity="0.5"/><circle cx="318" cy="174" r="3.0" fill="#C64B3B" opacity="0.5"/><circle cx="366" cy="174" r="3.3" fill="#C64B3B" opacity="0.5"/><circle cx="414" cy="174" r="3.6" fill="#C64B3B" opacity="0.5"/><circle cx="462" cy="174" r="3.8" fill="#C64B3B" opacity="0.5"/><circle cx="510" cy="174" r="4.0" fill="#C64B3B" opacity="0.5"/><circle cx="558" cy="174" r="4.0" fill="#C64B3B" opacity="0.5"/><circle cx="606" cy="174" r="4.0" fill="#C64B3B" opacity="0.5"/><circle cx="654" cy="174" r="3.8" fill="#C64B3B" opacity="0.5"/><circle cx="702" cy="174" r="3.6" fill="#C64B3B" opacity="0.5"/><circle cx="750" cy="174" r="3.3" fill="#C64B3B" opacity="0.5"/><circle cx="798" cy="174" r="3.0" fill="#C64B3B" opacity="0.5"/><circle cx="846" cy="174" r="2.6" fill="#C64B3B" opacity="0.5"/><circle cx="894" cy="174" r="2.1" fill="#C64B3B" opacity="0.5"/><circle cx="942" cy="174" r="1.7" fill="#C64B3B" opacity="0.5"/><circle cx="990" cy="174" r="2.0" fill="#C64B3B" opacity="0.5"/><circle cx="1038" cy="174" r="2.4" fill="#C64B3B" opacity="0.5"/><circle cx="1086" cy="174" r="2.8" fill="#C64B3B" opacity="0.5"/><circle cx="1134" cy="174" r="3.2" fill="#C64B3B" opacity="0.5"/><circle cx="1182" cy="174" r="3.5" fill="#C64B3B" opacity="0.5"/><circle cx="30" cy="222" r="2.4" fill="#C64B3B" opacity="0.5"/><circle cx="78" cy="222" r="2.0" fill="#C64B3B" opacity="0.5"/><circle cx="126" cy="222" r="1.7" fill="#C64B3B" opacity="0.5"/><circle cx="174" cy="222" r="2.1" fill="#C64B3B" opacity="0.5"/><circle cx="222" cy="222" r="2.6" fill="#C64B3B" opacity="0.5"/><circle cx="270" cy="222" r="3.0" fill="#C64B3B" opacity="0.5"/><circle cx="318" cy="222" r="3.3" fill="#C64B3B" opacity="0.5"/><circle cx="366" cy="222" r="3.6" fill="#C64B3B" opacity="0.5"/><circle cx="414" cy="222" r="3.8" fill="#C64B3B" opacity="0.5"/><circle cx="462" cy="222" r="4.0" fill="#C64B3B" opacity="0.5"/><circle cx="510" cy="222" r="4.0" fill="#C64B3B" opacity="0.5"/><circle cx="558" cy="222" r="4.0" fill="#C64B3B" opacity="0.5"/><circle cx="606" cy="222" r="3.8" fill="#C64B3B" opacity="0.5"/><circle cx="654" cy="222" r="3.6" fill="#C64B3B" opacity="0.5"/><circle cx="702" cy="222" r="3.3" fill="#C64B3B" opacity="0.5"/><circle cx="750" cy="222" r="3.0" fill="#C64B3B" opacity="0.5"/><circle cx="798" cy="222" r="2.6" fill="#C64B3B" opacity="0.5"/><circle cx="846" cy="222" r="2.1" fill="#C64B3B" opacity="0.5"/><circle cx="894" cy="222" r="1.7" fill="#C64B3B" opacity="0.5"/><circle cx="942" cy="222" r="2.0" fill="#C64B3B" opacity="0.5"/><circle cx="990" cy="222" r="2.4" fill="#C64B3B" opacity="0.5"/><circle cx="1038" cy="222" r="2.8" fill="#C64B3B" opacity="0.5"/><circle cx="1086" cy="222" r="3.2" fill="#C64B3B" opacity="0.5"/><circle cx="1134" cy="222" r="3.5" fill="#C64B3B" opacity="0.5"/><circle cx="1182" cy="222" r="3.8" fill="#C64B3B" opacity="0.5"/><circle cx="30" cy="270" r="2.0" fill="#C64B3B" opacity="0.5"/><circle cx="78" cy="270" r="1.7" fill="#C64B3B" opacity="0.5"/><circle cx="126" cy="270" r="2.1" fill="#C64B3B" opacity="0.5"/><circle cx="174" cy="270" r="2.6" fill="#C64B3B" opacity="0.5"/><circle cx="222" cy="270" r="3.0" fill="#C64B3B" opacity="0.5"/><circle cx="270" cy="270" r="3.3" fill="#C64B3B" opacity="0.5"/><circle cx="318" cy="270" r="3.6" fill="#C64B3B" opacity="0.5"/><circle cx="366" cy="270" r="3.8" fill="#C64B3B" opacity="0.5"/><circle cx="414" cy="270" r="4.0" fill="#C64B3B" opacity="0.5"/><circle cx="462" cy="270" r="4.0" fill="#C64B3B" opacity="0.5"/><circle cx="510" cy="270" r="4.0" fill="#C64B3B" opacity="0.5"/><circle cx="558" cy="270" r="3.8" fill="#C64B3B" opacity="0.5"/><circle cx="606" cy="270" r="3.6" fill="#C64B3B" opacity="0.5"/><circle cx="654" cy="270" r="3.3" fill="#C64B3B" opacity="0.5"/><circle cx="702" cy="270" r="3.0" fill="#C64B3B" opacity="0.5"/><circle cx="750" cy="270" r="2.6" fill="#C64B3B" opacity="0.5"/><circle cx="798" cy="270" r="2.1" fill="#C64B3B" opacity="0.5"/><circle cx="846" cy="270" r="1.7" fill="#C64B3B" opacity="0.5"/><circle cx="894" cy="270" r="2.0" fill="#C64B3B" opacity="0.5"/><circle cx="942" cy="270" r="2.4" fill="#C64B3B" opacity="0.5"/><circle cx="990" cy="270" r="2.8" fill="#C64B3B" opacity="0.5"/><circle cx="1038" cy="270" r="3.2" fill="#C64B3B" opacity="0.5"/><circle cx="1086" cy="270" r="3.5" fill="#C64B3B" opacity="0.5"/><circle cx="1134" cy="270" r="3.8" fill="#C64B3B" opacity="0.5"/><circle cx="1182" cy="270" r="3.9" fill="#C64B3B" opacity="0.5"/><circle cx="30" cy="318" r="1.7" fill="#C64B3B" opacity="0.5"/><circle cx="78" cy="318" r="2.1" fill="#C64B3B" opacity="0.5"/><circle cx="126" cy="318" r="2.6" fill="#C64B3B" opacity="0.5"/><circle cx="174" cy="318" r="3.0" fill="#C64B3B" opacity="0.5"/><circle cx="222" cy="318" r="3.3" fill="#C64B3B" opacity="0.5"/><circle cx="270" cy="318" r="3.6" fill="#C64B3B" opacity="0.5"/><circle cx="318" cy="318" r="3.8" fill="#C64B3B" opacity="0.5"/><circle cx="366" cy="318" r="4.0" fill="#C64B3B" opacity="0.5"/><circle cx="414" cy="318" r="4.0" fill="#C64B3B" opacity="0.5"/><circle cx="462" cy="318" r="4.0" fill="#C64B3B" opacity="0.5"/><circle cx="510" cy="318" r="3.8" fill="#C64B3B" opacity="0.5"/><circle cx="558" cy="318" r="3.6" fill="#C64B3B" opacity="0.5"/><circle cx="606" cy="318" r="3.3" fill="#C64B3B" opacity="0.5"/><circle cx="654" cy="318" r="3.0" fill="#C64B3B" opacity="0.5"/><circle cx="702" cy="318" r="2.6" fill="#C64B3B" opacity="0.5"/><circle cx="750" cy="318" r="2.1" fill="#C64B3B" opacity="0.5"/><circle cx="798" cy="318" r="1.7" fill="#C64B3B" opacity="0.5"/><circle cx="846" cy="318" r="2.0" fill="#C64B3B" opacity="0.5"/><circle cx="894" cy="318" r="2.4" fill="#C64B3B" opacity="0.5"/><circle cx="942" cy="318" r="2.8" fill="#C64B3B" opacity="0.5"/><circle cx="990" cy="318" r="3.2" fill="#C64B3B" opacity="0.5"/><circle cx="1038" cy="318" r="3.5" fill="#C64B3B" opacity="0.5"/><circle cx="1086" cy="318" r="3.8" fill="#C64B3B" opacity="0.5"/><circle cx="1134" cy="318" r="3.9" fill="#C64B3B" opacity="0.5"/><circle cx="1182" cy="318" r="4.0" fill="#C64B3B" opacity="0.5"/><circle cx="30" cy="366" r="2.1" fill="#C64B3B" opacity="0.5"/><circle cx="78" cy="366" r="2.6" fill="#C64B3B" opacity="0.5"/><circle cx="126" cy="366" r="3.0" fill="#C64B3B" opacity="0.5"/><circle cx="174" cy="366" r="3.3" fill="#C64B3B" opacity="0.5"/><circle cx="222" cy="366" r="3.6" fill="#C64B3B" opacity="0.5"/><circle cx="270" cy="366" r="3.8" fill="#C64B3B" opacity="0.5"/><circle cx="318" cy="366" r="4.0" fill="#C64B3B" opacity="0.5"/><circle cx="366" cy="366" r="4.0" fill="#C64B3B" opacity="0.5"/><circle cx="414" cy="366" r="4.0" fill="#C64B3B" opacity="0.5"/><circle cx="462" cy="366" r="3.8" fill="#C64B3B" opacity="0.5"/><circle cx="510" cy="366" r="3.6" fill="#C64B3B" opacity="0.5"/><circle cx="558" cy="366" r="3.3" fill="#C64B3B" opacity="0.5"/><circle cx="606" cy="366" r="3.0" fill="#C64B3B" opacity="0.5"/><circle cx="654" cy="366" r="2.6" fill="#C64B3B" opacity="0.5"/><circle cx="702" cy="366" r="2.1" fill="#C64B3B" opacity="0.5"/><circle cx="750" cy="366" r="1.7" fill="#C64B3B" opacity="0.5"/><circle cx="798" cy="366" r="2.0" fill="#C64B3B" opacity="0.5"/><circle cx="846" cy="366" r="2.4" fill="#C64B3B" opacity="0.5"/><circle cx="894" cy="366" r="2.8" fill="#C64B3B" opacity="0.5"/><circle cx="942" cy="366" r="3.2" fill="#C64B3B" opacity="0.5"/><circle cx="990" cy="366" r="3.5" fill="#C64B3B" opacity="0.5"/><circle cx="1038" cy="366" r="3.8" fill="#C64B3B" opacity="0.5"/><circle cx="1086" cy="366" r="3.9" fill="#C64B3B" opacity="0.5"/><circle cx="1134" cy="366" r="4.0" fill="#C64B3B" opacity="0.5"/><circle cx="1182" cy="366" r="4.0" fill="#C64B3B" opacity="0.5"/><circle cx="30" cy="414" r="2.6" fill="#C64B3B" opacity="0.5"/><circle cx="78" cy="414" r="3.0" fill="#C64B3B" opacity="0.5"/><circle cx="126" cy="414" r="3.3" fill="#C64B3B" opacity="0.5"/><circle cx="174" cy="414" r="3.6" fill="#C64B3B" opacity="0.5"/><circle cx="222" cy="414" r="3.8" fill="#C64B3B" opacity="0.5"/><circle cx="270" cy="414" r="4.0" fill="#C64B3B" opacity="0.5"/><circle cx="318" cy="414" r="4.0" fill="#C64B3B" opacity="0.5"/><circle cx="366" cy="414" r="4.0" fill="#C64B3B" opacity="0.5"/><circle cx="414" cy="414" r="3.8" fill="#C64B3B" opacity="0.5"/><circle cx="462" cy="414" r="3.6" fill="#C64B3B" opacity="0.5"/><circle cx="510" cy="414" r="3.3" fill="#C64B3B" opacity="0.5"/><circle cx="558" cy="414" r="3.0" fill="#C64B3B" opacity="0.5"/><circle cx="606" cy="414" r="2.6" fill="#C64B3B" opacity="0.5"/><circle cx="654" cy="414" r="2.1" fill="#C64B3B" opacity="0.5"/><circle cx="702" cy="414" r="1.7" fill="#C64B3B" opacity="0.5"/><circle cx="750" cy="414" r="2.0" fill="#C64B3B" opacity="0.5"/><circle cx="798" cy="414" r="2.4" fill="#C64B3B" opacity="0.5"/><circle cx="846" cy="414" r="2.8" fill="#C64B3B" opacity="0.5"/><circle cx="894" cy="414" r="3.2" fill="#C64B3B" opacity="0.5"/><circle cx="942" cy="414" r="3.5" fill="#C64B3B" opacity="0.5"/><circle cx="990" cy="414" r="3.8" fill="#C64B3B" opacity="0.5"/><circle cx="1038" cy="414" r="3.9" fill="#C64B3B" opacity="0.5"/><circle cx="1086" cy="414" r="4.0" fill="#C64B3B" opacity="0.5"/><circle cx="1134" cy="414" r="4.0" fill="#C64B3B" opacity="0.5"/><circle cx="1182" cy="414" r="3.9" fill="#C64B3B" opacity="0.5"/><circle cx="30" cy="462" r="3.0" fill="#C64B3B" opacity="0.5"/><circle cx="78" cy="462" r="3.3" fill="#C64B3B" opacity="0.5"/><circle cx="126" cy="462" r="3.6" fill="#C64B3B" opacity="0.5"/><circle cx="174" cy="462" r="3.8" fill="#C64B3B" opacity="0.5"/><circle cx="222" cy="462" r="4.0" fill="#C64B3B" opacity="0.5"/><circle cx="270" cy="462" r="4.0" fill="#C64B3B" opacity="0.5"/><circle cx="318" cy="462" r="4.0" fill="#C64B3B" opacity="0.5"/><circle cx="366" cy="462" r="3.8" fill="#C64B3B" opacity="0.5"/><circle cx="414" cy="462" r="3.6" fill="#C64B3B" opacity="0.5"/><circle cx="462" cy="462" r="3.3" fill="#C64B3B" opacity="0.5"/><circle cx="510" cy="462" r="3.0" fill="#C64B3B" opacity="0.5"/><circle cx="558" cy="462" r="2.6" fill="#C64B3B" opacity="0.5"/><circle cx="606" cy="462" r="2.1" fill="#C64B3B" opacity="0.5"/><circle cx="654" cy="462" r="1.7" fill="#C64B3B" opacity="0.5"/><circle cx="702" cy="462" r="2.0" fill="#C64B3B" opacity="0.5"/><circle cx="750" cy="462" r="2.4" fill="#C64B3B" opacity="0.5"/><circle cx="798" cy="462" r="2.8" fill="#C64B3B" opacity="0.5"/><circle cx="846" cy="462" r="3.2" fill="#C64B3B" opacity="0.5"/><circle cx="894" cy="462" r="3.5" fill="#C64B3B" opacity="0.5"/><circle cx="942" cy="462" r="3.8" fill="#C64B3B" opacity="0.5"/><circle cx="990" cy="462" r="3.9" fill="#C64B3B" opacity="0.5"/><circle cx="1038" cy="462" r="4.0" fill="#C64B3B" opacity="0.5"/><circle cx="1086" cy="462" r="4.0" fill="#C64B3B" opacity="0.5"/><circle cx="1134" cy="462" r="3.9" fill="#C64B3B" opacity="0.5"/><circle cx="1182" cy="462" r="3.7" fill="#C64B3B" opacity="0.5"/><circle cx="30" cy="510" r="3.3" fill="#C64B3B" opacity="0.5"/><circle cx="78" cy="510" r="3.6" fill="#C64B3B" opacity="0.5"/><circle cx="126" cy="510" r="3.8" fill="#C64B3B" opacity="0.5"/><circle cx="174" cy="510" r="4.0" fill="#C64B3B" opacity="0.5"/><circle cx="222" cy="510" r="4.0" fill="#C64B3B" opacity="0.5"/><circle cx="270" cy="510" r="4.0" fill="#C64B3B" opacity="0.5"/><circle cx="318" cy="510" r="3.8" fill="#C64B3B" opacity="0.5"/><circle cx="366" cy="510" r="3.6" fill="#C64B3B" opacity="0.5"/><circle cx="414" cy="510" r="3.3" fill="#C64B3B" opacity="0.5"/><circle cx="462" cy="510" r="3.0" fill="#C64B3B" opacity="0.5"/><circle cx="510" cy="510" r="2.6" fill="#C64B3B" opacity="0.5"/><circle cx="558" cy="510" r="2.1" fill="#C64B3B" opacity="0.5"/><circle cx="606" cy="510" r="1.7" fill="#C64B3B" opacity="0.5"/><circle cx="654" cy="510" r="2.0" fill="#C64B3B" opacity="0.5"/><circle cx="702" cy="510" r="2.4" fill="#C64B3B" opacity="0.5"/><circle cx="750" cy="510" r="2.8" fill="#C64B3B" opacity="0.5"/><circle cx="798" cy="510" r="3.2" fill="#C64B3B" opacity="0.5"/><circle cx="846" cy="510" r="3.5" fill="#C64B3B" opacity="0.5"/><circle cx="894" cy="510" r="3.8" fill="#C64B3B" opacity="0.5"/><circle cx="942" cy="510" r="3.9" fill="#C64B3B" opacity="0.5"/><circle cx="990" cy="510" r="4.0" fill="#C64B3B" opacity="0.5"/><circle cx="1038" cy="510" r="4.0" fill="#C64B3B" opacity="0.5"/><circle cx="1086" cy="510" r="3.9" fill="#C64B3B" opacity="0.5"/><circle cx="1134" cy="510" r="3.7" fill="#C64B3B" opacity="0.5"/><circle cx="1182" cy="510" r="3.4" fill="#C64B3B" opacity="0.5"/><circle cx="30" cy="558" r="3.6" fill="#C64B3B" opacity="0.5"/><circle cx="78" cy="558" r="3.8" fill="#C64B3B" opacity="0.5"/><circle cx="126" cy="558" r="4.0" fill="#C64B3B" opacity="0.5"/><circle cx="174" cy="558" r="4.0" fill="#C64B3B" opacity="0.5"/><circle cx="222" cy="558" r="4.0" fill="#C64B3B" opacity="0.5"/><circle cx="270" cy="558" r="3.8" fill="#C64B3B" opacity="0.5"/><circle cx="318" cy="558" r="3.6" fill="#C64B3B" opacity="0.5"/><circle cx="366" cy="558" r="3.3" fill="#C64B3B" opacity="0.5"/><circle cx="414" cy="558" r="3.0" fill="#C64B3B" opacity="0.5"/><circle cx="462" cy="558" r="2.6" fill="#C64B3B" opacity="0.5"/><circle cx="510" cy="558" r="2.1" fill="#C64B3B" opacity="0.5"/><circle cx="558" cy="558" r="1.7" fill="#C64B3B" opacity="0.5"/><circle cx="606" cy="558" r="2.0" fill="#C64B3B" opacity="0.5"/><circle cx="654" cy="558" r="2.4" fill="#C64B3B" opacity="0.5"/><circle cx="702" cy="558" r="2.8" fill="#C64B3B" opacity="0.5"/><circle cx="750" cy="558" r="3.2" fill="#C64B3B" opacity="0.5"/><circle cx="798" cy="558" r="3.5" fill="#C64B3B" opacity="0.5"/><circle cx="846" cy="558" r="3.8" fill="#C64B3B" opacity="0.5"/><circle cx="894" cy="558" r="3.9" fill="#C64B3B" opacity="0.5"/><circle cx="942" cy="558" r="4.0" fill="#C64B3B" opacity="0.5"/><circle cx="990" cy="558" r="4.0" fill="#C64B3B" opacity="0.5"/><circle cx="1038" cy="558" r="3.9" fill="#C64B3B" opacity="0.5"/><circle cx="1086" cy="558" r="3.7" fill="#C64B3B" opacity="0.5"/><circle cx="1134" cy="558" r="3.4" fill="#C64B3B" opacity="0.5"/><circle cx="1182" cy="558" r="3.1" fill="#C64B3B" opacity="0.5"/><circle cx="30" cy="606" r="3.8" fill="#C64B3B" opacity="0.5"/><circle cx="78" cy="606" r="4.0" fill="#C64B3B" opacity="0.5"/><circle cx="126" cy="606" r="4.0" fill="#C64B3B" opacity="0.5"/><circle cx="174" cy="606" r="4.0" fill="#C64B3B" opacity="0.5"/><circle cx="222" cy="606" r="3.8" fill="#C64B3B" opacity="0.5"/><circle cx="270" cy="606" r="3.6" fill="#C64B3B" opacity="0.5"/><circle cx="318" cy="606" r="3.3" fill="#C64B3B" opacity="0.5"/><circle cx="366" cy="606" r="3.0" fill="#C64B3B" opacity="0.5"/><circle cx="414" cy="606" r="2.6" fill="#C64B3B" opacity="0.5"/><circle cx="462" cy="606" r="2.1" fill="#C64B3B" opacity="0.5"/><circle cx="510" cy="606" r="1.7" fill="#C64B3B" opacity="0.5"/><circle cx="558" cy="606" r="2.0" fill="#C64B3B" opacity="0.5"/><circle cx="606" cy="606" r="2.4" fill="#C64B3B" opacity="0.5"/><circle cx="654" cy="606" r="2.8" fill="#C64B3B" opacity="0.5"/><circle cx="702" cy="606" r="3.2" fill="#C64B3B" opacity="0.5"/><circle cx="750" cy="606" r="3.5" fill="#C64B3B" opacity="0.5"/><circle cx="798" cy="606" r="3.8" fill="#C64B3B" opacity="0.5"/><circle cx="846" cy="606" r="3.9" fill="#C64B3B" opacity="0.5"/><circle cx="894" cy="606" r="4.0" fill="#C64B3B" opacity="0.5"/><circle cx="942" cy="606" r="4.0" fill="#C64B3B" opacity="0.5"/><circle cx="990" cy="606" r="3.9" fill="#C64B3B" opacity="0.5"/><circle cx="1038" cy="606" r="3.7" fill="#C64B3B" opacity="0.5"/><circle cx="1086" cy="606" r="3.4" fill="#C64B3B" opacity="0.5"/><circle cx="1134" cy="606" r="3.1" fill="#C64B3B" opacity="0.5"/><circle cx="1182" cy="606" r="2.7" fill="#C64B3B" opacity="0.5"/><rect width="1200" height="630" fill="url(#vig)"/><text x="44" y="590" font-family="ui-monospace,Menlo,Consolas,monospace" font-size="24" letter-spacing="3" fill="#ffffff" fill-opacity="0.62">WEB DESIGN · BRIXTON</text></svg>