<svg xmlns="http://www.w3.org/2000/svg" viewBox="0 0 1200 630" width="1200" height="630" role="img" aria-label="WEB DESIGN · BRISTOL"><defs><linearGradient id="g55ceb8" x1="1" y1="0" x2="0" y2="1"><stop offset="0" stop-color="#E5892B"/><stop offset="1" stop-color="#7d430a"/></linearGradient><filter id="blur"><feGaussianBlur stdDeviation="55"/></filter><radialGradient id="vig" cx="0.5" cy="0.4" r="0.75"><stop offset="0.6" stop-color="#000000" stop-opacity="0"/><stop offset="1" stop-color="#000000" stop-opacity="0.32"/></radialGradient></defs><rect width="1200" height="630" fill="url(#g55ceb8)"/><polygon points="1141,122 1287,156 1090,268" fill="#B4610F" opacity="0.32"/><polygon points="1125,193 1301,153 1066,369" fill="#B7472A" opacity="0.38"/><polygon points="1080,6 1348,63 1066,274" fill="#ffffff" opacity="0.37"/><circle cx="851" cy="169" r="201" fill="#ffffff" opacity="0.17"/><rect x="740" y="475" width="412" height="224" fill="#ffffff" opacity="0.36" transform="rotate(27 1074 516)"/><rect x="327" y="594" width="341" height="267" fill="#E5892B" opacity="0.27" transform="rotate(2 863 105)"/><rect x="708" y="62" width="259" height="310" fill="#ffffff" opacity="0.35" transform="rotate(23 1168 86)"/><rect x="494" y="63" width="214" height="388" fill="#E5892B" opacity="0.37" transform="rotate(5 1098 105)"/><rect width="1200" height="630" fill="url(#vig)"/><text x="44" y="590" font-family="ui-monospace,Menlo,Consolas,monospace" font-size="24" letter-spacing="3" fill="#ffffff" fill-opacity="0.62">WEB DESIGN · BRISTOL</text></svg>