<svg xmlns="http://www.w3.org/2000/svg" viewBox="0 0 1200 630" width="1200" height="630" role="img" aria-label="WEB DESIGN · GUILDFORD"><defs><linearGradient id="g345eec" x1="1" y1="0" x2="0" y2="1"><stop offset="0" stop-color="#2E7D5B"/><stop offset="1" stop-color="#133b2c"/></linearGradient><filter id="blur"><feGaussianBlur stdDeviation="55"/></filter><radialGradient id="vig" cx="0.5" cy="0.4" r="0.75"><stop offset="0.6" stop-color="#000000" stop-opacity="0"/><stop offset="1" stop-color="#000000" stop-opacity="0.32"/></radialGradient></defs><rect width="1200" height="630" fill="url(#g345eec)"/><path d="M -50 473 Q 10 402 70 473 Q 130 544 190 473 Q 250 402 310 473 Q 370 544 430 473 Q 490 402 550 473 Q 610 544 670 473 Q 730 402 790 473 Q 850 544 910 473 Q 970 402 1030 473 Q 1090 544 1150 473 Q 1210 402 1270 473 L 1250 680 L -50 680 Z" fill="#1c5540" opacity="0.22"/><path d="M -50 469 Q 10 404 70 469 Q 130 534 190 469 Q 250 404 310 469 Q 370 534 430 469 Q 490 404 550 469 Q 610 534 670 469 Q 730 404 790 469 Q 850 534 910 469 Q 970 404 1030 469 Q 1090 534 1150 469 Q 1210 404 1270 469 L 1250 680 L -50 680 Z" fill="#ffffff" opacity="0.22"/><path d="M -50 323 Q 10 250 70 323 Q 130 396 190 323 Q 250 250 310 323 Q 370 396 430 323 Q 490 250 550 323 Q 610 396 670 323 Q 730 250 790 323 Q 850 396 910 323 Q 970 250 1030 323 Q 1090 396 1150 323 Q 1210 250 1270 323 L 1250 680 L -50 680 Z" fill="#1c5540" opacity="0.22"/><path d="M -50 167 Q 10 96 70 167 Q 130 238 190 167 Q 250 96 310 167 Q 370 238 430 167 Q 490 96 550 167 Q 610 238 670 167 Q 730 96 790 167 Q 850 238 910 167 Q 970 96 1030 167 Q 1090 238 1150 167 Q 1210 96 1270 167 L 1250 680 L -50 680 Z" fill="#1c5540" opacity="0.22"/><path d="M -50 209 Q 10 153 70 209 Q 130 265 190 209 Q 250 153 310 209 Q 370 265 430 209 Q 490 153 550 209 Q 610 265 670 209 Q 730 153 790 209 Q 850 265 910 209 Q 970 153 1030 209 Q 1090 265 1150 209 Q 1210 153 1270 209 L 1250 680 L -50 680 Z" fill="#1c5540" opacity="0.22"/><rect width="1200" height="630" fill="url(#vig)"/><text x="44" y="590" font-family="ui-monospace,Menlo,Consolas,monospace" font-size="24" letter-spacing="3" fill="#ffffff" fill-opacity="0.62">WEB DESIGN · GUILDFORD</text></svg>