<svg xmlns="http://www.w3.org/2000/svg" viewBox="0 0 1200 630" width="1200" height="630" role="img" aria-label="WEB DESIGN · CARDIFF"><defs><linearGradient id="gd0ad99" x1="0" y1="0" x2="1" y2="0"><stop offset="0" stop-color="#B7472A"/><stop offset="1" stop-color="#642516"/></linearGradient><filter id="blur"><feGaussianBlur stdDeviation="55"/></filter><radialGradient id="vig" cx="0.5" cy="0.4" r="0.75"><stop offset="0.6" stop-color="#000000" stop-opacity="0"/><stop offset="1" stop-color="#000000" stop-opacity="0.32"/></radialGradient></defs><rect width="1200" height="630" fill="url(#gd0ad99)"/><circle cx="30" cy="30" r="5.8" fill="#D6478E" opacity="0.5"/><circle cx="83" cy="30" r="5.1" fill="#D6478E" opacity="0.5"/><circle cx="136" cy="30" r="4.3" fill="#D6478E" opacity="0.5"/><circle cx="189" cy="30" r="3.5" fill="#D6478E" opacity="0.5"/><circle cx="242" cy="30" r="3.0" fill="#D6478E" opacity="0.5"/><circle cx="295" cy="30" r="3.9" fill="#D6478E" opacity="0.5"/><circle cx="348" cy="30" r="4.7" fill="#D6478E" opacity="0.5"/><circle cx="401" cy="30" r="5.5" fill="#D6478E" opacity="0.5"/><circle cx="454" cy="30" r="6.1" fill="#D6478E" opacity="0.5"/><circle cx="507" cy="30" r="6.6" fill="#D6478E" opacity="0.5"/><circle cx="560" cy="30" r="6.9" fill="#D6478E" opacity="0.5"/><circle cx="613" cy="30" r="7.0" fill="#D6478E" opacity="0.5"/><circle cx="666" cy="30" r="6.9" fill="#D6478E" opacity="0.5"/><circle cx="719" cy="30" r="6.7" fill="#D6478E" opacity="0.5"/><circle cx="772" cy="30" r="6.3" fill="#D6478E" opacity="0.5"/><circle cx="825" cy="30" r="5.7" fill="#D6478E" opacity="0.5"/><circle cx="878" cy="30" r="5.0" fill="#D6478E" opacity="0.5"/><circle cx="931" cy="30" r="4.2" fill="#D6478E" opacity="0.5"/><circle cx="984" cy="30" r="3.3" fill="#D6478E" opacity="0.5"/><circle cx="1037" cy="30" r="3.2" fill="#D6478E" opacity="0.5"/><circle cx="1090" cy="30" r="4.1" fill="#D6478E" opacity="0.5"/><circle cx="1143" cy="30" r="4.9" fill="#D6478E" opacity="0.5"/><circle cx="1196" cy="30" r="5.6" fill="#D6478E" opacity="0.5"/><circle cx="30" cy="83" r="5.1" fill="#D6478E" opacity="0.5"/><circle cx="83" cy="83" r="4.3" fill="#D6478E" opacity="0.5"/><circle cx="136" cy="83" r="3.5" fill="#D6478E" opacity="0.5"/><circle cx="189" cy="83" r="3.0" fill="#D6478E" opacity="0.5"/><circle cx="242" cy="83" r="3.9" fill="#D6478E" opacity="0.5"/><circle cx="295" cy="83" r="4.7" fill="#D6478E" opacity="0.5"/><circle cx="348" cy="83" r="5.5" fill="#D6478E" opacity="0.5"/><circle cx="401" cy="83" r="6.1" fill="#D6478E" opacity="0.5"/><circle cx="454" cy="83" r="6.6" fill="#D6478E" opacity="0.5"/><circle cx="507" cy="83" r="6.9" fill="#D6478E" opacity="0.5"/><circle cx="560" cy="83" r="7.0" fill="#D6478E" opacity="0.5"/><circle cx="613" cy="83" r="6.9" fill="#D6478E" opacity="0.5"/><circle cx="666" cy="83" r="6.7" fill="#D6478E" opacity="0.5"/><circle cx="719" cy="83" r="6.3" fill="#D6478E" opacity="0.5"/><circle cx="772" cy="83" r="5.7" fill="#D6478E" opacity="0.5"/><circle cx="825" cy="83" r="5.0" fill="#D6478E" opacity="0.5"/><circle cx="878" cy="83" r="4.2" fill="#D6478E" opacity="0.5"/><circle cx="931" cy="83" r="3.3" fill="#D6478E" opacity="0.5"/><circle cx="984" cy="83" r="3.2" fill="#D6478E" opacity="0.5"/><circle cx="1037" cy="83" r="4.1" fill="#D6478E" opacity="0.5"/><circle cx="1090" cy="83" r="4.9" fill="#D6478E" opacity="0.5"/><circle cx="1143" cy="83" r="5.6" fill="#D6478E" opacity="0.5"/><circle cx="1196" cy="83" r="6.2" fill="#D6478E" opacity="0.5"/><circle cx="30" cy="136" r="4.3" fill="#D6478E" opacity="0.5"/><circle cx="83" cy="136" r="3.5" fill="#D6478E" opacity="0.5"/><circle cx="136" cy="136" r="3.0" fill="#D6478E" opacity="0.5"/><circle cx="189" cy="136" r="3.9" fill="#D6478E" opacity="0.5"/><circle cx="242" cy="136" r="4.7" fill="#D6478E" opacity="0.5"/><circle cx="295" cy="136" r="5.5" fill="#D6478E" opacity="0.5"/><circle cx="348" cy="136" r="6.1" fill="#D6478E" opacity="0.5"/><circle cx="401" cy="136" r="6.6" fill="#D6478E" opacity="0.5"/><circle cx="454" cy="136" r="6.9" fill="#D6478E" opacity="0.5"/><circle cx="507" cy="136" r="7.0" fill="#D6478E" opacity="0.5"/><circle cx="560" cy="136" r="6.9" fill="#D6478E" opacity="0.5"/><circle cx="613" cy="136" r="6.7" fill="#D6478E" opacity="0.5"/><circle cx="666" cy="136" r="6.3" fill="#D6478E" opacity="0.5"/><circle cx="719" cy="136" r="5.7" fill="#D6478E" opacity="0.5"/><circle cx="772" cy="136" r="5.0" fill="#D6478E" opacity="0.5"/><circle cx="825" cy="136" r="4.2" fill="#D6478E" opacity="0.5"/><circle cx="878" cy="136" r="3.3" fill="#D6478E" opacity="0.5"/><circle cx="931" cy="136" r="3.2" fill="#D6478E" opacity="0.5"/><circle cx="984" cy="136" r="4.1" fill="#D6478E" opacity="0.5"/><circle cx="1037" cy="136" r="4.9" fill="#D6478E" opacity="0.5"/><circle cx="1090" cy="136" r="5.6" fill="#D6478E" opacity="0.5"/><circle cx="1143" cy="136" r="6.2" fill="#D6478E" opacity="0.5"/><circle cx="1196" cy="136" r="6.6" fill="#D6478E" opacity="0.5"/><circle cx="30" cy="189" r="3.5" fill="#D6478E" opacity="0.5"/><circle cx="83" cy="189" r="3.0" fill="#D6478E" opacity="0.5"/><circle cx="136" cy="189" r="3.9" fill="#D6478E" opacity="0.5"/><circle cx="189" cy="189" r="4.7" fill="#D6478E" opacity="0.5"/><circle cx="242" cy="189" r="5.5" fill="#D6478E" opacity="0.5"/><circle cx="295" cy="189" r="6.1" fill="#D6478E" opacity="0.5"/><circle cx="348" cy="189" r="6.6" fill="#D6478E" opacity="0.5"/><circle cx="401" cy="189" r="6.9" fill="#D6478E" opacity="0.5"/><circle cx="454" cy="189" r="7.0" fill="#D6478E" opacity="0.5"/><circle cx="507" cy="189" r="6.9" fill="#D6478E" opacity="0.5"/><circle cx="560" cy="189" r="6.7" fill="#D6478E" opacity="0.5"/><circle cx="613" cy="189" r="6.3" fill="#D6478E" opacity="0.5"/><circle cx="666" cy="189" r="5.7" fill="#D6478E" opacity="0.5"/><circle cx="719" cy="189" r="5.0" fill="#D6478E" opacity="0.5"/><circle cx="772" cy="189" r="4.2" fill="#D6478E" opacity="0.5"/><circle cx="825" cy="189" r="3.3" fill="#D6478E" opacity="0.5"/><circle cx="878" cy="189" r="3.2" fill="#D6478E" opacity="0.5"/><circle cx="931" cy="189" r="4.1" fill="#D6478E" opacity="0.5"/><circle cx="984" cy="189" r="4.9" fill="#D6478E" opacity="0.5"/><circle cx="1037" cy="189" r="5.6" fill="#D6478E" opacity="0.5"/><circle cx="1090" cy="189" r="6.2" fill="#D6478E" opacity="0.5"/><circle cx="1143" cy="189" r="6.6" fill="#D6478E" opacity="0.5"/><circle cx="1196" cy="189" r="6.9" fill="#D6478E" opacity="0.5"/><circle cx="30" cy="242" r="3.0" fill="#D6478E" opacity="0.5"/><circle cx="83" cy="242" r="3.9" fill="#D6478E" opacity="0.5"/><circle cx="136" cy="242" r="4.7" fill="#D6478E" opacity="0.5"/><circle cx="189" cy="242" r="5.5" fill="#D6478E" opacity="0.5"/><circle cx="242" cy="242" r="6.1" fill="#D6478E" opacity="0.5"/><circle cx="295" cy="242" r="6.6" fill="#D6478E" opacity="0.5"/><circle cx="348" cy="242" r="6.9" fill="#D6478E" opacity="0.5"/><circle cx="401" cy="242" r="7.0" fill="#D6478E" opacity="0.5"/><circle cx="454" cy="242" r="6.9" fill="#D6478E" opacity="0.5"/><circle cx="507" cy="242" r="6.7" fill="#D6478E" opacity="0.5"/><circle cx="560" cy="242" r="6.3" fill="#D6478E" opacity="0.5"/><circle cx="613" cy="242" r="5.7" fill="#D6478E" opacity="0.5"/><circle cx="666" cy="242" r="5.0" fill="#D6478E" opacity="0.5"/><circle cx="719" cy="242" r="4.2" fill="#D6478E" opacity="0.5"/><circle cx="772" cy="242" r="3.3" fill="#D6478E" opacity="0.5"/><circle cx="825" cy="242" r="3.2" fill="#D6478E" opacity="0.5"/><circle cx="878" cy="242" r="4.1" fill="#D6478E" opacity="0.5"/><circle cx="931" cy="242" r="4.9" fill="#D6478E" opacity="0.5"/><circle cx="984" cy="242" r="5.6" fill="#D6478E" opacity="0.5"/><circle cx="1037" cy="242" r="6.2" fill="#D6478E" opacity="0.5"/><circle cx="1090" cy="242" r="6.6" fill="#D6478E" opacity="0.5"/><circle cx="1143" cy="242" r="6.9" fill="#D6478E" opacity="0.5"/><circle cx="1196" cy="242" r="7.0" fill="#D6478E" opacity="0.5"/><circle cx="30" cy="295" r="3.9" fill="#D6478E" opacity="0.5"/><circle cx="83" cy="295" r="4.7" fill="#D6478E" opacity="0.5"/><circle cx="136" cy="295" r="5.5" fill="#D6478E" opacity="0.5"/><circle cx="189" cy="295" r="6.1" fill="#D6478E" opacity="0.5"/><circle cx="242" cy="295" r="6.6" fill="#D6478E" opacity="0.5"/><circle cx="295" cy="295" r="6.9" fill="#D6478E" opacity="0.5"/><circle cx="348" cy="295" r="7.0" fill="#D6478E" opacity="0.5"/><circle cx="401" cy="295" r="6.9" fill="#D6478E" opacity="0.5"/><circle cx="454" cy="295" r="6.7" fill="#D6478E" opacity="0.5"/><circle cx="507" cy="295" r="6.3" fill="#D6478E" opacity="0.5"/><circle cx="560" cy="295" r="5.7" fill="#D6478E" opacity="0.5"/><circle cx="613" cy="295" r="5.0" fill="#D6478E" opacity="0.5"/><circle cx="666" cy="295" r="4.2" fill="#D6478E" opacity="0.5"/><circle cx="719" cy="295" r="3.3" fill="#D6478E" opacity="0.5"/><circle cx="772" cy="295" r="3.2" fill="#D6478E" opacity="0.5"/><circle cx="825" cy="295" r="4.1" fill="#D6478E" opacity="0.5"/><circle cx="878" cy="295" r="4.9" fill="#D6478E" opacity="0.5"/><circle cx="931" cy="295" r="5.6" fill="#D6478E" opacity="0.5"/><circle cx="984" cy="295" r="6.2" fill="#D6478E" opacity="0.5"/><circle cx="1037" cy="295" r="6.6" fill="#D6478E" opacity="0.5"/><circle cx="1090" cy="295" r="6.9" fill="#D6478E" opacity="0.5"/><circle cx="1143" cy="295" r="7.0" fill="#D6478E" opacity="0.5"/><circle cx="1196" cy="295" r="6.9" fill="#D6478E" opacity="0.5"/><circle cx="30" cy="348" r="4.7" fill="#D6478E" opacity="0.5"/><circle cx="83" cy="348" r="5.5" fill="#D6478E" opacity="0.5"/><circle cx="136" cy="348" r="6.1" fill="#D6478E" opacity="0.5"/><circle cx="189" cy="348" r="6.6" fill="#D6478E" opacity="0.5"/><circle cx="242" cy="348" r="6.9" fill="#D6478E" opacity="0.5"/><circle cx="295" cy="348" r="7.0" fill="#D6478E" opacity="0.5"/><circle cx="348" cy="348" r="6.9" fill="#D6478E" opacity="0.5"/><circle cx="401" cy="348" r="6.7" fill="#D6478E" opacity="0.5"/><circle cx="454" cy="348" r="6.3" fill="#D6478E" opacity="0.5"/><circle cx="507" cy="348" r="5.7" fill="#D6478E" opacity="0.5"/><circle cx="560" cy="348" r="5.0" fill="#D6478E" opacity="0.5"/><circle cx="613" cy="348" r="4.2" fill="#D6478E" opacity="0.5"/><circle cx="666" cy="348" r="3.3" fill="#D6478E" opacity="0.5"/><circle cx="719" cy="348" r="3.2" fill="#D6478E" opacity="0.5"/><circle cx="772" cy="348" r="4.1" fill="#D6478E" opacity="0.5"/><circle cx="825" cy="348" r="4.9" fill="#D6478E" opacity="0.5"/><circle cx="878" cy="348" r="5.6" fill="#D6478E" opacity="0.5"/><circle cx="931" cy="348" r="6.2" fill="#D6478E" opacity="0.5"/><circle cx="984" cy="348" r="6.6" fill="#D6478E" opacity="0.5"/><circle cx="1037" cy="348" r="6.9" fill="#D6478E" opacity="0.5"/><circle cx="1090" cy="348" r="7.0" fill="#D6478E" opacity="0.5"/><circle cx="1143" cy="348" r="6.9" fill="#D6478E" opacity="0.5"/><circle cx="1196" cy="348" r="6.6" fill="#D6478E" opacity="0.5"/><circle cx="30" cy="401" r="5.5" fill="#D6478E" opacity="0.5"/><circle cx="83" cy="401" r="6.1" fill="#D6478E" opacity="0.5"/><circle cx="136" cy="401" r="6.6" fill="#D6478E" opacity="0.5"/><circle cx="189" cy="401" r="6.9" fill="#D6478E" opacity="0.5"/><circle cx="242" cy="401" r="7.0" fill="#D6478E" opacity="0.5"/><circle cx="295" cy="401" r="6.9" fill="#D6478E" opacity="0.5"/><circle cx="348" cy="401" r="6.7" fill="#D6478E" opacity="0.5"/><circle cx="401" cy="401" r="6.3" fill="#D6478E" opacity="0.5"/><circle cx="454" cy="401" r="5.7" fill="#D6478E" opacity="0.5"/><circle cx="507" cy="401" r="5.0" fill="#D6478E" opacity="0.5"/><circle cx="560" cy="401" r="4.2" fill="#D6478E" opacity="0.5"/><circle cx="613" cy="401" r="3.3" fill="#D6478E" opacity="0.5"/><circle cx="666" cy="401" r="3.2" fill="#D6478E" opacity="0.5"/><circle cx="719" cy="401" r="4.1" fill="#D6478E" opacity="0.5"/><circle cx="772" cy="401" r="4.9" fill="#D6478E" opacity="0.5"/><circle cx="825" cy="401" r="5.6" fill="#D6478E" opacity="0.5"/><circle cx="878" cy="401" r="6.2" fill="#D6478E" opacity="0.5"/><circle cx="931" cy="401" r="6.6" fill="#D6478E" opacity="0.5"/><circle cx="984" cy="401" r="6.9" fill="#D6478E" opacity="0.5"/><circle cx="1037" cy="401" r="7.0" fill="#D6478E" opacity="0.5"/><circle cx="1090" cy="401" r="6.9" fill="#D6478E" opacity="0.5"/><circle cx="1143" cy="401" r="6.6" fill="#D6478E" opacity="0.5"/><circle cx="1196" cy="401" r="6.2" fill="#D6478E" opacity="0.5"/><circle cx="30" cy="454" r="6.1" fill="#D6478E" opacity="0.5"/><circle cx="83" cy="454" r="6.6" fill="#D6478E" opacity="0.5"/><circle cx="136" cy="454" r="6.9" fill="#D6478E" opacity="0.5"/><circle cx="189" cy="454" r="7.0" fill="#D6478E" opacity="0.5"/><circle cx="242" cy="454" r="6.9" fill="#D6478E" opacity="0.5"/><circle cx="295" cy="454" r="6.7" fill="#D6478E" opacity="0.5"/><circle cx="348" cy="454" r="6.3" fill="#D6478E" opacity="0.5"/><circle cx="401" cy="454" r="5.7" fill="#D6478E" opacity="0.5"/><circle cx="454" cy="454" r="5.0" fill="#D6478E" opacity="0.5"/><circle cx="507" cy="454" r="4.2" fill="#D6478E" opacity="0.5"/><circle cx="560" cy="454" r="3.3" fill="#D6478E" opacity="0.5"/><circle cx="613" cy="454" r="3.2" fill="#D6478E" opacity="0.5"/><circle cx="666" cy="454" r="4.1" fill="#D6478E" opacity="0.5"/><circle cx="719" cy="454" r="4.9" fill="#D6478E" opacity="0.5"/><circle cx="772" cy="454" r="5.6" fill="#D6478E" opacity="0.5"/><circle cx="825" cy="454" r="6.2" fill="#D6478E" opacity="0.5"/><circle cx="878" cy="454" r="6.6" fill="#D6478E" opacity="0.5"/><circle cx="931" cy="454" r="6.9" fill="#D6478E" opacity="0.5"/><circle cx="984" cy="454" r="7.0" fill="#D6478E" opacity="0.5"/><circle cx="1037" cy="454" r="6.9" fill="#D6478E" opacity="0.5"/><circle cx="1090" cy="454" r="6.6" fill="#D6478E" opacity="0.5"/><circle cx="1143" cy="454" r="6.2" fill="#D6478E" opacity="0.5"/><circle cx="1196" cy="454" r="5.6" fill="#D6478E" opacity="0.5"/><circle cx="30" cy="507" r="6.6" fill="#D6478E" opacity="0.5"/><circle cx="83" cy="507" r="6.9" fill="#D6478E" opacity="0.5"/><circle cx="136" cy="507" r="7.0" fill="#D6478E" opacity="0.5"/><circle cx="189" cy="507" r="6.9" fill="#D6478E" opacity="0.5"/><circle cx="242" cy="507" r="6.7" fill="#D6478E" opacity="0.5"/><circle cx="295" cy="507" r="6.3" fill="#D6478E" opacity="0.5"/><circle cx="348" cy="507" r="5.7" fill="#D6478E" opacity="0.5"/><circle cx="401" cy="507" r="5.0" fill="#D6478E" opacity="0.5"/><circle cx="454" cy="507" r="4.2" fill="#D6478E" opacity="0.5"/><circle cx="507" cy="507" r="3.3" fill="#D6478E" opacity="0.5"/><circle cx="560" cy="507" r="3.2" fill="#D6478E" opacity="0.5"/><circle cx="613" cy="507" r="4.1" fill="#D6478E" opacity="0.5"/><circle cx="666" cy="507" r="4.9" fill="#D6478E" opacity="0.5"/><circle cx="719" cy="507" r="5.6" fill="#D6478E" opacity="0.5"/><circle cx="772" cy="507" r="6.2" fill="#D6478E" opacity="0.5"/><circle cx="825" cy="507" r="6.6" fill="#D6478E" opacity="0.5"/><circle cx="878" cy="507" r="6.9" fill="#D6478E" opacity="0.5"/><circle cx="931" cy="507" r="7.0" fill="#D6478E" opacity="0.5"/><circle cx="984" cy="507" r="6.9" fill="#D6478E" opacity="0.5"/><circle cx="1037" cy="507" r="6.6" fill="#D6478E" opacity="0.5"/><circle cx="1090" cy="507" r="6.2" fill="#D6478E" opacity="0.5"/><circle cx="1143" cy="507" r="5.6" fill="#D6478E" opacity="0.5"/><circle cx="1196" cy="507" r="4.8" fill="#D6478E" opacity="0.5"/><circle cx="30" cy="560" r="6.9" fill="#D6478E" opacity="0.5"/><circle cx="83" cy="560" r="7.0" fill="#D6478E" opacity="0.5"/><circle cx="136" cy="560" r="6.9" fill="#D6478E" opacity="0.5"/><circle cx="189" cy="560" r="6.7" fill="#D6478E" opacity="0.5"/><circle cx="242" cy="560" r="6.3" fill="#D6478E" opacity="0.5"/><circle cx="295" cy="560" r="5.7" fill="#D6478E" opacity="0.5"/><circle cx="348" cy="560" r="5.0" fill="#D6478E" opacity="0.5"/><circle cx="401" cy="560" r="4.2" fill="#D6478E" opacity="0.5"/><circle cx="454" cy="560" r="3.3" fill="#D6478E" opacity="0.5"/><circle cx="507" cy="560" r="3.2" fill="#D6478E" opacity="0.5"/><circle cx="560" cy="560" r="4.1" fill="#D6478E" opacity="0.5"/><circle cx="613" cy="560" r="4.9" fill="#D6478E" opacity="0.5"/><circle cx="666" cy="560" r="5.6" fill="#D6478E" opacity="0.5"/><circle cx="719" cy="560" r="6.2" fill="#D6478E" opacity="0.5"/><circle cx="772" cy="560" r="6.6" fill="#D6478E" opacity="0.5"/><circle cx="825" cy="560" r="6.9" fill="#D6478E" opacity="0.5"/><circle cx="878" cy="560" r="7.0" fill="#D6478E" opacity="0.5"/><circle cx="931" cy="560" r="6.9" fill="#D6478E" opacity="0.5"/><circle cx="984" cy="560" r="6.6" fill="#D6478E" opacity="0.5"/><circle cx="1037" cy="560" r="6.2" fill="#D6478E" opacity="0.5"/><circle cx="1090" cy="560" r="5.6" fill="#D6478E" opacity="0.5"/><circle cx="1143" cy="560" r="4.8" fill="#D6478E" opacity="0.5"/><circle cx="1196" cy="560" r="4.0" fill="#D6478E" opacity="0.5"/><circle cx="30" cy="613" r="7.0" fill="#D6478E" opacity="0.5"/><circle cx="83" cy="613" r="6.9" fill="#D6478E" opacity="0.5"/><circle cx="136" cy="613" r="6.7" fill="#D6478E" opacity="0.5"/><circle cx="189" cy="613" r="6.3" fill="#D6478E" opacity="0.5"/><circle cx="242" cy="613" r="5.7" fill="#D6478E" opacity="0.5"/><circle cx="295" cy="613" r="5.0" fill="#D6478E" opacity="0.5"/><circle cx="348" cy="613" r="4.2" fill="#D6478E" opacity="0.5"/><circle cx="401" cy="613" r="3.3" fill="#D6478E" opacity="0.5"/><circle cx="454" cy="613" r="3.2" fill="#D6478E" opacity="0.5"/><circle cx="507" cy="613" r="4.1" fill="#D6478E" opacity="0.5"/><circle cx="560" cy="613" r="4.9" fill="#D6478E" opacity="0.5"/><circle cx="613" cy="613" r="5.6" fill="#D6478E" opacity="0.5"/><circle cx="666" cy="613" r="6.2" fill="#D6478E" opacity="0.5"/><circle cx="719" cy="613" r="6.6" fill="#D6478E" opacity="0.5"/><circle cx="772" cy="613" r="6.9" fill="#D6478E" opacity="0.5"/><circle cx="825" cy="613" r="7.0" fill="#D6478E" opacity="0.5"/><circle cx="878" cy="613" r="6.9" fill="#D6478E" opacity="0.5"/><circle cx="931" cy="613" r="6.6" fill="#D6478E" opacity="0.5"/><circle cx="984" cy="613" r="6.2" fill="#D6478E" opacity="0.5"/><circle cx="1037" cy="613" r="5.6" fill="#D6478E" opacity="0.5"/><circle cx="1090" cy="613" r="4.8" fill="#D6478E" opacity="0.5"/><circle cx="1143" cy="613" r="4.0" fill="#D6478E" opacity="0.5"/><circle cx="1196" cy="613" r="3.1" fill="#D6478E" opacity="0.5"/><rect width="1200" height="630" fill="url(#vig)"/><text x="44" y="590" font-family="ui-monospace,Menlo,Consolas,monospace" font-size="24" letter-spacing="3" fill="#ffffff" fill-opacity="0.62">WEB DESIGN · CARDIFF</text></svg>