<svg xmlns="http://www.w3.org/2000/svg" viewBox="0 0 1200 630" width="1200" height="630" role="img" aria-label="WEB DESIGN · SLOUGH"><defs><linearGradient id="g450bc2" x1="0" y1="0" x2="1" y2="0"><stop offset="0" stop-color="#3A5BD9"/><stop offset="1" stop-color="#1a2c6e"/></linearGradient><filter id="blur"><feGaussianBlur stdDeviation="55"/></filter><radialGradient id="vig" cx="0.5" cy="0.4" r="0.75"><stop offset="0.6" stop-color="#000000" stop-opacity="0"/><stop offset="1" stop-color="#000000" stop-opacity="0.32"/></radialGradient></defs><rect width="1200" height="630" fill="url(#g450bc2)"/><circle cx="769" cy="285" r="165" fill="#3A5BD9" opacity="0.18"/><rect x="-16" y="608" width="213" height="280" fill="#3A5BD9" opacity="0.43" transform="rotate(11 810 323)"/><circle cx="838" cy="202" r="93" fill="#ffffff" opacity="0.39"/><rect x="453" y="315" width="419" height="337" fill="#ffffff" opacity="0.3" transform="rotate(4 978 544)"/><polygon points="86,74 378,59 62,366" fill="#ffffff" opacity="0.23"/><rect x="679" y="-76" width="347" height="262" fill="#3A5BD9" opacity="0.19" transform="rotate(38 137 161)"/><polygon points="1013,593 1179,632 1001,759" fill="#3A5BD9" opacity="0.25"/><polygon points="514,13 787,-21 531,286" fill="#26409e" opacity="0.3"/><rect width="1200" height="630" fill="url(#vig)"/><text x="44" y="590" font-family="ui-monospace,Menlo,Consolas,monospace" font-size="24" letter-spacing="3" fill="#ffffff" fill-opacity="0.62">WEB DESIGN · SLOUGH</text></svg>