<svg xmlns="http://www.w3.org/2000/svg" viewBox="0 0 1200 630" width="1200" height="630" role="img" aria-label="WEB DESIGN · WIMBLEDON"><defs><linearGradient id="g6cde8c" x1="0" y1="0" x2="0" y2="1"><stop offset="0" stop-color="#B7472A"/><stop offset="1" stop-color="#642516"/></linearGradient><filter id="blur"><feGaussianBlur stdDeviation="55"/></filter><radialGradient id="vig" cx="0.5" cy="0.4" r="0.75"><stop offset="0.6" stop-color="#000000" stop-opacity="0"/><stop offset="1" stop-color="#000000" stop-opacity="0.32"/></radialGradient></defs><rect width="1200" height="630" fill="url(#g6cde8c)"/><rect x="-300" y="-200" width="55" height="1030" fill="#B7472A" opacity="0.3" transform="rotate(-30 600 315)"/><rect x="-185" y="-200" width="112" height="1030" fill="#ffffff" opacity="0.23" transform="rotate(-30 600 315)"/><rect x="13" y="-200" width="52" height="1030" fill="#ffffff" opacity="0.27" transform="rotate(-30 600 315)"/><rect x="118" y="-200" width="123" height="1030" fill="#ffffff" opacity="0.34" transform="rotate(-30 600 315)"/><rect x="322" y="-200" width="70" height="1030" fill="#B7472A" opacity="0.17" transform="rotate(-30 600 315)"/><rect x="438" y="-200" width="86" height="1030" fill="#C64B3B" opacity="0.33" transform="rotate(-30 600 315)"/><rect x="570" y="-200" width="84" height="1030" fill="#ffffff" opacity="0.18" transform="rotate(-30 600 315)"/><rect x="728" y="-200" width="79" height="1030" fill="#C64B3B" opacity="0.23" transform="rotate(-30 600 315)"/><rect x="879" y="-200" width="104" height="1030" fill="#ffffff" opacity="0.3" transform="rotate(-30 600 315)"/><rect x="1013" y="-200" width="95" height="1030" fill="#ffffff" opacity="0.37" transform="rotate(-30 600 315)"/><rect x="1190" y="-200" width="115" height="1030" fill="#8f3520" opacity="0.12" transform="rotate(-30 600 315)"/><rect x="1384" y="-200" width="62" height="1030" fill="#C64B3B" opacity="0.14" transform="rotate(-30 600 315)"/><rect x="1497" y="-200" width="100" height="1030" fill="#8f3520" opacity="0.18" transform="rotate(-30 600 315)"/><rect width="1200" height="630" fill="url(#vig)"/><text x="44" y="590" font-family="ui-monospace,Menlo,Consolas,monospace" font-size="24" letter-spacing="3" fill="#ffffff" fill-opacity="0.62">WEB DESIGN · WIMBLEDON</text></svg>