<svg xmlns="http://www.w3.org/2000/svg" viewBox="0 0 1200 630" width="1200" height="630" role="img" aria-label="PRICING GUIDE"><defs><linearGradient id="g0c2d6a" x1="0.2" y1="0" x2="0.8" y2="1"><stop offset="0" stop-color="#7A5AF0"/><stop offset="1" stop-color="#33237b"/></linearGradient><filter id="blur"><feGaussianBlur stdDeviation="55"/></filter><radialGradient id="vig" cx="0.5" cy="0.4" r="0.75"><stop offset="0.6" stop-color="#000000" stop-opacity="0"/><stop offset="1" stop-color="#000000" stop-opacity="0.32"/></radialGradient></defs><rect width="1200" height="630" fill="url(#g0c2d6a)"/><path d="M -50 462 Q 10 414 70 462 Q 130 510 190 462 Q 250 414 310 462 Q 370 510 430 462 Q 490 414 550 462 Q 610 510 670 462 Q 730 414 790 462 Q 850 510 910 462 Q 970 414 1030 462 Q 1090 510 1150 462 Q 1210 414 1270 462 L 1250 680 L -50 680 Z" fill="#ffffff" opacity="0.22"/><path d="M -50 306 Q 10 262 70 306 Q 130 350 190 306 Q 250 262 310 306 Q 370 350 430 306 Q 490 262 550 306 Q 610 350 670 306 Q 730 262 790 306 Q 850 350 910 306 Q 970 262 1030 306 Q 1090 350 1150 306 Q 1210 262 1270 306 L 1250 680 L -50 680 Z" fill="#ffffff" opacity="0.22"/><path d="M -50 424 Q 10 344 70 424 Q 130 504 190 424 Q 250 344 310 424 Q 370 504 430 424 Q 490 344 550 424 Q 610 504 670 424 Q 730 344 790 424 Q 850 504 910 424 Q 970 344 1030 424 Q 1090 504 1150 424 Q 1210 344 1270 424 L 1250 680 L -50 680 Z" fill="#ffffff" opacity="0.22"/><path d="M -50 399 Q 10 339 70 399 Q 130 459 190 399 Q 250 339 310 399 Q 370 459 430 399 Q 490 339 550 399 Q 610 459 670 399 Q 730 339 790 399 Q 850 459 910 399 Q 970 339 1030 399 Q 1090 459 1150 399 Q 1210 339 1270 399 L 1250 680 L -50 680 Z" fill="#7A5AF0" opacity="0.22"/><path d="M -50 431 Q 10 371 70 431 Q 130 491 190 431 Q 250 371 310 431 Q 370 491 430 431 Q 490 371 550 431 Q 610 491 670 431 Q 730 371 790 431 Q 850 491 910 431 Q 970 371 1030 431 Q 1090 491 1150 431 Q 1210 371 1270 431 L 1250 680 L -50 680 Z" fill="#7A5AF0" opacity="0.22"/><path d="M -50 220 Q 10 181 70 220 Q 130 259 190 220 Q 250 181 310 220 Q 370 259 430 220 Q 490 181 550 220 Q 610 259 670 220 Q 730 181 790 220 Q 850 259 910 220 Q 970 181 1030 220 Q 1090 259 1150 220 Q 1210 181 1270 220 L 1250 680 L -50 680 Z" fill="#4A32B0" opacity="0.22"/><rect width="1200" height="630" fill="url(#vig)"/><text x="44" y="590" font-family="ui-monospace,Menlo,Consolas,monospace" font-size="24" letter-spacing="3" fill="#ffffff" fill-opacity="0.62">PRICING GUIDE</text></svg>