<svg xmlns="http://www.w3.org/2000/svg" viewBox="0 0 1200 630" width="1200" height="630" role="img" aria-label="WEB DESIGN · GLASGOW"><defs><linearGradient id="ga801d1" x1="0" y1="0" x2="0" y2="1"><stop offset="0" stop-color="#B7472A"/><stop offset="1" stop-color="#642516"/></linearGradient><filter id="blur"><feGaussianBlur stdDeviation="55"/></filter><radialGradient id="vig" cx="0.5" cy="0.4" r="0.75"><stop offset="0.6" stop-color="#000000" stop-opacity="0"/><stop offset="1" stop-color="#000000" stop-opacity="0.32"/></radialGradient></defs><rect width="1200" height="630" fill="url(#ga801d1)"/><rect x="-300" y="-200" width="64" height="1030" fill="#2E7D5B" opacity="0.32" transform="rotate(-30 600 315)"/><rect x="-175" y="-200" width="92" height="1030" fill="#8f3520" opacity="0.2" transform="rotate(-30 600 315)"/><rect x="-13" y="-200" width="127" height="1030" fill="#B7472A" opacity="0.18" transform="rotate(-30 600 315)"/><rect x="178" y="-200" width="71" height="1030" fill="#2E7D5B" opacity="0.29" transform="rotate(-30 600 315)"/><rect x="294" y="-200" width="88" height="1030" fill="#ffffff" opacity="0.32" transform="rotate(-30 600 315)"/><rect x="431" y="-200" width="66" height="1030" fill="#8f3520" opacity="0.32" transform="rotate(-30 600 315)"/><rect x="573" y="-200" width="79" height="1030" fill="#8f3520" opacity="0.28" transform="rotate(-30 600 315)"/><rect x="713" y="-200" width="107" height="1030" fill="#ffffff" opacity="0.26" transform="rotate(-30 600 315)"/><rect x="894" y="-200" width="104" height="1030" fill="#2E7D5B" opacity="0.19" transform="rotate(-30 600 315)"/><rect x="1065" y="-200" width="62" height="1030" fill="#2E7D5B" opacity="0.22" transform="rotate(-30 600 315)"/><rect x="1196" y="-200" width="78" height="1030" fill="#8f3520" opacity="0.2" transform="rotate(-30 600 315)"/><rect x="1361" y="-200" width="90" height="1030" fill="#2E7D5B" opacity="0.27" transform="rotate(-30 600 315)"/><rect width="1200" height="630" fill="url(#vig)"/><text x="44" y="590" font-family="ui-monospace,Menlo,Consolas,monospace" font-size="24" letter-spacing="3" fill="#ffffff" fill-opacity="0.62">WEB DESIGN · GLASGOW</text></svg>