<svg xmlns="http://www.w3.org/2000/svg" viewBox="0 0 1200 630" width="1200" height="630" role="img" aria-label="WEB DESIGN · CHELMSFORD"><defs><linearGradient id="g5bb985" x1="0.2" y1="0" x2="0.8" y2="1"><stop offset="0" stop-color="#E5892B"/><stop offset="1" stop-color="#7d430a"/></linearGradient><filter id="blur"><feGaussianBlur stdDeviation="55"/></filter><radialGradient id="vig" cx="0.5" cy="0.4" r="0.75"><stop offset="0.6" stop-color="#000000" stop-opacity="0"/><stop offset="1" stop-color="#000000" stop-opacity="0.32"/></radialGradient></defs><rect width="1200" height="630" fill="url(#g5bb985)"/><polygon points="831,96 1027,143 742,402" fill="#ffffff" opacity="0.27"/><polygon points="1121,238 1064,629 487,283" fill="#ffffff" opacity="0.27"/><polygon points="683,362 742,402 831,96" fill="#E5892B" opacity="0.11"/><polygon points="615,563 742,402 1125,257" fill="#E5892B" opacity="0.29"/><polygon points="849,596 989,124 615,563" fill="#E5892B" opacity="0.26"/><polygon points="734,68 1187,383 989,124" fill="#E5892B" opacity="0.12"/><polygon points="683,362 1121,238 989,124" fill="#ffffff" opacity="0.27"/><polygon points="1064,629 742,402 1125,257" fill="#E5892B" opacity="0.18"/><polygon points="1121,238 1027,143 1121,238" fill="#B4610F" opacity="0.18"/><polygon points="61,180 831,96 615,563" fill="#ffffff" opacity="0.2"/><polygon points="683,362 742,402 734,68" fill="#B4610F" opacity="0.12"/><polygon points="742,402 1121,238 1125,257" fill="#ffffff" opacity="0.32"/><polygon points="831,96 487,283 1027,143" fill="#E5892B" opacity="0.19"/><polygon points="1187,383 831,96 831,96" fill="#E5892B" opacity="0.14"/><rect width="1200" height="630" fill="url(#vig)"/><text x="44" y="590" font-family="ui-monospace,Menlo,Consolas,monospace" font-size="24" letter-spacing="3" fill="#ffffff" fill-opacity="0.62">WEB DESIGN · CHELMSFORD</text></svg>