<svg xmlns="http://www.w3.org/2000/svg" viewBox="0 0 1200 630" width="1200" height="630" role="img" aria-label="WEB DESIGN · LEEDS"><defs><linearGradient id="g09b5cf" x1="0" y1="0" x2="1" y2="0"><stop offset="0" stop-color="#7A5AF0"/><stop offset="1" stop-color="#33237b"/></linearGradient><filter id="blur"><feGaussianBlur stdDeviation="55"/></filter><radialGradient id="vig" cx="0.5" cy="0.4" r="0.75"><stop offset="0.6" stop-color="#000000" stop-opacity="0"/><stop offset="1" stop-color="#000000" stop-opacity="0.32"/></radialGradient></defs><rect width="1200" height="630" fill="url(#g09b5cf)"/><rect x="-300" y="-200" width="83" height="1030" fill="#3A5BD9" opacity="0.14" transform="rotate(-20 600 315)"/><rect x="-137" y="-200" width="92" height="1030" fill="#ffffff" opacity="0.23" transform="rotate(-20 600 315)"/><rect x="20" y="-200" width="66" height="1030" fill="#ffffff" opacity="0.26" transform="rotate(-20 600 315)"/><rect x="157" y="-200" width="127" height="1030" fill="#ffffff" opacity="0.17" transform="rotate(-20 600 315)"/><rect x="322" y="-200" width="87" height="1030" fill="#ffffff" opacity="0.28" transform="rotate(-20 600 315)"/><rect x="494" y="-200" width="58" height="1030" fill="#7A5AF0" opacity="0.13" transform="rotate(-20 600 315)"/><rect x="618" y="-200" width="74" height="1030" fill="#7A5AF0" opacity="0.19" transform="rotate(-20 600 315)"/><rect x="771" y="-200" width="83" height="1030" fill="#3A5BD9" opacity="0.25" transform="rotate(-20 600 315)"/><rect x="892" y="-200" width="88" height="1030" fill="#4A32B0" opacity="0.17" transform="rotate(-20 600 315)"/><rect x="1029" y="-200" width="71" height="1030" fill="#4A32B0" opacity="0.26" transform="rotate(-20 600 315)"/><rect x="1173" y="-200" width="66" height="1030" fill="#ffffff" opacity="0.33" transform="rotate(-20 600 315)"/><rect x="1316" y="-200" width="98" height="1030" fill="#4A32B0" opacity="0.25" transform="rotate(-20 600 315)"/><rect x="1468" y="-200" width="99" height="1030" fill="#3A5BD9" opacity="0.31" transform="rotate(-20 600 315)"/><rect width="1200" height="630" fill="url(#vig)"/><text x="44" y="590" font-family="ui-monospace,Menlo,Consolas,monospace" font-size="24" letter-spacing="3" fill="#ffffff" fill-opacity="0.62">WEB DESIGN · LEEDS</text></svg>