<svg xmlns="http://www.w3.org/2000/svg" viewBox="0 0 1200 630" width="1200" height="630" role="img" aria-label="2026 TRENDS"><defs><linearGradient id="g886da8" x1="0" y1="0" x2="1" y2="0"><stop offset="0" stop-color="#3A5BD9"/><stop offset="1" stop-color="#1a2c6e"/></linearGradient><filter id="blur"><feGaussianBlur stdDeviation="55"/></filter><radialGradient id="vig" cx="0.5" cy="0.4" r="0.75"><stop offset="0.6" stop-color="#000000" stop-opacity="0"/><stop offset="1" stop-color="#000000" stop-opacity="0.32"/></radialGradient></defs><rect width="1200" height="630" fill="url(#g886da8)"/><rect x="-300" y="-200" width="93" height="1030" fill="#3A5BD9" opacity="0.33" transform="rotate(-30 600 315)"/><rect x="-161" y="-200" width="93" height="1030" fill="#26409e" opacity="0.29" transform="rotate(-30 600 315)"/><rect x="4" y="-200" width="103" height="1030" fill="#26409e" opacity="0.33" transform="rotate(-30 600 315)"/><rect x="142" y="-200" width="114" height="1030" fill="#26409e" opacity="0.25" transform="rotate(-30 600 315)"/><rect x="321" y="-200" width="78" height="1030" fill="#ffffff" opacity="0.22" transform="rotate(-30 600 315)"/><rect x="481" y="-200" width="82" height="1030" fill="#ffffff" opacity="0.26" transform="rotate(-30 600 315)"/><rect x="595" y="-200" width="103" height="1030" fill="#ffffff" opacity="0.36" transform="rotate(-30 600 315)"/><rect x="734" y="-200" width="53" height="1030" fill="#26409e" opacity="0.29" transform="rotate(-30 600 315)"/><rect x="819" y="-200" width="126" height="1030" fill="#ffffff" opacity="0.22" transform="rotate(-30 600 315)"/><rect x="980" y="-200" width="130" height="1030" fill="#26409e" opacity="0.29" transform="rotate(-30 600 315)"/><rect x="1165" y="-200" width="98" height="1030" fill="#ffffff" opacity="0.32" transform="rotate(-30 600 315)"/><rect x="1332" y="-200" width="110" height="1030" fill="#E5892B" opacity="0.25" transform="rotate(-30 600 315)"/><rect x="1492" y="-200" width="99" height="1030" fill="#3A5BD9" opacity="0.16" transform="rotate(-30 600 315)"/><rect width="1200" height="630" fill="url(#vig)"/><text x="44" y="590" font-family="ui-monospace,Menlo,Consolas,monospace" font-size="24" letter-spacing="3" fill="#ffffff" fill-opacity="0.62">2026 TRENDS</text></svg>