<svg xmlns="http://www.w3.org/2000/svg" viewBox="0 0 1200 630" width="1200" height="630" role="img" aria-label="WEB DESIGN · BASINGSTOKE"><defs><linearGradient id="g8adc31" x1="1" y1="0" x2="0" y2="1"><stop offset="0" stop-color="#3A5BD9"/><stop offset="1" stop-color="#1a2c6e"/></linearGradient><filter id="blur"><feGaussianBlur stdDeviation="55"/></filter><radialGradient id="vig" cx="0.5" cy="0.4" r="0.75"><stop offset="0.6" stop-color="#000000" stop-opacity="0"/><stop offset="1" stop-color="#000000" stop-opacity="0.32"/></radialGradient></defs><rect width="1200" height="630" fill="url(#g8adc31)"/><path d="M -50 293 Q 10 254 70 293 Q 130 332 190 293 Q 250 254 310 293 Q 370 332 430 293 Q 490 254 550 293 Q 610 332 670 293 Q 730 254 790 293 Q 850 332 910 293 Q 970 254 1030 293 Q 1090 332 1150 293 Q 1210 254 1270 293 L 1250 680 L -50 680 Z" fill="#ffffff" opacity="0.22"/><path d="M -50 151 Q 10 82 70 151 Q 130 220 190 151 Q 250 82 310 151 Q 370 220 430 151 Q 490 82 550 151 Q 610 220 670 151 Q 730 82 790 151 Q 850 220 910 151 Q 970 82 1030 151 Q 1090 220 1150 151 Q 1210 82 1270 151 L 1250 680 L -50 680 Z" fill="#3A5BD9" opacity="0.22"/><path d="M -50 424 Q 10 360 70 424 Q 130 488 190 424 Q 250 360 310 424 Q 370 488 430 424 Q 490 360 550 424 Q 610 488 670 424 Q 730 360 790 424 Q 850 488 910 424 Q 970 360 1030 424 Q 1090 488 1150 424 Q 1210 360 1270 424 L 1250 680 L -50 680 Z" fill="#26409e" opacity="0.22"/><path d="M -50 184 Q 10 106 70 184 Q 130 262 190 184 Q 250 106 310 184 Q 370 262 430 184 Q 490 106 550 184 Q 610 262 670 184 Q 730 106 790 184 Q 850 262 910 184 Q 970 106 1030 184 Q 1090 262 1150 184 Q 1210 106 1270 184 L 1250 680 L -50 680 Z" fill="#3A5BD9" opacity="0.22"/><rect width="1200" height="630" fill="url(#vig)"/><text x="44" y="590" font-family="ui-monospace,Menlo,Consolas,monospace" font-size="24" letter-spacing="3" fill="#ffffff" fill-opacity="0.62">WEB DESIGN · BASINGSTOKE</text></svg>