<svg xmlns="http://www.w3.org/2000/svg" viewBox="0 0 1200 630" width="1200" height="630" role="img" aria-label="WEB DESIGN · LUTON"><defs><linearGradient id="g2401cf" x1="1" y1="0" x2="0" y2="1"><stop offset="0" stop-color="#B7472A"/><stop offset="1" stop-color="#642516"/></linearGradient><filter id="blur"><feGaussianBlur stdDeviation="55"/></filter><radialGradient id="vig" cx="0.5" cy="0.4" r="0.75"><stop offset="0.6" stop-color="#000000" stop-opacity="0"/><stop offset="1" stop-color="#000000" stop-opacity="0.32"/></radialGradient></defs><rect width="1200" height="630" fill="url(#g2401cf)"/><path d="M -50 379 Q 10 304 70 379 Q 130 454 190 379 Q 250 304 310 379 Q 370 454 430 379 Q 490 304 550 379 Q 610 454 670 379 Q 730 304 790 379 Q 850 454 910 379 Q 970 304 1030 379 Q 1090 454 1150 379 Q 1210 304 1270 379 L 1250 680 L -50 680 Z" fill="#B7472A" opacity="0.22"/><path d="M -50 484 Q 10 421 70 484 Q 130 547 190 484 Q 250 421 310 484 Q 370 547 430 484 Q 490 421 550 484 Q 610 547 670 484 Q 730 421 790 484 Q 850 547 910 484 Q 970 421 1030 484 Q 1090 547 1150 484 Q 1210 421 1270 484 L 1250 680 L -50 680 Z" fill="#B7472A" opacity="0.22"/><path d="M -50 231 Q 10 170 70 231 Q 130 292 190 231 Q 250 170 310 231 Q 370 292 430 231 Q 490 170 550 231 Q 610 292 670 231 Q 730 170 790 231 Q 850 292 910 231 Q 970 170 1030 231 Q 1090 292 1150 231 Q 1210 170 1270 231 L 1250 680 L -50 680 Z" fill="#B7472A" opacity="0.22"/><path d="M -50 281 Q 10 207 70 281 Q 130 355 190 281 Q 250 207 310 281 Q 370 355 430 281 Q 490 207 550 281 Q 610 355 670 281 Q 730 207 790 281 Q 850 355 910 281 Q 970 207 1030 281 Q 1090 355 1150 281 Q 1210 207 1270 281 L 1250 680 L -50 680 Z" fill="#ffffff" opacity="0.22"/><path d="M -50 325 Q 10 277 70 325 Q 130 373 190 325 Q 250 277 310 325 Q 370 373 430 325 Q 490 277 550 325 Q 610 373 670 325 Q 730 277 790 325 Q 850 373 910 325 Q 970 277 1030 325 Q 1090 373 1150 325 Q 1210 277 1270 325 L 1250 680 L -50 680 Z" fill="#B7472A" opacity="0.22"/><rect width="1200" height="630" fill="url(#vig)"/><text x="44" y="590" font-family="ui-monospace,Menlo,Consolas,monospace" font-size="24" letter-spacing="3" fill="#ffffff" fill-opacity="0.62">WEB DESIGN · LUTON</text></svg>