<svg xmlns="http://www.w3.org/2000/svg" viewBox="0 0 1200 630" width="1200" height="630" role="img" aria-label="WEB DESIGN · ROMFORD"><defs><linearGradient id="g4a517a" x1="0" y1="0" x2="1" y2="1"><stop offset="0" stop-color="#7A5AF0"/><stop offset="1" stop-color="#33237b"/></linearGradient><filter id="blur"><feGaussianBlur stdDeviation="55"/></filter><radialGradient id="vig" cx="0.5" cy="0.4" r="0.75"><stop offset="0.6" stop-color="#000000" stop-opacity="0"/><stop offset="1" stop-color="#000000" stop-opacity="0.32"/></radialGradient></defs><rect width="1200" height="630" fill="url(#g4a517a)"/><rect x="-300" y="-200" width="105" height="1030" fill="#ffffff" opacity="0.14" transform="rotate(20 600 315)"/><rect x="-141" y="-200" width="58" height="1030" fill="#ffffff" opacity="0.18" transform="rotate(20 600 315)"/><rect x="5" y="-200" width="76" height="1030" fill="#4A32B0" opacity="0.25" transform="rotate(20 600 315)"/><rect x="116" y="-200" width="83" height="1030" fill="#4A32B0" opacity="0.31" transform="rotate(20 600 315)"/><rect x="279" y="-200" width="81" height="1030" fill="#ffffff" opacity="0.36" transform="rotate(20 600 315)"/><rect x="399" y="-200" width="56" height="1030" fill="#7A5AF0" opacity="0.3" transform="rotate(20 600 315)"/><rect x="514" y="-200" width="80" height="1030" fill="#4A32B0" opacity="0.18" transform="rotate(20 600 315)"/><rect x="682" y="-200" width="129" height="1030" fill="#7A5AF0" opacity="0.22" transform="rotate(20 600 315)"/><rect x="859" y="-200" width="102" height="1030" fill="#7A5AF0" opacity="0.34" transform="rotate(20 600 315)"/><rect x="993" y="-200" width="116" height="1030" fill="#ffffff" opacity="0.25" transform="rotate(20 600 315)"/><rect x="1139" y="-200" width="105" height="1030" fill="#4A32B0" opacity="0.25" transform="rotate(20 600 315)"/><rect x="1332" y="-200" width="88" height="1030" fill="#7A5AF0" opacity="0.13" transform="rotate(20 600 315)"/><rect x="1458" y="-200" width="73" height="1030" fill="#ffffff" opacity="0.18" transform="rotate(20 600 315)"/><rect width="1200" height="630" fill="url(#vig)"/><text x="44" y="590" font-family="ui-monospace,Menlo,Consolas,monospace" font-size="24" letter-spacing="3" fill="#ffffff" fill-opacity="0.62">WEB DESIGN · ROMFORD</text></svg>