<svg xmlns="http://www.w3.org/2000/svg" viewBox="0 0 1200 630" width="1200" height="630" role="img" aria-label="WEB DESIGN · WOKING"><defs><linearGradient id="g99a804" x1="0" y1="0" x2="1" y2="0"><stop offset="0" stop-color="#2E7D5B"/><stop offset="1" stop-color="#133b2c"/></linearGradient><filter id="blur"><feGaussianBlur stdDeviation="55"/></filter><radialGradient id="vig" cx="0.5" cy="0.4" r="0.75"><stop offset="0.6" stop-color="#000000" stop-opacity="0"/><stop offset="1" stop-color="#000000" stop-opacity="0.32"/></radialGradient></defs><rect width="1200" height="630" fill="url(#g99a804)"/><rect x="-300" y="-200" width="90" height="1030" fill="#ffffff" opacity="0.2" transform="rotate(-30 600 315)"/><rect x="-131" y="-200" width="118" height="1030" fill="#1c5540" opacity="0.36" transform="rotate(-30 600 315)"/><rect x="20" y="-200" width="59" height="1030" fill="#2E7D5B" opacity="0.21" transform="rotate(-30 600 315)"/><rect x="160" y="-200" width="94" height="1030" fill="#7A5AF0" opacity="0.32" transform="rotate(-30 600 315)"/><rect x="314" y="-200" width="117" height="1030" fill="#7A5AF0" opacity="0.13" transform="rotate(-30 600 315)"/><rect x="514" y="-200" width="123" height="1030" fill="#ffffff" opacity="0.22" transform="rotate(-30 600 315)"/><rect x="717" y="-200" width="124" height="1030" fill="#ffffff" opacity="0.24" transform="rotate(-30 600 315)"/><rect x="930" y="-200" width="128" height="1030" fill="#ffffff" opacity="0.29" transform="rotate(-30 600 315)"/><rect x="1117" y="-200" width="56" height="1030" fill="#ffffff" opacity="0.36" transform="rotate(-30 600 315)"/><rect x="1253" y="-200" width="110" height="1030" fill="#2E7D5B" opacity="0.34" transform="rotate(-30 600 315)"/><rect x="1405" y="-200" width="110" height="1030" fill="#1c5540" opacity="0.18" transform="rotate(-30 600 315)"/><rect width="1200" height="630" fill="url(#vig)"/><text x="44" y="590" font-family="ui-monospace,Menlo,Consolas,monospace" font-size="24" letter-spacing="3" fill="#ffffff" fill-opacity="0.62">WEB DESIGN · WOKING</text></svg>