<svg xmlns="http://www.w3.org/2000/svg" viewBox="0 0 1200 630" width="1200" height="630" role="img" aria-label="WEB DESIGN · MILTON KEYNES"><defs><linearGradient id="gc96ddd" x1="0" y1="0" x2="0" y2="1"><stop offset="0" stop-color="#B7472A"/><stop offset="1" stop-color="#642516"/></linearGradient><filter id="blur"><feGaussianBlur stdDeviation="55"/></filter><radialGradient id="vig" cx="0.5" cy="0.4" r="0.75"><stop offset="0.6" stop-color="#000000" stop-opacity="0"/><stop offset="1" stop-color="#000000" stop-opacity="0.32"/></radialGradient></defs><rect width="1200" height="630" fill="url(#gc96ddd)"/><path d="M -50 320 Q 10 267 70 320 Q 130 373 190 320 Q 250 267 310 320 Q 370 373 430 320 Q 490 267 550 320 Q 610 373 670 320 Q 730 267 790 320 Q 850 373 910 320 Q 970 267 1030 320 Q 1090 373 1150 320 Q 1210 267 1270 320 L 1250 680 L -50 680 Z" fill="#D6478E" opacity="0.22"/><path d="M -50 452 Q 10 413 70 452 Q 130 491 190 452 Q 250 413 310 452 Q 370 491 430 452 Q 490 413 550 452 Q 610 491 670 452 Q 730 413 790 452 Q 850 491 910 452 Q 970 413 1030 452 Q 1090 491 1150 452 Q 1210 413 1270 452 L 1250 680 L -50 680 Z" fill="#B7472A" opacity="0.22"/><path d="M -50 157 Q 10 84 70 157 Q 130 230 190 157 Q 250 84 310 157 Q 370 230 430 157 Q 490 84 550 157 Q 610 230 670 157 Q 730 84 790 157 Q 850 230 910 157 Q 970 84 1030 157 Q 1090 230 1150 157 Q 1210 84 1270 157 L 1250 680 L -50 680 Z" fill="#8f3520" opacity="0.22"/><path d="M -50 388 Q 10 332 70 388 Q 130 444 190 388 Q 250 332 310 388 Q 370 444 430 388 Q 490 332 550 388 Q 610 444 670 388 Q 730 332 790 388 Q 850 444 910 388 Q 970 332 1030 388 Q 1090 444 1150 388 Q 1210 332 1270 388 L 1250 680 L -50 680 Z" fill="#B7472A" opacity="0.22"/><path d="M -50 414 Q 10 370 70 414 Q 130 458 190 414 Q 250 370 310 414 Q 370 458 430 414 Q 490 370 550 414 Q 610 458 670 414 Q 730 370 790 414 Q 850 458 910 414 Q 970 370 1030 414 Q 1090 458 1150 414 Q 1210 370 1270 414 L 1250 680 L -50 680 Z" fill="#ffffff" opacity="0.22"/><rect width="1200" height="630" fill="url(#vig)"/><text x="44" y="590" font-family="ui-monospace,Menlo,Consolas,monospace" font-size="24" letter-spacing="3" fill="#ffffff" fill-opacity="0.62">WEB DESIGN · MILTON KEYNES</text></svg>