<svg xmlns="http://www.w3.org/2000/svg" viewBox="0 0 1200 630" width="1200" height="630" role="img" aria-label="WEB DESIGN · ST ALBANS"><defs><linearGradient id="g724d19" x1="0.2" y1="0" x2="0.8" y2="1"><stop offset="0" stop-color="#7A5AF0"/><stop offset="1" stop-color="#33237b"/></linearGradient><filter id="blur"><feGaussianBlur stdDeviation="55"/></filter><radialGradient id="vig" cx="0.5" cy="0.4" r="0.75"><stop offset="0.6" stop-color="#000000" stop-opacity="0"/><stop offset="1" stop-color="#000000" stop-opacity="0.32"/></radialGradient></defs><rect width="1200" height="630" fill="url(#g724d19)"/><path d="M -50 540 Q 10 500 70 540 Q 130 580 190 540 Q 250 500 310 540 Q 370 580 430 540 Q 490 500 550 540 Q 610 580 670 540 Q 730 500 790 540 Q 850 580 910 540 Q 970 500 1030 540 Q 1090 580 1150 540 Q 1210 500 1270 540 L 1250 680 L -50 680 Z" fill="#7A5AF0" opacity="0.22"/><path d="M -50 148 Q 10 68 70 148 Q 130 228 190 148 Q 250 68 310 148 Q 370 228 430 148 Q 490 68 550 148 Q 610 228 670 148 Q 730 68 790 148 Q 850 228 910 148 Q 970 68 1030 148 Q 1090 228 1150 148 Q 1210 68 1270 148 L 1250 680 L -50 680 Z" fill="#7A5AF0" opacity="0.22"/><path d="M -50 367 Q 10 326 70 367 Q 130 408 190 367 Q 250 326 310 367 Q 370 408 430 367 Q 490 326 550 367 Q 610 408 670 367 Q 730 326 790 367 Q 850 408 910 367 Q 970 326 1030 367 Q 1090 408 1150 367 Q 1210 326 1270 367 L 1250 680 L -50 680 Z" fill="#ffffff" opacity="0.22"/><path d="M -50 545 Q 10 485 70 545 Q 130 605 190 545 Q 250 485 310 545 Q 370 605 430 545 Q 490 485 550 545 Q 610 605 670 545 Q 730 485 790 545 Q 850 605 910 545 Q 970 485 1030 545 Q 1090 605 1150 545 Q 1210 485 1270 545 L 1250 680 L -50 680 Z" fill="#ffffff" opacity="0.22"/><path d="M -50 326 Q 10 253 70 326 Q 130 399 190 326 Q 250 253 310 326 Q 370 399 430 326 Q 490 253 550 326 Q 610 399 670 326 Q 730 253 790 326 Q 850 399 910 326 Q 970 253 1030 326 Q 1090 399 1150 326 Q 1210 253 1270 326 L 1250 680 L -50 680 Z" fill="#4A32B0" opacity="0.22"/><path d="M -50 283 Q 10 228 70 283 Q 130 338 190 283 Q 250 228 310 283 Q 370 338 430 283 Q 490 228 550 283 Q 610 338 670 283 Q 730 228 790 283 Q 850 338 910 283 Q 970 228 1030 283 Q 1090 338 1150 283 Q 1210 228 1270 283 L 1250 680 L -50 680 Z" fill="#7A5AF0" opacity="0.22"/><rect width="1200" height="630" fill="url(#vig)"/><text x="44" y="590" font-family="ui-monospace,Menlo,Consolas,monospace" font-size="24" letter-spacing="3" fill="#ffffff" fill-opacity="0.62">WEB DESIGN · ST ALBANS</text></svg>