<svg xmlns="http://www.w3.org/2000/svg" viewBox="0 0 1200 630" width="1200" height="630" role="img" aria-label="WEB DESIGN · WATFORD"><defs><linearGradient id="ge87092" x1="0.2" y1="0" x2="0.8" y2="1"><stop offset="0" stop-color="#E5892B"/><stop offset="1" stop-color="#7d430a"/></linearGradient><filter id="blur"><feGaussianBlur stdDeviation="55"/></filter><radialGradient id="vig" cx="0.5" cy="0.4" r="0.75"><stop offset="0.6" stop-color="#000000" stop-opacity="0"/><stop offset="1" stop-color="#000000" stop-opacity="0.32"/></radialGradient></defs><rect width="1200" height="630" fill="url(#ge87092)"/><rect x="-300" y="-200" width="108" height="1030" fill="#B4610F" opacity="0.15" transform="rotate(30 600 315)"/><rect x="-161" y="-200" width="56" height="1030" fill="#E5892B" opacity="0.32" transform="rotate(30 600 315)"/><rect x="-34" y="-200" width="115" height="1030" fill="#7A5AF0" opacity="0.22" transform="rotate(30 600 315)"/><rect x="162" y="-200" width="125" height="1030" fill="#ffffff" opacity="0.21" transform="rotate(30 600 315)"/><rect x="360" y="-200" width="107" height="1030" fill="#ffffff" opacity="0.26" transform="rotate(30 600 315)"/><rect x="551" y="-200" width="125" height="1030" fill="#B4610F" opacity="0.25" transform="rotate(30 600 315)"/><rect x="748" y="-200" width="71" height="1030" fill="#B4610F" opacity="0.26" transform="rotate(30 600 315)"/><rect x="870" y="-200" width="89" height="1030" fill="#ffffff" opacity="0.24" transform="rotate(30 600 315)"/><rect x="990" y="-200" width="96" height="1030" fill="#B4610F" opacity="0.23" transform="rotate(30 600 315)"/><rect x="1137" y="-200" width="107" height="1030" fill="#7A5AF0" opacity="0.16" transform="rotate(30 600 315)"/><rect x="1302" y="-200" width="58" height="1030" fill="#7A5AF0" opacity="0.23" transform="rotate(30 600 315)"/><rect x="1407" y="-200" width="93" height="1030" fill="#B4610F" opacity="0.3" transform="rotate(30 600 315)"/><rect width="1200" height="630" fill="url(#vig)"/><text x="44" y="590" font-family="ui-monospace,Menlo,Consolas,monospace" font-size="24" letter-spacing="3" fill="#ffffff" fill-opacity="0.62">WEB DESIGN · WATFORD</text></svg>