<svg xmlns="http://www.w3.org/2000/svg" viewBox="0 0 1200 630" width="1200" height="630" role="img" aria-label="TRADES WEBSITES · WANDSWORTH"><defs><linearGradient id="g192072" x1="0" y1="0" x2="1" y2="1"><stop offset="0" stop-color="#E5892B"/><stop offset="1" stop-color="#7d430a"/></linearGradient><filter id="blur"><feGaussianBlur stdDeviation="55"/></filter><radialGradient id="vig" cx="0.5" cy="0.4" r="0.75"><stop offset="0.6" stop-color="#000000" stop-opacity="0"/><stop offset="1" stop-color="#000000" stop-opacity="0.32"/></radialGradient></defs><rect width="1200" height="630" fill="url(#g192072)"/><path d="M -50 183 Q 10 129 70 183 Q 130 237 190 183 Q 250 129 310 183 Q 370 237 430 183 Q 490 129 550 183 Q 610 237 670 183 Q 730 129 790 183 Q 850 237 910 183 Q 970 129 1030 183 Q 1090 237 1150 183 Q 1210 129 1270 183 L 1250 680 L -50 680 Z" fill="#E5892B" opacity="0.22"/><path d="M -50 434 Q 10 354 70 434 Q 130 514 190 434 Q 250 354 310 434 Q 370 514 430 434 Q 490 354 550 434 Q 610 514 670 434 Q 730 354 790 434 Q 850 514 910 434 Q 970 354 1030 434 Q 1090 514 1150 434 Q 1210 354 1270 434 L 1250 680 L -50 680 Z" fill="#E5892B" opacity="0.22"/><path d="M -50 169 Q 10 111 70 169 Q 130 227 190 169 Q 250 111 310 169 Q 370 227 430 169 Q 490 111 550 169 Q 610 227 670 169 Q 730 111 790 169 Q 850 227 910 169 Q 970 111 1030 169 Q 1090 227 1150 169 Q 1210 111 1270 169 L 1250 680 L -50 680 Z" fill="#C64B3B" opacity="0.22"/><path d="M -50 353 Q 10 276 70 353 Q 130 430 190 353 Q 250 276 310 353 Q 370 430 430 353 Q 490 276 550 353 Q 610 430 670 353 Q 730 276 790 353 Q 850 430 910 353 Q 970 276 1030 353 Q 1090 430 1150 353 Q 1210 276 1270 353 L 1250 680 L -50 680 Z" fill="#E5892B" opacity="0.22"/><path d="M -50 376 Q 10 298 70 376 Q 130 454 190 376 Q 250 298 310 376 Q 370 454 430 376 Q 490 298 550 376 Q 610 454 670 376 Q 730 298 790 376 Q 850 454 910 376 Q 970 298 1030 376 Q 1090 454 1150 376 Q 1210 298 1270 376 L 1250 680 L -50 680 Z" fill="#C64B3B" opacity="0.22"/><rect width="1200" height="630" fill="url(#vig)"/><text x="44" y="590" font-family="ui-monospace,Menlo,Consolas,monospace" font-size="24" letter-spacing="3" fill="#ffffff" fill-opacity="0.62">TRADES WEBSITES · WANDSWORTH</text></svg>