<svg xmlns="http://www.w3.org/2000/svg" viewBox="0 0 1200 630" width="1200" height="630" role="img" aria-label="INDUSTRY GUIDE"><defs><linearGradient id="g97144f" x1="0" y1="0" x2="1" y2="1"><stop offset="0" stop-color="#D6478E"/><stop offset="1" stop-color="#702047"/></linearGradient><filter id="blur"><feGaussianBlur stdDeviation="55"/></filter><radialGradient id="vig" cx="0.5" cy="0.4" r="0.75"><stop offset="0.6" stop-color="#000000" stop-opacity="0"/><stop offset="1" stop-color="#000000" stop-opacity="0.32"/></radialGradient></defs><rect width="1200" height="630" fill="url(#g97144f)"/><path d="M -50 133 Q 10 84 70 133 Q 130 182 190 133 Q 250 84 310 133 Q 370 182 430 133 Q 490 84 550 133 Q 610 182 670 133 Q 730 84 790 133 Q 850 182 910 133 Q 970 84 1030 133 Q 1090 182 1150 133 Q 1210 84 1270 133 L 1250 680 L -50 680 Z" fill="#D6478E" opacity="0.22"/><path d="M -50 401 Q 10 338 70 401 Q 130 464 190 401 Q 250 338 310 401 Q 370 464 430 401 Q 490 338 550 401 Q 610 464 670 401 Q 730 338 790 401 Q 850 464 910 401 Q 970 338 1030 401 Q 1090 464 1150 401 Q 1210 338 1270 401 L 1250 680 L -50 680 Z" fill="#D6478E" opacity="0.22"/><path d="M -50 178 Q 10 139 70 178 Q 130 217 190 178 Q 250 139 310 178 Q 370 217 430 178 Q 490 139 550 178 Q 610 217 670 178 Q 730 139 790 178 Q 850 217 910 178 Q 970 139 1030 178 Q 1090 217 1150 178 Q 1210 139 1270 178 L 1250 680 L -50 680 Z" fill="#C64B3B" opacity="0.22"/><path d="M -50 410 Q 10 355 70 410 Q 130 465 190 410 Q 250 355 310 410 Q 370 465 430 410 Q 490 355 550 410 Q 610 465 670 410 Q 730 355 790 410 Q 850 465 910 410 Q 970 355 1030 410 Q 1090 465 1150 410 Q 1210 355 1270 410 L 1250 680 L -50 680 Z" fill="#ffffff" opacity="0.22"/><path d="M -50 140 Q 10 105 70 140 Q 130 175 190 140 Q 250 105 310 140 Q 370 175 430 140 Q 490 105 550 140 Q 610 175 670 140 Q 730 105 790 140 Q 850 175 910 140 Q 970 105 1030 140 Q 1090 175 1150 140 Q 1210 105 1270 140 L 1250 680 L -50 680 Z" fill="#ffffff" opacity="0.22"/><rect width="1200" height="630" fill="url(#vig)"/><text x="44" y="590" font-family="ui-monospace,Menlo,Consolas,monospace" font-size="24" letter-spacing="3" fill="#ffffff" fill-opacity="0.62">INDUSTRY GUIDE</text></svg>