<svg xmlns="http://www.w3.org/2000/svg" viewBox="0 0 1200 630" width="1200" height="630" role="img" aria-label="TRADES WEBSITES · GLASGOW"><defs><linearGradient id="g9b2477" x1="0" y1="0" x2="0" y2="1"><stop offset="0" stop-color="#E5892B"/><stop offset="1" stop-color="#7d430a"/></linearGradient><filter id="blur"><feGaussianBlur stdDeviation="55"/></filter><radialGradient id="vig" cx="0.5" cy="0.4" r="0.75"><stop offset="0.6" stop-color="#000000" stop-opacity="0"/><stop offset="1" stop-color="#000000" stop-opacity="0.32"/></radialGradient></defs><rect width="1200" height="630" fill="url(#g9b2477)"/><polygon points="313,581 6,402 292,624" fill="#B4610F" opacity="0.14"/><polygon points="1147,279 1147,279 562,97" fill="#2FA8C4" opacity="0.27"/><polygon points="258,85 6,402 1147,279" fill="#ffffff" opacity="0.13"/><polygon points="1147,279 292,624 1147,279" fill="#2FA8C4" opacity="0.3"/><polygon points="114,370 258,85 392,309" fill="#2FA8C4" opacity="0.31"/><polygon points="1161,498 114,370 800,52" fill="#2FA8C4" opacity="0.25"/><polygon points="114,370 258,85 562,97" fill="#E5892B" opacity="0.25"/><polygon points="1147,279 800,52 114,370" fill="#ffffff" opacity="0.1"/><polygon points="196,317 800,52 562,97" fill="#B4610F" opacity="0.2"/><polygon points="114,370 313,581 196,317" fill="#ffffff" opacity="0.1"/><polygon points="114,370 1147,279 562,97" fill="#E5892B" opacity="0.24"/><rect width="1200" height="630" fill="url(#vig)"/><text x="44" y="590" font-family="ui-monospace,Menlo,Consolas,monospace" font-size="24" letter-spacing="3" fill="#ffffff" fill-opacity="0.62">TRADES WEBSITES · GLASGOW</text></svg>