<svg xmlns="http://www.w3.org/2000/svg" viewBox="0 0 1200 630" width="1200" height="630" role="img" aria-label="INDUSTRY GUIDE"><defs><linearGradient id="g3ee3ff" x1="1" y1="0" x2="0" y2="1"><stop offset="0" stop-color="#E5892B"/><stop offset="1" stop-color="#7d430a"/></linearGradient><filter id="blur"><feGaussianBlur stdDeviation="55"/></filter><radialGradient id="vig" cx="0.5" cy="0.4" r="0.75"><stop offset="0.6" stop-color="#000000" stop-opacity="0"/><stop offset="1" stop-color="#000000" stop-opacity="0.32"/></radialGradient></defs><rect width="1200" height="630" fill="url(#g3ee3ff)"/><polygon points="415,565 678,579 427,828" fill="#ffffff" opacity="0.36"/><rect x="917" y="368" width="284" height="215" fill="#B4610F" opacity="0.24" transform="rotate(18 585 249)"/><rect x="903" y="153" width="307" height="331" fill="#E5892B" opacity="0.33" transform="rotate(14 992 623)"/><polygon points="841,360 1025,319 830,544" fill="#E5892B" opacity="0.39"/><circle cx="434" cy="131" r="194" fill="#E5892B" opacity="0.29"/><rect x="16" y="119" width="313" height="162" fill="#B4610F" opacity="0.21" transform="rotate(39 1060 1)"/><polygon points="308,202 560,190 255,454" fill="#ffffff" opacity="0.44"/><circle cx="404" cy="148" r="235" fill="#B4610F" opacity="0.38"/><rect width="1200" height="630" fill="url(#vig)"/><text x="44" y="590" font-family="ui-monospace,Menlo,Consolas,monospace" font-size="24" letter-spacing="3" fill="#ffffff" fill-opacity="0.62">INDUSTRY GUIDE</text></svg>