<svg xmlns="http://www.w3.org/2000/svg" viewBox="0 0 1200 630" width="1200" height="630" role="img" aria-label="WEBSITE REDESIGN · CARDIFF"><defs><linearGradient id="gbc25ea" x1="0" y1="0" x2="1" y2="0"><stop offset="0" stop-color="#4B5563"/><stop offset="1" stop-color="#151c26"/></linearGradient><filter id="blur"><feGaussianBlur stdDeviation="55"/></filter><radialGradient id="vig" cx="0.5" cy="0.4" r="0.75"><stop offset="0.6" stop-color="#000000" stop-opacity="0"/><stop offset="1" stop-color="#000000" stop-opacity="0.32"/></radialGradient></defs><rect width="1200" height="630" fill="url(#gbc25ea)"/><path d="M -50 138 Q 10 80 70 138 Q 130 196 190 138 Q 250 80 310 138 Q 370 196 430 138 Q 490 80 550 138 Q 610 196 670 138 Q 730 80 790 138 Q 850 196 910 138 Q 970 80 1030 138 Q 1090 196 1150 138 Q 1210 80 1270 138 L 1250 680 L -50 680 Z" fill="#1f2937" opacity="0.22"/><path d="M -50 133 Q 10 99 70 133 Q 130 167 190 133 Q 250 99 310 133 Q 370 167 430 133 Q 490 99 550 133 Q 610 167 670 133 Q 730 99 790 133 Q 850 167 910 133 Q 970 99 1030 133 Q 1090 167 1150 133 Q 1210 99 1270 133 L 1250 680 L -50 680 Z" fill="#B7472A" opacity="0.22"/><path d="M -50 413 Q 10 381 70 413 Q 130 445 190 413 Q 250 381 310 413 Q 370 445 430 413 Q 490 381 550 413 Q 610 445 670 413 Q 730 381 790 413 Q 850 445 910 413 Q 970 381 1030 413 Q 1090 445 1150 413 Q 1210 381 1270 413 L 1250 680 L -50 680 Z" fill="#4B5563" opacity="0.22"/><path d="M -50 281 Q 10 228 70 281 Q 130 334 190 281 Q 250 228 310 281 Q 370 334 430 281 Q 490 228 550 281 Q 610 334 670 281 Q 730 228 790 281 Q 850 334 910 281 Q 970 228 1030 281 Q 1090 334 1150 281 Q 1210 228 1270 281 L 1250 680 L -50 680 Z" fill="#ffffff" opacity="0.22"/><path d="M -50 468 Q 10 394 70 468 Q 130 542 190 468 Q 250 394 310 468 Q 370 542 430 468 Q 490 394 550 468 Q 610 542 670 468 Q 730 394 790 468 Q 850 542 910 468 Q 970 394 1030 468 Q 1090 542 1150 468 Q 1210 394 1270 468 L 1250 680 L -50 680 Z" fill="#4B5563" opacity="0.22"/><rect width="1200" height="630" fill="url(#vig)"/><text x="44" y="590" font-family="ui-monospace,Menlo,Consolas,monospace" font-size="24" letter-spacing="3" fill="#ffffff" fill-opacity="0.62">WEBSITE REDESIGN · CARDIFF</text></svg>