<svg xmlns="http://www.w3.org/2000/svg" viewBox="0 0 1200 630" width="1200" height="630" role="img" aria-label="TRADES WEBSITES · SHEFFIELD"><defs><linearGradient id="gb9cd48" x1="0" y1="0" x2="0" y2="1"><stop offset="0" stop-color="#E5892B"/><stop offset="1" stop-color="#7d430a"/></linearGradient><filter id="blur"><feGaussianBlur stdDeviation="55"/></filter><radialGradient id="vig" cx="0.5" cy="0.4" r="0.75"><stop offset="0.6" stop-color="#000000" stop-opacity="0"/><stop offset="1" stop-color="#000000" stop-opacity="0.32"/></radialGradient></defs><rect width="1200" height="630" fill="url(#gb9cd48)"/><path d="M -50 439 Q 10 404 70 439 Q 130 474 190 439 Q 250 404 310 439 Q 370 474 430 439 Q 490 404 550 439 Q 610 474 670 439 Q 730 404 790 439 Q 850 474 910 439 Q 970 404 1030 439 Q 1090 474 1150 439 Q 1210 404 1270 439 L 1250 680 L -50 680 Z" fill="#E5892B" opacity="0.22"/><path d="M -50 518 Q 10 460 70 518 Q 130 576 190 518 Q 250 460 310 518 Q 370 576 430 518 Q 490 460 550 518 Q 610 576 670 518 Q 730 460 790 518 Q 850 576 910 518 Q 970 460 1030 518 Q 1090 576 1150 518 Q 1210 460 1270 518 L 1250 680 L -50 680 Z" fill="#3A5BD9" opacity="0.22"/><path d="M -50 391 Q 10 347 70 391 Q 130 435 190 391 Q 250 347 310 391 Q 370 435 430 391 Q 490 347 550 391 Q 610 435 670 391 Q 730 347 790 391 Q 850 435 910 391 Q 970 347 1030 391 Q 1090 435 1150 391 Q 1210 347 1270 391 L 1250 680 L -50 680 Z" fill="#B4610F" opacity="0.22"/><path d="M -50 273 Q 10 201 70 273 Q 130 345 190 273 Q 250 201 310 273 Q 370 345 430 273 Q 490 201 550 273 Q 610 345 670 273 Q 730 201 790 273 Q 850 345 910 273 Q 970 201 1030 273 Q 1090 345 1150 273 Q 1210 201 1270 273 L 1250 680 L -50 680 Z" fill="#E5892B" opacity="0.22"/><path d="M -50 512 Q 10 462 70 512 Q 130 562 190 512 Q 250 462 310 512 Q 370 562 430 512 Q 490 462 550 512 Q 610 562 670 512 Q 730 462 790 512 Q 850 562 910 512 Q 970 462 1030 512 Q 1090 562 1150 512 Q 1210 462 1270 512 L 1250 680 L -50 680 Z" fill="#E5892B" opacity="0.22"/><path d="M -50 530 Q 10 480 70 530 Q 130 580 190 530 Q 250 480 310 530 Q 370 580 430 530 Q 490 480 550 530 Q 610 580 670 530 Q 730 480 790 530 Q 850 580 910 530 Q 970 480 1030 530 Q 1090 580 1150 530 Q 1210 480 1270 530 L 1250 680 L -50 680 Z" fill="#3A5BD9" opacity="0.22"/><rect width="1200" height="630" fill="url(#vig)"/><text x="44" y="590" font-family="ui-monospace,Menlo,Consolas,monospace" font-size="24" letter-spacing="3" fill="#ffffff" fill-opacity="0.62">TRADES WEBSITES · SHEFFIELD</text></svg>