<svg xmlns="http://www.w3.org/2000/svg" viewBox="0 0 1200 630" width="1200" height="630" role="img" aria-label="INDUSTRY GUIDE"><defs><linearGradient id="ga33d02" x1="0" y1="0" x2="1" y2="0"><stop offset="0" stop-color="#E5892B"/><stop offset="1" stop-color="#7d430a"/></linearGradient><filter id="blur"><feGaussianBlur stdDeviation="55"/></filter><radialGradient id="vig" cx="0.5" cy="0.4" r="0.75"><stop offset="0.6" stop-color="#000000" stop-opacity="0"/><stop offset="1" stop-color="#000000" stop-opacity="0.32"/></radialGradient></defs><rect width="1200" height="630" fill="url(#ga33d02)"/><rect x="-300" y="-200" width="93" height="1030" fill="#E5892B" opacity="0.3" transform="rotate(-30 600 315)"/><rect x="-171" y="-200" width="51" height="1030" fill="#ffffff" opacity="0.24" transform="rotate(-30 600 315)"/><rect x="-79" y="-200" width="77" height="1030" fill="#E5892B" opacity="0.33" transform="rotate(-30 600 315)"/><rect x="37" y="-200" width="94" height="1030" fill="#ffffff" opacity="0.36" transform="rotate(-30 600 315)"/><rect x="184" y="-200" width="64" height="1030" fill="#ffffff" opacity="0.16" transform="rotate(-30 600 315)"/><rect x="306" y="-200" width="98" height="1030" fill="#B4610F" opacity="0.26" transform="rotate(-30 600 315)"/><rect x="482" y="-200" width="124" height="1030" fill="#E5892B" opacity="0.35" transform="rotate(-30 600 315)"/><rect x="657" y="-200" width="124" height="1030" fill="#7A5AF0" opacity="0.18" transform="rotate(-30 600 315)"/><rect x="818" y="-200" width="70" height="1030" fill="#B4610F" opacity="0.21" transform="rotate(-30 600 315)"/><rect x="943" y="-200" width="119" height="1030" fill="#7A5AF0" opacity="0.21" transform="rotate(-30 600 315)"/><rect x="1111" y="-200" width="86" height="1030" fill="#ffffff" opacity="0.3" transform="rotate(-30 600 315)"/><rect x="1287" y="-200" width="61" height="1030" fill="#E5892B" opacity="0.21" transform="rotate(-30 600 315)"/><rect x="1414" y="-200" width="60" height="1030" fill="#E5892B" opacity="0.14" transform="rotate(-30 600 315)"/><rect width="1200" height="630" fill="url(#vig)"/><text x="44" y="590" font-family="ui-monospace,Menlo,Consolas,monospace" font-size="24" letter-spacing="3" fill="#ffffff" fill-opacity="0.62">INDUSTRY GUIDE</text></svg>