<svg xmlns="http://www.w3.org/2000/svg" viewBox="0 0 1200 630" width="1200" height="630" role="img" aria-label="WEBSITE REDESIGN · WATFORD"><defs><linearGradient id="gfa6711" x1="0" y1="0" x2="0" y2="1"><stop offset="0" stop-color="#4B5563"/><stop offset="1" stop-color="#151c26"/></linearGradient><filter id="blur"><feGaussianBlur stdDeviation="55"/></filter><radialGradient id="vig" cx="0.5" cy="0.4" r="0.75"><stop offset="0.6" stop-color="#000000" stop-opacity="0"/><stop offset="1" stop-color="#000000" stop-opacity="0.32"/></radialGradient></defs><rect width="1200" height="630" fill="url(#gfa6711)"/><rect x="-300" y="-200" width="128" height="1030" fill="#4B5563" opacity="0.36" transform="rotate(30 600 315)"/><rect x="-136" y="-200" width="74" height="1030" fill="#1f2937" opacity="0.26" transform="rotate(30 600 315)"/><rect x="-27" y="-200" width="86" height="1030" fill="#4B5563" opacity="0.21" transform="rotate(30 600 315)"/><rect x="139" y="-200" width="130" height="1030" fill="#1f2937" opacity="0.36" transform="rotate(30 600 315)"/><rect x="333" y="-200" width="125" height="1030" fill="#2E7D5B" opacity="0.24" transform="rotate(30 600 315)"/><rect x="527" y="-200" width="78" height="1030" fill="#ffffff" opacity="0.29" transform="rotate(30 600 315)"/><rect x="668" y="-200" width="128" height="1030" fill="#2E7D5B" opacity="0.31" transform="rotate(30 600 315)"/><rect x="883" y="-200" width="75" height="1030" fill="#2E7D5B" opacity="0.28" transform="rotate(30 600 315)"/><rect x="1020" y="-200" width="104" height="1030" fill="#4B5563" opacity="0.16" transform="rotate(30 600 315)"/><rect x="1186" y="-200" width="102" height="1030" fill="#2E7D5B" opacity="0.21" transform="rotate(30 600 315)"/><rect x="1366" y="-200" width="86" height="1030" fill="#ffffff" opacity="0.15" transform="rotate(30 600 315)"/><rect x="1484" y="-200" width="105" height="1030" fill="#2E7D5B" opacity="0.18" transform="rotate(30 600 315)"/><rect width="1200" height="630" fill="url(#vig)"/><text x="44" y="590" font-family="ui-monospace,Menlo,Consolas,monospace" font-size="24" letter-spacing="3" fill="#ffffff" fill-opacity="0.62">WEBSITE REDESIGN · WATFORD</text></svg>