<svg xmlns="http://www.w3.org/2000/svg" viewBox="0 0 1200 630" width="1200" height="630" role="img" aria-label="TRADES WEBSITES · LUTON"><defs><linearGradient id="g39e0b7" x1="1" y1="0" x2="0" y2="1"><stop offset="0" stop-color="#E5892B"/><stop offset="1" stop-color="#7d430a"/></linearGradient><filter id="blur"><feGaussianBlur stdDeviation="55"/></filter><radialGradient id="vig" cx="0.5" cy="0.4" r="0.75"><stop offset="0.6" stop-color="#000000" stop-opacity="0"/><stop offset="1" stop-color="#000000" stop-opacity="0.32"/></radialGradient></defs><rect width="1200" height="630" fill="url(#g39e0b7)"/><rect x="-300" y="-200" width="71" height="1030" fill="#E5892B" opacity="0.28" transform="rotate(30 600 315)"/><rect x="-160" y="-200" width="114" height="1030" fill="#B4610F" opacity="0.24" transform="rotate(30 600 315)"/><rect x="-9" y="-200" width="82" height="1030" fill="#E5892B" opacity="0.15" transform="rotate(30 600 315)"/><rect x="106" y="-200" width="127" height="1030" fill="#E5892B" opacity="0.3" transform="rotate(30 600 315)"/><rect x="285" y="-200" width="111" height="1030" fill="#ffffff" opacity="0.27" transform="rotate(30 600 315)"/><rect x="432" y="-200" width="112" height="1030" fill="#B4610F" opacity="0.31" transform="rotate(30 600 315)"/><rect x="574" y="-200" width="75" height="1030" fill="#E5892B" opacity="0.23" transform="rotate(30 600 315)"/><rect x="708" y="-200" width="113" height="1030" fill="#E5892B" opacity="0.28" transform="rotate(30 600 315)"/><rect x="908" y="-200" width="107" height="1030" fill="#E5892B" opacity="0.21" transform="rotate(30 600 315)"/><rect x="1061" y="-200" width="126" height="1030" fill="#B4610F" opacity="0.15" transform="rotate(30 600 315)"/><rect x="1238" y="-200" width="129" height="1030" fill="#E5892B" opacity="0.23" transform="rotate(30 600 315)"/><rect x="1417" y="-200" width="81" height="1030" fill="#E5892B" opacity="0.19" transform="rotate(30 600 315)"/><rect width="1200" height="630" fill="url(#vig)"/><text x="44" y="590" font-family="ui-monospace,Menlo,Consolas,monospace" font-size="24" letter-spacing="3" fill="#ffffff" fill-opacity="0.62">TRADES WEBSITES · LUTON</text></svg>