<svg xmlns="http://www.w3.org/2000/svg" viewBox="0 0 1200 630" width="1200" height="630" role="img" aria-label="INDUSTRY GUIDE"><defs><linearGradient id="gff9f50" x1="0" y1="0" x2="1" y2="1"><stop offset="0" stop-color="#2FA8C4"/><stop offset="1" stop-color="#155869"/></linearGradient><filter id="blur"><feGaussianBlur stdDeviation="55"/></filter><radialGradient id="vig" cx="0.5" cy="0.4" r="0.75"><stop offset="0.6" stop-color="#000000" stop-opacity="0"/><stop offset="1" stop-color="#000000" stop-opacity="0.32"/></radialGradient></defs><rect width="1200" height="630" fill="url(#gff9f50)"/><rect x="-300" y="-200" width="104" height="1030" fill="#7A5AF0" opacity="0.3" transform="rotate(-20 600 315)"/><rect x="-153" y="-200" width="71" height="1030" fill="#1E7E96" opacity="0.3" transform="rotate(-20 600 315)"/><rect x="-26" y="-200" width="83" height="1030" fill="#1E7E96" opacity="0.3" transform="rotate(-20 600 315)"/><rect x="115" y="-200" width="63" height="1030" fill="#2FA8C4" opacity="0.16" transform="rotate(-20 600 315)"/><rect x="232" y="-200" width="102" height="1030" fill="#ffffff" opacity="0.15" transform="rotate(-20 600 315)"/><rect x="379" y="-200" width="123" height="1030" fill="#2FA8C4" opacity="0.34" transform="rotate(-20 600 315)"/><rect x="536" y="-200" width="102" height="1030" fill="#ffffff" opacity="0.14" transform="rotate(-20 600 315)"/><rect x="668" y="-200" width="78" height="1030" fill="#7A5AF0" opacity="0.16" transform="rotate(-20 600 315)"/><rect x="829" y="-200" width="59" height="1030" fill="#2FA8C4" opacity="0.25" transform="rotate(-20 600 315)"/><rect x="952" y="-200" width="127" height="1030" fill="#2FA8C4" opacity="0.34" transform="rotate(-20 600 315)"/><rect x="1134" y="-200" width="105" height="1030" fill="#7A5AF0" opacity="0.27" transform="rotate(-20 600 315)"/><rect x="1285" y="-200" width="68" height="1030" fill="#2FA8C4" opacity="0.23" transform="rotate(-20 600 315)"/><rect x="1395" y="-200" width="83" height="1030" fill="#1E7E96" opacity="0.17" transform="rotate(-20 600 315)"/><rect width="1200" height="630" fill="url(#vig)"/><text x="44" y="590" font-family="ui-monospace,Menlo,Consolas,monospace" font-size="24" letter-spacing="3" fill="#ffffff" fill-opacity="0.62">INDUSTRY GUIDE</text></svg>