<svg xmlns="http://www.w3.org/2000/svg" viewBox="0 0 1200 630" width="1200" height="630" role="img" aria-label="TRADES WEBSITES · CROYDON"><defs><linearGradient id="g44e85a" x1="0" y1="0" x2="0" y2="1"><stop offset="0" stop-color="#E5892B"/><stop offset="1" stop-color="#7d430a"/></linearGradient><filter id="blur"><feGaussianBlur stdDeviation="55"/></filter><radialGradient id="vig" cx="0.5" cy="0.4" r="0.75"><stop offset="0.6" stop-color="#000000" stop-opacity="0"/><stop offset="1" stop-color="#000000" stop-opacity="0.32"/></radialGradient></defs><rect width="1200" height="630" fill="url(#g44e85a)"/><rect x="-300" y="-200" width="70" height="1030" fill="#ffffff" opacity="0.17" transform="rotate(20 600 315)"/><rect x="-173" y="-200" width="104" height="1030" fill="#D6478E" opacity="0.34" transform="rotate(20 600 315)"/><rect x="-28" y="-200" width="104" height="1030" fill="#E5892B" opacity="0.17" transform="rotate(20 600 315)"/><rect x="127" y="-200" width="95" height="1030" fill="#D6478E" opacity="0.18" transform="rotate(20 600 315)"/><rect x="255" y="-200" width="54" height="1030" fill="#ffffff" opacity="0.2" transform="rotate(20 600 315)"/><rect x="346" y="-200" width="83" height="1030" fill="#B4610F" opacity="0.24" transform="rotate(20 600 315)"/><rect x="459" y="-200" width="129" height="1030" fill="#ffffff" opacity="0.34" transform="rotate(20 600 315)"/><rect x="628" y="-200" width="114" height="1030" fill="#D6478E" opacity="0.22" transform="rotate(20 600 315)"/><rect x="823" y="-200" width="94" height="1030" fill="#D6478E" opacity="0.22" transform="rotate(20 600 315)"/><rect x="993" y="-200" width="96" height="1030" fill="#D6478E" opacity="0.25" transform="rotate(20 600 315)"/><rect x="1125" y="-200" width="61" height="1030" fill="#E5892B" opacity="0.28" transform="rotate(20 600 315)"/><rect x="1228" y="-200" width="103" height="1030" fill="#D6478E" opacity="0.24" transform="rotate(20 600 315)"/><rect x="1420" y="-200" width="62" height="1030" fill="#E5892B" opacity="0.17" transform="rotate(20 600 315)"/><rect width="1200" height="630" fill="url(#vig)"/><text x="44" y="590" font-family="ui-monospace,Menlo,Consolas,monospace" font-size="24" letter-spacing="3" fill="#ffffff" fill-opacity="0.62">TRADES WEBSITES · CROYDON</text></svg>