<svg xmlns="http://www.w3.org/2000/svg" viewBox="0 0 1200 630" width="1200" height="630" role="img" aria-label="TRADES WEBSITES · EALING"><defs><linearGradient id="g9f9ce8" x1="0" y1="0" x2="0" y2="1"><stop offset="0" stop-color="#E5892B"/><stop offset="1" stop-color="#7d430a"/></linearGradient><filter id="blur"><feGaussianBlur stdDeviation="55"/></filter><radialGradient id="vig" cx="0.5" cy="0.4" r="0.75"><stop offset="0.6" stop-color="#000000" stop-opacity="0"/><stop offset="1" stop-color="#000000" stop-opacity="0.32"/></radialGradient></defs><rect width="1200" height="630" fill="url(#g9f9ce8)"/><path d="M -50 432 Q 10 358 70 432 Q 130 506 190 432 Q 250 358 310 432 Q 370 506 430 432 Q 490 358 550 432 Q 610 506 670 432 Q 730 358 790 432 Q 850 506 910 432 Q 970 358 1030 432 Q 1090 506 1150 432 Q 1210 358 1270 432 L 1250 680 L -50 680 Z" fill="#B4610F" opacity="0.22"/><path d="M -50 400 Q 10 359 70 400 Q 130 441 190 400 Q 250 359 310 400 Q 370 441 430 400 Q 490 359 550 400 Q 610 441 670 400 Q 730 359 790 400 Q 850 441 910 400 Q 970 359 1030 400 Q 1090 441 1150 400 Q 1210 359 1270 400 L 1250 680 L -50 680 Z" fill="#E5892B" opacity="0.22"/><path d="M -50 469 Q 10 437 70 469 Q 130 501 190 469 Q 250 437 310 469 Q 370 501 430 469 Q 490 437 550 469 Q 610 501 670 469 Q 730 437 790 469 Q 850 501 910 469 Q 970 437 1030 469 Q 1090 501 1150 469 Q 1210 437 1270 469 L 1250 680 L -50 680 Z" fill="#ffffff" opacity="0.22"/><path d="M -50 492 Q 10 436 70 492 Q 130 548 190 492 Q 250 436 310 492 Q 370 548 430 492 Q 490 436 550 492 Q 610 548 670 492 Q 730 436 790 492 Q 850 548 910 492 Q 970 436 1030 492 Q 1090 548 1150 492 Q 1210 436 1270 492 L 1250 680 L -50 680 Z" fill="#ffffff" opacity="0.22"/><path d="M -50 139 Q 10 101 70 139 Q 130 177 190 139 Q 250 101 310 139 Q 370 177 430 139 Q 490 101 550 139 Q 610 177 670 139 Q 730 101 790 139 Q 850 177 910 139 Q 970 101 1030 139 Q 1090 177 1150 139 Q 1210 101 1270 139 L 1250 680 L -50 680 Z" fill="#E5892B" opacity="0.22"/><path d="M -50 391 Q 10 311 70 391 Q 130 471 190 391 Q 250 311 310 391 Q 370 471 430 391 Q 490 311 550 391 Q 610 471 670 391 Q 730 311 790 391 Q 850 471 910 391 Q 970 311 1030 391 Q 1090 471 1150 391 Q 1210 311 1270 391 L 1250 680 L -50 680 Z" fill="#E5892B" opacity="0.22"/><rect width="1200" height="630" fill="url(#vig)"/><text x="44" y="590" font-family="ui-monospace,Menlo,Consolas,monospace" font-size="24" letter-spacing="3" fill="#ffffff" fill-opacity="0.62">TRADES WEBSITES · EALING</text></svg>