<svg xmlns="http://www.w3.org/2000/svg" viewBox="0 0 1200 630" width="1200" height="630" role="img" aria-label="HOW-TO GUIDE"><defs><linearGradient id="g62de56" x1="0" y1="0" x2="0" y2="1"><stop offset="0" stop-color="#B7472A"/><stop offset="1" stop-color="#642516"/></linearGradient><filter id="blur"><feGaussianBlur stdDeviation="55"/></filter><radialGradient id="vig" cx="0.5" cy="0.4" r="0.75"><stop offset="0.6" stop-color="#000000" stop-opacity="0"/><stop offset="1" stop-color="#000000" stop-opacity="0.32"/></radialGradient></defs><rect width="1200" height="630" fill="url(#g62de56)"/><path d="M -50 336 Q 10 293 70 336 Q 130 379 190 336 Q 250 293 310 336 Q 370 379 430 336 Q 490 293 550 336 Q 610 379 670 336 Q 730 293 790 336 Q 850 379 910 336 Q 970 293 1030 336 Q 1090 379 1150 336 Q 1210 293 1270 336 L 1250 680 L -50 680 Z" fill="#B7472A" opacity="0.22"/><path d="M -50 216 Q 10 170 70 216 Q 130 262 190 216 Q 250 170 310 216 Q 370 262 430 216 Q 490 170 550 216 Q 610 262 670 216 Q 730 170 790 216 Q 850 262 910 216 Q 970 170 1030 216 Q 1090 262 1150 216 Q 1210 170 1270 216 L 1250 680 L -50 680 Z" fill="#8f3520" opacity="0.22"/><path d="M -50 182 Q 10 108 70 182 Q 130 256 190 182 Q 250 108 310 182 Q 370 256 430 182 Q 490 108 550 182 Q 610 256 670 182 Q 730 108 790 182 Q 850 256 910 182 Q 970 108 1030 182 Q 1090 256 1150 182 Q 1210 108 1270 182 L 1250 680 L -50 680 Z" fill="#B7472A" opacity="0.22"/><path d="M -50 351 Q 10 291 70 351 Q 130 411 190 351 Q 250 291 310 351 Q 370 411 430 351 Q 490 291 550 351 Q 610 411 670 351 Q 730 291 790 351 Q 850 411 910 351 Q 970 291 1030 351 Q 1090 411 1150 351 Q 1210 291 1270 351 L 1250 680 L -50 680 Z" fill="#ffffff" opacity="0.22"/><path d="M -50 211 Q 10 166 70 211 Q 130 256 190 211 Q 250 166 310 211 Q 370 256 430 211 Q 490 166 550 211 Q 610 256 670 211 Q 730 166 790 211 Q 850 256 910 211 Q 970 166 1030 211 Q 1090 256 1150 211 Q 1210 166 1270 211 L 1250 680 L -50 680 Z" fill="#B7472A" opacity="0.22"/><path d="M -50 515 Q 10 478 70 515 Q 130 552 190 515 Q 250 478 310 515 Q 370 552 430 515 Q 490 478 550 515 Q 610 552 670 515 Q 730 478 790 515 Q 850 552 910 515 Q 970 478 1030 515 Q 1090 552 1150 515 Q 1210 478 1270 515 L 1250 680 L -50 680 Z" fill="#D6478E" opacity="0.22"/><rect width="1200" height="630" fill="url(#vig)"/><text x="44" y="590" font-family="ui-monospace,Menlo,Consolas,monospace" font-size="24" letter-spacing="3" fill="#ffffff" fill-opacity="0.62">HOW-TO GUIDE</text></svg>