<svg xmlns="http://www.w3.org/2000/svg" viewBox="0 0 1200 630" width="1200" height="630" role="img" aria-label="WEBSITE REDESIGN · SLOUGH"><defs><linearGradient id="g7565e2" x1="0" y1="0" x2="1" y2="1"><stop offset="0" stop-color="#4B5563"/><stop offset="1" stop-color="#151c26"/></linearGradient><filter id="blur"><feGaussianBlur stdDeviation="55"/></filter><radialGradient id="vig" cx="0.5" cy="0.4" r="0.75"><stop offset="0.6" stop-color="#000000" stop-opacity="0"/><stop offset="1" stop-color="#000000" stop-opacity="0.32"/></radialGradient></defs><rect width="1200" height="630" fill="url(#g7565e2)"/><path d="M -50 193 Q 10 157 70 193 Q 130 229 190 193 Q 250 157 310 193 Q 370 229 430 193 Q 490 157 550 193 Q 610 229 670 193 Q 730 157 790 193 Q 850 229 910 193 Q 970 157 1030 193 Q 1090 229 1150 193 Q 1210 157 1270 193 L 1250 680 L -50 680 Z" fill="#1f2937" opacity="0.22"/><path d="M -50 279 Q 10 239 70 279 Q 130 319 190 279 Q 250 239 310 279 Q 370 319 430 279 Q 490 239 550 279 Q 610 319 670 279 Q 730 239 790 279 Q 850 319 910 279 Q 970 239 1030 279 Q 1090 319 1150 279 Q 1210 239 1270 279 L 1250 680 L -50 680 Z" fill="#4B5563" opacity="0.22"/><path d="M -50 277 Q 10 223 70 277 Q 130 331 190 277 Q 250 223 310 277 Q 370 331 430 277 Q 490 223 550 277 Q 610 331 670 277 Q 730 223 790 277 Q 850 331 910 277 Q 970 223 1030 277 Q 1090 331 1150 277 Q 1210 223 1270 277 L 1250 680 L -50 680 Z" fill="#4B5563" opacity="0.22"/><path d="M -50 380 Q 10 345 70 380 Q 130 415 190 380 Q 250 345 310 380 Q 370 415 430 380 Q 490 345 550 380 Q 610 415 670 380 Q 730 345 790 380 Q 850 415 910 380 Q 970 345 1030 380 Q 1090 415 1150 380 Q 1210 345 1270 380 L 1250 680 L -50 680 Z" fill="#1f2937" opacity="0.22"/><rect width="1200" height="630" fill="url(#vig)"/><text x="44" y="590" font-family="ui-monospace,Menlo,Consolas,monospace" font-size="24" letter-spacing="3" fill="#ffffff" fill-opacity="0.62">WEBSITE REDESIGN · SLOUGH</text></svg>