<svg xmlns="http://www.w3.org/2000/svg" viewBox="0 0 1200 630" width="1200" height="630" role="img" aria-label="PROFESSIONAL WEBSITES · GUILDFORD"><defs><linearGradient id="g1e18a5" x1="0" y1="0" x2="1" y2="1"><stop offset="0" stop-color="#2E7D5B"/><stop offset="1" stop-color="#133b2c"/></linearGradient><filter id="blur"><feGaussianBlur stdDeviation="55"/></filter><radialGradient id="vig" cx="0.5" cy="0.4" r="0.75"><stop offset="0.6" stop-color="#000000" stop-opacity="0"/><stop offset="1" stop-color="#000000" stop-opacity="0.32"/></radialGradient></defs><rect width="1200" height="630" fill="url(#g1e18a5)"/><circle cx="30" cy="30" r="4.5" fill="#1c5540" opacity="0.5"/><circle cx="84" cy="30" r="4.8" fill="#1c5540" opacity="0.5"/><circle cx="138" cy="30" r="5.0" fill="#1c5540" opacity="0.5"/><circle cx="192" cy="30" r="5.0" fill="#1c5540" opacity="0.5"/><circle cx="246" cy="30" r="4.9" fill="#1c5540" opacity="0.5"/><circle cx="300" cy="30" r="4.7" fill="#1c5540" opacity="0.5"/><circle cx="354" cy="30" r="4.3" fill="#1c5540" opacity="0.5"/><circle cx="408" cy="30" r="3.8" fill="#1c5540" opacity="0.5"/><circle cx="462" cy="30" r="3.3" fill="#1c5540" opacity="0.5"/><circle cx="516" cy="30" r="2.7" fill="#1c5540" opacity="0.5"/><circle cx="570" cy="30" r="2.0" fill="#1c5540" opacity="0.5"/><circle cx="624" cy="30" r="2.6" fill="#1c5540" opacity="0.5"/><circle cx="678" cy="30" r="3.2" fill="#1c5540" opacity="0.5"/><circle cx="732" cy="30" r="3.8" fill="#1c5540" opacity="0.5"/><circle cx="786" cy="30" r="4.3" fill="#1c5540" opacity="0.5"/><circle cx="840" cy="30" r="4.6" fill="#1c5540" opacity="0.5"/><circle cx="894" cy="30" r="4.9" fill="#1c5540" opacity="0.5"/><circle cx="948" cy="30" r="5.0" fill="#1c5540" opacity="0.5"/><circle cx="1002" cy="30" r="5.0" fill="#1c5540" opacity="0.5"/><circle cx="1056" cy="30" r="4.8" fill="#1c5540" opacity="0.5"/><circle cx="1110" cy="30" r="4.5" fill="#1c5540" opacity="0.5"/><circle cx="1164" cy="30" r="4.1" fill="#1c5540" opacity="0.5"/><circle cx="30" cy="84" r="4.8" fill="#1c5540" opacity="0.5"/><circle cx="84" cy="84" r="5.0" fill="#1c5540" opacity="0.5"/><circle cx="138" cy="84" r="5.0" fill="#1c5540" opacity="0.5"/><circle cx="192" cy="84" r="4.9" fill="#1c5540" opacity="0.5"/><circle cx="246" cy="84" r="4.7" fill="#1c5540" opacity="0.5"/><circle cx="300" cy="84" r="4.3" fill="#1c5540" opacity="0.5"/><circle cx="354" cy="84" r="3.8" fill="#1c5540" opacity="0.5"/><circle cx="408" cy="84" r="3.3" fill="#1c5540" opacity="0.5"/><circle cx="462" cy="84" r="2.7" fill="#1c5540" opacity="0.5"/><circle cx="516" cy="84" r="2.0" fill="#1c5540" opacity="0.5"/><circle cx="570" cy="84" r="2.6" fill="#1c5540" opacity="0.5"/><circle cx="624" cy="84" r="3.2" fill="#1c5540" opacity="0.5"/><circle cx="678" cy="84" r="3.8" fill="#1c5540" opacity="0.5"/><circle cx="732" cy="84" r="4.3" fill="#1c5540" opacity="0.5"/><circle cx="786" cy="84" r="4.6" fill="#1c5540" opacity="0.5"/><circle cx="840" cy="84" r="4.9" fill="#1c5540" opacity="0.5"/><circle cx="894" cy="84" r="5.0" fill="#1c5540" opacity="0.5"/><circle cx="948" cy="84" r="5.0" fill="#1c5540" opacity="0.5"/><circle cx="1002" cy="84" r="4.8" fill="#1c5540" opacity="0.5"/><circle cx="1056" cy="84" r="4.5" fill="#1c5540" opacity="0.5"/><circle cx="1110" cy="84" r="4.1" fill="#1c5540" opacity="0.5"/><circle cx="1164" cy="84" r="3.6" fill="#1c5540" opacity="0.5"/><circle cx="30" cy="138" r="5.0" fill="#1c5540" opacity="0.5"/><circle cx="84" cy="138" r="5.0" fill="#1c5540" opacity="0.5"/><circle cx="138" cy="138" r="4.9" fill="#1c5540" opacity="0.5"/><circle cx="192" cy="138" r="4.7" fill="#1c5540" opacity="0.5"/><circle cx="246" cy="138" r="4.3" fill="#1c5540" opacity="0.5"/><circle cx="300" cy="138" r="3.8" fill="#1c5540" opacity="0.5"/><circle cx="354" cy="138" r="3.3" fill="#1c5540" opacity="0.5"/><circle cx="408" cy="138" r="2.7" fill="#1c5540" opacity="0.5"/><circle cx="462" cy="138" r="2.0" fill="#1c5540" opacity="0.5"/><circle cx="516" cy="138" r="2.6" fill="#1c5540" opacity="0.5"/><circle cx="570" cy="138" r="3.2" fill="#1c5540" opacity="0.5"/><circle cx="624" cy="138" r="3.8" fill="#1c5540" opacity="0.5"/><circle cx="678" cy="138" r="4.3" fill="#1c5540" opacity="0.5"/><circle cx="732" cy="138" r="4.6" fill="#1c5540" opacity="0.5"/><circle cx="786" cy="138" r="4.9" fill="#1c5540" opacity="0.5"/><circle cx="840" cy="138" r="5.0" fill="#1c5540" opacity="0.5"/><circle cx="894" cy="138" r="5.0" fill="#1c5540" opacity="0.5"/><circle cx="948" cy="138" r="4.8" fill="#1c5540" opacity="0.5"/><circle cx="1002" cy="138" r="4.5" fill="#1c5540" opacity="0.5"/><circle cx="1056" cy="138" r="4.1" fill="#1c5540" opacity="0.5"/><circle cx="1110" cy="138" r="3.6" fill="#1c5540" opacity="0.5"/><circle cx="1164" cy="138" r="3.0" fill="#1c5540" opacity="0.5"/><circle cx="30" cy="192" r="5.0" fill="#1c5540" opacity="0.5"/><circle cx="84" cy="192" r="4.9" fill="#1c5540" opacity="0.5"/><circle cx="138" cy="192" r="4.7" fill="#1c5540" opacity="0.5"/><circle cx="192" cy="192" r="4.3" fill="#1c5540" opacity="0.5"/><circle cx="246" cy="192" r="3.8" fill="#1c5540" opacity="0.5"/><circle cx="300" cy="192" r="3.3" fill="#1c5540" opacity="0.5"/><circle cx="354" cy="192" r="2.7" fill="#1c5540" opacity="0.5"/><circle cx="408" cy="192" r="2.0" fill="#1c5540" opacity="0.5"/><circle cx="462" cy="192" r="2.6" fill="#1c5540" opacity="0.5"/><circle cx="516" cy="192" r="3.2" fill="#1c5540" opacity="0.5"/><circle cx="570" cy="192" r="3.8" fill="#1c5540" opacity="0.5"/><circle cx="624" cy="192" r="4.3" fill="#1c5540" opacity="0.5"/><circle cx="678" cy="192" r="4.6" fill="#1c5540" opacity="0.5"/><circle cx="732" cy="192" r="4.9" fill="#1c5540" opacity="0.5"/><circle cx="786" cy="192" r="5.0" fill="#1c5540" opacity="0.5"/><circle cx="840" cy="192" r="5.0" fill="#1c5540" opacity="0.5"/><circle cx="894" cy="192" r="4.8" fill="#1c5540" opacity="0.5"/><circle cx="948" cy="192" r="4.5" fill="#1c5540" opacity="0.5"/><circle cx="1002" cy="192" r="4.1" fill="#1c5540" opacity="0.5"/><circle cx="1056" cy="192" r="3.6" fill="#1c5540" opacity="0.5"/><circle cx="1110" cy="192" r="3.0" fill="#1c5540" opacity="0.5"/><circle cx="1164" cy="192" r="2.4" fill="#1c5540" opacity="0.5"/><circle cx="30" cy="246" r="4.9" fill="#1c5540" opacity="0.5"/><circle cx="84" cy="246" r="4.7" fill="#1c5540" opacity="0.5"/><circle cx="138" cy="246" r="4.3" fill="#1c5540" opacity="0.5"/><circle cx="192" cy="246" r="3.8" fill="#1c5540" opacity="0.5"/><circle cx="246" cy="246" r="3.3" fill="#1c5540" opacity="0.5"/><circle cx="300" cy="246" r="2.7" fill="#1c5540" opacity="0.5"/><circle cx="354" cy="246" r="2.0" fill="#1c5540" opacity="0.5"/><circle cx="408" cy="246" r="2.6" fill="#1c5540" opacity="0.5"/><circle cx="462" cy="246" r="3.2" fill="#1c5540" opacity="0.5"/><circle cx="516" cy="246" r="3.8" fill="#1c5540" opacity="0.5"/><circle cx="570" cy="246" r="4.3" fill="#1c5540" opacity="0.5"/><circle cx="624" cy="246" r="4.6" fill="#1c5540" opacity="0.5"/><circle cx="678" cy="246" r="4.9" fill="#1c5540" opacity="0.5"/><circle cx="732" cy="246" r="5.0" fill="#1c5540" opacity="0.5"/><circle cx="786" cy="246" r="5.0" fill="#1c5540" opacity="0.5"/><circle cx="840" cy="246" r="4.8" fill="#1c5540" opacity="0.5"/><circle cx="894" cy="246" r="4.5" fill="#1c5540" opacity="0.5"/><circle cx="948" cy="246" r="4.1" fill="#1c5540" opacity="0.5"/><circle cx="1002" cy="246" r="3.6" fill="#1c5540" opacity="0.5"/><circle cx="1056" cy="246" r="3.0" fill="#1c5540" opacity="0.5"/><circle cx="1110" cy="246" r="2.4" fill="#1c5540" opacity="0.5"/><circle cx="1164" cy="246" r="2.2" fill="#1c5540" opacity="0.5"/><circle cx="30" cy="300" r="4.7" fill="#1c5540" opacity="0.5"/><circle cx="84" cy="300" r="4.3" fill="#1c5540" opacity="0.5"/><circle cx="138" cy="300" r="3.8" fill="#1c5540" opacity="0.5"/><circle cx="192" cy="300" r="3.3" fill="#1c5540" opacity="0.5"/><circle cx="246" cy="300" r="2.7" fill="#1c5540" opacity="0.5"/><circle cx="300" cy="300" r="2.0" fill="#1c5540" opacity="0.5"/><circle cx="354" cy="300" r="2.6" fill="#1c5540" opacity="0.5"/><circle cx="408" cy="300" r="3.2" fill="#1c5540" opacity="0.5"/><circle cx="462" cy="300" r="3.8" fill="#1c5540" opacity="0.5"/><circle cx="516" cy="300" r="4.3" fill="#1c5540" opacity="0.5"/><circle cx="570" cy="300" r="4.6" fill="#1c5540" opacity="0.5"/><circle cx="624" cy="300" r="4.9" fill="#1c5540" opacity="0.5"/><circle cx="678" cy="300" r="5.0" fill="#1c5540" opacity="0.5"/><circle cx="732" cy="300" r="5.0" fill="#1c5540" opacity="0.5"/><circle cx="786" cy="300" r="4.8" fill="#1c5540" opacity="0.5"/><circle cx="840" cy="300" r="4.5" fill="#1c5540" opacity="0.5"/><circle cx="894" cy="300" r="4.1" fill="#1c5540" opacity="0.5"/><circle cx="948" cy="300" r="3.6" fill="#1c5540" opacity="0.5"/><circle cx="1002" cy="300" r="3.0" fill="#1c5540" opacity="0.5"/><circle cx="1056" cy="300" r="2.4" fill="#1c5540" opacity="0.5"/><circle cx="1110" cy="300" r="2.2" fill="#1c5540" opacity="0.5"/><circle cx="1164" cy="300" r="2.9" fill="#1c5540" opacity="0.5"/><circle cx="30" cy="354" r="4.3" fill="#1c5540" opacity="0.5"/><circle cx="84" cy="354" r="3.8" fill="#1c5540" opacity="0.5"/><circle cx="138" cy="354" r="3.3" fill="#1c5540" opacity="0.5"/><circle cx="192" cy="354" r="2.7" fill="#1c5540" opacity="0.5"/><circle cx="246" cy="354" r="2.0" fill="#1c5540" opacity="0.5"/><circle cx="300" cy="354" r="2.6" fill="#1c5540" opacity="0.5"/><circle cx="354" cy="354" r="3.2" fill="#1c5540" opacity="0.5"/><circle cx="408" cy="354" r="3.8" fill="#1c5540" opacity="0.5"/><circle cx="462" cy="354" r="4.3" fill="#1c5540" opacity="0.5"/><circle cx="516" cy="354" r="4.6" fill="#1c5540" opacity="0.5"/><circle cx="570" cy="354" r="4.9" fill="#1c5540" opacity="0.5"/><circle cx="624" cy="354" r="5.0" fill="#1c5540" opacity="0.5"/><circle cx="678" cy="354" r="5.0" fill="#1c5540" opacity="0.5"/><circle cx="732" cy="354" r="4.8" fill="#1c5540" opacity="0.5"/><circle cx="786" cy="354" r="4.5" fill="#1c5540" opacity="0.5"/><circle cx="840" cy="354" r="4.1" fill="#1c5540" opacity="0.5"/><circle cx="894" cy="354" r="3.6" fill="#1c5540" opacity="0.5"/><circle cx="948" cy="354" r="3.0" fill="#1c5540" opacity="0.5"/><circle cx="1002" cy="354" r="2.4" fill="#1c5540" opacity="0.5"/><circle cx="1056" cy="354" r="2.2" fill="#1c5540" opacity="0.5"/><circle cx="1110" cy="354" r="2.9" fill="#1c5540" opacity="0.5"/><circle cx="1164" cy="354" r="3.5" fill="#1c5540" opacity="0.5"/><circle cx="30" cy="408" r="3.8" fill="#1c5540" opacity="0.5"/><circle cx="84" cy="408" r="3.3" fill="#1c5540" opacity="0.5"/><circle cx="138" cy="408" r="2.7" fill="#1c5540" opacity="0.5"/><circle cx="192" cy="408" r="2.0" fill="#1c5540" opacity="0.5"/><circle cx="246" cy="408" r="2.6" fill="#1c5540" opacity="0.5"/><circle cx="300" cy="408" r="3.2" fill="#1c5540" opacity="0.5"/><circle cx="354" cy="408" r="3.8" fill="#1c5540" opacity="0.5"/><circle cx="408" cy="408" r="4.3" fill="#1c5540" opacity="0.5"/><circle cx="462" cy="408" r="4.6" fill="#1c5540" opacity="0.5"/><circle cx="516" cy="408" r="4.9" fill="#1c5540" opacity="0.5"/><circle cx="570" cy="408" r="5.0" fill="#1c5540" opacity="0.5"/><circle cx="624" cy="408" r="5.0" fill="#1c5540" opacity="0.5"/><circle cx="678" cy="408" r="4.8" fill="#1c5540" opacity="0.5"/><circle cx="732" cy="408" r="4.5" fill="#1c5540" opacity="0.5"/><circle cx="786" cy="408" r="4.1" fill="#1c5540" opacity="0.5"/><circle cx="840" cy="408" r="3.6" fill="#1c5540" opacity="0.5"/><circle cx="894" cy="408" r="3.0" fill="#1c5540" opacity="0.5"/><circle cx="948" cy="408" r="2.4" fill="#1c5540" opacity="0.5"/><circle cx="1002" cy="408" r="2.2" fill="#1c5540" opacity="0.5"/><circle cx="1056" cy="408" r="2.9" fill="#1c5540" opacity="0.5"/><circle cx="1110" cy="408" r="3.5" fill="#1c5540" opacity="0.5"/><circle cx="1164" cy="408" r="4.0" fill="#1c5540" opacity="0.5"/><circle cx="30" cy="462" r="3.3" fill="#1c5540" opacity="0.5"/><circle cx="84" cy="462" r="2.7" fill="#1c5540" opacity="0.5"/><circle cx="138" cy="462" r="2.0" fill="#1c5540" opacity="0.5"/><circle cx="192" cy="462" r="2.6" fill="#1c5540" opacity="0.5"/><circle cx="246" cy="462" r="3.2" fill="#1c5540" opacity="0.5"/><circle cx="300" cy="462" r="3.8" fill="#1c5540" opacity="0.5"/><circle cx="354" cy="462" r="4.3" fill="#1c5540" opacity="0.5"/><circle cx="408" cy="462" r="4.6" fill="#1c5540" opacity="0.5"/><circle cx="462" cy="462" r="4.9" fill="#1c5540" opacity="0.5"/><circle cx="516" cy="462" r="5.0" fill="#1c5540" opacity="0.5"/><circle cx="570" cy="462" r="5.0" fill="#1c5540" opacity="0.5"/><circle cx="624" cy="462" r="4.8" fill="#1c5540" opacity="0.5"/><circle cx="678" cy="462" r="4.5" fill="#1c5540" opacity="0.5"/><circle cx="732" cy="462" r="4.1" fill="#1c5540" opacity="0.5"/><circle cx="786" cy="462" r="3.6" fill="#1c5540" opacity="0.5"/><circle cx="840" cy="462" r="3.0" fill="#1c5540" opacity="0.5"/><circle cx="894" cy="462" r="2.4" fill="#1c5540" opacity="0.5"/><circle cx="948" cy="462" r="2.2" fill="#1c5540" opacity="0.5"/><circle cx="1002" cy="462" r="2.9" fill="#1c5540" opacity="0.5"/><circle cx="1056" cy="462" r="3.5" fill="#1c5540" opacity="0.5"/><circle cx="1110" cy="462" r="4.0" fill="#1c5540" opacity="0.5"/><circle cx="1164" cy="462" r="4.4" fill="#1c5540" opacity="0.5"/><circle cx="30" cy="516" r="2.7" fill="#1c5540" opacity="0.5"/><circle cx="84" cy="516" r="2.0" fill="#1c5540" opacity="0.5"/><circle cx="138" cy="516" r="2.6" fill="#1c5540" opacity="0.5"/><circle cx="192" cy="516" r="3.2" fill="#1c5540" opacity="0.5"/><circle cx="246" cy="516" r="3.8" fill="#1c5540" opacity="0.5"/><circle cx="300" cy="516" r="4.3" fill="#1c5540" opacity="0.5"/><circle cx="354" cy="516" r="4.6" fill="#1c5540" opacity="0.5"/><circle cx="408" cy="516" r="4.9" fill="#1c5540" opacity="0.5"/><circle cx="462" cy="516" r="5.0" fill="#1c5540" opacity="0.5"/><circle cx="516" cy="516" r="5.0" fill="#1c5540" opacity="0.5"/><circle cx="570" cy="516" r="4.8" fill="#1c5540" opacity="0.5"/><circle cx="624" cy="516" r="4.5" fill="#1c5540" opacity="0.5"/><circle cx="678" cy="516" r="4.1" fill="#1c5540" opacity="0.5"/><circle cx="732" cy="516" r="3.6" fill="#1c5540" opacity="0.5"/><circle cx="786" cy="516" r="3.0" fill="#1c5540" opacity="0.5"/><circle cx="840" cy="516" r="2.4" fill="#1c5540" opacity="0.5"/><circle cx="894" cy="516" r="2.2" fill="#1c5540" opacity="0.5"/><circle cx="948" cy="516" r="2.9" fill="#1c5540" opacity="0.5"/><circle cx="1002" cy="516" r="3.5" fill="#1c5540" opacity="0.5"/><circle cx="1056" cy="516" r="4.0" fill="#1c5540" opacity="0.5"/><circle cx="1110" cy="516" r="4.4" fill="#1c5540" opacity="0.5"/><circle cx="1164" cy="516" r="4.8" fill="#1c5540" opacity="0.5"/><circle cx="30" cy="570" r="2.0" fill="#1c5540" opacity="0.5"/><circle cx="84" cy="570" r="2.6" fill="#1c5540" opacity="0.5"/><circle cx="138" cy="570" r="3.2" fill="#1c5540" opacity="0.5"/><circle cx="192" cy="570" r="3.8" fill="#1c5540" opacity="0.5"/><circle cx="246" cy="570" r="4.3" fill="#1c5540" opacity="0.5"/><circle cx="300" cy="570" r="4.6" fill="#1c5540" opacity="0.5"/><circle cx="354" cy="570" r="4.9" fill="#1c5540" opacity="0.5"/><circle cx="408" cy="570" r="5.0" fill="#1c5540" opacity="0.5"/><circle cx="462" cy="570" r="5.0" fill="#1c5540" opacity="0.5"/><circle cx="516" cy="570" r="4.8" fill="#1c5540" opacity="0.5"/><circle cx="570" cy="570" r="4.5" fill="#1c5540" opacity="0.5"/><circle cx="624" cy="570" r="4.1" fill="#1c5540" opacity="0.5"/><circle cx="678" cy="570" r="3.6" fill="#1c5540" opacity="0.5"/><circle cx="732" cy="570" r="3.0" fill="#1c5540" opacity="0.5"/><circle cx="786" cy="570" r="2.4" fill="#1c5540" opacity="0.5"/><circle cx="840" cy="570" r="2.2" fill="#1c5540" opacity="0.5"/><circle cx="894" cy="570" r="2.9" fill="#1c5540" opacity="0.5"/><circle cx="948" cy="570" r="3.5" fill="#1c5540" opacity="0.5"/><circle cx="1002" cy="570" r="4.0" fill="#1c5540" opacity="0.5"/><circle cx="1056" cy="570" r="4.4" fill="#1c5540" opacity="0.5"/><circle cx="1110" cy="570" r="4.8" fill="#1c5540" opacity="0.5"/><circle cx="1164" cy="570" r="4.9" fill="#1c5540" opacity="0.5"/><circle cx="30" cy="624" r="2.6" fill="#1c5540" opacity="0.5"/><circle cx="84" cy="624" r="3.2" fill="#1c5540" opacity="0.5"/><circle cx="138" cy="624" r="3.8" fill="#1c5540" opacity="0.5"/><circle cx="192" cy="624" r="4.3" fill="#1c5540" opacity="0.5"/><circle cx="246" cy="624" r="4.6" fill="#1c5540" opacity="0.5"/><circle cx="300" cy="624" r="4.9" fill="#1c5540" opacity="0.5"/><circle cx="354" cy="624" r="5.0" fill="#1c5540" opacity="0.5"/><circle cx="408" cy="624" r="5.0" fill="#1c5540" opacity="0.5"/><circle cx="462" cy="624" r="4.8" fill="#1c5540" opacity="0.5"/><circle cx="516" cy="624" r="4.5" fill="#1c5540" opacity="0.5"/><circle cx="570" cy="624" r="4.1" fill="#1c5540" opacity="0.5"/><circle cx="624" cy="624" r="3.6" fill="#1c5540" opacity="0.5"/><circle cx="678" cy="624" r="3.0" fill="#1c5540" opacity="0.5"/><circle cx="732" cy="624" r="2.4" fill="#1c5540" opacity="0.5"/><circle cx="786" cy="624" r="2.2" fill="#1c5540" opacity="0.5"/><circle cx="840" cy="624" r="2.9" fill="#1c5540" opacity="0.5"/><circle cx="894" cy="624" r="3.5" fill="#1c5540" opacity="0.5"/><circle cx="948" cy="624" r="4.0" fill="#1c5540" opacity="0.5"/><circle cx="1002" cy="624" r="4.4" fill="#1c5540" opacity="0.5"/><circle cx="1056" cy="624" r="4.8" fill="#1c5540" opacity="0.5"/><circle cx="1110" cy="624" r="4.9" fill="#1c5540" opacity="0.5"/><circle cx="1164" cy="624" r="5.0" fill="#1c5540" opacity="0.5"/><rect width="1200" height="630" fill="url(#vig)"/><text x="44" y="590" font-family="ui-monospace,Menlo,Consolas,monospace" font-size="24" letter-spacing="3" fill="#ffffff" fill-opacity="0.62">PROFESSIONAL WEBSITES · GUILDFORD</text></svg>