<svg xmlns="http://www.w3.org/2000/svg" viewBox="0 0 1200 630" width="1200" height="630" role="img" aria-label="WEBSITE REDESIGN · CHELMSFORD"><defs><linearGradient id="g476cab" x1="0" y1="0" x2="1" y2="0"><stop offset="0" stop-color="#B7472A"/><stop offset="1" stop-color="#642516"/></linearGradient><filter id="blur"><feGaussianBlur stdDeviation="55"/></filter><radialGradient id="vig" cx="0.5" cy="0.4" r="0.75"><stop offset="0.6" stop-color="#000000" stop-opacity="0"/><stop offset="1" stop-color="#000000" stop-opacity="0.32"/></radialGradient></defs><rect width="1200" height="630" fill="url(#g476cab)"/><path d="M -50 444 Q 10 373 70 444 Q 130 515 190 444 Q 250 373 310 444 Q 370 515 430 444 Q 490 373 550 444 Q 610 515 670 444 Q 730 373 790 444 Q 850 515 910 444 Q 970 373 1030 444 Q 1090 515 1150 444 Q 1210 373 1270 444 L 1250 680 L -50 680 Z" fill="#B7472A" opacity="0.22"/><path d="M -50 409 Q 10 342 70 409 Q 130 476 190 409 Q 250 342 310 409 Q 370 476 430 409 Q 490 342 550 409 Q 610 476 670 409 Q 730 342 790 409 Q 850 476 910 409 Q 970 342 1030 409 Q 1090 476 1150 409 Q 1210 342 1270 409 L 1250 680 L -50 680 Z" fill="#B7472A" opacity="0.22"/><path d="M -50 142 Q 10 81 70 142 Q 130 203 190 142 Q 250 81 310 142 Q 370 203 430 142 Q 490 81 550 142 Q 610 203 670 142 Q 730 81 790 142 Q 850 203 910 142 Q 970 81 1030 142 Q 1090 203 1150 142 Q 1210 81 1270 142 L 1250 680 L -50 680 Z" fill="#B7472A" opacity="0.22"/><path d="M -50 237 Q 10 171 70 237 Q 130 303 190 237 Q 250 171 310 237 Q 370 303 430 237 Q 490 171 550 237 Q 610 303 670 237 Q 730 171 790 237 Q 850 303 910 237 Q 970 171 1030 237 Q 1090 303 1150 237 Q 1210 171 1270 237 L 1250 680 L -50 680 Z" fill="#C64B3B" opacity="0.22"/><path d="M -50 434 Q 10 356 70 434 Q 130 512 190 434 Q 250 356 310 434 Q 370 512 430 434 Q 490 356 550 434 Q 610 512 670 434 Q 730 356 790 434 Q 850 512 910 434 Q 970 356 1030 434 Q 1090 512 1150 434 Q 1210 356 1270 434 L 1250 680 L -50 680 Z" fill="#C64B3B" opacity="0.22"/><path d="M -50 193 Q 10 144 70 193 Q 130 242 190 193 Q 250 144 310 193 Q 370 242 430 193 Q 490 144 550 193 Q 610 242 670 193 Q 730 144 790 193 Q 850 242 910 193 Q 970 144 1030 193 Q 1090 242 1150 193 Q 1210 144 1270 193 L 1250 680 L -50 680 Z" fill="#C64B3B" opacity="0.22"/><rect width="1200" height="630" fill="url(#vig)"/><text x="44" y="590" font-family="ui-monospace,Menlo,Consolas,monospace" font-size="24" letter-spacing="3" fill="#ffffff" fill-opacity="0.62">WEBSITE REDESIGN · CHELMSFORD</text></svg>