<svg xmlns="http://www.w3.org/2000/svg" viewBox="0 0 1200 630" width="1200" height="630" role="img" aria-label="2026 TRENDS"><defs><linearGradient id="g32cdd6" x1="0" y1="0" x2="1" y2="0"><stop offset="0" stop-color="#B7472A"/><stop offset="1" stop-color="#642516"/></linearGradient><filter id="blur"><feGaussianBlur stdDeviation="55"/></filter><radialGradient id="vig" cx="0.5" cy="0.4" r="0.75"><stop offset="0.6" stop-color="#000000" stop-opacity="0"/><stop offset="1" stop-color="#000000" stop-opacity="0.32"/></radialGradient></defs><rect width="1200" height="630" fill="url(#g32cdd6)"/><circle cx="30" cy="30" r="4.3" fill="#7A5AF0" opacity="0.5"/><circle cx="88" cy="30" r="4.7" fill="#7A5AF0" opacity="0.5"/><circle cx="146" cy="30" r="4.9" fill="#7A5AF0" opacity="0.5"/><circle cx="204" cy="30" r="5.0" fill="#7A5AF0" opacity="0.5"/><circle cx="262" cy="30" r="4.9" fill="#7A5AF0" opacity="0.5"/><circle cx="320" cy="30" r="4.7" fill="#7A5AF0" opacity="0.5"/><circle cx="378" cy="30" r="4.3" fill="#7A5AF0" opacity="0.5"/><circle cx="436" cy="30" r="3.8" fill="#7A5AF0" opacity="0.5"/><circle cx="494" cy="30" r="3.2" fill="#7A5AF0" opacity="0.5"/><circle cx="552" cy="30" r="2.5" fill="#7A5AF0" opacity="0.5"/><circle cx="610" cy="30" r="2.2" fill="#7A5AF0" opacity="0.5"/><circle cx="668" cy="30" r="2.9" fill="#7A5AF0" opacity="0.5"/><circle cx="726" cy="30" r="3.5" fill="#7A5AF0" opacity="0.5"/><circle cx="784" cy="30" r="4.1" fill="#7A5AF0" opacity="0.5"/><circle cx="842" cy="30" r="4.5" fill="#7A5AF0" opacity="0.5"/><circle cx="900" cy="30" r="4.8" fill="#7A5AF0" opacity="0.5"/><circle cx="958" cy="30" r="5.0" fill="#7A5AF0" opacity="0.5"/><circle cx="1016" cy="30" r="5.0" fill="#7A5AF0" opacity="0.5"/><circle cx="1074" cy="30" r="4.8" fill="#7A5AF0" opacity="0.5"/><circle cx="1132" cy="30" r="4.5" fill="#7A5AF0" opacity="0.5"/><circle cx="1190" cy="30" r="4.1" fill="#7A5AF0" opacity="0.5"/><circle cx="30" cy="88" r="4.7" fill="#7A5AF0" opacity="0.5"/><circle cx="88" cy="88" r="4.9" fill="#7A5AF0" opacity="0.5"/><circle cx="146" cy="88" r="5.0" fill="#7A5AF0" opacity="0.5"/><circle cx="204" cy="88" r="4.9" fill="#7A5AF0" opacity="0.5"/><circle cx="262" cy="88" r="4.7" fill="#7A5AF0" opacity="0.5"/><circle cx="320" cy="88" r="4.3" fill="#7A5AF0" opacity="0.5"/><circle cx="378" cy="88" r="3.8" fill="#7A5AF0" opacity="0.5"/><circle cx="436" cy="88" r="3.2" fill="#7A5AF0" opacity="0.5"/><circle cx="494" cy="88" r="2.5" fill="#7A5AF0" opacity="0.5"/><circle cx="552" cy="88" r="2.2" fill="#7A5AF0" opacity="0.5"/><circle cx="610" cy="88" r="2.9" fill="#7A5AF0" opacity="0.5"/><circle cx="668" cy="88" r="3.5" fill="#7A5AF0" opacity="0.5"/><circle cx="726" cy="88" r="4.1" fill="#7A5AF0" opacity="0.5"/><circle cx="784" cy="88" r="4.5" fill="#7A5AF0" opacity="0.5"/><circle cx="842" cy="88" r="4.8" fill="#7A5AF0" opacity="0.5"/><circle cx="900" cy="88" r="5.0" fill="#7A5AF0" opacity="0.5"/><circle cx="958" cy="88" r="5.0" fill="#7A5AF0" opacity="0.5"/><circle cx="1016" cy="88" r="4.8" fill="#7A5AF0" opacity="0.5"/><circle cx="1074" cy="88" r="4.5" fill="#7A5AF0" opacity="0.5"/><circle cx="1132" cy="88" r="4.1" fill="#7A5AF0" opacity="0.5"/><circle cx="1190" cy="88" r="3.5" fill="#7A5AF0" opacity="0.5"/><circle cx="30" cy="146" r="4.9" fill="#7A5AF0" opacity="0.5"/><circle cx="88" cy="146" r="5.0" fill="#7A5AF0" opacity="0.5"/><circle cx="146" cy="146" r="4.9" fill="#7A5AF0" opacity="0.5"/><circle cx="204" cy="146" r="4.7" fill="#7A5AF0" opacity="0.5"/><circle cx="262" cy="146" r="4.3" fill="#7A5AF0" opacity="0.5"/><circle cx="320" cy="146" r="3.8" fill="#7A5AF0" opacity="0.5"/><circle cx="378" cy="146" r="3.2" fill="#7A5AF0" opacity="0.5"/><circle cx="436" cy="146" r="2.5" fill="#7A5AF0" opacity="0.5"/><circle cx="494" cy="146" r="2.2" fill="#7A5AF0" opacity="0.5"/><circle cx="552" cy="146" r="2.9" fill="#7A5AF0" opacity="0.5"/><circle cx="610" cy="146" r="3.5" fill="#7A5AF0" opacity="0.5"/><circle cx="668" cy="146" r="4.1" fill="#7A5AF0" opacity="0.5"/><circle cx="726" cy="146" r="4.5" fill="#7A5AF0" opacity="0.5"/><circle cx="784" cy="146" r="4.8" fill="#7A5AF0" opacity="0.5"/><circle cx="842" cy="146" r="5.0" fill="#7A5AF0" opacity="0.5"/><circle cx="900" cy="146" r="5.0" fill="#7A5AF0" opacity="0.5"/><circle cx="958" cy="146" r="4.8" fill="#7A5AF0" opacity="0.5"/><circle cx="1016" cy="146" r="4.5" fill="#7A5AF0" opacity="0.5"/><circle cx="1074" cy="146" r="4.1" fill="#7A5AF0" opacity="0.5"/><circle cx="1132" cy="146" r="3.5" fill="#7A5AF0" opacity="0.5"/><circle cx="1190" cy="146" r="2.9" fill="#7A5AF0" opacity="0.5"/><circle cx="30" cy="204" r="5.0" fill="#7A5AF0" opacity="0.5"/><circle cx="88" cy="204" r="4.9" fill="#7A5AF0" opacity="0.5"/><circle cx="146" cy="204" r="4.7" fill="#7A5AF0" opacity="0.5"/><circle cx="204" cy="204" r="4.3" fill="#7A5AF0" opacity="0.5"/><circle cx="262" cy="204" r="3.8" fill="#7A5AF0" opacity="0.5"/><circle cx="320" cy="204" r="3.2" fill="#7A5AF0" opacity="0.5"/><circle cx="378" cy="204" r="2.5" fill="#7A5AF0" opacity="0.5"/><circle cx="436" cy="204" r="2.2" fill="#7A5AF0" opacity="0.5"/><circle cx="494" cy="204" r="2.9" fill="#7A5AF0" opacity="0.5"/><circle cx="552" cy="204" r="3.5" fill="#7A5AF0" opacity="0.5"/><circle cx="610" cy="204" r="4.1" fill="#7A5AF0" opacity="0.5"/><circle cx="668" cy="204" r="4.5" fill="#7A5AF0" opacity="0.5"/><circle cx="726" cy="204" r="4.8" fill="#7A5AF0" opacity="0.5"/><circle cx="784" cy="204" r="5.0" fill="#7A5AF0" opacity="0.5"/><circle cx="842" cy="204" r="5.0" fill="#7A5AF0" opacity="0.5"/><circle cx="900" cy="204" r="4.8" fill="#7A5AF0" opacity="0.5"/><circle cx="958" cy="204" r="4.5" fill="#7A5AF0" opacity="0.5"/><circle cx="1016" cy="204" r="4.1" fill="#7A5AF0" opacity="0.5"/><circle cx="1074" cy="204" r="3.5" fill="#7A5AF0" opacity="0.5"/><circle cx="1132" cy="204" r="2.9" fill="#7A5AF0" opacity="0.5"/><circle cx="1190" cy="204" r="2.2" fill="#7A5AF0" opacity="0.5"/><circle cx="30" cy="262" r="4.9" fill="#7A5AF0" opacity="0.5"/><circle cx="88" cy="262" r="4.7" fill="#7A5AF0" opacity="0.5"/><circle cx="146" cy="262" r="4.3" fill="#7A5AF0" opacity="0.5"/><circle cx="204" cy="262" r="3.8" fill="#7A5AF0" opacity="0.5"/><circle cx="262" cy="262" r="3.2" fill="#7A5AF0" opacity="0.5"/><circle cx="320" cy="262" r="2.5" fill="#7A5AF0" opacity="0.5"/><circle cx="378" cy="262" r="2.2" fill="#7A5AF0" opacity="0.5"/><circle cx="436" cy="262" r="2.9" fill="#7A5AF0" opacity="0.5"/><circle cx="494" cy="262" r="3.5" fill="#7A5AF0" opacity="0.5"/><circle cx="552" cy="262" r="4.1" fill="#7A5AF0" opacity="0.5"/><circle cx="610" cy="262" r="4.5" fill="#7A5AF0" opacity="0.5"/><circle cx="668" cy="262" r="4.8" fill="#7A5AF0" opacity="0.5"/><circle cx="726" cy="262" r="5.0" fill="#7A5AF0" opacity="0.5"/><circle cx="784" cy="262" r="5.0" fill="#7A5AF0" opacity="0.5"/><circle cx="842" cy="262" r="4.8" fill="#7A5AF0" opacity="0.5"/><circle cx="900" cy="262" r="4.5" fill="#7A5AF0" opacity="0.5"/><circle cx="958" cy="262" r="4.1" fill="#7A5AF0" opacity="0.5"/><circle cx="1016" cy="262" r="3.5" fill="#7A5AF0" opacity="0.5"/><circle cx="1074" cy="262" r="2.9" fill="#7A5AF0" opacity="0.5"/><circle cx="1132" cy="262" r="2.2" fill="#7A5AF0" opacity="0.5"/><circle cx="1190" cy="262" r="2.5" fill="#7A5AF0" opacity="0.5"/><circle cx="30" cy="320" r="4.7" fill="#7A5AF0" opacity="0.5"/><circle cx="88" cy="320" r="4.3" fill="#7A5AF0" opacity="0.5"/><circle cx="146" cy="320" r="3.8" fill="#7A5AF0" opacity="0.5"/><circle cx="204" cy="320" r="3.2" fill="#7A5AF0" opacity="0.5"/><circle cx="262" cy="320" r="2.5" fill="#7A5AF0" opacity="0.5"/><circle cx="320" cy="320" r="2.2" fill="#7A5AF0" opacity="0.5"/><circle cx="378" cy="320" r="2.9" fill="#7A5AF0" opacity="0.5"/><circle cx="436" cy="320" r="3.5" fill="#7A5AF0" opacity="0.5"/><circle cx="494" cy="320" r="4.1" fill="#7A5AF0" opacity="0.5"/><circle cx="552" cy="320" r="4.5" fill="#7A5AF0" opacity="0.5"/><circle cx="610" cy="320" r="4.8" fill="#7A5AF0" opacity="0.5"/><circle cx="668" cy="320" r="5.0" fill="#7A5AF0" opacity="0.5"/><circle cx="726" cy="320" r="5.0" fill="#7A5AF0" opacity="0.5"/><circle cx="784" cy="320" r="4.8" fill="#7A5AF0" opacity="0.5"/><circle cx="842" cy="320" r="4.5" fill="#7A5AF0" opacity="0.5"/><circle cx="900" cy="320" r="4.1" fill="#7A5AF0" opacity="0.5"/><circle cx="958" cy="320" r="3.5" fill="#7A5AF0" opacity="0.5"/><circle cx="1016" cy="320" r="2.9" fill="#7A5AF0" opacity="0.5"/><circle cx="1074" cy="320" r="2.2" fill="#7A5AF0" opacity="0.5"/><circle cx="1132" cy="320" r="2.5" fill="#7A5AF0" opacity="0.5"/><circle cx="1190" cy="320" r="3.2" fill="#7A5AF0" opacity="0.5"/><circle cx="30" cy="378" r="4.3" fill="#7A5AF0" opacity="0.5"/><circle cx="88" cy="378" r="3.8" fill="#7A5AF0" opacity="0.5"/><circle cx="146" cy="378" r="3.2" fill="#7A5AF0" opacity="0.5"/><circle cx="204" cy="378" r="2.5" fill="#7A5AF0" opacity="0.5"/><circle cx="262" cy="378" r="2.2" fill="#7A5AF0" opacity="0.5"/><circle cx="320" cy="378" r="2.9" fill="#7A5AF0" opacity="0.5"/><circle cx="378" cy="378" r="3.5" fill="#7A5AF0" opacity="0.5"/><circle cx="436" cy="378" r="4.1" fill="#7A5AF0" opacity="0.5"/><circle cx="494" cy="378" r="4.5" fill="#7A5AF0" opacity="0.5"/><circle cx="552" cy="378" r="4.8" fill="#7A5AF0" opacity="0.5"/><circle cx="610" cy="378" r="5.0" fill="#7A5AF0" opacity="0.5"/><circle cx="668" cy="378" r="5.0" fill="#7A5AF0" opacity="0.5"/><circle cx="726" cy="378" r="4.8" fill="#7A5AF0" opacity="0.5"/><circle cx="784" cy="378" r="4.5" fill="#7A5AF0" opacity="0.5"/><circle cx="842" cy="378" r="4.1" fill="#7A5AF0" opacity="0.5"/><circle cx="900" cy="378" r="3.5" fill="#7A5AF0" opacity="0.5"/><circle cx="958" cy="378" r="2.9" fill="#7A5AF0" opacity="0.5"/><circle cx="1016" cy="378" r="2.2" fill="#7A5AF0" opacity="0.5"/><circle cx="1074" cy="378" r="2.5" fill="#7A5AF0" opacity="0.5"/><circle cx="1132" cy="378" r="3.2" fill="#7A5AF0" opacity="0.5"/><circle cx="1190" cy="378" r="3.8" fill="#7A5AF0" opacity="0.5"/><circle cx="30" cy="436" r="3.8" fill="#7A5AF0" opacity="0.5"/><circle cx="88" cy="436" r="3.2" fill="#7A5AF0" opacity="0.5"/><circle cx="146" cy="436" r="2.5" fill="#7A5AF0" opacity="0.5"/><circle cx="204" cy="436" r="2.2" fill="#7A5AF0" opacity="0.5"/><circle cx="262" cy="436" r="2.9" fill="#7A5AF0" opacity="0.5"/><circle cx="320" cy="436" r="3.5" fill="#7A5AF0" opacity="0.5"/><circle cx="378" cy="436" r="4.1" fill="#7A5AF0" opacity="0.5"/><circle cx="436" cy="436" r="4.5" fill="#7A5AF0" opacity="0.5"/><circle cx="494" cy="436" r="4.8" fill="#7A5AF0" opacity="0.5"/><circle cx="552" cy="436" r="5.0" fill="#7A5AF0" opacity="0.5"/><circle cx="610" cy="436" r="5.0" fill="#7A5AF0" opacity="0.5"/><circle cx="668" cy="436" r="4.8" fill="#7A5AF0" opacity="0.5"/><circle cx="726" cy="436" r="4.5" fill="#7A5AF0" opacity="0.5"/><circle cx="784" cy="436" r="4.1" fill="#7A5AF0" opacity="0.5"/><circle cx="842" cy="436" r="3.5" fill="#7A5AF0" opacity="0.5"/><circle cx="900" cy="436" r="2.9" fill="#7A5AF0" opacity="0.5"/><circle cx="958" cy="436" r="2.2" fill="#7A5AF0" opacity="0.5"/><circle cx="1016" cy="436" r="2.5" fill="#7A5AF0" opacity="0.5"/><circle cx="1074" cy="436" r="3.2" fill="#7A5AF0" opacity="0.5"/><circle cx="1132" cy="436" r="3.8" fill="#7A5AF0" opacity="0.5"/><circle cx="1190" cy="436" r="4.3" fill="#7A5AF0" opacity="0.5"/><circle cx="30" cy="494" r="3.2" fill="#7A5AF0" opacity="0.5"/><circle cx="88" cy="494" r="2.5" fill="#7A5AF0" opacity="0.5"/><circle cx="146" cy="494" r="2.2" fill="#7A5AF0" opacity="0.5"/><circle cx="204" cy="494" r="2.9" fill="#7A5AF0" opacity="0.5"/><circle cx="262" cy="494" r="3.5" fill="#7A5AF0" opacity="0.5"/><circle cx="320" cy="494" r="4.1" fill="#7A5AF0" opacity="0.5"/><circle cx="378" cy="494" r="4.5" fill="#7A5AF0" opacity="0.5"/><circle cx="436" cy="494" r="4.8" fill="#7A5AF0" opacity="0.5"/><circle cx="494" cy="494" r="5.0" fill="#7A5AF0" opacity="0.5"/><circle cx="552" cy="494" r="5.0" fill="#7A5AF0" opacity="0.5"/><circle cx="610" cy="494" r="4.8" fill="#7A5AF0" opacity="0.5"/><circle cx="668" cy="494" r="4.5" fill="#7A5AF0" opacity="0.5"/><circle cx="726" cy="494" r="4.1" fill="#7A5AF0" opacity="0.5"/><circle cx="784" cy="494" r="3.5" fill="#7A5AF0" opacity="0.5"/><circle cx="842" cy="494" r="2.9" fill="#7A5AF0" opacity="0.5"/><circle cx="900" cy="494" r="2.2" fill="#7A5AF0" opacity="0.5"/><circle cx="958" cy="494" r="2.5" fill="#7A5AF0" opacity="0.5"/><circle cx="1016" cy="494" r="3.2" fill="#7A5AF0" opacity="0.5"/><circle cx="1074" cy="494" r="3.8" fill="#7A5AF0" opacity="0.5"/><circle cx="1132" cy="494" r="4.3" fill="#7A5AF0" opacity="0.5"/><circle cx="1190" cy="494" r="4.7" fill="#7A5AF0" opacity="0.5"/><circle cx="30" cy="552" r="2.5" fill="#7A5AF0" opacity="0.5"/><circle cx="88" cy="552" r="2.2" fill="#7A5AF0" opacity="0.5"/><circle cx="146" cy="552" r="2.9" fill="#7A5AF0" opacity="0.5"/><circle cx="204" cy="552" r="3.5" fill="#7A5AF0" opacity="0.5"/><circle cx="262" cy="552" r="4.1" fill="#7A5AF0" opacity="0.5"/><circle cx="320" cy="552" r="4.5" fill="#7A5AF0" opacity="0.5"/><circle cx="378" cy="552" r="4.8" fill="#7A5AF0" opacity="0.5"/><circle cx="436" cy="552" r="5.0" fill="#7A5AF0" opacity="0.5"/><circle cx="494" cy="552" r="5.0" fill="#7A5AF0" opacity="0.5"/><circle cx="552" cy="552" r="4.8" fill="#7A5AF0" opacity="0.5"/><circle cx="610" cy="552" r="4.5" fill="#7A5AF0" opacity="0.5"/><circle cx="668" cy="552" r="4.1" fill="#7A5AF0" opacity="0.5"/><circle cx="726" cy="552" r="3.5" fill="#7A5AF0" opacity="0.5"/><circle cx="784" cy="552" r="2.9" fill="#7A5AF0" opacity="0.5"/><circle cx="842" cy="552" r="2.2" fill="#7A5AF0" opacity="0.5"/><circle cx="900" cy="552" r="2.5" fill="#7A5AF0" opacity="0.5"/><circle cx="958" cy="552" r="3.2" fill="#7A5AF0" opacity="0.5"/><circle cx="1016" cy="552" r="3.8" fill="#7A5AF0" opacity="0.5"/><circle cx="1074" cy="552" r="4.3" fill="#7A5AF0" opacity="0.5"/><circle cx="1132" cy="552" r="4.7" fill="#7A5AF0" opacity="0.5"/><circle cx="1190" cy="552" r="4.9" fill="#7A5AF0" opacity="0.5"/><circle cx="30" cy="610" r="2.2" fill="#7A5AF0" opacity="0.5"/><circle cx="88" cy="610" r="2.9" fill="#7A5AF0" opacity="0.5"/><circle cx="146" cy="610" r="3.5" fill="#7A5AF0" opacity="0.5"/><circle cx="204" cy="610" r="4.1" fill="#7A5AF0" opacity="0.5"/><circle cx="262" cy="610" r="4.5" fill="#7A5AF0" opacity="0.5"/><circle cx="320" cy="610" r="4.8" fill="#7A5AF0" opacity="0.5"/><circle cx="378" cy="610" r="5.0" fill="#7A5AF0" opacity="0.5"/><circle cx="436" cy="610" r="5.0" fill="#7A5AF0" opacity="0.5"/><circle cx="494" cy="610" r="4.8" fill="#7A5AF0" opacity="0.5"/><circle cx="552" cy="610" r="4.5" fill="#7A5AF0" opacity="0.5"/><circle cx="610" cy="610" r="4.1" fill="#7A5AF0" opacity="0.5"/><circle cx="668" cy="610" r="3.5" fill="#7A5AF0" opacity="0.5"/><circle cx="726" cy="610" r="2.9" fill="#7A5AF0" opacity="0.5"/><circle cx="784" cy="610" r="2.2" fill="#7A5AF0" opacity="0.5"/><circle cx="842" cy="610" r="2.5" fill="#7A5AF0" opacity="0.5"/><circle cx="900" cy="610" r="3.2" fill="#7A5AF0" opacity="0.5"/><circle cx="958" cy="610" r="3.8" fill="#7A5AF0" opacity="0.5"/><circle cx="1016" cy="610" r="4.3" fill="#7A5AF0" opacity="0.5"/><circle cx="1074" cy="610" r="4.7" fill="#7A5AF0" opacity="0.5"/><circle cx="1132" cy="610" r="4.9" fill="#7A5AF0" opacity="0.5"/><circle cx="1190" cy="610" r="5.0" fill="#7A5AF0" opacity="0.5"/><rect width="1200" height="630" fill="url(#vig)"/><text x="44" y="590" font-family="ui-monospace,Menlo,Consolas,monospace" font-size="24" letter-spacing="3" fill="#ffffff" fill-opacity="0.62">2026 TRENDS</text></svg>