<svg xmlns="http://www.w3.org/2000/svg" viewBox="0 0 1200 630" width="1200" height="630" role="img" aria-label="PROFESSIONAL WEBSITES · STRATFORD"><defs><linearGradient id="gdcef15" x1="0" y1="0" x2="1" y2="0"><stop offset="0" stop-color="#2E7D5B"/><stop offset="1" stop-color="#133b2c"/></linearGradient><filter id="blur"><feGaussianBlur stdDeviation="55"/></filter><radialGradient id="vig" cx="0.5" cy="0.4" r="0.75"><stop offset="0.6" stop-color="#000000" stop-opacity="0"/><stop offset="1" stop-color="#000000" stop-opacity="0.32"/></radialGradient></defs><rect width="1200" height="630" fill="url(#gdcef15)"/><circle cx="30" cy="30" r="7.4" fill="#C64B3B" opacity="0.5"/><circle cx="80" cy="30" r="6.5" fill="#C64B3B" opacity="0.5"/><circle cx="130" cy="30" r="5.6" fill="#C64B3B" opacity="0.5"/><circle cx="180" cy="30" r="4.5" fill="#C64B3B" opacity="0.5"/><circle cx="230" cy="30" r="3.7" fill="#C64B3B" opacity="0.5"/><circle cx="280" cy="30" r="4.8" fill="#C64B3B" opacity="0.5"/><circle cx="330" cy="30" r="5.8" fill="#C64B3B" opacity="0.5"/><circle cx="380" cy="30" r="6.8" fill="#C64B3B" opacity="0.5"/><circle cx="430" cy="30" r="7.6" fill="#C64B3B" opacity="0.5"/><circle cx="480" cy="30" r="8.2" fill="#C64B3B" opacity="0.5"/><circle cx="530" cy="30" r="8.7" fill="#C64B3B" opacity="0.5"/><circle cx="580" cy="30" r="8.9" fill="#C64B3B" opacity="0.5"/><circle cx="630" cy="30" r="9.0" fill="#C64B3B" opacity="0.5"/><circle cx="680" cy="30" r="8.8" fill="#C64B3B" opacity="0.5"/><circle cx="730" cy="30" r="8.5" fill="#C64B3B" opacity="0.5"/><circle cx="780" cy="30" r="7.9" fill="#C64B3B" opacity="0.5"/><circle cx="830" cy="30" r="7.1" fill="#C64B3B" opacity="0.5"/><circle cx="880" cy="30" r="6.3" fill="#C64B3B" opacity="0.5"/><circle cx="930" cy="30" r="5.3" fill="#C64B3B" opacity="0.5"/><circle cx="980" cy="30" r="4.2" fill="#C64B3B" opacity="0.5"/><circle cx="1030" cy="30" r="4.0" fill="#C64B3B" opacity="0.5"/><circle cx="1080" cy="30" r="5.1" fill="#C64B3B" opacity="0.5"/><circle cx="1130" cy="30" r="6.1" fill="#C64B3B" opacity="0.5"/><circle cx="1180" cy="30" r="7.0" fill="#C64B3B" opacity="0.5"/><circle cx="30" cy="80" r="6.5" fill="#C64B3B" opacity="0.5"/><circle cx="80" cy="80" r="5.6" fill="#C64B3B" opacity="0.5"/><circle cx="130" cy="80" r="4.5" fill="#C64B3B" opacity="0.5"/><circle cx="180" cy="80" r="3.7" fill="#C64B3B" opacity="0.5"/><circle cx="230" cy="80" r="4.8" fill="#C64B3B" opacity="0.5"/><circle cx="280" cy="80" r="5.8" fill="#C64B3B" opacity="0.5"/><circle cx="330" cy="80" r="6.8" fill="#C64B3B" opacity="0.5"/><circle cx="380" cy="80" r="7.6" fill="#C64B3B" opacity="0.5"/><circle cx="430" cy="80" r="8.2" fill="#C64B3B" opacity="0.5"/><circle cx="480" cy="80" r="8.7" fill="#C64B3B" opacity="0.5"/><circle cx="530" cy="80" r="8.9" fill="#C64B3B" opacity="0.5"/><circle cx="580" cy="80" r="9.0" fill="#C64B3B" opacity="0.5"/><circle cx="630" cy="80" r="8.8" fill="#C64B3B" opacity="0.5"/><circle cx="680" cy="80" r="8.5" fill="#C64B3B" opacity="0.5"/><circle cx="730" cy="80" r="7.9" fill="#C64B3B" opacity="0.5"/><circle cx="780" cy="80" r="7.1" fill="#C64B3B" opacity="0.5"/><circle cx="830" cy="80" r="6.3" fill="#C64B3B" opacity="0.5"/><circle cx="880" cy="80" r="5.3" fill="#C64B3B" opacity="0.5"/><circle cx="930" cy="80" r="4.2" fill="#C64B3B" opacity="0.5"/><circle cx="980" cy="80" r="4.0" fill="#C64B3B" opacity="0.5"/><circle cx="1030" cy="80" r="5.1" fill="#C64B3B" opacity="0.5"/><circle cx="1080" cy="80" r="6.1" fill="#C64B3B" opacity="0.5"/><circle cx="1130" cy="80" r="7.0" fill="#C64B3B" opacity="0.5"/><circle cx="1180" cy="80" r="7.8" fill="#C64B3B" opacity="0.5"/><circle cx="30" cy="130" r="5.6" fill="#C64B3B" opacity="0.5"/><circle cx="80" cy="130" r="4.5" fill="#C64B3B" opacity="0.5"/><circle cx="130" cy="130" r="3.7" fill="#C64B3B" opacity="0.5"/><circle cx="180" cy="130" r="4.8" fill="#C64B3B" opacity="0.5"/><circle cx="230" cy="130" r="5.8" fill="#C64B3B" opacity="0.5"/><circle cx="280" cy="130" r="6.8" fill="#C64B3B" opacity="0.5"/><circle cx="330" cy="130" r="7.6" fill="#C64B3B" opacity="0.5"/><circle cx="380" cy="130" r="8.2" fill="#C64B3B" opacity="0.5"/><circle cx="430" cy="130" r="8.7" fill="#C64B3B" opacity="0.5"/><circle cx="480" cy="130" r="8.9" fill="#C64B3B" opacity="0.5"/><circle cx="530" cy="130" r="9.0" fill="#C64B3B" opacity="0.5"/><circle cx="580" cy="130" r="8.8" fill="#C64B3B" opacity="0.5"/><circle cx="630" cy="130" r="8.5" fill="#C64B3B" opacity="0.5"/><circle cx="680" cy="130" r="7.9" fill="#C64B3B" opacity="0.5"/><circle cx="730" cy="130" r="7.1" fill="#C64B3B" opacity="0.5"/><circle cx="780" cy="130" r="6.3" fill="#C64B3B" opacity="0.5"/><circle cx="830" cy="130" r="5.3" fill="#C64B3B" opacity="0.5"/><circle cx="880" cy="130" r="4.2" fill="#C64B3B" opacity="0.5"/><circle cx="930" cy="130" r="4.0" fill="#C64B3B" opacity="0.5"/><circle cx="980" cy="130" r="5.1" fill="#C64B3B" opacity="0.5"/><circle cx="1030" cy="130" r="6.1" fill="#C64B3B" opacity="0.5"/><circle cx="1080" cy="130" r="7.0" fill="#C64B3B" opacity="0.5"/><circle cx="1130" cy="130" r="7.8" fill="#C64B3B" opacity="0.5"/><circle cx="1180" cy="130" r="8.4" fill="#C64B3B" opacity="0.5"/><circle cx="30" cy="180" r="4.5" fill="#C64B3B" opacity="0.5"/><circle cx="80" cy="180" r="3.7" fill="#C64B3B" opacity="0.5"/><circle cx="130" cy="180" r="4.8" fill="#C64B3B" opacity="0.5"/><circle cx="180" cy="180" r="5.8" fill="#C64B3B" opacity="0.5"/><circle cx="230" cy="180" r="6.8" fill="#C64B3B" opacity="0.5"/><circle cx="280" cy="180" r="7.6" fill="#C64B3B" opacity="0.5"/><circle cx="330" cy="180" r="8.2" fill="#C64B3B" opacity="0.5"/><circle cx="380" cy="180" r="8.7" fill="#C64B3B" opacity="0.5"/><circle cx="430" cy="180" r="8.9" fill="#C64B3B" opacity="0.5"/><circle cx="480" cy="180" r="9.0" fill="#C64B3B" opacity="0.5"/><circle cx="530" cy="180" r="8.8" fill="#C64B3B" opacity="0.5"/><circle cx="580" cy="180" r="8.5" fill="#C64B3B" opacity="0.5"/><circle cx="630" cy="180" r="7.9" fill="#C64B3B" opacity="0.5"/><circle cx="680" cy="180" r="7.1" fill="#C64B3B" opacity="0.5"/><circle cx="730" cy="180" r="6.3" fill="#C64B3B" opacity="0.5"/><circle cx="780" cy="180" r="5.3" fill="#C64B3B" opacity="0.5"/><circle cx="830" cy="180" r="4.2" fill="#C64B3B" opacity="0.5"/><circle cx="880" cy="180" r="4.0" fill="#C64B3B" opacity="0.5"/><circle cx="930" cy="180" r="5.1" fill="#C64B3B" opacity="0.5"/><circle cx="980" cy="180" r="6.1" fill="#C64B3B" opacity="0.5"/><circle cx="1030" cy="180" r="7.0" fill="#C64B3B" opacity="0.5"/><circle cx="1080" cy="180" r="7.8" fill="#C64B3B" opacity="0.5"/><circle cx="1130" cy="180" r="8.4" fill="#C64B3B" opacity="0.5"/><circle cx="1180" cy="180" r="8.8" fill="#C64B3B" opacity="0.5"/><circle cx="30" cy="230" r="3.7" fill="#C64B3B" opacity="0.5"/><circle cx="80" cy="230" r="4.8" fill="#C64B3B" opacity="0.5"/><circle cx="130" cy="230" r="5.8" fill="#C64B3B" opacity="0.5"/><circle cx="180" cy="230" r="6.8" fill="#C64B3B" opacity="0.5"/><circle cx="230" cy="230" r="7.6" fill="#C64B3B" opacity="0.5"/><circle cx="280" cy="230" r="8.2" fill="#C64B3B" opacity="0.5"/><circle cx="330" cy="230" r="8.7" fill="#C64B3B" opacity="0.5"/><circle cx="380" cy="230" r="8.9" fill="#C64B3B" opacity="0.5"/><circle cx="430" cy="230" r="9.0" fill="#C64B3B" opacity="0.5"/><circle cx="480" cy="230" r="8.8" fill="#C64B3B" opacity="0.5"/><circle cx="530" cy="230" r="8.5" fill="#C64B3B" opacity="0.5"/><circle cx="580" cy="230" r="7.9" fill="#C64B3B" opacity="0.5"/><circle cx="630" cy="230" r="7.1" fill="#C64B3B" opacity="0.5"/><circle cx="680" cy="230" r="6.3" fill="#C64B3B" opacity="0.5"/><circle cx="730" cy="230" r="5.3" fill="#C64B3B" opacity="0.5"/><circle cx="780" cy="230" r="4.2" fill="#C64B3B" opacity="0.5"/><circle cx="830" cy="230" r="4.0" fill="#C64B3B" opacity="0.5"/><circle cx="880" cy="230" r="5.1" fill="#C64B3B" opacity="0.5"/><circle cx="930" cy="230" r="6.1" fill="#C64B3B" opacity="0.5"/><circle cx="980" cy="230" r="7.0" fill="#C64B3B" opacity="0.5"/><circle cx="1030" cy="230" r="7.8" fill="#C64B3B" opacity="0.5"/><circle cx="1080" cy="230" r="8.4" fill="#C64B3B" opacity="0.5"/><circle cx="1130" cy="230" r="8.8" fill="#C64B3B" opacity="0.5"/><circle cx="1180" cy="230" r="9.0" fill="#C64B3B" opacity="0.5"/><circle cx="30" cy="280" r="4.8" fill="#C64B3B" opacity="0.5"/><circle cx="80" cy="280" r="5.8" fill="#C64B3B" opacity="0.5"/><circle cx="130" cy="280" r="6.8" fill="#C64B3B" opacity="0.5"/><circle cx="180" cy="280" r="7.6" fill="#C64B3B" opacity="0.5"/><circle cx="230" cy="280" r="8.2" fill="#C64B3B" opacity="0.5"/><circle cx="280" cy="280" r="8.7" fill="#C64B3B" opacity="0.5"/><circle cx="330" cy="280" r="8.9" fill="#C64B3B" opacity="0.5"/><circle cx="380" cy="280" r="9.0" fill="#C64B3B" opacity="0.5"/><circle cx="430" cy="280" r="8.8" fill="#C64B3B" opacity="0.5"/><circle cx="480" cy="280" r="8.5" fill="#C64B3B" opacity="0.5"/><circle cx="530" cy="280" r="7.9" fill="#C64B3B" opacity="0.5"/><circle cx="580" cy="280" r="7.1" fill="#C64B3B" opacity="0.5"/><circle cx="630" cy="280" r="6.3" fill="#C64B3B" opacity="0.5"/><circle cx="680" cy="280" r="5.3" fill="#C64B3B" opacity="0.5"/><circle cx="730" cy="280" r="4.2" fill="#C64B3B" opacity="0.5"/><circle cx="780" cy="280" r="4.0" fill="#C64B3B" opacity="0.5"/><circle cx="830" cy="280" r="5.1" fill="#C64B3B" opacity="0.5"/><circle cx="880" cy="280" r="6.1" fill="#C64B3B" opacity="0.5"/><circle cx="930" cy="280" r="7.0" fill="#C64B3B" opacity="0.5"/><circle cx="980" cy="280" r="7.8" fill="#C64B3B" opacity="0.5"/><circle cx="1030" cy="280" r="8.4" fill="#C64B3B" opacity="0.5"/><circle cx="1080" cy="280" r="8.8" fill="#C64B3B" opacity="0.5"/><circle cx="1130" cy="280" r="9.0" fill="#C64B3B" opacity="0.5"/><circle cx="1180" cy="280" r="9.0" fill="#C64B3B" opacity="0.5"/><circle cx="30" cy="330" r="5.8" fill="#C64B3B" opacity="0.5"/><circle cx="80" cy="330" r="6.8" fill="#C64B3B" opacity="0.5"/><circle cx="130" cy="330" r="7.6" fill="#C64B3B" opacity="0.5"/><circle cx="180" cy="330" r="8.2" fill="#C64B3B" opacity="0.5"/><circle cx="230" cy="330" r="8.7" fill="#C64B3B" opacity="0.5"/><circle cx="280" cy="330" r="8.9" fill="#C64B3B" opacity="0.5"/><circle cx="330" cy="330" r="9.0" fill="#C64B3B" opacity="0.5"/><circle cx="380" cy="330" r="8.8" fill="#C64B3B" opacity="0.5"/><circle cx="430" cy="330" r="8.5" fill="#C64B3B" opacity="0.5"/><circle cx="480" cy="330" r="7.9" fill="#C64B3B" opacity="0.5"/><circle cx="530" cy="330" r="7.1" fill="#C64B3B" opacity="0.5"/><circle cx="580" cy="330" r="6.3" fill="#C64B3B" opacity="0.5"/><circle cx="630" cy="330" r="5.3" fill="#C64B3B" opacity="0.5"/><circle cx="680" cy="330" r="4.2" fill="#C64B3B" opacity="0.5"/><circle cx="730" cy="330" r="4.0" fill="#C64B3B" opacity="0.5"/><circle cx="780" cy="330" r="5.1" fill="#C64B3B" opacity="0.5"/><circle cx="830" cy="330" r="6.1" fill="#C64B3B" opacity="0.5"/><circle cx="880" cy="330" r="7.0" fill="#C64B3B" opacity="0.5"/><circle cx="930" cy="330" r="7.8" fill="#C64B3B" opacity="0.5"/><circle cx="980" cy="330" r="8.4" fill="#C64B3B" opacity="0.5"/><circle cx="1030" cy="330" r="8.8" fill="#C64B3B" opacity="0.5"/><circle cx="1080" cy="330" r="9.0" fill="#C64B3B" opacity="0.5"/><circle cx="1130" cy="330" r="9.0" fill="#C64B3B" opacity="0.5"/><circle cx="1180" cy="330" r="8.7" fill="#C64B3B" opacity="0.5"/><circle cx="30" cy="380" r="6.8" fill="#C64B3B" opacity="0.5"/><circle cx="80" cy="380" r="7.6" fill="#C64B3B" opacity="0.5"/><circle cx="130" cy="380" r="8.2" fill="#C64B3B" opacity="0.5"/><circle cx="180" cy="380" r="8.7" fill="#C64B3B" opacity="0.5"/><circle cx="230" cy="380" r="8.9" fill="#C64B3B" opacity="0.5"/><circle cx="280" cy="380" r="9.0" fill="#C64B3B" opacity="0.5"/><circle cx="330" cy="380" r="8.8" fill="#C64B3B" opacity="0.5"/><circle cx="380" cy="380" r="8.5" fill="#C64B3B" opacity="0.5"/><circle cx="430" cy="380" r="7.9" fill="#C64B3B" opacity="0.5"/><circle cx="480" cy="380" r="7.1" fill="#C64B3B" opacity="0.5"/><circle cx="530" cy="380" r="6.3" fill="#C64B3B" opacity="0.5"/><circle cx="580" cy="380" r="5.3" fill="#C64B3B" opacity="0.5"/><circle cx="630" cy="380" r="4.2" fill="#C64B3B" opacity="0.5"/><circle cx="680" cy="380" r="4.0" fill="#C64B3B" opacity="0.5"/><circle cx="730" cy="380" r="5.1" fill="#C64B3B" opacity="0.5"/><circle cx="780" cy="380" r="6.1" fill="#C64B3B" opacity="0.5"/><circle cx="830" cy="380" r="7.0" fill="#C64B3B" opacity="0.5"/><circle cx="880" cy="380" r="7.8" fill="#C64B3B" opacity="0.5"/><circle cx="930" cy="380" r="8.4" fill="#C64B3B" opacity="0.5"/><circle cx="980" cy="380" r="8.8" fill="#C64B3B" opacity="0.5"/><circle cx="1030" cy="380" r="9.0" fill="#C64B3B" opacity="0.5"/><circle cx="1080" cy="380" r="9.0" fill="#C64B3B" opacity="0.5"/><circle cx="1130" cy="380" r="8.7" fill="#C64B3B" opacity="0.5"/><circle cx="1180" cy="380" r="8.3" fill="#C64B3B" opacity="0.5"/><circle cx="30" cy="430" r="7.6" fill="#C64B3B" opacity="0.5"/><circle cx="80" cy="430" r="8.2" fill="#C64B3B" opacity="0.5"/><circle cx="130" cy="430" r="8.7" fill="#C64B3B" opacity="0.5"/><circle cx="180" cy="430" r="8.9" fill="#C64B3B" opacity="0.5"/><circle cx="230" cy="430" r="9.0" fill="#C64B3B" opacity="0.5"/><circle cx="280" cy="430" r="8.8" fill="#C64B3B" opacity="0.5"/><circle cx="330" cy="430" r="8.5" fill="#C64B3B" opacity="0.5"/><circle cx="380" cy="430" r="7.9" fill="#C64B3B" opacity="0.5"/><circle cx="430" cy="430" r="7.1" fill="#C64B3B" opacity="0.5"/><circle cx="480" cy="430" r="6.3" fill="#C64B3B" opacity="0.5"/><circle cx="530" cy="430" r="5.3" fill="#C64B3B" opacity="0.5"/><circle cx="580" cy="430" r="4.2" fill="#C64B3B" opacity="0.5"/><circle cx="630" cy="430" r="4.0" fill="#C64B3B" opacity="0.5"/><circle cx="680" cy="430" r="5.1" fill="#C64B3B" opacity="0.5"/><circle cx="730" cy="430" r="6.1" fill="#C64B3B" opacity="0.5"/><circle cx="780" cy="430" r="7.0" fill="#C64B3B" opacity="0.5"/><circle cx="830" cy="430" r="7.8" fill="#C64B3B" opacity="0.5"/><circle cx="880" cy="430" r="8.4" fill="#C64B3B" opacity="0.5"/><circle cx="930" cy="430" r="8.8" fill="#C64B3B" opacity="0.5"/><circle cx="980" cy="430" r="9.0" fill="#C64B3B" opacity="0.5"/><circle cx="1030" cy="430" r="9.0" fill="#C64B3B" opacity="0.5"/><circle cx="1080" cy="430" r="8.7" fill="#C64B3B" opacity="0.5"/><circle cx="1130" cy="430" r="8.3" fill="#C64B3B" opacity="0.5"/><circle cx="1180" cy="430" r="7.7" fill="#C64B3B" opacity="0.5"/><circle cx="30" cy="480" r="8.2" fill="#C64B3B" opacity="0.5"/><circle cx="80" cy="480" r="8.7" fill="#C64B3B" opacity="0.5"/><circle cx="130" cy="480" r="8.9" fill="#C64B3B" opacity="0.5"/><circle cx="180" cy="480" r="9.0" fill="#C64B3B" opacity="0.5"/><circle cx="230" cy="480" r="8.8" fill="#C64B3B" opacity="0.5"/><circle cx="280" cy="480" r="8.5" fill="#C64B3B" opacity="0.5"/><circle cx="330" cy="480" r="7.9" fill="#C64B3B" opacity="0.5"/><circle cx="380" cy="480" r="7.1" fill="#C64B3B" opacity="0.5"/><circle cx="430" cy="480" r="6.3" fill="#C64B3B" opacity="0.5"/><circle cx="480" cy="480" r="5.3" fill="#C64B3B" opacity="0.5"/><circle cx="530" cy="480" r="4.2" fill="#C64B3B" opacity="0.5"/><circle cx="580" cy="480" r="4.0" fill="#C64B3B" opacity="0.5"/><circle cx="630" cy="480" r="5.1" fill="#C64B3B" opacity="0.5"/><circle cx="680" cy="480" r="6.1" fill="#C64B3B" opacity="0.5"/><circle cx="730" cy="480" r="7.0" fill="#C64B3B" opacity="0.5"/><circle cx="780" cy="480" r="7.8" fill="#C64B3B" opacity="0.5"/><circle cx="830" cy="480" r="8.4" fill="#C64B3B" opacity="0.5"/><circle cx="880" cy="480" r="8.8" fill="#C64B3B" opacity="0.5"/><circle cx="930" cy="480" r="9.0" fill="#C64B3B" opacity="0.5"/><circle cx="980" cy="480" r="9.0" fill="#C64B3B" opacity="0.5"/><circle cx="1030" cy="480" r="8.7" fill="#C64B3B" opacity="0.5"/><circle cx="1080" cy="480" r="8.3" fill="#C64B3B" opacity="0.5"/><circle cx="1130" cy="480" r="7.7" fill="#C64B3B" opacity="0.5"/><circle cx="1180" cy="480" r="6.9" fill="#C64B3B" opacity="0.5"/><circle cx="30" cy="530" r="8.7" fill="#C64B3B" opacity="0.5"/><circle cx="80" cy="530" r="8.9" fill="#C64B3B" opacity="0.5"/><circle cx="130" cy="530" r="9.0" fill="#C64B3B" opacity="0.5"/><circle cx="180" cy="530" r="8.8" fill="#C64B3B" opacity="0.5"/><circle cx="230" cy="530" r="8.5" fill="#C64B3B" opacity="0.5"/><circle cx="280" cy="530" r="7.9" fill="#C64B3B" opacity="0.5"/><circle cx="330" cy="530" r="7.1" fill="#C64B3B" opacity="0.5"/><circle cx="380" cy="530" r="6.3" fill="#C64B3B" opacity="0.5"/><circle cx="430" cy="530" r="5.3" fill="#C64B3B" opacity="0.5"/><circle cx="480" cy="530" r="4.2" fill="#C64B3B" opacity="0.5"/><circle cx="530" cy="530" r="4.0" fill="#C64B3B" opacity="0.5"/><circle cx="580" cy="530" r="5.1" fill="#C64B3B" opacity="0.5"/><circle cx="630" cy="530" r="6.1" fill="#C64B3B" opacity="0.5"/><circle cx="680" cy="530" r="7.0" fill="#C64B3B" opacity="0.5"/><circle cx="730" cy="530" r="7.8" fill="#C64B3B" opacity="0.5"/><circle cx="780" cy="530" r="8.4" fill="#C64B3B" opacity="0.5"/><circle cx="830" cy="530" r="8.8" fill="#C64B3B" opacity="0.5"/><circle cx="880" cy="530" r="9.0" fill="#C64B3B" opacity="0.5"/><circle cx="930" cy="530" r="9.0" fill="#C64B3B" opacity="0.5"/><circle cx="980" cy="530" r="8.7" fill="#C64B3B" opacity="0.5"/><circle cx="1030" cy="530" r="8.3" fill="#C64B3B" opacity="0.5"/><circle cx="1080" cy="530" r="7.7" fill="#C64B3B" opacity="0.5"/><circle cx="1130" cy="530" r="6.9" fill="#C64B3B" opacity="0.5"/><circle cx="1180" cy="530" r="6.0" fill="#C64B3B" opacity="0.5"/><circle cx="30" cy="580" r="8.9" fill="#C64B3B" opacity="0.5"/><circle cx="80" cy="580" r="9.0" fill="#C64B3B" opacity="0.5"/><circle cx="130" cy="580" r="8.8" fill="#C64B3B" opacity="0.5"/><circle cx="180" cy="580" r="8.5" fill="#C64B3B" opacity="0.5"/><circle cx="230" cy="580" r="7.9" fill="#C64B3B" opacity="0.5"/><circle cx="280" cy="580" r="7.1" fill="#C64B3B" opacity="0.5"/><circle cx="330" cy="580" r="6.3" fill="#C64B3B" opacity="0.5"/><circle cx="380" cy="580" r="5.3" fill="#C64B3B" opacity="0.5"/><circle cx="430" cy="580" r="4.2" fill="#C64B3B" opacity="0.5"/><circle cx="480" cy="580" r="4.0" fill="#C64B3B" opacity="0.5"/><circle cx="530" cy="580" r="5.1" fill="#C64B3B" opacity="0.5"/><circle cx="580" cy="580" r="6.1" fill="#C64B3B" opacity="0.5"/><circle cx="630" cy="580" r="7.0" fill="#C64B3B" opacity="0.5"/><circle cx="680" cy="580" r="7.8" fill="#C64B3B" opacity="0.5"/><circle cx="730" cy="580" r="8.4" fill="#C64B3B" opacity="0.5"/><circle cx="780" cy="580" r="8.8" fill="#C64B3B" opacity="0.5"/><circle cx="830" cy="580" r="9.0" fill="#C64B3B" opacity="0.5"/><circle cx="880" cy="580" r="9.0" fill="#C64B3B" opacity="0.5"/><circle cx="930" cy="580" r="8.7" fill="#C64B3B" opacity="0.5"/><circle cx="980" cy="580" r="8.3" fill="#C64B3B" opacity="0.5"/><circle cx="1030" cy="580" r="7.7" fill="#C64B3B" opacity="0.5"/><circle cx="1080" cy="580" r="6.9" fill="#C64B3B" opacity="0.5"/><circle cx="1130" cy="580" r="6.0" fill="#C64B3B" opacity="0.5"/><circle cx="1180" cy="580" r="5.0" fill="#C64B3B" opacity="0.5"/><rect width="1200" height="630" fill="url(#vig)"/><text x="44" y="590" font-family="ui-monospace,Menlo,Consolas,monospace" font-size="24" letter-spacing="3" fill="#ffffff" fill-opacity="0.62">PROFESSIONAL WEBSITES · STRATFORD</text></svg>