<svg xmlns="http://www.w3.org/2000/svg" viewBox="0 0 1200 630" width="1200" height="630" role="img" aria-label="PROFESSIONAL WEBSITES · LEEDS"><defs><linearGradient id="ga5524c" x1="0" y1="0" x2="1" y2="1"><stop offset="0" stop-color="#2E7D5B"/><stop offset="1" stop-color="#133b2c"/></linearGradient><filter id="blur"><feGaussianBlur stdDeviation="55"/></filter><radialGradient id="vig" cx="0.5" cy="0.4" r="0.75"><stop offset="0.6" stop-color="#000000" stop-opacity="0"/><stop offset="1" stop-color="#000000" stop-opacity="0.32"/></radialGradient></defs><rect width="1200" height="630" fill="url(#ga5524c)"/><rect x="-300" y="-200" width="51" height="1030" fill="#E5892B" opacity="0.31" transform="rotate(-30 600 315)"/><rect x="-170" y="-200" width="94" height="1030" fill="#2E7D5B" opacity="0.3" transform="rotate(-30 600 315)"/><rect x="-32" y="-200" width="71" height="1030" fill="#1c5540" opacity="0.34" transform="rotate(-30 600 315)"/><rect x="112" y="-200" width="108" height="1030" fill="#1c5540" opacity="0.3" transform="rotate(-30 600 315)"/><rect x="304" y="-200" width="96" height="1030" fill="#1c5540" opacity="0.16" transform="rotate(-30 600 315)"/><rect x="464" y="-200" width="67" height="1030" fill="#1c5540" opacity="0.18" transform="rotate(-30 600 315)"/><rect x="594" y="-200" width="126" height="1030" fill="#1c5540" opacity="0.29" transform="rotate(-30 600 315)"/><rect x="793" y="-200" width="54" height="1030" fill="#E5892B" opacity="0.18" transform="rotate(-30 600 315)"/><rect x="913" y="-200" width="84" height="1030" fill="#ffffff" opacity="0.35" transform="rotate(-30 600 315)"/><rect x="1029" y="-200" width="56" height="1030" fill="#1c5540" opacity="0.23" transform="rotate(-30 600 315)"/><rect x="1168" y="-200" width="127" height="1030" fill="#E5892B" opacity="0.27" transform="rotate(-30 600 315)"/><rect x="1351" y="-200" width="113" height="1030" fill="#ffffff" opacity="0.31" transform="rotate(-30 600 315)"/><rect width="1200" height="630" fill="url(#vig)"/><text x="44" y="590" font-family="ui-monospace,Menlo,Consolas,monospace" font-size="24" letter-spacing="3" fill="#ffffff" fill-opacity="0.62">PROFESSIONAL WEBSITES · LEEDS</text></svg>