<svg xmlns="http://www.w3.org/2000/svg" viewBox="0 0 1200 630" width="1200" height="630" role="img" aria-label="TRADES WEBSITES · ROMFORD"><defs><linearGradient id="gba705e" x1="0" y1="0" x2="1" y2="0"><stop offset="0" stop-color="#E5892B"/><stop offset="1" stop-color="#7d430a"/></linearGradient><filter id="blur"><feGaussianBlur stdDeviation="55"/></filter><radialGradient id="vig" cx="0.5" cy="0.4" r="0.75"><stop offset="0.6" stop-color="#000000" stop-opacity="0"/><stop offset="1" stop-color="#000000" stop-opacity="0.32"/></radialGradient></defs><rect width="1200" height="630" fill="url(#gba705e)"/><circle cx="30" cy="30" r="9.0" fill="#B4610F" opacity="0.5"/><circle cx="78" cy="30" r="8.9" fill="#B4610F" opacity="0.5"/><circle cx="126" cy="30" r="8.5" fill="#B4610F" opacity="0.5"/><circle cx="174" cy="30" r="8.0" fill="#B4610F" opacity="0.5"/><circle cx="222" cy="30" r="7.3" fill="#B4610F" opacity="0.5"/><circle cx="270" cy="30" r="6.5" fill="#B4610F" opacity="0.5"/><circle cx="318" cy="30" r="5.6" fill="#B4610F" opacity="0.5"/><circle cx="366" cy="30" r="4.6" fill="#B4610F" opacity="0.5"/><circle cx="414" cy="30" r="3.6" fill="#B4610F" opacity="0.5"/><circle cx="462" cy="30" r="4.7" fill="#B4610F" opacity="0.5"/><circle cx="510" cy="30" r="5.6" fill="#B4610F" opacity="0.5"/><circle cx="558" cy="30" r="6.6" fill="#B4610F" opacity="0.5"/><circle cx="606" cy="30" r="7.4" fill="#B4610F" opacity="0.5"/><circle cx="654" cy="30" r="8.0" fill="#B4610F" opacity="0.5"/><circle cx="702" cy="30" r="8.5" fill="#B4610F" opacity="0.5"/><circle cx="750" cy="30" r="8.9" fill="#B4610F" opacity="0.5"/><circle cx="798" cy="30" r="9.0" fill="#B4610F" opacity="0.5"/><circle cx="846" cy="30" r="8.9" fill="#B4610F" opacity="0.5"/><circle cx="894" cy="30" r="8.7" fill="#B4610F" opacity="0.5"/><circle cx="942" cy="30" r="8.2" fill="#B4610F" opacity="0.5"/><circle cx="990" cy="30" r="7.6" fill="#B4610F" opacity="0.5"/><circle cx="1038" cy="30" r="6.8" fill="#B4610F" opacity="0.5"/><circle cx="1086" cy="30" r="5.9" fill="#B4610F" opacity="0.5"/><circle cx="1134" cy="30" r="5.0" fill="#B4610F" opacity="0.5"/><circle cx="1182" cy="30" r="4.0" fill="#B4610F" opacity="0.5"/><circle cx="30" cy="78" r="8.9" fill="#B4610F" opacity="0.5"/><circle cx="78" cy="78" r="8.5" fill="#B4610F" opacity="0.5"/><circle cx="126" cy="78" r="8.0" fill="#B4610F" opacity="0.5"/><circle cx="174" cy="78" r="7.3" fill="#B4610F" opacity="0.5"/><circle cx="222" cy="78" r="6.5" fill="#B4610F" opacity="0.5"/><circle cx="270" cy="78" r="5.6" fill="#B4610F" opacity="0.5"/><circle cx="318" cy="78" r="4.6" fill="#B4610F" opacity="0.5"/><circle cx="366" cy="78" r="3.6" fill="#B4610F" opacity="0.5"/><circle cx="414" cy="78" r="4.7" fill="#B4610F" opacity="0.5"/><circle cx="462" cy="78" r="5.6" fill="#B4610F" opacity="0.5"/><circle cx="510" cy="78" r="6.6" fill="#B4610F" opacity="0.5"/><circle cx="558" cy="78" r="7.4" fill="#B4610F" opacity="0.5"/><circle cx="606" cy="78" r="8.0" fill="#B4610F" opacity="0.5"/><circle cx="654" cy="78" r="8.5" fill="#B4610F" opacity="0.5"/><circle cx="702" cy="78" r="8.9" fill="#B4610F" opacity="0.5"/><circle cx="750" cy="78" r="9.0" fill="#B4610F" opacity="0.5"/><circle cx="798" cy="78" r="8.9" fill="#B4610F" opacity="0.5"/><circle cx="846" cy="78" r="8.7" fill="#B4610F" opacity="0.5"/><circle cx="894" cy="78" r="8.2" fill="#B4610F" opacity="0.5"/><circle cx="942" cy="78" r="7.6" fill="#B4610F" opacity="0.5"/><circle cx="990" cy="78" r="6.8" fill="#B4610F" opacity="0.5"/><circle cx="1038" cy="78" r="5.9" fill="#B4610F" opacity="0.5"/><circle cx="1086" cy="78" r="5.0" fill="#B4610F" opacity="0.5"/><circle cx="1134" cy="78" r="4.0" fill="#B4610F" opacity="0.5"/><circle cx="1182" cy="78" r="4.3" fill="#B4610F" opacity="0.5"/><circle cx="30" cy="126" r="8.5" fill="#B4610F" opacity="0.5"/><circle cx="78" cy="126" r="8.0" fill="#B4610F" opacity="0.5"/><circle cx="126" cy="126" r="7.3" fill="#B4610F" opacity="0.5"/><circle cx="174" cy="126" r="6.5" fill="#B4610F" opacity="0.5"/><circle cx="222" cy="126" r="5.6" fill="#B4610F" opacity="0.5"/><circle cx="270" cy="126" r="4.6" fill="#B4610F" opacity="0.5"/><circle cx="318" cy="126" r="3.6" fill="#B4610F" opacity="0.5"/><circle cx="366" cy="126" r="4.7" fill="#B4610F" opacity="0.5"/><circle cx="414" cy="126" r="5.6" fill="#B4610F" opacity="0.5"/><circle cx="462" cy="126" r="6.6" fill="#B4610F" opacity="0.5"/><circle cx="510" cy="126" r="7.4" fill="#B4610F" opacity="0.5"/><circle cx="558" cy="126" r="8.0" fill="#B4610F" opacity="0.5"/><circle cx="606" cy="126" r="8.5" fill="#B4610F" opacity="0.5"/><circle cx="654" cy="126" r="8.9" fill="#B4610F" opacity="0.5"/><circle cx="702" cy="126" r="9.0" fill="#B4610F" opacity="0.5"/><circle cx="750" cy="126" r="8.9" fill="#B4610F" opacity="0.5"/><circle cx="798" cy="126" r="8.7" fill="#B4610F" opacity="0.5"/><circle cx="846" cy="126" r="8.2" fill="#B4610F" opacity="0.5"/><circle cx="894" cy="126" r="7.6" fill="#B4610F" opacity="0.5"/><circle cx="942" cy="126" r="6.8" fill="#B4610F" opacity="0.5"/><circle cx="990" cy="126" r="5.9" fill="#B4610F" opacity="0.5"/><circle cx="1038" cy="126" r="5.0" fill="#B4610F" opacity="0.5"/><circle cx="1086" cy="126" r="4.0" fill="#B4610F" opacity="0.5"/><circle cx="1134" cy="126" r="4.3" fill="#B4610F" opacity="0.5"/><circle cx="1182" cy="126" r="5.3" fill="#B4610F" opacity="0.5"/><circle cx="30" cy="174" r="8.0" fill="#B4610F" opacity="0.5"/><circle cx="78" cy="174" r="7.3" fill="#B4610F" opacity="0.5"/><circle cx="126" cy="174" r="6.5" fill="#B4610F" opacity="0.5"/><circle cx="174" cy="174" r="5.6" fill="#B4610F" opacity="0.5"/><circle cx="222" cy="174" r="4.6" fill="#B4610F" opacity="0.5"/><circle cx="270" cy="174" r="3.6" fill="#B4610F" opacity="0.5"/><circle cx="318" cy="174" r="4.7" fill="#B4610F" opacity="0.5"/><circle cx="366" cy="174" r="5.6" fill="#B4610F" opacity="0.5"/><circle cx="414" cy="174" r="6.6" fill="#B4610F" opacity="0.5"/><circle cx="462" cy="174" r="7.4" fill="#B4610F" opacity="0.5"/><circle cx="510" cy="174" r="8.0" fill="#B4610F" opacity="0.5"/><circle cx="558" cy="174" r="8.5" fill="#B4610F" opacity="0.5"/><circle cx="606" cy="174" r="8.9" fill="#B4610F" opacity="0.5"/><circle cx="654" cy="174" r="9.0" fill="#B4610F" opacity="0.5"/><circle cx="702" cy="174" r="8.9" fill="#B4610F" opacity="0.5"/><circle cx="750" cy="174" r="8.7" fill="#B4610F" opacity="0.5"/><circle cx="798" cy="174" r="8.2" fill="#B4610F" opacity="0.5"/><circle cx="846" cy="174" r="7.6" fill="#B4610F" opacity="0.5"/><circle cx="894" cy="174" r="6.8" fill="#B4610F" opacity="0.5"/><circle cx="942" cy="174" r="5.9" fill="#B4610F" opacity="0.5"/><circle cx="990" cy="174" r="5.0" fill="#B4610F" opacity="0.5"/><circle cx="1038" cy="174" r="4.0" fill="#B4610F" opacity="0.5"/><circle cx="1086" cy="174" r="4.3" fill="#B4610F" opacity="0.5"/><circle cx="1134" cy="174" r="5.3" fill="#B4610F" opacity="0.5"/><circle cx="1182" cy="174" r="6.2" fill="#B4610F" opacity="0.5"/><circle cx="30" cy="222" r="7.3" fill="#B4610F" opacity="0.5"/><circle cx="78" cy="222" r="6.5" fill="#B4610F" opacity="0.5"/><circle cx="126" cy="222" r="5.6" fill="#B4610F" opacity="0.5"/><circle cx="174" cy="222" r="4.6" fill="#B4610F" opacity="0.5"/><circle cx="222" cy="222" r="3.6" fill="#B4610F" opacity="0.5"/><circle cx="270" cy="222" r="4.7" fill="#B4610F" opacity="0.5"/><circle cx="318" cy="222" r="5.6" fill="#B4610F" opacity="0.5"/><circle cx="366" cy="222" r="6.6" fill="#B4610F" opacity="0.5"/><circle cx="414" cy="222" r="7.4" fill="#B4610F" opacity="0.5"/><circle cx="462" cy="222" r="8.0" fill="#B4610F" opacity="0.5"/><circle cx="510" cy="222" r="8.5" fill="#B4610F" opacity="0.5"/><circle cx="558" cy="222" r="8.9" fill="#B4610F" opacity="0.5"/><circle cx="606" cy="222" r="9.0" fill="#B4610F" opacity="0.5"/><circle cx="654" cy="222" r="8.9" fill="#B4610F" opacity="0.5"/><circle cx="702" cy="222" r="8.7" fill="#B4610F" opacity="0.5"/><circle cx="750" cy="222" r="8.2" fill="#B4610F" opacity="0.5"/><circle cx="798" cy="222" r="7.6" fill="#B4610F" opacity="0.5"/><circle cx="846" cy="222" r="6.8" fill="#B4610F" opacity="0.5"/><circle cx="894" cy="222" r="5.9" fill="#B4610F" opacity="0.5"/><circle cx="942" cy="222" r="5.0" fill="#B4610F" opacity="0.5"/><circle cx="990" cy="222" r="4.0" fill="#B4610F" opacity="0.5"/><circle cx="1038" cy="222" r="4.3" fill="#B4610F" opacity="0.5"/><circle cx="1086" cy="222" r="5.3" fill="#B4610F" opacity="0.5"/><circle cx="1134" cy="222" r="6.2" fill="#B4610F" opacity="0.5"/><circle cx="1182" cy="222" r="7.1" fill="#B4610F" opacity="0.5"/><circle cx="30" cy="270" r="6.5" fill="#B4610F" opacity="0.5"/><circle cx="78" cy="270" r="5.6" fill="#B4610F" opacity="0.5"/><circle cx="126" cy="270" r="4.6" fill="#B4610F" opacity="0.5"/><circle cx="174" cy="270" r="3.6" fill="#B4610F" opacity="0.5"/><circle cx="222" cy="270" r="4.7" fill="#B4610F" opacity="0.5"/><circle cx="270" cy="270" r="5.6" fill="#B4610F" opacity="0.5"/><circle cx="318" cy="270" r="6.6" fill="#B4610F" opacity="0.5"/><circle cx="366" cy="270" r="7.4" fill="#B4610F" opacity="0.5"/><circle cx="414" cy="270" r="8.0" fill="#B4610F" opacity="0.5"/><circle cx="462" cy="270" r="8.5" fill="#B4610F" opacity="0.5"/><circle cx="510" cy="270" r="8.9" fill="#B4610F" opacity="0.5"/><circle cx="558" cy="270" r="9.0" fill="#B4610F" opacity="0.5"/><circle cx="606" cy="270" r="8.9" fill="#B4610F" opacity="0.5"/><circle cx="654" cy="270" r="8.7" fill="#B4610F" opacity="0.5"/><circle cx="702" cy="270" r="8.2" fill="#B4610F" opacity="0.5"/><circle cx="750" cy="270" r="7.6" fill="#B4610F" opacity="0.5"/><circle cx="798" cy="270" r="6.8" fill="#B4610F" opacity="0.5"/><circle cx="846" cy="270" r="5.9" fill="#B4610F" opacity="0.5"/><circle cx="894" cy="270" r="5.0" fill="#B4610F" opacity="0.5"/><circle cx="942" cy="270" r="4.0" fill="#B4610F" opacity="0.5"/><circle cx="990" cy="270" r="4.3" fill="#B4610F" opacity="0.5"/><circle cx="1038" cy="270" r="5.3" fill="#B4610F" opacity="0.5"/><circle cx="1086" cy="270" r="6.2" fill="#B4610F" opacity="0.5"/><circle cx="1134" cy="270" r="7.1" fill="#B4610F" opacity="0.5"/><circle cx="1182" cy="270" r="7.8" fill="#B4610F" opacity="0.5"/><circle cx="30" cy="318" r="5.6" fill="#B4610F" opacity="0.5"/><circle cx="78" cy="318" r="4.6" fill="#B4610F" opacity="0.5"/><circle cx="126" cy="318" r="3.6" fill="#B4610F" opacity="0.5"/><circle cx="174" cy="318" r="4.7" fill="#B4610F" opacity="0.5"/><circle cx="222" cy="318" r="5.6" fill="#B4610F" opacity="0.5"/><circle cx="270" cy="318" r="6.6" fill="#B4610F" opacity="0.5"/><circle cx="318" cy="318" r="7.4" fill="#B4610F" opacity="0.5"/><circle cx="366" cy="318" r="8.0" fill="#B4610F" opacity="0.5"/><circle cx="414" cy="318" r="8.5" fill="#B4610F" opacity="0.5"/><circle cx="462" cy="318" r="8.9" fill="#B4610F" opacity="0.5"/><circle cx="510" cy="318" r="9.0" fill="#B4610F" opacity="0.5"/><circle cx="558" cy="318" r="8.9" fill="#B4610F" opacity="0.5"/><circle cx="606" cy="318" r="8.7" fill="#B4610F" opacity="0.5"/><circle cx="654" cy="318" r="8.2" fill="#B4610F" opacity="0.5"/><circle cx="702" cy="318" r="7.6" fill="#B4610F" opacity="0.5"/><circle cx="750" cy="318" r="6.8" fill="#B4610F" opacity="0.5"/><circle cx="798" cy="318" r="5.9" fill="#B4610F" opacity="0.5"/><circle cx="846" cy="318" r="5.0" fill="#B4610F" opacity="0.5"/><circle cx="894" cy="318" r="4.0" fill="#B4610F" opacity="0.5"/><circle cx="942" cy="318" r="4.3" fill="#B4610F" opacity="0.5"/><circle cx="990" cy="318" r="5.3" fill="#B4610F" opacity="0.5"/><circle cx="1038" cy="318" r="6.2" fill="#B4610F" opacity="0.5"/><circle cx="1086" cy="318" r="7.1" fill="#B4610F" opacity="0.5"/><circle cx="1134" cy="318" r="7.8" fill="#B4610F" opacity="0.5"/><circle cx="1182" cy="318" r="8.4" fill="#B4610F" opacity="0.5"/><circle cx="30" cy="366" r="4.6" fill="#B4610F" opacity="0.5"/><circle cx="78" cy="366" r="3.6" fill="#B4610F" opacity="0.5"/><circle cx="126" cy="366" r="4.7" fill="#B4610F" opacity="0.5"/><circle cx="174" cy="366" r="5.6" fill="#B4610F" opacity="0.5"/><circle cx="222" cy="366" r="6.6" fill="#B4610F" opacity="0.5"/><circle cx="270" cy="366" r="7.4" fill="#B4610F" opacity="0.5"/><circle cx="318" cy="366" r="8.0" fill="#B4610F" opacity="0.5"/><circle cx="366" cy="366" r="8.5" fill="#B4610F" opacity="0.5"/><circle cx="414" cy="366" r="8.9" fill="#B4610F" opacity="0.5"/><circle cx="462" cy="366" r="9.0" fill="#B4610F" opacity="0.5"/><circle cx="510" cy="366" r="8.9" fill="#B4610F" opacity="0.5"/><circle cx="558" cy="366" r="8.7" fill="#B4610F" opacity="0.5"/><circle cx="606" cy="366" r="8.2" fill="#B4610F" opacity="0.5"/><circle cx="654" cy="366" r="7.6" fill="#B4610F" opacity="0.5"/><circle cx="702" cy="366" r="6.8" fill="#B4610F" opacity="0.5"/><circle cx="750" cy="366" r="5.9" fill="#B4610F" opacity="0.5"/><circle cx="798" cy="366" r="5.0" fill="#B4610F" opacity="0.5"/><circle cx="846" cy="366" r="4.0" fill="#B4610F" opacity="0.5"/><circle cx="894" cy="366" r="4.3" fill="#B4610F" opacity="0.5"/><circle cx="942" cy="366" r="5.3" fill="#B4610F" opacity="0.5"/><circle cx="990" cy="366" r="6.2" fill="#B4610F" opacity="0.5"/><circle cx="1038" cy="366" r="7.1" fill="#B4610F" opacity="0.5"/><circle cx="1086" cy="366" r="7.8" fill="#B4610F" opacity="0.5"/><circle cx="1134" cy="366" r="8.4" fill="#B4610F" opacity="0.5"/><circle cx="1182" cy="366" r="8.8" fill="#B4610F" opacity="0.5"/><circle cx="30" cy="414" r="3.6" fill="#B4610F" opacity="0.5"/><circle cx="78" cy="414" r="4.7" fill="#B4610F" opacity="0.5"/><circle cx="126" cy="414" r="5.6" fill="#B4610F" opacity="0.5"/><circle cx="174" cy="414" r="6.6" fill="#B4610F" opacity="0.5"/><circle cx="222" cy="414" r="7.4" fill="#B4610F" opacity="0.5"/><circle cx="270" cy="414" r="8.0" fill="#B4610F" opacity="0.5"/><circle cx="318" cy="414" r="8.5" fill="#B4610F" opacity="0.5"/><circle cx="366" cy="414" r="8.9" fill="#B4610F" opacity="0.5"/><circle cx="414" cy="414" r="9.0" fill="#B4610F" opacity="0.5"/><circle cx="462" cy="414" r="8.9" fill="#B4610F" opacity="0.5"/><circle cx="510" cy="414" r="8.7" fill="#B4610F" opacity="0.5"/><circle cx="558" cy="414" r="8.2" fill="#B4610F" opacity="0.5"/><circle cx="606" cy="414" r="7.6" fill="#B4610F" opacity="0.5"/><circle cx="654" cy="414" r="6.8" fill="#B4610F" opacity="0.5"/><circle cx="702" cy="414" r="5.9" fill="#B4610F" opacity="0.5"/><circle cx="750" cy="414" r="5.0" fill="#B4610F" opacity="0.5"/><circle cx="798" cy="414" r="4.0" fill="#B4610F" opacity="0.5"/><circle cx="846" cy="414" r="4.3" fill="#B4610F" opacity="0.5"/><circle cx="894" cy="414" r="5.3" fill="#B4610F" opacity="0.5"/><circle cx="942" cy="414" r="6.2" fill="#B4610F" opacity="0.5"/><circle cx="990" cy="414" r="7.1" fill="#B4610F" opacity="0.5"/><circle cx="1038" cy="414" r="7.8" fill="#B4610F" opacity="0.5"/><circle cx="1086" cy="414" r="8.4" fill="#B4610F" opacity="0.5"/><circle cx="1134" cy="414" r="8.8" fill="#B4610F" opacity="0.5"/><circle cx="1182" cy="414" r="9.0" fill="#B4610F" opacity="0.5"/><circle cx="30" cy="462" r="4.7" fill="#B4610F" opacity="0.5"/><circle cx="78" cy="462" r="5.6" fill="#B4610F" opacity="0.5"/><circle cx="126" cy="462" r="6.6" fill="#B4610F" opacity="0.5"/><circle cx="174" cy="462" r="7.4" fill="#B4610F" opacity="0.5"/><circle cx="222" cy="462" r="8.0" fill="#B4610F" opacity="0.5"/><circle cx="270" cy="462" r="8.5" fill="#B4610F" opacity="0.5"/><circle cx="318" cy="462" r="8.9" fill="#B4610F" opacity="0.5"/><circle cx="366" cy="462" r="9.0" fill="#B4610F" opacity="0.5"/><circle cx="414" cy="462" r="8.9" fill="#B4610F" opacity="0.5"/><circle cx="462" cy="462" r="8.7" fill="#B4610F" opacity="0.5"/><circle cx="510" cy="462" r="8.2" fill="#B4610F" opacity="0.5"/><circle cx="558" cy="462" r="7.6" fill="#B4610F" opacity="0.5"/><circle cx="606" cy="462" r="6.8" fill="#B4610F" opacity="0.5"/><circle cx="654" cy="462" r="5.9" fill="#B4610F" opacity="0.5"/><circle cx="702" cy="462" r="5.0" fill="#B4610F" opacity="0.5"/><circle cx="750" cy="462" r="4.0" fill="#B4610F" opacity="0.5"/><circle cx="798" cy="462" r="4.3" fill="#B4610F" opacity="0.5"/><circle cx="846" cy="462" r="5.3" fill="#B4610F" opacity="0.5"/><circle cx="894" cy="462" r="6.2" fill="#B4610F" opacity="0.5"/><circle cx="942" cy="462" r="7.1" fill="#B4610F" opacity="0.5"/><circle cx="990" cy="462" r="7.8" fill="#B4610F" opacity="0.5"/><circle cx="1038" cy="462" r="8.4" fill="#B4610F" opacity="0.5"/><circle cx="1086" cy="462" r="8.8" fill="#B4610F" opacity="0.5"/><circle cx="1134" cy="462" r="9.0" fill="#B4610F" opacity="0.5"/><circle cx="1182" cy="462" r="9.0" fill="#B4610F" opacity="0.5"/><circle cx="30" cy="510" r="5.6" fill="#B4610F" opacity="0.5"/><circle cx="78" cy="510" r="6.6" fill="#B4610F" opacity="0.5"/><circle cx="126" cy="510" r="7.4" fill="#B4610F" opacity="0.5"/><circle cx="174" cy="510" r="8.0" fill="#B4610F" opacity="0.5"/><circle cx="222" cy="510" r="8.5" fill="#B4610F" opacity="0.5"/><circle cx="270" cy="510" r="8.9" fill="#B4610F" opacity="0.5"/><circle cx="318" cy="510" r="9.0" fill="#B4610F" opacity="0.5"/><circle cx="366" cy="510" r="8.9" fill="#B4610F" opacity="0.5"/><circle cx="414" cy="510" r="8.7" fill="#B4610F" opacity="0.5"/><circle cx="462" cy="510" r="8.2" fill="#B4610F" opacity="0.5"/><circle cx="510" cy="510" r="7.6" fill="#B4610F" opacity="0.5"/><circle cx="558" cy="510" r="6.8" fill="#B4610F" opacity="0.5"/><circle cx="606" cy="510" r="5.9" fill="#B4610F" opacity="0.5"/><circle cx="654" cy="510" r="5.0" fill="#B4610F" opacity="0.5"/><circle cx="702" cy="510" r="4.0" fill="#B4610F" opacity="0.5"/><circle cx="750" cy="510" r="4.3" fill="#B4610F" opacity="0.5"/><circle cx="798" cy="510" r="5.3" fill="#B4610F" opacity="0.5"/><circle cx="846" cy="510" r="6.2" fill="#B4610F" opacity="0.5"/><circle cx="894" cy="510" r="7.1" fill="#B4610F" opacity="0.5"/><circle cx="942" cy="510" r="7.8" fill="#B4610F" opacity="0.5"/><circle cx="990" cy="510" r="8.4" fill="#B4610F" opacity="0.5"/><circle cx="1038" cy="510" r="8.8" fill="#B4610F" opacity="0.5"/><circle cx="1086" cy="510" r="9.0" fill="#B4610F" opacity="0.5"/><circle cx="1134" cy="510" r="9.0" fill="#B4610F" opacity="0.5"/><circle cx="1182" cy="510" r="8.8" fill="#B4610F" opacity="0.5"/><circle cx="30" cy="558" r="6.6" fill="#B4610F" opacity="0.5"/><circle cx="78" cy="558" r="7.4" fill="#B4610F" opacity="0.5"/><circle cx="126" cy="558" r="8.0" fill="#B4610F" opacity="0.5"/><circle cx="174" cy="558" r="8.5" fill="#B4610F" opacity="0.5"/><circle cx="222" cy="558" r="8.9" fill="#B4610F" opacity="0.5"/><circle cx="270" cy="558" r="9.0" fill="#B4610F" opacity="0.5"/><circle cx="318" cy="558" r="8.9" fill="#B4610F" opacity="0.5"/><circle cx="366" cy="558" r="8.7" fill="#B4610F" opacity="0.5"/><circle cx="414" cy="558" r="8.2" fill="#B4610F" opacity="0.5"/><circle cx="462" cy="558" r="7.6" fill="#B4610F" opacity="0.5"/><circle cx="510" cy="558" r="6.8" fill="#B4610F" opacity="0.5"/><circle cx="558" cy="558" r="5.9" fill="#B4610F" opacity="0.5"/><circle cx="606" cy="558" r="5.0" fill="#B4610F" opacity="0.5"/><circle cx="654" cy="558" r="4.0" fill="#B4610F" opacity="0.5"/><circle cx="702" cy="558" r="4.3" fill="#B4610F" opacity="0.5"/><circle cx="750" cy="558" r="5.3" fill="#B4610F" opacity="0.5"/><circle cx="798" cy="558" r="6.2" fill="#B4610F" opacity="0.5"/><circle cx="846" cy="558" r="7.1" fill="#B4610F" opacity="0.5"/><circle cx="894" cy="558" r="7.8" fill="#B4610F" opacity="0.5"/><circle cx="942" cy="558" r="8.4" fill="#B4610F" opacity="0.5"/><circle cx="990" cy="558" r="8.8" fill="#B4610F" opacity="0.5"/><circle cx="1038" cy="558" r="9.0" fill="#B4610F" opacity="0.5"/><circle cx="1086" cy="558" r="9.0" fill="#B4610F" opacity="0.5"/><circle cx="1134" cy="558" r="8.8" fill="#B4610F" opacity="0.5"/><circle cx="1182" cy="558" r="8.4" fill="#B4610F" opacity="0.5"/><circle cx="30" cy="606" r="7.4" fill="#B4610F" opacity="0.5"/><circle cx="78" cy="606" r="8.0" fill="#B4610F" opacity="0.5"/><circle cx="126" cy="606" r="8.5" fill="#B4610F" opacity="0.5"/><circle cx="174" cy="606" r="8.9" fill="#B4610F" opacity="0.5"/><circle cx="222" cy="606" r="9.0" fill="#B4610F" opacity="0.5"/><circle cx="270" cy="606" r="8.9" fill="#B4610F" opacity="0.5"/><circle cx="318" cy="606" r="8.7" fill="#B4610F" opacity="0.5"/><circle cx="366" cy="606" r="8.2" fill="#B4610F" opacity="0.5"/><circle cx="414" cy="606" r="7.6" fill="#B4610F" opacity="0.5"/><circle cx="462" cy="606" r="6.8" fill="#B4610F" opacity="0.5"/><circle cx="510" cy="606" r="5.9" fill="#B4610F" opacity="0.5"/><circle cx="558" cy="606" r="5.0" fill="#B4610F" opacity="0.5"/><circle cx="606" cy="606" r="4.0" fill="#B4610F" opacity="0.5"/><circle cx="654" cy="606" r="4.3" fill="#B4610F" opacity="0.5"/><circle cx="702" cy="606" r="5.3" fill="#B4610F" opacity="0.5"/><circle cx="750" cy="606" r="6.2" fill="#B4610F" opacity="0.5"/><circle cx="798" cy="606" r="7.1" fill="#B4610F" opacity="0.5"/><circle cx="846" cy="606" r="7.8" fill="#B4610F" opacity="0.5"/><circle cx="894" cy="606" r="8.4" fill="#B4610F" opacity="0.5"/><circle cx="942" cy="606" r="8.8" fill="#B4610F" opacity="0.5"/><circle cx="990" cy="606" r="9.0" fill="#B4610F" opacity="0.5"/><circle cx="1038" cy="606" r="9.0" fill="#B4610F" opacity="0.5"/><circle cx="1086" cy="606" r="8.8" fill="#B4610F" opacity="0.5"/><circle cx="1134" cy="606" r="8.4" fill="#B4610F" opacity="0.5"/><circle cx="1182" cy="606" r="7.8" fill="#B4610F" opacity="0.5"/><rect width="1200" height="630" fill="url(#vig)"/><text x="44" y="590" font-family="ui-monospace,Menlo,Consolas,monospace" font-size="24" letter-spacing="3" fill="#ffffff" fill-opacity="0.62">TRADES WEBSITES · ROMFORD</text></svg>