<svg xmlns="http://www.w3.org/2000/svg" viewBox="0 0 1200 630" width="1200" height="630" role="img" aria-label="HOW-TO GUIDE"><defs><linearGradient id="g30b5bb" x1="1" y1="0" x2="0" y2="1"><stop offset="0" stop-color="#3A5BD9"/><stop offset="1" stop-color="#1a2c6e"/></linearGradient><filter id="blur"><feGaussianBlur stdDeviation="55"/></filter><radialGradient id="vig" cx="0.5" cy="0.4" r="0.75"><stop offset="0.6" stop-color="#000000" stop-opacity="0"/><stop offset="1" stop-color="#000000" stop-opacity="0.32"/></radialGradient></defs><rect width="1200" height="630" fill="url(#g30b5bb)"/><rect x="-300" y="-200" width="105" height="1030" fill="#3A5BD9" opacity="0.28" transform="rotate(-30 600 315)"/><rect x="-147" y="-200" width="68" height="1030" fill="#3A5BD9" opacity="0.2" transform="rotate(-30 600 315)"/><rect x="-19" y="-200" width="73" height="1030" fill="#26409e" opacity="0.3" transform="rotate(-30 600 315)"/><rect x="121" y="-200" width="121" height="1030" fill="#26409e" opacity="0.32" transform="rotate(-30 600 315)"/><rect x="320" y="-200" width="126" height="1030" fill="#ffffff" opacity="0.18" transform="rotate(-30 600 315)"/><rect x="520" y="-200" width="124" height="1030" fill="#ffffff" opacity="0.36" transform="rotate(-30 600 315)"/><rect x="733" y="-200" width="60" height="1030" fill="#3A5BD9" opacity="0.15" transform="rotate(-30 600 315)"/><rect x="872" y="-200" width="80" height="1030" fill="#26409e" opacity="0.16" transform="rotate(-30 600 315)"/><rect x="1034" y="-200" width="60" height="1030" fill="#26409e" opacity="0.26" transform="rotate(-30 600 315)"/><rect x="1179" y="-200" width="59" height="1030" fill="#3A5BD9" opacity="0.29" transform="rotate(-30 600 315)"/><rect x="1282" y="-200" width="73" height="1030" fill="#26409e" opacity="0.18" transform="rotate(-30 600 315)"/><rect x="1432" y="-200" width="58" height="1030" fill="#3A5BD9" opacity="0.25" transform="rotate(-30 600 315)"/><rect width="1200" height="630" fill="url(#vig)"/><text x="44" y="590" font-family="ui-monospace,Menlo,Consolas,monospace" font-size="24" letter-spacing="3" fill="#ffffff" fill-opacity="0.62">HOW-TO GUIDE</text></svg>