<svg xmlns="http://www.w3.org/2000/svg" viewBox="0 0 1200 630" width="1200" height="630" role="img" aria-label="INDUSTRY GUIDE"><defs><linearGradient id="g54aae1" x1="0.2" y1="0" x2="0.8" y2="1"><stop offset="0" stop-color="#D6478E"/><stop offset="1" stop-color="#702047"/></linearGradient><filter id="blur"><feGaussianBlur stdDeviation="55"/></filter><radialGradient id="vig" cx="0.5" cy="0.4" r="0.75"><stop offset="0.6" stop-color="#000000" stop-opacity="0"/><stop offset="1" stop-color="#000000" stop-opacity="0.32"/></radialGradient></defs><rect width="1200" height="630" fill="url(#g54aae1)"/><polygon points="701,576 304,617 444,290" fill="#a12f66" opacity="0.25"/><polygon points="563,423 563,423 385,417" fill="#a12f66" opacity="0.22"/><polygon points="563,423 1047,413 385,417" fill="#a12f66" opacity="0.14"/><polygon points="444,290 304,617 563,423" fill="#D6478E" opacity="0.2"/><polygon points="1030,169 385,417 563,423" fill="#ffffff" opacity="0.31"/><polygon points="32,366 1030,169 32,366" fill="#a12f66" opacity="0.16"/><polygon points="444,290 232,280 914,17" fill="#ffffff" opacity="0.15"/><polygon points="1030,169 385,417 232,280" fill="#D6478E" opacity="0.28"/><polygon points="701,576 385,417 385,417" fill="#ffffff" opacity="0.13"/><polygon points="1030,169 444,290 232,280" fill="#ffffff" opacity="0.25"/><polygon points="232,280 701,576 32,366" fill="#D6478E" opacity="0.16"/><rect width="1200" height="630" fill="url(#vig)"/><text x="44" y="590" font-family="ui-monospace,Menlo,Consolas,monospace" font-size="24" letter-spacing="3" fill="#ffffff" fill-opacity="0.62">INDUSTRY GUIDE</text></svg>