<svg xmlns="http://www.w3.org/2000/svg" viewBox="0 0 1200 630" width="1200" height="630" role="img" aria-label="SEO GUIDE"><defs><linearGradient id="g94bf9a" x1="0" y1="0" x2="1" y2="0"><stop offset="0" stop-color="#2E7D5B"/><stop offset="1" stop-color="#133b2c"/></linearGradient><filter id="blur"><feGaussianBlur stdDeviation="55"/></filter><radialGradient id="vig" cx="0.5" cy="0.4" r="0.75"><stop offset="0.6" stop-color="#000000" stop-opacity="0"/><stop offset="1" stop-color="#000000" stop-opacity="0.32"/></radialGradient></defs><rect width="1200" height="630" fill="url(#g94bf9a)"/><rect x="-300" y="-200" width="51" height="1030" fill="#C64B3B" opacity="0.35" transform="rotate(-30 600 315)"/><rect x="-173" y="-200" width="112" height="1030" fill="#C64B3B" opacity="0.17" transform="rotate(-30 600 315)"/><rect x="-11" y="-200" width="55" height="1030" fill="#1c5540" opacity="0.27" transform="rotate(-30 600 315)"/><rect x="83" y="-200" width="54" height="1030" fill="#C64B3B" opacity="0.35" transform="rotate(-30 600 315)"/><rect x="178" y="-200" width="103" height="1030" fill="#ffffff" opacity="0.26" transform="rotate(-30 600 315)"/><rect x="342" y="-200" width="111" height="1030" fill="#2E7D5B" opacity="0.3" transform="rotate(-30 600 315)"/><rect x="503" y="-200" width="123" height="1030" fill="#1c5540" opacity="0.17" transform="rotate(-30 600 315)"/><rect x="682" y="-200" width="78" height="1030" fill="#C64B3B" opacity="0.34" transform="rotate(-30 600 315)"/><rect x="842" y="-200" width="93" height="1030" fill="#2E7D5B" opacity="0.34" transform="rotate(-30 600 315)"/><rect x="1008" y="-200" width="120" height="1030" fill="#ffffff" opacity="0.35" transform="rotate(-30 600 315)"/><rect x="1212" y="-200" width="129" height="1030" fill="#ffffff" opacity="0.22" transform="rotate(-30 600 315)"/><rect x="1408" y="-200" width="53" height="1030" fill="#2E7D5B" opacity="0.17" transform="rotate(-30 600 315)"/><rect width="1200" height="630" fill="url(#vig)"/><text x="44" y="590" font-family="ui-monospace,Menlo,Consolas,monospace" font-size="24" letter-spacing="3" fill="#ffffff" fill-opacity="0.62">SEO GUIDE</text></svg>