<svg xmlns="http://www.w3.org/2000/svg" viewBox="0 0 1200 630" width="1200" height="630" role="img" aria-label="2026 TRENDS"><defs><linearGradient id="g0db1a1" x1="0.2" y1="0" x2="0.8" y2="1"><stop offset="0" stop-color="#B7472A"/><stop offset="1" stop-color="#642516"/></linearGradient><filter id="blur"><feGaussianBlur stdDeviation="55"/></filter><radialGradient id="vig" cx="0.5" cy="0.4" r="0.75"><stop offset="0.6" stop-color="#000000" stop-opacity="0"/><stop offset="1" stop-color="#000000" stop-opacity="0.32"/></radialGradient></defs><rect width="1200" height="630" fill="url(#g0db1a1)"/><rect x="-300" y="-200" width="127" height="1030" fill="#B7472A" opacity="0.13" transform="rotate(-20 600 315)"/><rect x="-117" y="-200" width="68" height="1030" fill="#B7472A" opacity="0.25" transform="rotate(-20 600 315)"/><rect x="28" y="-200" width="99" height="1030" fill="#ffffff" opacity="0.21" transform="rotate(-20 600 315)"/><rect x="192" y="-200" width="65" height="1030" fill="#E5892B" opacity="0.14" transform="rotate(-20 600 315)"/><rect x="293" y="-200" width="77" height="1030" fill="#8f3520" opacity="0.15" transform="rotate(-20 600 315)"/><rect x="459" y="-200" width="75" height="1030" fill="#8f3520" opacity="0.32" transform="rotate(-20 600 315)"/><rect x="572" y="-200" width="86" height="1030" fill="#8f3520" opacity="0.35" transform="rotate(-20 600 315)"/><rect x="732" y="-200" width="92" height="1030" fill="#B7472A" opacity="0.14" transform="rotate(-20 600 315)"/><rect x="910" y="-200" width="98" height="1030" fill="#B7472A" opacity="0.18" transform="rotate(-20 600 315)"/><rect x="1073" y="-200" width="53" height="1030" fill="#E5892B" opacity="0.35" transform="rotate(-20 600 315)"/><rect x="1190" y="-200" width="123" height="1030" fill="#8f3520" opacity="0.29" transform="rotate(-20 600 315)"/><rect x="1369" y="-200" width="83" height="1030" fill="#B7472A" opacity="0.23" transform="rotate(-20 600 315)"/><rect width="1200" height="630" fill="url(#vig)"/><text x="44" y="590" font-family="ui-monospace,Menlo,Consolas,monospace" font-size="24" letter-spacing="3" fill="#ffffff" fill-opacity="0.62">2026 TRENDS</text></svg>