<svg xmlns="http://www.w3.org/2000/svg" viewBox="0 0 480 500" width="480" height="500" font-family="'Work Sans',system-ui,sans-serif">
  <defs>
    <linearGradient id="bg" x1="0" y1="0" x2="0" y2="1"><stop offset="0" stop-color="#f4f0e6"/><stop offset="1" stop-color="#ede7d8"/></linearGradient>
    <linearGradient id="scr" x1="0" y1="0" x2="1" y2="1"><stop offset="0" stop-color="#232d3b"/><stop offset="1" stop-color="#1c2630"/></linearGradient>
    <filter id="sh" x="-30%" y="-30%" width="160%" height="160%"><feDropShadow dx="0" dy="11" stdDeviation="15" flood-color="#191712" flood-opacity="0.15"/></filter>
    <filter id="sh2" x="-40%" y="-40%" width="180%" height="180%"><feDropShadow dx="0" dy="6" stdDeviation="9" flood-color="#191712" flood-opacity="0.14"/></filter>
    <clipPath id="r"><rect width="480" height="500" rx="16"/></clipPath>
  </defs>

  <g clip-path="url(#r)">
    <rect width="480" height="500" fill="url(#bg)"/>
    <g fill="#8a8578" opacity="0.10">
      <circle cx="30" cy="30" r="1.6"/><circle cx="30" cy="72" r="1.6"/><circle cx="30" cy="114" r="1.6"/><circle cx="30" cy="156" r="1.6"/><circle cx="30" cy="198" r="1.6"/><circle cx="30" cy="240" r="1.6"/><circle cx="30" cy="282" r="1.6"/><circle cx="30" cy="324" r="1.6"/><circle cx="30" cy="366" r="1.6"/><circle cx="30" cy="408" r="1.6"/><circle cx="30" cy="450" r="1.6"/><circle cx="30" cy="492" r="1.6"/><circle cx="72" cy="30" r="1.6"/><circle cx="72" cy="72" r="1.6"/><circle cx="72" cy="114" r="1.6"/><circle cx="72" cy="156" r="1.6"/><circle cx="72" cy="198" r="1.6"/><circle cx="72" cy="240" r="1.6"/><circle cx="72" cy="282" r="1.6"/><circle cx="72" cy="324" r="1.6"/><circle cx="72" cy="366" r="1.6"/><circle cx="72" cy="408" r="1.6"/><circle cx="72" cy="450" r="1.6"/><circle cx="72" cy="492" r="1.6"/><circle cx="114" cy="30" r="1.6"/><circle cx="114" cy="72" r="1.6"/><circle cx="114" cy="114" r="1.6"/><circle cx="114" cy="156" r="1.6"/><circle cx="114" cy="198" r="1.6"/><circle cx="114" cy="240" r="1.6"/><circle cx="114" cy="282" r="1.6"/><circle cx="114" cy="324" r="1.6"/><circle cx="114" cy="366" r="1.6"/><circle cx="114" cy="408" r="1.6"/><circle cx="114" cy="450" r="1.6"/><circle cx="114" cy="492" r="1.6"/><circle cx="156" cy="30" r="1.6"/><circle cx="156" cy="72" r="1.6"/><circle cx="156" cy="114" r="1.6"/><circle cx="156" cy="156" r="1.6"/><circle cx="156" cy="198" r="1.6"/><circle cx="156" cy="240" r="1.6"/><circle cx="156" cy="282" r="1.6"/><circle cx="156" cy="324" r="1.6"/><circle cx="156" cy="366" r="1.6"/><circle cx="156" cy="408" r="1.6"/><circle cx="156" cy="450" r="1.6"/><circle cx="156" cy="492" r="1.6"/><circle cx="198" cy="30" r="1.6"/><circle cx="198" cy="72" r="1.6"/><circle cx="198" cy="114" r="1.6"/><circle cx="198" cy="156" r="1.6"/><circle cx="198" cy="198" r="1.6"/><circle cx="198" cy="240" r="1.6"/><circle cx="198" cy="282" r="1.6"/><circle cx="198" cy="324" r="1.6"/><circle cx="198" cy="366" r="1.6"/><circle cx="198" cy="408" r="1.6"/><circle cx="198" cy="450" r="1.6"/><circle cx="198" cy="492" r="1.6"/><circle cx="240" cy="30" r="1.6"/><circle cx="240" cy="72" r="1.6"/><circle cx="240" cy="114" r="1.6"/><circle cx="240" cy="156" r="1.6"/><circle cx="240" cy="198" r="1.6"/><circle cx="240" cy="240" r="1.6"/><circle cx="240" cy="282" r="1.6"/><circle cx="240" cy="324" r="1.6"/><circle cx="240" cy="366" r="1.6"/><circle cx="240" cy="408" r="1.6"/><circle cx="240" cy="450" r="1.6"/><circle cx="240" cy="492" r="1.6"/><circle cx="282" cy="30" r="1.6"/><circle cx="282" cy="72" r="1.6"/><circle cx="282" cy="114" r="1.6"/><circle cx="282" cy="156" r="1.6"/><circle cx="282" cy="198" r="1.6"/><circle cx="282" cy="240" r="1.6"/><circle cx="282" cy="282" r="1.6"/><circle cx="282" cy="324" r="1.6"/><circle cx="282" cy="366" r="1.6"/><circle cx="282" cy="408" r="1.6"/><circle cx="282" cy="450" r="1.6"/><circle cx="282" cy="492" r="1.6"/><circle cx="324" cy="30" r="1.6"/><circle cx="324" cy="72" r="1.6"/><circle cx="324" cy="114" r="1.6"/><circle cx="324" cy="156" r="1.6"/><circle cx="324" cy="198" r="1.6"/><circle cx="324" cy="240" r="1.6"/><circle cx="324" cy="282" r="1.6"/><circle cx="324" cy="324" r="1.6"/><circle cx="324" cy="366" r="1.6"/><circle cx="324" cy="408" r="1.6"/><circle cx="324" cy="450" r="1.6"/><circle cx="324" cy="492" r="1.6"/><circle cx="366" cy="30" r="1.6"/><circle cx="366" cy="72" r="1.6"/><circle cx="366" cy="114" r="1.6"/><circle cx="366" cy="156" r="1.6"/><circle cx="366" cy="198" r="1.6"/><circle cx="366" cy="240" r="1.6"/><circle cx="366" cy="282" r="1.6"/><circle cx="366" cy="324" r="1.6"/><circle cx="366" cy="366" r="1.6"/><circle cx="366" cy="408" r="1.6"/><circle cx="366" cy="450" r="1.6"/><circle cx="366" cy="492" r="1.6"/><circle cx="408" cy="30" r="1.6"/><circle cx="408" cy="72" r="1.6"/><circle cx="408" cy="114" r="1.6"/><circle cx="408" cy="156" r="1.6"/><circle cx="408" cy="198" r="1.6"/><circle cx="408" cy="240" r="1.6"/><circle cx="408" cy="282" r="1.6"/><circle cx="408" cy="324" r="1.6"/><circle cx="408" cy="366" r="1.6"/><circle cx="408" cy="408" r="1.6"/><circle cx="408" cy="450" r="1.6"/><circle cx="408" cy="492" r="1.6"/><circle cx="450" cy="30" r="1.6"/><circle cx="450" cy="72" r="1.6"/><circle cx="450" cy="114" r="1.6"/><circle cx="450" cy="156" r="1.6"/><circle cx="450" cy="198" r="1.6"/><circle cx="450" cy="240" r="1.6"/><circle cx="450" cy="282" r="1.6"/><circle cx="450" cy="324" r="1.6"/><circle cx="450" cy="366" r="1.6"/><circle cx="450" cy="408" r="1.6"/><circle cx="450" cy="450" r="1.6"/><circle cx="450" cy="492" r="1.6"/>
    </g>

    <circle cx="418" cy="72" r="60" fill="none" stroke="#b7472a" stroke-width="2.5" opacity="0.30"/>
    <circle cx="418" cy="72" r="38" fill="none" stroke="#b7472a" stroke-width="2.5" opacity="0.22"/>

    <!-- floating website blocks top -->
    <g filter="url(#sh2)"><rect x="46" y="46" width="86" height="24" rx="7" fill="#fbf9f3"/><rect x="58" y="55" width="48" height="6.5" rx="3.2" fill="#b7472a"/></g>
    <g filter="url(#sh2)"><rect x="170" y="34" width="76" height="24" rx="7" fill="#fbf9f3"/><rect x="182" y="43" width="42" height="6.5" rx="3.2" fill="#1c2630"/></g>
    <path d="M90 70 C 95 108, 135 116, 170 148" fill="none" stroke="#8a8578" stroke-width="1.6" stroke-dasharray="4 5" opacity="0.6"/>
    <path d="M208 58 C 212 104, 224 120, 232 148" fill="none" stroke="#8a8578" stroke-width="1.6" stroke-dasharray="4 5" opacity="0.6"/>

    <!-- MONITOR -->
    <g filter="url(#sh)">
      <rect x="80" y="114" width="270" height="186" rx="11" fill="#1c2630"/>
      <rect x="88" y="122" width="254" height="170" rx="6" fill="#fbf9f3"/>
      <rect x="88" y="122" width="254" height="27" rx="6" fill="#ede7d8"/>
      <circle cx="103" cy="135" r="3.7" fill="#b7472a"/><circle cx="115" cy="135" r="3.7" fill="#d6b24a"/><circle cx="127" cy="135" r="3.7" fill="#7a9a6d"/>
      <rect x="144" y="129" width="180" height="12" rx="6" fill="#fbf9f3"/>
      <rect x="104" y="166" width="62" height="8" rx="4" fill="#b7472a"/>
      <rect x="104" y="183" width="138" height="12" rx="4" fill="#191712"/>
      <rect x="104" y="204" width="100" height="12" rx="4" fill="#191712"/>
      <rect x="104" y="228" width="78" height="22" rx="11" fill="#b7472a"/>
      <rect x="256" y="166" width="74" height="84" rx="7" fill="none" stroke="#8a8578" stroke-width="1.6" stroke-dasharray="5 5"/>
      <rect x="104" y="262" width="66" height="18" rx="5" fill="none" stroke="#8a8578" stroke-width="1.6" stroke-dasharray="5 5"/>
      <rect x="180" y="262" width="66" height="18" rx="5" fill="none" stroke="#8a8578" stroke-width="1.6" stroke-dasharray="5 5"/>
      <rect x="256" y="262" width="74" height="18" rx="5" fill="none" stroke="#8a8578" stroke-width="1.6" stroke-dasharray="5 5"/>
    </g>
    <rect x="205" y="300" width="18" height="15" fill="#1c2630"/>
    <rect x="182" y="315" width="64" height="6" rx="3" fill="#1c2630"/>

    <!-- code panel -->
    <g filter="url(#sh2)">
      <rect x="330" y="176" width="132" height="108" rx="10" fill="url(#scr)"/>
      <rect x="330" y="176" width="132" height="22" rx="10" fill="#2b3646"/>
      <rect x="330" y="190" width="132" height="8" fill="#2b3646"/>
      <circle cx="343" cy="187" r="3.2" fill="#b7472a"/><circle cx="354" cy="187" r="3.2" fill="#d6b24a"/><circle cx="365" cy="187" r="3.2" fill="#7a9a6d"/>
      <g font-family="'IBM Plex Mono',monospace" font-size="8.5">
        <text x="341" y="216" fill="#7a9a6d">&lt;div</text><text x="364" y="216" fill="#d6b24a"> class</text><text x="390" y="216" fill="#c9c4b8">="hero"&gt;</text>
        <text x="348" y="232" fill="#c9c4b8">build()</text>
        <text x="348" y="247" fill="#b7472a">ship()</text>
        <text x="341" y="263" fill="#6b7686">// solo, start</text>
        <text x="341" y="276" fill="#6b7686">// to finish</text>
      </g>
    </g>

    <!-- DESK -->
    <g filter="url(#sh)"><rect x="34" y="366" width="412" height="18" rx="5" fill="#b98a5e"/></g>
    <rect x="34" y="384" width="412" height="4" fill="#00000018"/>

    <!-- SOLO DEVELOPER -->
    <rect x="184" y="402" width="82" height="92" rx="15" fill="#1c2630" opacity="0.9"/>
    <path d="M186 494 q0 -68 39 -68 q39 0 39 68 Z" fill="#b7472a"/>
    <circle cx="225" cy="404" r="26" fill="#e8b48c"/>
    <path d="M200 400 q4 -28 25 -28 q21 0 25 28 q-9 -13 -25 -13 q-16 0 -25 13Z" fill="#191712"/>
    <path d="M197 450 q-13 7 -17 18" stroke="#b7472a" stroke-width="11" fill="none" stroke-linecap="round"/>
    <path d="M253 450 q13 7 17 18" stroke="#b7472a" stroke-width="11" fill="none" stroke-linecap="round"/>

    <!-- keyboard -->
    <g filter="url(#sh2)"><rect x="164" y="364" width="122" height="16" rx="4" fill="#fbf9f3"/></g>
    <g fill="#ede7d8">
      <rect x="172.0" y="367" width="7.5" height="4" rx="1.3"/><rect x="182.6" y="367" width="7.5" height="4" rx="1.3"/><rect x="193.2" y="367" width="7.5" height="4" rx="1.3"/><rect x="203.8" y="367" width="7.5" height="4" rx="1.3"/><rect x="214.4" y="367" width="7.5" height="4" rx="1.3"/><rect x="225.0" y="367" width="7.5" height="4" rx="1.3"/><rect x="235.6" y="367" width="7.5" height="4" rx="1.3"/><rect x="246.2" y="367" width="7.5" height="4" rx="1.3"/><rect x="256.8" y="367" width="7.5" height="4" rx="1.3"/><rect x="267.4" y="367" width="7.5" height="4" rx="1.3"/>
      <rect x="177.0" y="373" width="7.5" height="4" rx="1.3"/><rect x="187.6" y="373" width="7.5" height="4" rx="1.3"/><rect x="198.2" y="373" width="7.5" height="4" rx="1.3"/><rect x="208.8" y="373" width="7.5" height="4" rx="1.3"/><rect x="219.4" y="373" width="7.5" height="4" rx="1.3"/><rect x="230.0" y="373" width="7.5" height="4" rx="1.3"/><rect x="240.6" y="373" width="7.5" height="4" rx="1.3"/><rect x="251.2" y="373" width="7.5" height="4" rx="1.3"/><rect x="261.8" y="373" width="7.5" height="4" rx="1.3"/>
    </g>

    <!-- coffee mug -->
    <g filter="url(#sh2)">
      <rect x="362" y="342" width="30" height="24" rx="5" fill="#b7472a"/>
      <path d="M392 347 q12 2 12 9 q0 7 -12 9" fill="none" stroke="#b7472a" stroke-width="3.5"/>
    </g>
    <path d="M371 338 q-2 -6 2 -11 M379 338 q-2 -6 2 -11" stroke="#8a8578" stroke-width="2" fill="none" stroke-linecap="round" opacity="0.6"/>

    <!-- plant -->
    <path d="M68 366 q-4 -20 -12 -26 M68 366 q0 -24 0 -32 M68 366 q4 -20 12 -26" stroke="#7a9a6d" stroke-width="4" fill="none" stroke-linecap="round"/>
    <path d="M58 366 h20 l-3 -16 h-14 z" fill="#1c2630"/>

    <!-- wordmark -->
    <g transform="translate(34,458)">
      <circle cx="11" cy="11" r="11" fill="#191712"/>
      <circle cx="11" cy="11" r="6.2" fill="none" stroke="#f4f0e6" stroke-width="2"/>
      <text x="31" y="17" font-size="15" fill="#191712" font-family="'Instrument Serif',Georgia,serif">Nexus LabSystems</text>
    </g>
  </g>
</svg>